<svg xmlns="http://www.w3.org/2000/svg" viewBox="0 0 399.42 322.79"><g id="Layer_2" data-name="Layer 2"><g id="Layer_1-2" data-name="Layer 1"><g id="Layer_2-2" data-name="Layer 2"><g id="Layer_1-2-2" data-name="Layer 1-2"><path d="M43.62,70a3.68,3.68,0,1,1,3.68-3.68A3.68,3.68,0,0,1,43.62,70Z" style="fill:#122129"/><path d="M43.62,88.62a3.69,3.69,0,1,1,3.68-3.7h0A3.69,3.69,0,0,1,43.62,88.62Z" style="fill:#122129"/><path d="M43.62,107.25a3.69,3.69,0,1,1,3.68-3.7v0a3.68,3.68,0,0,1-3.68,3.68Z" style="fill:#122129"/><path d="M43.62,125.88a3.68,3.68,0,1,1,3.68-3.68,3.68,3.68,0,0,1-3.68,3.68Z" style="fill:#122129"/><path d="M43.62,144.51a3.68,3.68,0,1,1,3.68-3.68h0A3.68,3.68,0,0,1,43.62,144.51Z" style="fill:#122129"/><circle cx="241.29" cy="293.71" r="3.68" style="fill:#f7bd1f"/><path d="M263.6,293.71a3.68,3.68,0,1,1-3.68-3.68h0A3.68,3.68,0,0,1,263.6,293.71Z" style="fill:#f7bd1f"/><path d="M282.24,293.71a3.69,3.69,0,1,1-3.7-3.68h0A3.7,3.7,0,0,1,282.24,293.71Z" style="fill:#f7bd1f"/><circle cx="297.19" cy="293.71" r="3.68" style="fill:#f7bd1f"/><path d="M319.5,293.71a3.68,3.68,0,1,1-3.68-3.68h0A3.7,3.7,0,0,1,319.5,293.71Z" style="fill:#f7bd1f"/><path d="M173,254a5.84,5.84,0,1,1-11.67.48,3.84,3.84,0,0,1,0-.48v-1.51a9.08,9.08,0,0,0-18.16,0h0V254a5.84,5.84,0,1,1-11.67.48,3.84,3.84,0,0,1,0-.48v-1.51a9.08,9.08,0,0,0-18.16,0h0V254a5.83,5.83,0,0,1-11.66,0v-1.51a9.08,9.08,0,0,0-18.16,0h0V254a5.84,5.84,0,1,1-11.67.48,3.84,3.84,0,0,1,0-.48v-.39H68.6V254a9.08,9.08,0,1,0,18.16,0h0v-1.51A5.84,5.84,0,1,1,98.43,252a3.84,3.84,0,0,1,0,.48V254a9.08,9.08,0,0,0,18.16,0v-1.51a5.84,5.84,0,1,1,11.67-.48,3.84,3.84,0,0,1,0,.48V254a9.08,9.08,0,1,0,18.16,0v-1.51a5.84,5.84,0,1,1,11.67-.48,3.84,3.84,0,0,1,0,.48V254a9.08,9.08,0,1,0,18.15.6q0-.3,0-.6Z" style="fill:#122129"/><polygon points="5.18 209.24 15.51 198.03 12.71 195.45 0 209.24 12.71 223.04 15.51 220.46 5.18 209.24" style="fill:#f7bd1f"/><polygon points="61.36 195.45 58.56 198.03 68.89 209.24 58.56 220.46 61.36 223.04 74.07 209.24 61.36 195.45" style="fill:#f7bd1f"/><rect x="16.62" y="207.34" width="40.83" height="3.81" transform="translate(-159.39 128.19) rotate(-57.54)" style="fill:#f7bd1f"/><path d="M283.41,25.15a4.41,4.41,0,0,1,1.11-4.92,25.14,25.14,0,0,0-2.32-2.18,4.24,4.24,0,0,1-4.81,1.1,4.4,4.4,0,0,1-2.69-4.32,25.77,25.77,0,0,0-3.17.11,4.17,4.17,0,0,1-2.64,4.13A4.52,4.52,0,0,1,264,18a23.16,23.16,0,0,0-2.2,2.34,4.14,4.14,0,0,1,1.09,4.81,4.53,4.53,0,0,1-4.27,2.7,18,18,0,0,0,.07,3.2,4.19,4.19,0,0,1,4.14,2.63,4.43,4.43,0,0,1-1.11,4.92A27.1,27.1,0,0,0,264,40.73a4.07,4.07,0,0,1,3.18-1.42,4.16,4.16,0,0,1,1.63.32,4.42,4.42,0,0,1,2.7,4.31c.46,0,1,0,1.57,0a14.3,14.3,0,0,0,1.6-.09,4.15,4.15,0,0,1,2.63-4.13,4.58,4.58,0,0,1,4.93,1.12,24.35,24.35,0,0,0,2.2-2.34,4.14,4.14,0,0,1-1.1-4.81,4.46,4.46,0,0,1,4.07-2.7h.22a20.85,20.85,0,0,0-.07-3.06A4.57,4.57,0,0,1,283.41,25.15ZM273.13,35.57a6.15,6.15,0,1,1,6.14-6.16h0A6.16,6.16,0,0,1,273.13,35.57Z" style="fill:#f7bd1f"/><path d="M181.44,304a4.43,4.43,0,0,1,1.11-4.92,26.58,26.58,0,0,0-2.32-2.18,4.24,4.24,0,0,1-4.81,1.11,4.4,4.4,0,0,1-2.69-4.32,26,26,0,0,0-3.18.11,4.16,4.16,0,0,1-2.63,4.13A4.52,4.52,0,0,1,162,296.8a23.06,23.06,0,0,0-2.2,2.33,4.15,4.15,0,0,1,1.09,4.82,4.54,4.54,0,0,1-4.27,2.69,18.13,18.13,0,0,0,.07,3.21,4.19,4.19,0,0,1,4.14,2.63,4.43,4.43,0,0,1-1.11,4.92,23.71,23.71,0,0,0,2.31,2.17,4.27,4.27,0,0,1,4.81-1.1,4.43,4.43,0,0,1,2.7,4.32h1.57a14.3,14.3,0,0,0,1.6-.09,4.15,4.15,0,0,1,2.63-4.13,4.58,4.58,0,0,1,4.93,1.12,25.48,25.48,0,0,0,2.2-2.33,4.16,4.16,0,0,1-1.1-4.82,4.46,4.46,0,0,1,4.07-2.7h.22a21,21,0,0,0-.07-3.07A4.51,4.51,0,0,1,181.44,304Zm-10.28,10.42a6.15,6.15,0,1,1,6.14-6.16v0a6.15,6.15,0,0,1-6.12,6.18h0Z" style="fill:#122129"/><path d="M134.74,39.61a3.83,3.83,0,0,1-1.38-.25,3.4,3.4,0,0,1-1.17-.73,2.65,2.65,0,0,1-.71-1.12l.84-.36a1.71,1.71,0,0,0,.52.77,2.75,2.75,0,0,0,.88.5,2.85,2.85,0,0,0,1,.18,2.82,2.82,0,0,0,1.15-.24,2.05,2.05,0,0,0,.86-.65,1.56,1.56,0,0,0,.33-1,1.42,1.42,0,0,0-.34-1,2.59,2.59,0,0,0-.88-.58,5.53,5.53,0,0,0-1.12-.33,8,8,0,0,1-1.64-.5,2.78,2.78,0,0,1-1.08-.81,2.44,2.44,0,0,1-.42-1.51,2.69,2.69,0,0,1,.45-1.53,3.09,3.09,0,0,1,1.18-1,3.44,3.44,0,0,1,1.58-.35,3.72,3.72,0,0,1,2.55,1,2.73,2.73,0,0,1,.73,1.16l-.85.35a1.71,1.71,0,0,0-.52-.78,2.7,2.7,0,0,0-.87-.5,3.38,3.38,0,0,0-1-.17,2.6,2.6,0,0,0-1.13.23,2.39,2.39,0,0,0-.86.65,1.58,1.58,0,0,0-.33,1,1.51,1.51,0,0,0,.31,1,1.73,1.73,0,0,0,.83.52,9.8,9.8,0,0,0,1.18.32,6.51,6.51,0,0,1,1.6.52,3.19,3.19,0,0,1,1.19.93,2.35,2.35,0,0,1,.44,1.45,2.65,2.65,0,0,1-.44,1.52,3,3,0,0,1-1.19,1A3.67,3.67,0,0,1,134.74,39.61Z" style="fill:#122129"/><path d="M147.38,39.6l-1.06-1.22a4.21,4.21,0,0,1-1.28.89,3.77,3.77,0,0,1-3.23-.09,4.54,4.54,0,0,1-1.41-1.13,5.55,5.55,0,0,1-1-1.69,6.36,6.36,0,0,1,0-4.09,5.63,5.63,0,0,1,1-1.68,4.57,4.57,0,0,1,1.41-1.14,3.55,3.55,0,0,1,1.72-.41,3.51,3.51,0,0,1,1.71.41,4.57,4.57,0,0,1,1.41,1.14,5.7,5.7,0,0,1,.95,1.68,5.92,5.92,0,0,1,.34,2,6.15,6.15,0,0,1-.27,1.81,5.76,5.76,0,0,1-.74,1.54L148,38.88Zm-3.85-1a3,3,0,0,0,2.13-.92l-1.32-1.5.63-.73,1.3,1.48a4.5,4.5,0,0,0,.58-1.21,5,5,0,0,0,.2-1.38,4.89,4.89,0,0,0-.28-1.65,4.56,4.56,0,0,0-.76-1.36,3.8,3.8,0,0,0-1.12-.91,3,3,0,0,0-1.36-.34,3,3,0,0,0-1.38.34,3.87,3.87,0,0,0-1.12.93,4.53,4.53,0,0,0-.75,1.36,4.78,4.78,0,0,0-.28,1.63,4.89,4.89,0,0,0,.28,1.65,4.33,4.33,0,0,0,.76,1.36,3.47,3.47,0,0,0,1.13.92,2.91,2.91,0,0,0,1.36.3Z" style="fill:#122129"/><path d="M149.52,39.42V29.25h.9v9.16h4.12v1Z" style="fill:#122129"/><path d="M221.74,90.44h1.11l3.27,10.18h-1l-.7-2.18h-4.33l-.7,2.18h-1Zm-1.29,7h3.68l-1.84-5.73Z" style="fill:#122129"/><path d="M227.32,100.62V90.44h3a3.89,3.89,0,0,1,1.74.4,4.36,4.36,0,0,1,1.43,1.09,5.77,5.77,0,0,1,1,1.62,5.89,5.89,0,0,1,0,4,5.77,5.77,0,0,1-1,1.62,4.28,4.28,0,0,1-1.43,1.1,4,4,0,0,1-1.74.4Zm.89-1h2.07a3.26,3.26,0,0,0,1.4-.32,3.72,3.72,0,0,0,1.14-.87,4.07,4.07,0,0,0,.77-1.3,4.64,4.64,0,0,0,0-3.16,3.9,3.9,0,0,0-.77-1.3,3.83,3.83,0,0,0-1.15-.88,3.17,3.17,0,0,0-1.39-.31h-2.07Z" style="fill:#122129"/><path d="M235.73,100.62l1.73-10.18h.66l2.51,7.49,2.5-7.49h.65l1.74,10.18h-.91l-1.33-7.79L240.91,100h-.58L238,92.83l-1.32,7.79Z" style="fill:#122129"/><path d="M247.25,100.62V90.44h.9v10.18Z" style="fill:#122129"/><path d="M250.14,100.62V90.44h1l4.74,8.34V90.44h.89v10.18h-1L251,92.28v8.34Z" style="fill:#122129"/><path d="M335.09,121.11V110.93H338a2.17,2.17,0,0,1,1.3.4,2.8,2.8,0,0,1,.92,1.07,3.39,3.39,0,0,1,.34,1.5,3.2,3.2,0,0,1-.35,1.52,2.74,2.74,0,0,1-.93,1.07,2.25,2.25,0,0,1-1.28.39h-2v4.23Zm.9-5.24h1.9a1.49,1.49,0,0,0,.87-.27,1.91,1.91,0,0,0,.63-.72,2.29,2.29,0,0,0,0-2,1.88,1.88,0,0,0-.63-.71,1.49,1.49,0,0,0-.87-.27H336Z" style="fill:#122129"/><path d="M347.43,110.93h.89v10.18h-.89v-5h-4.71v5h-.9V110.93h.9v4.22h4.71Z" style="fill:#122129"/><path d="M350,121.11V110.93h2.87a2.14,2.14,0,0,1,1.29.4,2.8,2.8,0,0,1,.92,1.07,3.26,3.26,0,0,1,.34,1.5,3.2,3.2,0,0,1-.35,1.52,2.8,2.8,0,0,1-.92,1.07,2.25,2.25,0,0,1-1.28.39h-2v4.23Zm.89-5.24h1.91a1.46,1.46,0,0,0,.86-.27,1.82,1.82,0,0,0,.63-.72,2.2,2.2,0,0,0,0-2,1.73,1.73,0,0,0-.63-.71,1.46,1.46,0,0,0-.86-.27h-1.91Z" style="fill:#122129"/><path d="M35.27,172.81a2.26,2.26,0,0,1-.85-.17,2.1,2.1,0,0,1-.75-.5l.57-.78a1.82,1.82,0,0,0,.47.31,1.38,1.38,0,0,0,.56.12,1.34,1.34,0,0,0,.82-.27,1.93,1.93,0,0,0,.58-.72,2,2,0,0,0,.22-.94v-7.42h.9v7.42a3.07,3.07,0,0,1-.34,1.46,3,3,0,0,1-.91,1.08A2.14,2.14,0,0,1,35.27,172.81Z" style="fill:#122129"/><path d="M43.61,172.81a3.84,3.84,0,0,1-1.38-.26,3.46,3.46,0,0,1-1.17-.72,2.68,2.68,0,0,1-.71-1.13l.84-.36a1.79,1.79,0,0,0,.52.78,2.55,2.55,0,0,0,.88.49,2.85,2.85,0,0,0,1,.18,3,3,0,0,0,1.15-.23,2.28,2.28,0,0,0,.86-.65,1.56,1.56,0,0,0,.33-1,1.36,1.36,0,0,0-.34-.94,2.32,2.32,0,0,0-.88-.59,7.2,7.2,0,0,0-1.12-.33,8.59,8.59,0,0,1-1.64-.49,2.8,2.8,0,0,1-1.15-.89,2.44,2.44,0,0,1-.42-1.51,2.66,2.66,0,0,1,.45-1.52,3.09,3.09,0,0,1,1.18-1,3.72,3.72,0,0,1,1.58-.35,3.78,3.78,0,0,1,1.37.25,3.41,3.41,0,0,1,1.18.72,2.7,2.7,0,0,1,.73,1.15l-.85.35a1.71,1.71,0,0,0-.52-.78,2.7,2.7,0,0,0-.87-.5,3.38,3.38,0,0,0-1-.17,2.6,2.6,0,0,0-1.13.23,2.23,2.23,0,0,0-.86.66,1.74,1.74,0,0,0,0,2,1.83,1.83,0,0,0,.83.53c.35.11.75.22,1.18.31a6.51,6.51,0,0,1,1.6.52,3.4,3.4,0,0,1,1.19.94,2.34,2.34,0,0,1,.44,1.44,2.65,2.65,0,0,1-.44,1.52,3,3,0,0,1-1.19,1A3.44,3.44,0,0,1,43.61,172.81Z" style="fill:#122129"/><path d="M101.54,289.83l1.74-10.18h.66l2.51,7.49,2.5-7.49h.65l1.74,10.18h-.91L109.1,282l-2.37,7.12h-.58L103.78,282l-1.33,7.79Z" style="fill:#122129"/><path d="M116.72,290a3.78,3.78,0,0,1-1.71-.41,4.72,4.72,0,0,1-1.41-1.14,5.7,5.7,0,0,1-.95-1.68,6.14,6.14,0,0,1,0-4.1,5.7,5.7,0,0,1,.95-1.68,4.72,4.72,0,0,1,1.41-1.14,3.77,3.77,0,0,1,3.43,0,4.72,4.72,0,0,1,1.41,1.14,5.85,5.85,0,0,1,1,1.68,6.39,6.39,0,0,1,0,4.1,5.63,5.63,0,0,1-1,1.68,4.72,4.72,0,0,1-1.41,1.14A3.79,3.79,0,0,1,116.72,290Zm0-1a2.88,2.88,0,0,0,1.38-.34,3.68,3.68,0,0,0,1.12-.92,4.53,4.53,0,0,0,.75-1.36,4.94,4.94,0,0,0,0-3.28,4.56,4.56,0,0,0-.76-1.36,3.68,3.68,0,0,0-1.12-.92,3,3,0,0,0-2.74,0,3.71,3.71,0,0,0-1.12.93,4.14,4.14,0,0,0-.76,1.36,5,5,0,0,0-.27,1.63,5.14,5.14,0,0,0,.27,1.65,4.79,4.79,0,0,0,.76,1.36,3.72,3.72,0,0,0,1.13.92A2.94,2.94,0,0,0,116.72,289Z" style="fill:#122129"/><path d="M122.76,289.83V279.65h1l4.73,8.34v-8.34h.9v10.18h-1l-4.74-8.34v8.34Z" style="fill:#122129"/><path d="M135.07,290a3.86,3.86,0,0,1-1.73-.41,4.57,4.57,0,0,1-1.41-1.14,5.5,5.5,0,0,1-.94-1.69,6,6,0,0,1-.34-2.05,6.13,6.13,0,0,1,.35-2.07,5.46,5.46,0,0,1,1-1.67,4.66,4.66,0,0,1,1.41-1.12,3.86,3.86,0,0,1,1.7-.4A3.71,3.71,0,0,1,137,280a4.72,4.72,0,0,1,1.56,1.55l-.8.49a3.56,3.56,0,0,0-1.24-1.17,3.08,3.08,0,0,0-1.48-.41,2.94,2.94,0,0,0-1.36.33,3.68,3.68,0,0,0-1.12.92,4.82,4.82,0,0,0-.77,1.36,5.2,5.2,0,0,0-.27,1.66,5.14,5.14,0,0,0,.27,1.65,4.61,4.61,0,0,0,.76,1.35,3.72,3.72,0,0,0,1.13.92,3,3,0,0,0,1.37.33,2.81,2.81,0,0,0,1.14-.24,3.17,3.17,0,0,0,1-.66,4.13,4.13,0,0,0,.76-1,4.56,4.56,0,0,0,.45-1.25H136v-.93h3.47a6.21,6.21,0,0,1-.37,2,5.68,5.68,0,0,1-1,1.63,4.6,4.6,0,0,1-1.39,1.09A3.72,3.72,0,0,1,135.07,290Z" style="fill:#122129"/><path d="M144.74,290a3.78,3.78,0,0,1-1.71-.41,4.57,4.57,0,0,1-1.41-1.14,5.63,5.63,0,0,1-1-1.68,6.39,6.39,0,0,1,0-4.1,5.85,5.85,0,0,1,1-1.68,4.57,4.57,0,0,1,1.41-1.14,3.79,3.79,0,0,1,3.43,0,4.72,4.72,0,0,1,1.41,1.14,5.7,5.7,0,0,1,.95,1.68,6.39,6.39,0,0,1,0,4.1,5.7,5.7,0,0,1-.95,1.68,4.72,4.72,0,0,1-1.41,1.14A3.79,3.79,0,0,1,144.74,290Zm0-1a2.73,2.73,0,0,0,1.37-.34,3.54,3.54,0,0,0,1.12-.92,4.33,4.33,0,0,0,.76-1.36,5.12,5.12,0,0,0,0-3.28,4.56,4.56,0,0,0-.76-1.36,3.68,3.68,0,0,0-1.12-.92,3,3,0,0,0-2.74,0,3.75,3.75,0,0,0-1.13.93,4.53,4.53,0,0,0-.75,1.36,5,5,0,0,0-.27,1.63,5.14,5.14,0,0,0,.27,1.65,4.44,4.44,0,0,0,.76,1.36,3.68,3.68,0,0,0,1.12.92A3,3,0,0,0,144.74,289Z" style="fill:#122129"/><path d="M132.1,55.41h0a1.45,1.45,0,0,0-.26.43V56a1.22,1.22,0,0,0-.07.38v.22a1.64,1.64,0,0,0,.09.44h0a1.27,1.27,0,0,0,.23.41h0l6.55,7.72a1.18,1.18,0,0,0,1.66.18.77.77,0,0,0,.18-.18,1.66,1.66,0,0,0,0-2.12L137,59a34,34,0,0,0,10.46-.45c15.65-2.84,26.73-17.29,24.69-32.22a1.38,1.38,0,0,0-1.28-1.27h-.2a1.5,1.5,0,0,0-1.09,1.71C171.36,40.08,161.25,53,147,55.59a32,32,0,0,1-10.24.36l5.45-3.23a1.61,1.61,0,0,0,.56-2,1.23,1.23,0,0,0-1.58-.73l-.17.08-8.59,5.1a1.53,1.53,0,0,0-.31.26Z" style="fill:#122129"/><path d="M299.81,18.53h0a1.37,1.37,0,0,0,.49-.13l.13-.06a1.34,1.34,0,0,0,.31-.22.52.52,0,0,0,.11-.1h.06a1.92,1.92,0,0,0,.25-.38h0a1.37,1.37,0,0,0,.13-.45v-.06L302.15,7a1.19,1.19,0,0,0-1-1.31h-.24a1.65,1.65,0,0,0-1.51,1.48l-.45,5.44a34.2,34.2,0,0,0-7.72-7.08c-13.07-9.09-31.13-6.7-40.19,5.29a1.35,1.35,0,0,0,0,1.8l.15.14a1.5,1.5,0,0,0,2-.45c8.12-10.69,24.4-12.67,36.33-4.41a32,32,0,0,1,7.49,7l-6.14-1.56a1.61,1.61,0,0,0-1.82,1A1.22,1.22,0,0,0,289.6,16l.19.07,9.68,2.47a1.34,1.34,0,0,0,.4,0Z" style="fill:#122129"/><path d="M84.29,51.87a87.79,87.79,0,0,1-21.78-2.56,26,26,0,0,1-6.84-2.73,11.09,11.09,0,0,1-1.46-1c-1.53-1.32-1.51-2.47,0-3.8a10.43,10.43,0,0,1,2-1.34,34.11,34.11,0,0,1,9.06-3.06,93.92,93.92,0,0,1,23.24-1.79,76.09,76.09,0,0,1,18.73,2.78,22.27,22.27,0,0,1,6.28,2.75c2.64,1.79,2.63,3.33,0,5.1a26.8,26.8,0,0,1-8.74,3.43A90,90,0,0,1,84.29,51.87ZM87.64,38h-3.2a1.72,1.72,0,1,0-.37,3.42,2.29,2.29,0,0,0,.37,0,108.16,108.16,0,0,1,14.94,1,1.72,1.72,0,0,0,2.11-1.21,1.16,1.16,0,0,0,0-.18,1.82,1.82,0,0,0-1.63-2h-.08A105.67,105.67,0,0,0,87.64,38Zm19.15,4a1.71,1.71,0,1,0,1.58,1.84A1.68,1.68,0,0,0,106.86,42Z" style="fill:#fff"/><path d="M83.69,34.33a84.48,84.48,0,0,1,9.53.81,1.46,1.46,0,0,1,1.36,1.52.17.17,0,0,0,0,.07A1.36,1.36,0,0,1,93,37.85l-.11,0A85,85,0,0,0,81.17,37a1.34,1.34,0,1,1-.23-2.67h2.75Z" style="fill:#122129"/><path d="M98.69,37.41a1.3,1.3,0,0,1,1.25,1.35s0,.06,0,.09a1.34,1.34,0,1,1-1.24-1.44Z" style="fill:#090909"/><path d="M122.42,85.06c-.49.9-1.43,1-2.27,1.15a1.33,1.33,0,0,0-1,.78,2.5,2.5,0,0,0,.2,3.13c.62.79.49,1.35-.22,2.06-.92.94-1.85,1.87-2.79,2.8a1.32,1.32,0,0,1-2,.21A2.63,2.63,0,0,0,111,95a.93.93,0,0,0-.57.66c-.1.5-.23,1-.37,1.48a1.28,1.28,0,0,1-1.33,1h-4.35a1.3,1.3,0,0,1-1.31-.94A.73.73,0,0,1,103,97c0-1.65-1.12-2.18-2.42-2.59a.6.6,0,0,0-.55.06c-.45.28-.9.56-1.37.83A1.32,1.32,0,0,1,97,95.11c-1-1-2.08-2.07-3.11-3.12a1.32,1.32,0,0,1-.19-1.66.41.41,0,0,1,.07-.11,2.56,2.56,0,0,0,.2-3.4.93.93,0,0,0-.67-.55c-.48-.11-1-.22-1.42-.36a1.29,1.29,0,0,1-1-1.36V80.2a1.28,1.28,0,0,1,1-1.29,6.19,6.19,0,0,1,1.28-.34c.58-.06.75-.44,1-.88a2.4,2.4,0,0,0-.22-3c-.63-.84-.5-1.39.23-2.12C95.1,71.63,96,70.7,97,69.78c.63-.62,1.23-.77,1.91-.22a2.63,2.63,0,0,0,3.36.2c.31-.19.54-.34.6-.71s.17-.74.26-1.1c.26-1.06.63-1.4,1.73-1.34.68,0,.84-.15.83-.82-.06-2,0-4,0-6.05A20.83,20.83,0,0,1,102,61.51a45.28,45.28,0,0,1-10,2.4,78.76,78.76,0,0,1-14.15.65,57,57,0,0,1-17.43-2.92,17.71,17.71,0,0,1-3.87-1.93V71.76a2.42,2.42,0,0,0,.85,1.93,12,12,0,0,0,4.07,2.23A43.72,43.72,0,0,0,70.35,78a82.31,82.31,0,0,0,14.21.65c.78,0,1.55-.1,2.33-.12a1.4,1.4,0,0,1,1.51,1.26h0a1.36,1.36,0,0,1-1.32,1.4H87a80.11,80.11,0,0,1-12,0,60.27,60.27,0,0,1-12.29-2,32.39,32.39,0,0,1-3.14-1.09,16.59,16.59,0,0,1-2.89-1.52c-.2.19-.1.42-.1.62V88.51a2.53,2.53,0,0,0,1,2.13,15.18,15.18,0,0,0,5.06,2.47,52.19,52.19,0,0,0,10.73,2,81.32,81.32,0,0,0,12.29.24c1.22-.07,2.44-.19,3.67-.27a1.37,1.37,0,0,1,1.64,1,1,1,0,0,1,0,.24,1.45,1.45,0,0,1-1.47,1.42,79.77,79.77,0,0,1-10.82.38,57.55,57.55,0,0,1-18.16-2.93,13.55,13.55,0,0,1-5.21-3,4.71,4.71,0,0,1-1.47-3.52V39.45a5.39,5.39,0,0,1,2.33-4.61,21.08,21.08,0,0,1,7.28-3.18A63,63,0,0,1,76,29.77c.14,0,.33.09.4-.13h9.1a7.51,7.51,0,0,0,2.26.25,59.37,59.37,0,0,1,11,1.78A20.8,20.8,0,0,1,106,34.84a5.33,5.33,0,0,1,2.33,4.61c-.06,8.83,0,17.67,0,26.5,0,.43,0,.71.58.65a1.21,1.21,0,0,1,1.32,1q.21.69.36,1.41a1,1,0,0,0,.64.76,2.61,2.61,0,0,0,3.3-.19c.7-.58,1.3-.43,2,.22.94.92,1.87,1.86,2.79,2.79.71.71.84,1.27.22,2.07a2.5,2.5,0,0,0-.23,3.07,1.45,1.45,0,0,0,1,.85c.82.17,1.73.26,2.2,1.14ZM56.57,43V54.85a2.74,2.74,0,0,0,1.22,2.43,14.29,14.29,0,0,0,4,2,56.69,56.69,0,0,0,17,2.66,77.81,77.81,0,0,0,11.62-.5,47.1,47.1,0,0,0,9.76-2.06,14.25,14.25,0,0,0,4.22-2.1,2.8,2.8,0,0,0,1.23-2.43c-.06-3.71,0-7.41,0-11.11V43a20.76,20.76,0,0,1-4,2c-5.9,2.1-12,2.71-18.24,2.91a78.75,78.75,0,0,1-10.75-.4,57.66,57.66,0,0,1-9.31-1.66A23.25,23.25,0,0,1,56.57,43Zm24.49,2.23a70.6,70.6,0,0,0,16-1.74,21,21,0,0,0,6.85-2.68c2.09-1.39,2.09-2.6,0-4A17.43,17.43,0,0,0,99,34.64a59.75,59.75,0,0,0-14.68-2.17,73.68,73.68,0,0,0-18.15,1.32,26.94,26.94,0,0,0-7.1,2.41,7.82,7.82,0,0,0-1.54,1c-1.21,1-1.23,2,0,3a9.06,9.06,0,0,0,1.14.81A19.93,19.93,0,0,0,64,43.16a68.57,68.57,0,0,0,17.06,2ZM115,92.4a.4.4,0,0,0,.29-.14l.56-.57c.86-.86.89-.87.24-1.86a1.92,1.92,0,0,1-.15-2c.43-.92.8-1.87,1.17-2.82a1.7,1.7,0,0,1,1.34-1.15c1.3-.29,1.3-.31,1.3-1.64,0-1,0-1-1-1.19a2.18,2.18,0,0,1-1.8-1.56c-.31-.9-.71-1.77-1.08-2.65a1.78,1.78,0,0,1,.13-1.77c.69-1.11.68-1.12-.22-2-.72-.72-.74-.76-1.59-.18a2.11,2.11,0,0,1-2.31.16c-.88-.43-1.79-.78-2.7-1.13a1.68,1.68,0,0,1-1.11-1.31c-.3-1.31-.32-1.26-1.68-1.32-.72,0-1.1.12-1.15.91a2.06,2.06,0,0,1-1.6,1.9c-.88.3-1.73.69-2.58,1.06A1.76,1.76,0,0,1,99.3,73c-1.13-.69-1.14-.67-2.06.25-.69.69-.72.71-.16,1.55a2.09,2.09,0,0,1,.18,2.31c-.42.86-.75,1.75-1.1,2.64a1.78,1.78,0,0,1-1.39,1.19c-1.27.29-1.21.32-1.28,1.66,0,.72.14,1.08.9,1.16a2.09,2.09,0,0,1,1.91,1.59,24.92,24.92,0,0,0,1,2.52,1.88,1.88,0,0,1-.11,1.9c-.68,1.08-.66,1.09.26,2,.7.7.72.74,1.54.18a2.09,2.09,0,0,1,2.31-.19c.88.42,1.79.77,2.7,1.12a1.73,1.73,0,0,1,1.14,1.35c.29,1.29.31,1.22,1.64,1.3.78,0,1.13-.16,1.19-1a2,2,0,0,1,1.56-1.85c.87-.29,1.7-.66,2.53-1a1.79,1.79,0,0,1,2,.14C114.36,92,114.68,92.22,115,92.4Z" style="fill:#122129"/><path d="M56.57,43a23.12,23.12,0,0,0,6.67,2.83,57.66,57.66,0,0,0,9.31,1.66,78.75,78.75,0,0,0,10.75.4c6.2-.2,12.34-.81,18.24-2.91a20.76,20.76,0,0,0,4-2V54.82a2.8,2.8,0,0,1-1.23,2.43,14.25,14.25,0,0,1-4.22,2.1,47.1,47.1,0,0,1-9.76,2.06,77.81,77.81,0,0,1-11.62.5,56.69,56.69,0,0,1-17-2.66,14.29,14.29,0,0,1-4-2,2.74,2.74,0,0,1-1.22-2.43c0-3.7,0-7.41,0-11.11Z" style="fill:#fff"/><path d="M115,92.4a9.9,9.9,0,0,1-1-.57,1.79,1.79,0,0,0-2-.14,21.11,21.11,0,0,1-2.53,1A2,2,0,0,0,108,94.57c-.06.79-.41,1-1.19,1-1.33-.08-1.35,0-1.64-1.3a1.74,1.74,0,0,0-1.17-1.4c-.91-.35-1.82-.7-2.7-1.12A2.1,2.1,0,0,0,99,92c-.82.56-.84.52-1.54-.18-.92-.91-.94-.92-.26-2a1.88,1.88,0,0,0,.11-1.9,24.92,24.92,0,0,1-1-2.52A2.09,2.09,0,0,0,94.4,83.8c-.76-.08-.94-.44-.9-1.16.07-1.34,0-1.37,1.28-1.66a1.78,1.78,0,0,0,1.39-1.19c.35-.89.68-1.78,1.1-2.64a2.09,2.09,0,0,0-.18-2.31c-.56-.84-.53-.86.16-1.55.92-.92.93-.94,2.06-.25a1.78,1.78,0,0,0,1.78.13c.85-.37,1.7-.76,2.58-1.06a2.06,2.06,0,0,0,1.6-1.9c0-.79.43-.94,1.15-.91,1.36.06,1.38,0,1.68,1.32a1.68,1.68,0,0,0,1.11,1.31c.91.35,1.82.7,2.7,1.13a2.11,2.11,0,0,0,2.31-.16c.85-.58.87-.54,1.59.18.9.89.91.9.22,2a1.78,1.78,0,0,0-.13,1.77c.37.88.77,1.75,1.08,2.65a2.18,2.18,0,0,0,1.8,1.56c1,.19,1,.23,1,1.19,0,1.33,0,1.35-1.3,1.64a1.7,1.7,0,0,0-1.37,1.1c-.37,1-.74,1.9-1.17,2.82a1.92,1.92,0,0,0,.15,2c.65,1,.62,1-.24,1.86l-.56.57C115.21,92.33,115.14,92.43,115,92.4Zm-16.69-10a10.55,10.55,0,0,0,.07,1.13,8.31,8.31,0,0,0,16.55-1.13,1.34,1.34,0,1,0-2.68-.08h0a6.65,6.65,0,0,1-.11,1,5.62,5.62,0,1,1-11-2.27h0A5.7,5.7,0,0,1,107,76.76a1.3,1.3,0,0,0,1.42-1.18.76.76,0,0,0,0-.15,1.36,1.36,0,0,0-1.38-1.34h0a8.3,8.3,0,0,0-8.73,7.85c0,.14,0,.29,0,.43Zm13.23-3.58a1.34,1.34,0,0,0,1.37-1.31v0a1.43,1.43,0,0,0-1.37-1.37,1.35,1.35,0,0,0,0,2.7Z" style="fill:#f7bd1f"/><path d="M98.31,82.37a8.29,8.29,0,0,1,8.31-8.29h.43a1.36,1.36,0,0,1,1.38,1.34h0a1.32,1.32,0,0,1-1.28,1.34H107A5.69,5.69,0,0,0,101.19,81a5.62,5.62,0,1,0,11,2.27c0-.33.08-.66.11-1a1.34,1.34,0,1,1,2.68.08h0a8.31,8.31,0,0,1-16.55,1.13A10,10,0,0,1,98.31,82.37Z" style="fill:#122129"/><path d="M111.54,78.79a1.35,1.35,0,0,1,0-2.7h0a1.43,1.43,0,0,1,1.37,1.37,1.34,1.34,0,0,1-1.35,1.33Z" style="fill:#122129"/><g id="surface1"><path d="M389,142.06H301.5a10.42,10.42,0,0,0-10.41,10.42v33.33h4.16V152.48a6.25,6.25,0,0,1,6.25-6.25H389a6.25,6.25,0,0,1,6.25,6.25v64.58a6.25,6.25,0,0,1-6.25,6.25H361.92v4.17H389a10.44,10.44,0,0,0,10.42-10.42V152.48A10.44,10.44,0,0,0,389,142.06Z" style="fill:#122129"/><path d="M299.42,150.4h4.17v4.16h-4.17Z"/><path d="M307.75,150.4h4.17v4.16h-4.17Z"/><path d="M316.09,150.4h4.16v4.16h-4.16Z"/><path d="M299.42,158.73h91.67v4.17H299.42Z" style="fill:#122129"/><path d="M299.42,167.06h20.83v4.17H299.42Z" style="fill:#122129"/><path d="M299.42,175.4h12.5v4.16h-12.5Z" style="fill:#122129"/><path d="M334.84,181.65v-4.17a2.09,2.09,0,0,0-2.09-2.08h-8.33a2.08,2.08,0,0,0-2.08,2.08v2.08h8.33v2.09Z" style="fill:#122129"/><path d="M351.5,192.06V171.23a2.08,2.08,0,0,0-2.08-2.08h-8.33a2.09,2.09,0,0,0-2.09,2.08v14.58h4.17v-12.5h4.17v18.75Z" style="fill:#122129"/><path d="M364,212.9h-2.08v4.16h29.17V212.9h-6.25V171.23a2.09,2.09,0,0,0-2.09-2.08h-8.33a2.08,2.08,0,0,0-2.08,2.08V212.9h-4.17V185.81a2.08,2.08,0,0,0-2.08-2.08h-8.34a2.08,2.08,0,0,0-2.08,2.08v18.75h4.17V187.9H364Zm12.5-39.59h4.17V212.9H376.5Z" style="fill:#122129"/><path d="M316.09,183.73a41.67,41.67,0,1,0,41.66,41.68h0a41.66,41.66,0,0,0-41.65-41.67Zm0,79.17A37.5,37.5,0,0,1,314,188v37.58a1.93,1.93,0,0,0,.11.53v.21a2.16,2.16,0,0,0,.39.59h0L341,253.37A37.2,37.2,0,0,1,316.09,262.9ZM344,250.4l-22.91-22.92H353.5A37.19,37.19,0,0,1,344,250.4Zm-25.86-27.09V188a37.56,37.56,0,0,1,35.36,35.36Z" style="fill:#122129"/></g><g id="Database-cloud-laptop-computer-smartphone"><path d="M207.33,148.06H178.92a1.58,1.58,0,0,0-1.58,1.58h0v37.88a1.58,1.58,0,0,0,1.58,1.58h28.41a1.58,1.58,0,0,0,1.58-1.58h0V149.64A1.58,1.58,0,0,0,207.33,148.06ZM205.76,186H180.5v-9.47h25.26Zm0-12.63H180.5v-9.47h25.26Zm0-12.62H180.5v-9.47h25.26Z" style="fill:#122129"/><path d="M235.75,118.07h-22.1a4.75,4.75,0,0,0-4.74,4.73v12.63a4.76,4.76,0,0,0,4.74,4.74H220v3.15h-3.2v3.16h15.79v-3.16h-3.16v-3.15h6.32a4.75,4.75,0,0,0,4.73-4.74V122.8A4.75,4.75,0,0,0,235.75,118.07Zm-9.47,25.25h-3.16v-3.15h3.16Zm11-7.89a1.56,1.56,0,0,1-1.56,1.58H213.61a1.58,1.58,0,0,1-1.58-1.58h0v-1.58h25.25Zm0-4.73H212.07v-7.9a1.57,1.57,0,0,1,1.57-1.57h22.11a1.57,1.57,0,0,1,1.57,1.57h0Z" style="fill:#122129"/><path d="M238.9,203.3V192.25a4.75,4.75,0,0,0-4.73-4.73H215.23a4.75,4.75,0,0,0-4.74,4.73V203.3a1.58,1.58,0,0,0-1.58,1.58h0V208a4.75,4.75,0,0,0,4.74,4.73h22.1a4.74,4.74,0,0,0,4.73-4.73v-3.16a1.58,1.58,0,0,0-1.58-1.58Zm-25.25-11.05a1.57,1.57,0,0,1,1.57-1.57h18.95a1.57,1.57,0,0,1,1.58,1.56h0V203.3h-22.1ZM237.32,208a1.56,1.56,0,0,1-1.56,1.58H213.65a1.58,1.58,0,0,1-1.58-1.58h0v-1.58h25.25Z" style="fill:#122129"/><path d="M169.45,190.68h-1.58V189.1a4.75,4.75,0,0,0-4.73-4.74H150.51a4.75,4.75,0,0,0-4.73,4.74V208a4.73,4.73,0,0,0,4.73,4.73h18.94a4.75,4.75,0,0,0,4.74-4.73V195.41A4.75,4.75,0,0,0,169.45,190.68Zm-10.76,18.94h-8.18a1.58,1.58,0,0,1-1.58-1.58h0V189.1a1.58,1.58,0,0,1,1.58-1.58h12.63a1.58,1.58,0,0,1,1.58,1.58h0v1.58h-1.58a4.75,4.75,0,0,0-4.74,4.73V208A4.75,4.75,0,0,0,158.69,209.62ZM171,208a1.58,1.58,0,0,1-1.58,1.58h-6.31a1.58,1.58,0,0,1-1.58-1.58h0V195.41a1.58,1.58,0,0,1,1.58-1.58h6.31a1.58,1.58,0,0,1,1.58,1.58h0Z" style="fill:#122129"/><path d="M180.38,127.67a7.87,7.87,0,0,0-9.17-6.31h0q-.39.08-.78.18a9.34,9.34,0,0,0-7.29-3.47,9.51,9.51,0,0,0-8.95,6.38,9.47,9.47,0,0,0,1.06,18.87h23.67a7.89,7.89,0,0,0,1.46-15.65Zm-1.46,12.5H155.25a6.33,6.33,0,0,1-.14-12.65h.25a1.61,1.61,0,0,0,1.64-1.23,6.3,6.3,0,0,1,11.57-2,1.54,1.54,0,0,0,2,.6,4.68,4.68,0,0,1,6.78,4.25,1.58,1.58,0,0,0,1.58,1.58h0a4.74,4.74,0,0,1,.44,9.47h-.44Z" style="fill:#122129"/><path d="M183.66,154.37h3.16v3.16h-3.16Z"/><path d="M191.55,154.37h3.16v3.16h-3.16Z"/><path d="M199.44,154.37h3.16v3.16h-3.16Z"/><path d="M183.66,167h3.16v3.16h-3.16Z"/><path d="M191.55,167h3.16v3.16h-3.16Z"/><path d="M199.44,167h3.16v3.16h-3.16Z"/><path d="M183.66,179.63h3.16v3.15h-3.16Z"/><path d="M191.55,179.63h3.16v3.15h-3.16Z"/><path d="M199.44,179.63h3.16v3.15h-3.16Z"/><path d="M226.28,160.69v-11h-3.16v9.47H212.07v3.15H224.7a1.57,1.57,0,0,0,1.58-1.56Z" style="fill:#122129"/><path d="M212.07,171.74h11.05v12.62h3.16v-14.2a1.58,1.58,0,0,0-1.58-1.58H212.07Z" style="fill:#122129"/><path d="M163.14,146.48H160v14.21a1.57,1.57,0,0,0,1.57,1.57h12.64v-3.15H163.14Z" style="fill:#122129"/><path d="M160,170.16v11.05h3.16v-9.47h11.05v-3.16H161.56A1.59,1.59,0,0,0,160,170.16Z" style="fill:#122129"/></g><path d="M255.31,284.54v-9.7h2.74a2.08,2.08,0,0,1,1.23.38,2.82,2.82,0,0,1,.88,1,3.4,3.4,0,0,1,0,2.89,2.82,2.82,0,0,1-.88,1,2.14,2.14,0,0,1-1.22.37h-1.88v4Zm.86-5H258a1.42,1.42,0,0,0,.83-.25,1.82,1.82,0,0,0,.6-.69,2.15,2.15,0,0,0,.22-1,2.31,2.31,0,0,0-.22-1,1.87,1.87,0,0,0-.6-.68,1.43,1.43,0,0,0-.83-.26h-1.81Z" style="fill:#122129"/><path d="M266.54,274.84h1l-2.88,5.3v4.4h-.85v-4.4l-2.88-5.3h1l2.29,4.24Z" style="fill:#122129"/><path d="M275.11,274.84v1h-2.93v8.73h-.86v-8.73H268.4v-1Z" style="fill:#122129"/><path d="M281.67,274.84h.86v9.7h-.86v-4.71h-4.49v4.71h-.85v-9.7h.85v4h4.49Z" style="fill:#122129"/><path d="M288,284.72a3.53,3.53,0,0,1-1.63-.39,4.29,4.29,0,0,1-1.34-1.09,5,5,0,0,1-.91-1.6,5.93,5.93,0,0,1,0-3.9,5.35,5.35,0,0,1,.91-1.61,4.37,4.37,0,0,1,1.34-1.08,3.53,3.53,0,0,1,1.63-.39,3.6,3.6,0,0,1,1.64.39,4.37,4.37,0,0,1,1.34,1.08,5.35,5.35,0,0,1,.91,1.61,6.06,6.06,0,0,1,0,3.9,5,5,0,0,1-.91,1.6,4.29,4.29,0,0,1-1.34,1.09A3.6,3.6,0,0,1,288,284.72Zm0-1a2.71,2.71,0,0,0,1.31-.33,3.24,3.24,0,0,0,1.07-.88,4,4,0,0,0,.72-1.29,4.8,4.8,0,0,0,0-3.13,4.63,4.63,0,0,0-.73-1.3,3.43,3.43,0,0,0-1.06-.87,2.84,2.84,0,0,0-2.62,0,3.63,3.63,0,0,0-1.07.88,4.6,4.6,0,0,0-.72,1.3,4.86,4.86,0,0,0-.26,1.56,4.63,4.63,0,0,0,.27,1.57,4.15,4.15,0,0,0,.72,1.3,3.34,3.34,0,0,0,1.07.87,2.81,2.81,0,0,0,1.3.35Z" style="fill:#122129"/><path d="M293.72,284.54v-9.7h.93l4.51,7.94v-7.94H300v9.7h-.93l-4.51-8v8Z" style="fill:#122129"/></g></g></g></g></svg>