<svg xmlns="http://www.w3.org/2000/svg" viewBox="0 0 981.94 309"><g id="Layer_2" data-name="Layer 2"><g id="Layer_1-2" data-name="Layer 1"><path d="M.34,306.88l13-13c2.21-2.22,5.86-3.72,10-4.1L53.13,287a2.57,2.57,0,0,0,1.48-.57l11.8-10.64a16,16,0,0,1,8-3.53l27.7-4.63a22.41,22.41,0,0,1,8.83.32l19.63,4.85a3.25,3.25,0,0,0,2.21-.24l28.37-15.24a1.8,1.8,0,0,0,.35-.24l17.07-14.87c3.47-3,9.56-4.38,15.27-3.4L218.09,243c1.28.22,2.57-.31,2.75-1.14l5.42-24.48c.51-2.35,2.48-4.47,5.47-5.91l14.09-6.77a20.57,20.57,0,0,1,9.56-1.82l59.79,2.48a2.43,2.43,0,0,0,2.22-.94L331,179.28c1.46-2.7,4.87-4.8,9.17-5.66l81.3-16.26c1-.19,1.59-.77,1.53-1.4-.42-4.23-1.78-19.58.11-19.93s46.39-7.24,54.55-8.5a2,2,0,0,0,1.6-1c1.41-3.67,7.07-18.49,6.69-18.51s9.85,0,13.63,0a2.5,2.5,0,0,1,2,.79l25.33,34.09a1.77,1.77,0,0,0,.7.54l35,16.06a3.15,3.15,0,0,0,1.48.26l17.4-.95c4.18-.23,8.12,1.23,9.84,3.63l10.66,14.92.14.16,19,19a3.07,3.07,0,0,0,3.17.37L642,188.47a2.9,2.9,0,0,1,3.32.56l8.32,12.07c.68,1,2.78,1.12,3.78.26l4.45-3.86a3,3,0,0,1,3.7.16l6.86,8.12a1,1,0,0,1,.26.63c0,2.45.7,17.68,8.76,18.32,7.64.6,25.28-6.68,29.66-8.55a3.21,3.21,0,0,1,2.1-.11c6.5,1.91,39.3,11.62,38.31,13.49-.89,1.68-.32,10.76-.07,14.11,0,.71.95,1.28,2.07,1.31l54.69,1.81a2.73,2.73,0,0,0,2-.68c1.54-1.64,5.4-5.44,7.55-4.86,2.59.7,22.22,13.65,24.44,15.12a2.82,2.82,0,0,0,.46.23L871,267.19a3.39,3.39,0,0,0,2,.07l8.81-2.53a2.72,2.72,0,0,1,3,.81l10.72,19.67a2.4,2.4,0,0,0,2.2.93c6.71-.27,31.63-1.22,34.47-.63,3,.64,34.07,9.52,38.81,10.88a2.18,2.18,0,0,1,1,.54l9.66,10c.89.92-.16,2.1-1.87,2.1H2.19C.47,309-.58,307.8.34,306.88Z" style="fill:#374151"/><polygon points="498.42 52.21 498.42 106.88 494.95 106.88 493.13 61.3 492.14 106.88 488.51 106.88 487.68 52.21 491.23 52.21 498.42 52.21" style="fill:#1a2f3f"/><polygon points="499.57 56.18 483.88 56.18 486.36 44.55 488.18 28.54 490.16 21.31 491.48 20.32 497.1 20.17 499.57 56.18" style="fill:#1a2f3f"/><path d="M498,3.67l.23,6.17-1-.4L497,13.72a23.71,23.71,0,0,0-1.88,2.82c-.21.4.35,2.86.17,3.3-.33.83-1.08.36-1.82.33s-.08-2.06-.49-2.47c-2.07-2.06-2.49-7.86-2.49-7.86V3.67l.25-.57A4.79,4.79,0,0,1,491.39,2l.25-.31,2.15-.5,2,.31a2.43,2.43,0,0,1,1.75,1.23Z" style="fill:#efc7b0"/><rect x="491.48" y="18.69" width="4.62" height="1.65" style="fill:#f2f2f2"/><path d="M493,6.74c0,2.86-.8,5.18-1.79,5.18s-1.8-2.32-1.8-5.18c0-.81-.36-2.73-.24-3.41.29-1.72,1.33-1.76,2-1.76C492.22,1.57,493,3.88,493,6.74Z" style="fill:#333"/><path d="M499.9,1.51c0,1.22-3,3.93-5.78,3.93s-4.95-1-4.95-2.21c0-1,1.9-2.94,4-3.2.44-.06,1.5,0,2,0a4.89,4.89,0,0,1,2.48.82C498.58,1.26,499.9.87,499.9,1.51Z" style="fill:#333"/><path d="M493.43,7.59c.24.33,0,.56,0,.89s.61.58,0,1-1.28,0-1.78-.68-.5-1.56,0-1.9S492.94,6.88,493.43,7.59Z" style="fill:#efc7b0"/><polygon points="496.8 20.68 496.14 24.71 513.77 28.6 511.13 25.4 496.8 20.68" style="fill:#1a2f3f"/><polygon points="511.13 25.46 513.77 28.6 516.58 6.8 512.45 6.8 511.13 25.46" style="fill:#1a2f3f"/><polygon points="488.01 29.26 489.99 21.99 479.26 38.17 482.23 37.51 488.01 29.26" style="fill:#1a2f3f"/><polygon points="486.36 44.62 485.86 46.93 479.26 38.17 482.23 37.51 486.36 44.62" style="fill:#1a2f3f"/><polygon points="494.95 108.03 488.34 108.03 488.51 106.88 492.14 106.88 494.95 108.03" style="fill:#1a2f3f"/><polygon points="502.05 108.03 494.95 108.03 494.95 106.88 498.42 106.88 502.05 108.03" style="fill:#1a2f3f"/><polygon points="537.94 6.3 497.88 7.91 497.77 6.39 537.64 2 537.94 6.3" style="fill:#374151"/></g></g></svg>