<svg xmlns="http://www.w3.org/2000/svg" xmlns:xlink="http://www.w3.org/1999/xlink" viewBox="0 0 2868.69 2869.84"><defs><linearGradient id="linear-gradient" x1="498.4" y1="3221.62" x2="2510.72" y2="1209.3" gradientTransform="translate(0 -778)" gradientUnits="userSpaceOnUse"><stop offset="0" stop-color="#3b82f6"/><stop offset="1" stop-color="#374151"/></linearGradient></defs><g id="Layer_2" data-name="Layer 2"><g id="Layer_1-2" data-name="Layer 1"><path d="M584.51,2510.47c-38.33-10.68-63.76-48-95.66-76.54a233.68,233.68,0,0,1-19.78-21.12C413.49,2348.29,413.8,2346,476,2284q351.69-351.54,702.93-703.29L2379.35,380.27c22.81-22.86,47.11-23.63,71.51-3.8,39.2,31.75,73.51,68.37,107.88,105.36,33.34,36,19,64.32-9.19,92.47C2319.5,804.18,1172.42,1951,942.27,2180.92q-156.54,156.52-312.35,313.63C619.18,2505.39,606.5,2510.37,584.51,2510.47Z" style="fill:url(#linear-gradient)"/><path d="M2641.55,918.43c-3.75,42.79-859.43,880.48-884.65,906.17q-399.74,401.37-801.41,801c-30.83,30.82-62.63,12.28-92.17,4.16-45.72-12.58-90.1-30.82-134.18-48.44-32.57-13.26-38.79-53.64-13.2-79.22,318.3-318.3,1455.48-1455.34,1773.85-1773.44,44.13-44,74.34-36.89,99.3,20.55A762.88,762.88,0,0,1,2641.55,918.43Z" style="fill:#374151"/><path d="M1941.42,218.3c-3.75,42.8-859.42,880.49-884.64,906.17q-399.73,401.39-801.42,801c-30.82,30.82-62.62,12.27-92.16,4.16C117.48,1917,73.09,1898.76,29,1881.14c-32.57-13.25-38.78-53.63-13.2-79.21C334.12,1483.62,1471.29,346.58,1789.67,28.48,1833.8-15.54,1864-8.4,1889,49A763,763,0,0,1,1941.42,218.3Z" style="fill:#374151"/><path d="M2260.17,372.54c-3.75,42.79-859.42,880.48-884.65,906.17Q975.8,1680.08,574.11,2079.66c-30.82,30.82-62.62,12.28-92.16,4.16-45.72-12.59-90.11-30.82-134.19-48.44-32.57-13.26-38.78-53.64-13.2-79.22C652.86,1637.85,1790,500.81,2108.41,182.71c44.13-44,74.34-36.88,99.31,20.55A763.1,763.1,0,0,1,2260.17,372.54Z" style="fill:#374151"/><path d="M2868.69,1145.57c-3.75,42.79-859.42,880.49-884.65,906.17q-399.72,401.39-801.41,801c-30.82,30.83-62.62,12.28-92.16,4.16-45.72-12.58-90.11-30.82-134.19-48.44-32.57-13.25-38.78-53.63-13.2-79.22,318.3-318.3,1455.48-1455.34,1773.85-1773.44,44.13-44,74.34-36.89,99.31,20.55A762.86,762.86,0,0,1,2868.69,1145.57Z" style="fill:#374151"/><rect id="_Slice_" data-name="&lt;Slice&gt;" x="1106.38" y="895.34" width="931" height="1089" style="fill:none"/></g></g></svg>