<svg xmlns="http://www.w3.org/2000/svg" viewBox="0 0 1640.39 1143.6"><defs><style>.cls-1{fill:#4a59ff;}.cls-2{fill:#374151;}.cls-3{fill:#1f2937;}</style></defs><g id="Layer_2" data-name="Layer 2"><g id="Layer_1-2" data-name="Layer 1"><g id="Layer_2-2" data-name="Layer 2"><g id="Layer_1-2-2" data-name="Layer 1-2"><path class="cls-1" d="M1288.22,0,570.43,753.83Q385.09,948.75,199.57,1143.6H469C721.57,878.49,1361.78,206.25,1558.27,0Z"/><path class="cls-2" d="M1640.39,0h-4.33C1336,315,798.14,879.82,547,1143.6H816.79Q1031,919.26,1244.38,694.21c10.56-11.29,217.4-224.15,396-413.36Z"/><path class="cls-3" d="M940.71,0C685.8,267.61,272,702.16,0,987.78V1143.6H121.42Q342.16,912.42,562.11,680.48C579,662.38,1100.32,126.33,1201.22,0Z"/><path class="cls-3" d="M1640.39,364.45c-266.17,279.48-566.15,594.49-742,779.15h269.85q206.51-216.37,412.34-433.4c3.27-3.5,25.44-26.4,59.79-62Z"/></g></g></g></g></svg>