<svg xmlns="http://www.w3.org/2000/svg" viewBox="0 0 1640.59 1143.93"><g id="Layer_2" data-name="Layer 2"><g id="Layer_1-2" data-name="Layer 1"><g id="Layer_2-2" data-name="Layer 2"><g id="Layer_1-2-2" data-name="Layer 1-2"><g id="Layer_2-2-2" data-name="Layer 2-2"><g id="Layer_1-2-2-2" data-name="Layer 1-2-2"><path d="M1288.41,0,199.76,1143.6H469.19C721.76,878.49,1558.46,0,1558.46,0Z" style="fill:#4a59ff"/><path d="M1640.58,0h-4.33C1336.19,315,798.33,879.82,547.19,1143.6H817l823.59-862.75Z" style="fill:#374151"/><path d="M940.9,0C686,267.61,272.19,702.16.19,987.78V1143.6H121.61L1201.41,0Z" style="fill:#1f2937"/><path d="M600.8,0,0,628.73.19,885.85,861.31,0Z" style="fill:#1f2937"/><path d="M245,0,.19,276.28v252.1L505.48,0Z" style="fill:#1f2937"/><path d="M1640.58,364.45c-266.17,279.48-566.15,594.49-742,779.15h269.85q206.52-216.37,412.34-433.4c3.27-3.5,25.44-26.4,59.79-62Z" style="fill:#1f2937"/><path d="M1640.59,727.16C1374.42,1006.64,1253,1143.93,1253,1143.93H1522.8l117.77-133Z" style="fill:#1f2937"/></g></g></g></g></g></g></svg>