<svg xmlns="http://www.w3.org/2000/svg" viewBox="0 0 1644.71 1143.6"><g id="Layer_2" data-name="Layer 2"><g id="Layer_1-2" data-name="Layer 1"><path d="M1644.71,303.28V19.77C1377.18,300.65,820.1,885.87,574.89,1143.6H844.32C1018,961.34,1374.79,586.68,1644.71,303.28Z" style="fill:#1f2937"/><path d="M1619.7,694.21c2-2.11,10.8-11.26,25-26V385c-265.08,278.34-556.38,584.25-722.39,758.62h269.79Q1406.33,919.26,1619.7,694.21Z" style="fill:#1f2937"/><path d="M969.82,366.5c97.34-102.23,219.63-230.64,349-366.5H1316C1061.12,267.61,647.32,702.16,375.32,987.78v.93c171.79-180.4,392.84-412.52,594.5-624.26Z" style="fill:#1f2937"/><path d="M969.8,646.88c42-43.48,119.81-124,206.6-214.69H969.81Z" style="fill:#1f2937"/><path d="M1644.71,1037.52V754l-371,389.58h269.85Q1594.17,1090.59,1644.71,1037.52Z" style="fill:#1f2937"/><path d="M476,432.19H208.44C345.36,288.42,482.75,143.88,619.7,0h-2.05L4.32,644.12V927.45C146.57,778.12,318.35,597.75,476,432.19Z" style="fill:#1f2937"/><path d="M4.32,644.12,0,648.66V932l4.32-4.54Z" style="fill:#1f2937"/><polygon points="0 1143.6 4.32 1143.6 0 1013.81 0 1143.6" style="fill:#1f2937"/><path d="M555.87,432.19C657.61,325.33,806.41,169.05,967.4,0h-1.91C708.27,270,276.3,723.63,0,1013.81L4.32,1143.6h141.9C435.86,838.77,532.45,738.8,825.33,432.19Z" style="fill:#1f2937"/><path d="M130.29,432.19H8.87V276.37L272.06,0h-1.92C192.11,81.92,99.18,179.48,0,283.63V568c83.19-86.33,184.35-191.66,277.3-290Q203.83,355.14,130.29,432.19Z" style="fill:#1f2937"/><path d="M910,710.2c3.27-3.5,25.44-26.4,59.79-62v-216H907.26l62.56-65.69v-2.05C768.16,576.19,547.11,808.31,375.32,988.71L227.82,1143.6H497.67Q704.18,927.23,910,710.2Z" style="fill:#1f2937"/><path d="M476,432.19h1.83C574.13,331.15,726.69,171,889.54,0H619.7c-137,143.88-274.34,288.42-411.26,432.19Z" style="fill:#1f2937"/><path d="M825.33,432.19h.33Q1031.69,216.43,1236.93,0H967.4c-161,169.05-309.79,325.33-411.53,432.19Z" style="fill:#1f2937"/><path d="M8.87,432.19H130.29q73.56-77,147-154.17Q409.6,139.15,541.62,0H272.06L8.87,276.37Z" style="fill:#1f2937"/><path d="M0,0V203.44Q96.8,101.78,193.45,0Z" style="fill:#1f2937"/><path d="M907.26,432.19h269.85Q1383,216.43,1588.3,0H1318.83c-129.38,135.86-251.67,264.27-349,366.5Z" style="fill:#1f2937"/></g></g></svg>