<svg xmlns="http://www.w3.org/2000/svg" xmlns:xlink="http://www.w3.org/1999/xlink" viewBox="0 0 155.81 155.82"><defs><linearGradient id="linear-gradient" y1="77.91" x2="155.81" y2="77.91" gradientUnits="userSpaceOnUse"><stop offset="0" stop-color="#60a5fa"/><stop offset="1" stop-color="#8b5cf6"/></linearGradient></defs><g id="Layer_2" data-name="Layer 2"><g id="Layer_1-2" data-name="Layer 1"><path d="M55.83,108.82H86.74a13.25,13.25,0,1,0,0-26.5H60.24a13.25,13.25,0,1,1,0-26.49h26.5A39.52,39.52,0,0,1,99.8,58,13.4,13.4,0,0,0,92,48.1,13,13,0,0,0,86.87,47H60.24a22.09,22.09,0,0,0,0,44.17h26.5a4.42,4.42,0,1,1,0,8.83H55.83ZM38.16,38.16v9.32A31.34,31.34,0,0,1,47,41.16v-3H87A21.72,21.72,0,0,1,95.57,40a22.18,22.18,0,0,1,13.25,20.22c0,.76,0,1.51-.11,2.25a40.27,40.27,0,0,1,7.64,6.63A30.92,30.92,0,0,0,86.74,29.33H38.16Zm0,88.33H86.74a30.92,30.92,0,0,0,0-61.83H60.24a4.42,4.42,0,0,0,0,8.83h26.5a22.08,22.08,0,0,1,0,44.16H47V97a31.2,31.2,0,0,1-8.83-6.32v35.82ZM77.91,0A77.91,77.91,0,1,1,0,77.91,77.91,77.91,0,0,1,77.91,0Z" style="fill-rule:evenodd;fill:url(#linear-gradient)"/></g></g></svg>