<svg xmlns="http://www.w3.org/2000/svg" xmlns:xlink="http://www.w3.org/1999/xlink" viewBox="0 0 300 300"><defs><linearGradient id="linear-gradient" y1="223.21" x2="250.56" y2="223.21" gradientUnits="userSpaceOnUse"><stop offset="0" stop-color="#60a5fa"/><stop offset="1" stop-color="#8b5cf6"/></linearGradient></defs><g id="Layer_2" data-name="Layer 2"><g id="Layer_1-2" data-name="Layer 1"><path d="M71.87,140.89C48.38,137,25.22,138.31,0,137.81,4.07,91.89,24.08,55.64,61,29.65c49.77-35,103.81-39.12,158.21-11.79C267.8,42.25,293.82,83,300,137.94c-24.74.67-48.31-1.25-72.47,3.52C217.81,99,192.71,72.41,147.47,73.41,104.67,74.35,81.07,100.55,71.87,140.89Z" style="fill:#374151"/><path d="M13.86,215.3C5.33,198.48.83,182.16,0,163.82c42.16-3.6,82,.06,119.65,18.55,21.18,10.41,40.65,23.33,60,36.62,22.35,15.35,43.25,33.21,70.93,40.13-22.14,27.66-49.33,32.19-77.8,13.19-12.75-8.51-24.79-18-37.33-26.85-28.75-20.25-60.74-30.74-96.35-30.17C31,215.42,22.86,215.3,13.86,215.3Z" style="fill:url(#linear-gradient)"/><path d="M299.42,164.34c-2.62,24.31-8.05,47.52-24.92,66.82-8.29,9.46-18.65,9-29.38,4.75-16.47-6.55-30.23-17.4-44.58-27.27-9.68-6.65-19.15-13.59-28.91-20.55C198.12,168.15,259.53,156.66,299.42,164.34Z" style="fill:#374151"/><path d="M171.15,296.62C125.08,310.37,52.9,280.51,27.91,237.29,88.4,228.22,127.92,266.12,171.15,296.62Z" style="fill:#374151"/></g></g></svg>