<svg xmlns="http://www.w3.org/2000/svg" xmlns:xlink="http://www.w3.org/1999/xlink" viewBox="0 0 394.54 395.93"><defs><linearGradient id="linear-gradient" y1="94.7" x2="394.54" y2="94.7" gradientUnits="userSpaceOnUse"><stop offset="0" stop-color="#60a5fa"/><stop offset="1" stop-color="#8b5cf6"/></linearGradient></defs><g id="Layer_2" data-name="Layer 2"><g id="Layer_1-2" data-name="Layer 1"><path d="M94.52,188.63c-30.89-5.26-61.35-3.45-94.52-4.12C5.36,123,31.67,74.5,80.27,39.7,145.73-7.16,216.8-12.68,288.34,23.91c63.85,32.66,98.07,87.18,106.2,160.78C362,185.58,331,183,299.23,189.4,286.44,132.55,253.44,97,193.94,98.28,137.66,99.54,106.62,134.62,94.52,188.63Z" style="fill:url(#linear-gradient)"/><path d="M18.69,282.54C7.47,260,1.55,238.16.46,213.61c55.45-4.82,107.85.07,157.35,24.84,27.85,13.93,53.46,31.23,78.88,49C266.09,308,293.57,331.93,330,341.2c-29.11,37-64.87,43.1-102.31,17.66-16.77-11.39-32.61-24.13-49.09-35.95-37.82-27.12-79.89-41.16-126.72-40.4C41.19,282.69,30.52,282.54,18.69,282.54Z" style="fill:#374151"/><path d="M394.22,214.3c-3.44,32.55-10.58,63.63-32.77,89.46-10.89,12.68-24.52,12.08-38.63,6.37-21.66-8.77-39.75-23.3-58.63-36.52-12.73-8.91-25.18-18.2-38-27.51C261,219.4,341.77,204,394.22,214.3Z" style="fill:#374151"/><path d="M225.53,391.41C165,409.82,70,369.84,37.16,312,116.71,299.83,168.68,350.57,225.53,391.41Z" style="fill:#374151"/></g></g></svg>