<svg xmlns="http://www.w3.org/2000/svg" xmlns:xlink="http://www.w3.org/1999/xlink" viewBox="0 0 1044.02 1044.52"><defs><linearGradient id="linear-gradient" x1="104.04" y1="522.35" x2="939.16" y2="522.35" gradientUnits="userSpaceOnUse"><stop offset="0" stop-color="#60a5fa"/><stop offset="1" stop-color="#8b5cf6"/></linearGradient><linearGradient id="linear-gradient-2" x1="0" y1="251.43" x2="503.01" y2="251.43" xlink:href="#linear-gradient"/><linearGradient id="linear-gradient-3" x1="542.14" y1="793.57" x2="1044.02" y2="793.57" xlink:href="#linear-gradient"/></defs><g id="Layer_2" data-name="Layer 2"><g id="Layer_1-2" data-name="Layer 1"><path d="M209.85,939.56c-26-7.25-43.19-32.54-64.79-51.9a150,150,0,0,1-13.42-14.29C94,829.64,94.2,828.17,136.33,786Q374.52,547.77,612.58,309.4q96-96.07,192-192.09c15.47-15.5,31.9-16,48.44-2.6,26.54,21.52,49.82,46.37,73,71.44,22.6,24.4,12.84,43.57-6.22,62.63Q686.05,482.53,452.2,716.21q-106,106-211.57,212.55C233.34,936.1,224.73,939.47,209.85,939.56Z" style="fill:url(#linear-gradient)"/><path d="M1037.87,425c-2.55,29-27.48,41.87-44.58,59.05Q722.53,756.11,450.5,1026.89c-20.8,20.83-42.42,8.35-62.44,2.83-31-8.53-61-20.74-90.88-32.84-22.09-9-26.28-36.35-8.95-53.68Q611.53,619.67,935.07,296.37c29.87-29.84,50.36-25,67.27,13.94C1018.37,347.23,1030.66,385.17,1037.87,425Z" style="fill:#374151"/><path d="M6.76,618.58c3.33-27.73,28-40.63,45.06-57.81Q322.6,288.64,594.72,17.82C615.46-2.94,637.23,10,657.3,15.47c29.53,8.06,58,20.33,86.59,31.46,25.45,9.89,31.2,35.91,12.05,55.09Q530.35,327.91,304.51,553.51q-98.55,98.55-197,197.15C80.81,777.4,58.35,772.5,43.36,737.38,27.12,699.33,13.8,660.54,6.76,618.58Z" style="fill:#374151"/><path d="M.19,464.24c27-185,120.33-323.89,287.52-411.23C340.64,25.36,397.43,10.14,456.1,1,475-1.93,491.7.72,500.2,20.27c7.09,16.31-.1,29.1-11.82,40.8Q273.48,275.54,58.91,490.33c-12.19,12.21-25.56,16.28-41.18,8.73C3.55,492.2-1,479.85.19,464.24Z" style="fill:url(#linear-gradient-2)"/><path d="M1043.83,578.56C1035,664.84,1006,744.1,957.51,815.76,913.35,881,856.77,932.13,788.15,972.57c-61.38,36.18-125.56,59.34-195.18,70.29-19.16,3-36.89,4.11-47.14-16.56-9.5-19.13.89-31.95,13.8-44.83q213.26-212.81,426-426.1c11.82-11.85,24.82-16.37,40.1-9.6C1039.45,551.84,1045.19,563.46,1043.83,578.56Z" style="fill:url(#linear-gradient-3)"/></g></g></svg>