<svg xmlns="http://www.w3.org/2000/svg" xmlns:xlink="http://www.w3.org/1999/xlink" viewBox="0 0 600.58 412.44"><defs><linearGradient id="linear-gradient" x1="417.9" y1="-80.29" x2="139.73" y2="388.74" gradientTransform="translate(-2.79 2.22) rotate(-0.67)" gradientUnits="userSpaceOnUse"><stop offset="0" stop-color="#60a5fa"/><stop offset="1" stop-color="#8b5cf6"/></linearGradient><linearGradient id="linear-gradient-2" x1="436.01" y1="-34.63" x2="165.2" y2="434.43" gradientTransform="matrix(1, 0, 0, 1, 0, 0)" xlink:href="#linear-gradient"/></defs><g id="Layer_2" data-name="Layer 2"><g id="Layer_1-2" data-name="Layer 1"><path d="M54,370.25l71.54-1.86s-15-12.15-23.68-22.14Z" style="fill:#261515"/><circle cx="251.88" cy="206.22" r="206.22" style="fill:#374151"/><path d="M0,260.16l33.29,66.67s54.42-28.8,95.16-42.6c0,0,167.38-64,345.12-115.77,0,0-7.89-36.14,102.6-157.87,0,0-147.33,9.18-307.33,89.57C268.84,100.16,124,166.51,0,260.16Z" style="fill:url(#linear-gradient)"/><path d="M21.53,303.62l37,64.67s52.7-31.83,92.59-47.92c0,0,163.48-73.35,338-135.17,0,0-9.92-35.64,93.48-163.44,0,0-146.57,17.53-301.75,106.87C280.86,128.63,140,203.1,21.53,303.62Z" style="fill:#fff;opacity:0.05"/><path d="M101.4,347.1c-.19.21,4.64,4.92,4.64,4.92s245.61-83,341.52-80.55a190.19,190.19,0,0,0,9.64-43.72S133.9,309.8,101.4,347.1Z" style="fill:#fff;opacity:0.06"/><path d="M21.53,303.2,54,370.25s54.75-28.15,95.65-41.47c0,0,168.12-62,346.45-111.72,0,0-7.46-36.24,104.44-156.67,0,0-147.42,7.46-308.35,86C292.23,146.36,146.58,211,21.53,303.2Z" style="fill:url(#linear-gradient-2)"/></g></g></svg>