<svg xmlns="http://www.w3.org/2000/svg" viewBox="0 0 79.72 79.71"><defs><style>.cls-1{fill:#4a59ff;}.cls-2{fill:#374151;}</style></defs><g id="Layer_2" data-name="Layer 2"><g id="Layer_1-2" data-name="Layer 1"><g id="Layer_2-2" data-name="Layer 2"><g id="Layer_1-2-2" data-name="Layer 1-2"><g id="Layer_2-2-2" data-name="Layer 2-2"><g id="Layer_1-2-2-2" data-name="Layer 1-2-2"><path class="cls-1" d="M16,71.7c-2-.55-3.29-2.48-4.94-4a10.62,10.62,0,0,1-1-1.09c-2.87-3.33-2.86-3.45.36-6.66q18.2-18.18,36.36-36.38L61.43,9a2.49,2.49,0,0,1,3.7-.2,56.29,56.29,0,0,1,5.58,5.45c1.72,1.86,1,3.33-.48,4.79L34.53,54.66q-8.1,8.1-16.16,16.22A3,3,0,0,1,16,71.7Z"/><path class="cls-2" d="M79.25,32.44c-.2,2.21-2.1,3.18-3.41,4.51Q55.17,57.71,34.39,78.38c-1.59,1.6-3.24.64-4.77.22a66.87,66.87,0,0,1-6.94-2.51A2.45,2.45,0,0,1,22,72L71.4,22.62c2.28-2.28,3.84-1.91,5.13,1.06A38.86,38.86,0,0,1,79.25,32.44Z"/><path class="cls-2" d="M.52,47.21C.78,45.08,2.64,44.11,4,42.8Q24.64,22,45.41,1.36C47-.23,48.66.76,50.19,1.18c2.26.62,4.43,1.55,6.62,2.39a2.42,2.42,0,0,1,.92,4.2Q40.5,25,23.25,42.25q-7.53,7.5-15,15c-2,2-3.75,1.66-4.9-1A39.43,39.43,0,0,1,.52,47.21Z"/><path class="cls-2" d="M0,35.43C2.08,21.31,9.2,10.72,22,4a40.88,40.88,0,0,1,12.86-4c1.44-.23,2.71,0,3.36,1.47a2.65,2.65,0,0,1-.9,3.11Q20.9,21,4.5,37.42a2.54,2.54,0,0,1-3.14.67A2.45,2.45,0,0,1,0,35.43Z"/><path class="cls-1" d="M79.7,44.15a38.86,38.86,0,0,1-6.59,18.11A39.28,39.28,0,0,1,60.18,74.21a41.62,41.62,0,0,1-14.9,5.37c-1.47.23-2.82.31-3.6-1.26s.07-2.44,1.06-3.42Q59,58.65,75.27,42.38a2.56,2.56,0,0,1,3.06-.74A2.3,2.3,0,0,1,79.7,44.15Z"/></g></g></g></g></g></g></svg>