<svg xmlns="http://www.w3.org/2000/svg" xmlns:xlink="http://www.w3.org/1999/xlink" viewBox="0 0 300 299.97"><defs><style>.cls-1{fill:url(#linear-gradient);}.cls-2{fill:#374151;}</style><linearGradient id="linear-gradient" x1="43.54" y1="45.16" x2="256.76" y2="258.38" gradientTransform="matrix(1, 0, 0, -1, 0, 302)" gradientUnits="userSpaceOnUse"><stop offset="0" stop-color="#3b82f6"/><stop offset="1" stop-color="#374151"/></linearGradient></defs><g id="Layer_2" data-name="Layer 2"><g id="Layer_1-2" data-name="Layer 1"><g id="Layer_2-2" data-name="Layer 2"><g id="Layer_1-2-2" data-name="Layer 1-2"><path class="cls-1" d="M60.3,269.85c-7.46-2.08-12.41-9.34-18.62-14.9a45.33,45.33,0,0,1-3.85-4.11c-10.82-12.56-10.76-13,1.34-25.08Q107.63,157.33,176,88.86l55.18-55.17c4.44-4.45,9.17-4.6,13.92-.74,7.63,6.18,14.31,13.31,21,20.51,6.49,7,3.69,12.52-1.79,18Q197.14,138.58,129.94,205.7q-30.47,30.47-60.8,61.05C67.05,268.86,64.58,269.83,60.3,269.85Z"/><path class="cls-2" d="M298.23,122.07c-.73,8.33-7.9,12-12.81,17q-77.81,78.13-156,155.91c-6,6-12.19,2.39-17.94.81-8.9-2.45-17.54-6-26.12-9.43-6.34-2.58-7.55-10.44-2.57-15.42Q175.73,178,268.69,85.12c8.59-8.57,14.47-7.18,19.33,4A148.55,148.55,0,0,1,298.23,122.07Z"/><path class="cls-2" d="M1.94,177.66c1-8,8-11.66,13-16.6Q92.7,82.9,170.89,5.12c6-6,12.22-2.25,18-.68,8.49,2.32,16.66,5.84,24.89,9,7.31,2.84,9,10.31,3.46,15.82Q152.41,94.18,87.5,159q-28.32,28.26-56.62,56.6c-7.66,7.68-14.11,6.27-18.42-3.82A149.31,149.31,0,0,1,1.94,177.66Z"/><path class="cls-2" d="M.05,133.33c7.77-53.14,34.58-93,82.62-118.11C97.88,7.28,114.2,2.91,131.06.29c5.42-.84,10.23-.08,12.67,5.53,2,4.69,0,8.36-3.39,11.72Q78.6,79.13,16.93,140.83c-3.5,3.5-7.35,4.68-11.83,2.51C1,141.36-.3,137.82.05,133.33Z"/><path class="cls-2" d="M299.94,166.17a146.34,146.34,0,0,1-24.8,68.13c-12.69,18.73-28.95,33.42-48.66,45a156.63,156.63,0,0,1-56.09,20.19c-5.51.87-10.6,1.18-13.55-4.75-2.73-5.5.26-9.18,4-12.88q61.28-61.12,122.42-122.38c3.39-3.4,7.13-4.7,11.52-2.76C298.69,158.5,300.34,161.83,299.94,166.17Z"/></g></g></g></g></svg>