<svg xmlns="http://www.w3.org/2000/svg" xmlns:xlink="http://www.w3.org/1999/xlink" viewBox="0 0 124.58 124.58"><defs><style>.cls-1{fill:#374151;}.cls-2{stroke:#fff;stroke-miterlimit:10;stroke-width:6px;fill:url(#linear-gradient);}</style><linearGradient id="linear-gradient" x1="95.12" y1="63.82" x2="29.61" y2="-49.64" gradientTransform="matrix(1, 0, 0, -1, 0, 69.39)" gradientUnits="userSpaceOnUse"><stop offset="0" stop-color="#60a5fa"/><stop offset="1" stop-color="#8b5cf6"/></linearGradient></defs><g id="Layer_2" data-name="Layer 2"><g id="Layer_1-2" data-name="Layer 1"><circle class="cls-1" cx="62.29" cy="62.29" r="62.29"/><path class="cls-2" d="M23,114.92c-3.28-.91-5.45-4.1-8.18-6.54a20.68,20.68,0,0,1-1.69-1.81c-4.75-5.52-4.72-5.71.59-11Q43.73,65.5,73.77,35.43L98,11.2c2-1.95,4-2,6.11-.33a91.29,91.29,0,0,1,9.23,9c2.85,3.08,1.62,5.5-.79,7.91l-59,59q-13.38,13.38-26.71,26.81A4.91,4.91,0,0,1,23,114.92Z"/></g></g></svg>