<svg xmlns="http://www.w3.org/2000/svg" viewBox="0 0 77.45 77.45"><g id="Layer_2" data-name="Layer 2"><g id="Layer_1-2" data-name="Layer 1"><circle cx="38.72" cy="38.72" r="38.72" style="fill:#ffb957"/><g id="Layer_2-2" data-name="Layer 2"><g id="Layer_1-2-2" data-name="Layer 1-2"><g id="Layer_2-2-2" data-name="Layer 2-2"><g id="Layer_1-2-2-2" data-name="Layer 1-2-2"><g id="Layer_2-2-2-2" data-name="Layer 2-2-2"><g id="Layer_1-2-2-2-2" data-name="Layer 1-2-2-2"><path d="M17.71,66.82c-1.77-.48-2.9-2.18-4.36-3.52a10,10,0,0,1-.88-1c-2.53-2.94-2.52-3,.32-5.87q16-16,32-32.06L57.74,11.57a2.2,2.2,0,0,1,3.09-.34l.18.16a49.44,49.44,0,0,1,4.91,4.8c1.52,1.64.88,2.94-.42,4.22L34,51.81Q26.9,59,19.8,66.1A2.62,2.62,0,0,1,17.71,66.82Z" style="fill:#4a59ff"/><path d="M73.45,32.22c-.18,2-1.85,2.81-3,4Q52.23,54.5,33.91,72.71c-1.4,1.41-2.85.57-4.2.19a58,58,0,0,1-6.12-2.21,2.15,2.15,0,0,1-1.15-2.82,2.05,2.05,0,0,1,.55-.78L66.53,23.57c2-2,3.39-1.68,4.52.93A34.22,34.22,0,0,1,73.45,32.22Z" style="fill:#374151"/><path d="M4.06,45.24c.23-1.88,1.87-2.73,3.07-3.89Q25.33,23,43.63,4.83c1.4-1.4,2.86-.53,4.21-.16,2,.55,3.9,1.37,5.83,2.11a2.12,2.12,0,0,1,1.51,2.61,2.09,2.09,0,0,1-.7,1.09L24.1,40.87q-6.64,6.62-13.22,13.22c-1.77,1.76-3.31,1.46-4.32-.88A34.81,34.81,0,0,1,4.06,45.24Z" style="fill:#374151"/><path d="M3.61,34.86C5.44,22.41,11.71,13.08,23,7.16A35.9,35.9,0,0,1,34.33,3.63c1.27-.2,2.39,0,3,1.3a2.34,2.34,0,0,1-.79,2.74L7.57,36.61a2.23,2.23,0,0,1-2.77.59A2.15,2.15,0,0,1,3.61,34.86Z" style="fill:#374151"/><path d="M73.85,42.54A34.52,34.52,0,0,1,56.64,69a36.66,36.66,0,0,1-13.13,4.73c-1.29.2-2.48.27-3.17-1.11s.06-2.15.93-3Q55.61,55.33,69.94,41a2.26,2.26,0,0,1,2.7-.65A2,2,0,0,1,73.85,42.54Z" style="fill:#4a59ff"/></g></g></g></g></g></g></g></g></svg>