<svg xmlns="http://www.w3.org/2000/svg" xmlns:xlink="http://www.w3.org/1999/xlink" viewBox="0 0 439.34 453.86"><defs><linearGradient id="linear-gradient" x1="378.52" y1="198.52" x2="314.19" y2="309.94" gradientUnits="userSpaceOnUse"><stop offset="0" stop-color="#60a5fa"/><stop offset="0.39" stop-color="#787bf8"/><stop offset="0.68" stop-color="#8b5cf6"/></linearGradient><linearGradient id="linear-gradient-2" x1="332.95" y1="306.21" x2="290.66" y2="379.46" gradientUnits="userSpaceOnUse"><stop offset="0" stop-color="#60a5fa"/><stop offset="0" stop-color="#8b5cf6"/></linearGradient><linearGradient id="linear-gradient-3" x1="383.52" y1="68.14" x2="283.15" y2="241.98" gradientUnits="userSpaceOnUse"><stop offset="0.31" stop-color="#60a5fa"/><stop offset="0.88" stop-color="#8b5cf6"/></linearGradient><linearGradient id="linear-gradient-4" x1="397.6" y1="168.52" x2="355.22" y2="241.93" gradientUnits="userSpaceOnUse"><stop offset="0" stop-color="#60a5fa"/><stop offset="1" stop-color="#8b5cf6"/></linearGradient><linearGradient id="linear-gradient-5" x1="232.36" y1="5.38" x2="140.82" y2="163.92" gradientUnits="userSpaceOnUse"><stop offset="0.3" stop-color="#60a5fa"/><stop offset="0.83" stop-color="#8b5cf6"/></linearGradient><linearGradient id="linear-gradient-6" x1="301.16" y1="24.88" x2="236.9" y2="136.18" gradientUnits="userSpaceOnUse"><stop offset="0.58" stop-color="#60a5fa"/><stop offset="1" stop-color="#8b5cf6"/></linearGradient></defs><g id="Layer_2" data-name="Layer 2"><g id="Layer_1-2" data-name="Layer 1"><g id="Layer_1-2-2" data-name="Layer 1-2"><polygon points="282.86 420.25 323.69 420.25 303.28 384.94 279.71 344.17 259.29 308.86 243.64 281.79 223.22 246.47 202.81 281.79 223.22 317.1 238.88 344.17 194.9 420.24 216.29 453.86 259.29 379.49 282.86 420.25" style="fill:#374151;fill-rule:evenodd"/><polygon points="207.57 344.17 187.15 308.86 122.86 420.13 163.58 420.26 207.57 344.17" style="fill:#374151;fill-rule:evenodd"/><polygon points="418.92 268.94 439.34 233.63 398.5 233.63 351.36 233.63 310.53 233.63 279.23 233.63 238.4 233.63 258.81 268.94 299.64 268.94 330.95 268.94 374.93 345.01 414.78 343.31 371.78 268.94 418.92 268.94" style="fill-rule:evenodd;fill:url(#linear-gradient)"/><polygon points="315.3 296.01 274.46 296.01 338.81 407.26 359.28 372.1 315.3 296.01" style="fill-rule:evenodd;fill:url(#linear-gradient-2)"/><polygon points="355.73 75.62 335.31 40.3 314.9 75.62 291.32 116.39 270.91 151.7 255.26 178.77 234.84 214.08 275.67 214.08 296.09 178.77 311.74 151.7 399.7 151.7 418.16 116.39 332.16 116.39 355.73 75.62" style="fill-rule:evenodd;fill:url(#linear-gradient-3)"/><polygon points="327.4 178.77 306.98 214.08 435.63 214.06 415.37 178.78 327.4 178.77" style="fill-rule:evenodd;fill:url(#linear-gradient-4)"/><polygon points="156.47 33.61 115.64 33.61 136.06 68.92 159.63 109.69 180.04 145 195.7 172.07 216.11 207.38 236.53 172.07 216.11 136.76 200.46 109.69 244.44 33.62 223.04 0 180.04 74.37 156.47 33.61" style="fill-rule:evenodd;fill:url(#linear-gradient-5)"/><polygon points="231.77 109.68 252.18 145 316.48 33.73 275.76 33.6 231.77 109.68" style="fill-rule:evenodd;fill:url(#linear-gradient-6)"/><polygon points="20.41 184.92 0 220.23 40.83 220.23 87.97 220.23 128.81 220.23 160.11 220.23 200.94 220.23 180.53 184.92 139.69 184.92 108.39 184.92 64.41 108.85 24.56 110.55 67.56 184.92 20.41 184.92" style="fill:#374151;fill-rule:evenodd"/><polygon points="124.04 157.84 164.88 157.84 100.52 46.6 80.05 81.76 124.04 157.84" style="fill:#374151;fill-rule:evenodd"/><polygon points="83.61 378.24 104.03 413.56 124.44 378.24 148.01 337.48 168.43 302.16 184.08 275.09 204.5 239.78 163.67 239.77 143.25 275.09 127.6 302.16 39.64 302.16 21.18 337.48 107.18 337.48 83.61 378.24" style="fill:#374151;fill-rule:evenodd"/><polygon points="111.94 275.09 132.36 239.78 3.71 239.81 23.96 275.08 111.94 275.09" style="fill:#374151;fill-rule:evenodd"/></g></g></g></svg>