<svg xmlns="http://www.w3.org/2000/svg" viewBox="0 0 70.31 70.28"><g id="Layer_2" data-name="Layer 2"><g id="Layer_1-2" data-name="Layer 1"><g id="Layer_2-2" data-name="Layer 2"><g id="Layer_1-2-2" data-name="Layer 1-2"><g id="Layer_2-2-2" data-name="Layer 2-2"><g id="Layer_1-2-2-2" data-name="Layer 1-2-2"><g id="Layer_2-2-2-2" data-name="Layer 2-2-2"><g id="Layer_1-2-2-2-2" data-name="Layer 1-2-2-2"><g id="Layer_2-2-2-2-2" data-name="Layer 2-2-2-2"><g id="Layer_1-2-2-2-2-2" data-name="Layer 1-2-2-2-2"><path d="M14.14,63.26c-1.77-.48-2.9-2.18-4.36-3.52a10.32,10.32,0,0,1-.88-1c-2.53-2.94-2.52-3,.32-5.87l32-32.06L54.17,8a2.19,2.19,0,0,1,3.09-.34l.18.16a49.42,49.42,0,0,1,4.91,4.8c1.52,1.64.88,2.94-.42,4.22l-31.5,31.4q-7.11,7.19-14.2,14.29A2.65,2.65,0,0,1,14.14,63.26Z" style="fill:#ff63b1"/><path d="M69.88,28.66c-.18,2-1.85,2.81-3,4Q48.66,50.93,30.34,69.15c-1.4,1.41-2.85.57-4.2.19A57.21,57.21,0,0,1,20,67.13a2.16,2.16,0,0,1-1.16-2.82h0a2.05,2.05,0,0,1,.55-.78L63,20c2-2,3.39-1.68,4.52.93A34.22,34.22,0,0,1,69.88,28.66Z" style="fill:#ff63b1"/><path d="M.49,41.68C.72,39.8,2.36,39,3.56,37.79q18.2-18.36,36.5-36.52c1.4-1.4,2.86-.53,4.21-.16,2,.55,3.9,1.37,5.83,2.11A2.11,2.11,0,0,1,51.61,5.8v0a2.13,2.13,0,0,1-.7,1.09L20.53,37.31Q13.89,43.93,7.31,50.53C5.54,52.29,4,52,3,49.65A35,35,0,0,1,.49,41.68Z" style="fill:#ff63b1"/><path d="M0,31.3C1.87,18.85,8.14,9.52,19.43,3.6A35.76,35.76,0,0,1,30.76.07c1.27-.2,2.39,0,3,1.3A2.35,2.35,0,0,1,33,4.11L4,33.05a2.24,2.24,0,0,1-2.77.59A2.15,2.15,0,0,1,0,31.3Z" style="fill:#ff63b1"/><path d="M70.28,39A34.52,34.52,0,0,1,53.07,65.44a36.73,36.73,0,0,1-13.13,4.73c-1.29.2-2.48.27-3.17-1.11s.06-2.15.93-3Q52,51.77,66.37,37.44a2.25,2.25,0,0,1,2.7-.65A2,2,0,0,1,70.28,39Z" style="fill:#ff63b1"/></g></g></g></g></g></g></g></g></g></g></svg>