<svg xmlns="http://www.w3.org/2000/svg" viewBox="0 0 400.74 323.32"><g id="Layer_2" data-name="Layer 2"><g id="Layer_1-2" data-name="Layer 1"><path d="M25.77,92.86a3.69,3.69,0,1,1,3.68-3.68A3.68,3.68,0,0,1,25.77,92.86Z" style="fill:#122129"/><path d="M25.77,111.49a3.68,3.68,0,1,1,3.68-3.68A3.68,3.68,0,0,1,25.77,111.49Z" style="fill:#122129"/><path d="M25.77,130.12a3.68,3.68,0,1,1,3.68-3.68A3.68,3.68,0,0,1,25.77,130.12Z" style="fill:#122129"/><path d="M25.77,148.75a3.68,3.68,0,1,1,3.68-3.68A3.68,3.68,0,0,1,25.77,148.75Z" style="fill:#122129"/><path d="M25.77,167.39a3.69,3.69,0,1,1,3.68-3.69A3.69,3.69,0,0,1,25.77,167.39Z" style="fill:#122129"/><circle cx="143.61" cy="113.78" r="3.68" style="fill:#f7bd1f"/><path d="M165.92,113.78a3.68,3.68,0,1,1-3.68-3.68A3.68,3.68,0,0,1,165.92,113.78Z" style="fill:#f7bd1f"/><path d="M184.56,113.78a3.69,3.69,0,1,1-3.69-3.68A3.69,3.69,0,0,1,184.56,113.78Z" style="fill:#f7bd1f"/><circle cx="199.51" cy="113.78" r="3.68" style="fill:#f7bd1f"/><path d="M221.82,113.78a3.68,3.68,0,1,1-3.68-3.68A3.69,3.69,0,0,1,221.82,113.78Z" style="fill:#f7bd1f"/><path d="M367.12,10.59a5.84,5.84,0,1,1-11.67,0V9.08a9.08,9.08,0,1,0-18.16,0v1.51a5.84,5.84,0,1,1-11.67,0V9.08a9.08,9.08,0,1,0-18.16,0v1.51a5.84,5.84,0,1,1-11.67,0V9.08a9.08,9.08,0,0,0-18.16,0v1.51a5.84,5.84,0,1,1-11.67,0V10.2h-3.24v.39a9.08,9.08,0,1,0,18.16,0V9.08a5.84,5.84,0,1,1,11.67,0v1.51a9.08,9.08,0,1,0,18.16,0V9.08a5.84,5.84,0,1,1,11.67,0v1.51a9.08,9.08,0,1,0,18.15,0V9.08a5.84,5.84,0,1,1,11.67,0v1.51a9.08,9.08,0,0,0,18.16,0Z" style="fill:#122129"/><polygon points="166.8 204.41 177.13 193.2 174.32 190.62 161.62 204.41 174.32 218.21 177.13 215.63 166.8 204.41" style="fill:#f7bd1f"/><polygon points="222.98 190.62 220.17 193.2 230.5 204.41 220.17 215.63 222.98 218.21 235.69 204.41 222.98 190.62" style="fill:#f7bd1f"/><rect x="178.23" y="202.5" width="40.83" height="3.81" transform="translate(-80.44 262.32) rotate(-57.54)" style="fill:#122129"/><path d="M241.89,265.84a6,6,0,0,1,1.51-6.67,34.35,34.35,0,0,0-3.14-2.95,5.74,5.74,0,0,1-6.52,1.5,6,6,0,0,1-3.65-5.86,35.2,35.2,0,0,0-4.3.15,5.63,5.63,0,0,1-3.57,5.59,6.16,6.16,0,0,1-6.68-1.51,33.59,33.59,0,0,0-3,3.16,5.62,5.62,0,0,1,1.49,6.53,6.17,6.17,0,0,1-5.79,3.65,25.59,25.59,0,0,0,.09,4.35,5.67,5.67,0,0,1,5.61,3.56,6,6,0,0,1-1.5,6.67,33.09,33.09,0,0,0,3.13,2.95A5.54,5.54,0,0,1,219.9,285a5.62,5.62,0,0,1,2.21.44,6,6,0,0,1,3.65,5.85c.63-.07,1.38,0,2.14,0a19.55,19.55,0,0,0,2.16-.12,5.64,5.64,0,0,1,3.57-5.6,6.17,6.17,0,0,1,6.68,1.52,33.82,33.82,0,0,0,3-3.17,5.63,5.63,0,0,1-1.49-6.53,6,6,0,0,1,5.52-3.66h.3a29.38,29.38,0,0,0-.09-4.16A6.15,6.15,0,0,1,241.89,265.84ZM228,280a8.33,8.33,0,1,1,8.33-8.33A8.34,8.34,0,0,1,228,280Z" style="fill:#f7bd1f"/><path d="M385,254.25a4.43,4.43,0,0,1,1.11-4.92,24.22,24.22,0,0,0-2.31-2.18,4.25,4.25,0,0,1-4.82,1.1,4.44,4.44,0,0,1-2.69-4.32,26.46,26.46,0,0,0-3.17.11,4.17,4.17,0,0,1-2.63,4.13,4.54,4.54,0,0,1-4.93-1.12,26.17,26.17,0,0,0-2.2,2.34,4.14,4.14,0,0,1,1.1,4.81,4.55,4.55,0,0,1-4.27,2.7,19.21,19.21,0,0,0,.06,3.2,4.18,4.18,0,0,1,4.14,2.63,4.41,4.41,0,0,1-1.11,4.92,27,27,0,0,0,2.31,2.18,4.08,4.08,0,0,1,3.18-1.42,4.2,4.2,0,0,1,1.64.32,4.4,4.4,0,0,1,2.69,4.31c.46-.05,1,0,1.58,0a14.12,14.12,0,0,0,1.59-.09,4.15,4.15,0,0,1,2.63-4.13,4.55,4.55,0,0,1,4.93,1.12,26.17,26.17,0,0,0,2.2-2.34,4.14,4.14,0,0,1-1.1-4.81,4.46,4.46,0,0,1,4.07-2.7h.22a21.16,21.16,0,0,0-.06-3.06A4.56,4.56,0,0,1,385,254.25Zm-10.28,10.42a6.15,6.15,0,1,1,6.15-6.15A6.15,6.15,0,0,1,374.67,264.67Z" style="fill:#122129"/><path d="M82.48,77.81a4.41,4.41,0,0,1,1.11-4.92,24.37,24.37,0,0,0-2.32-2.18,4.23,4.23,0,0,1-4.81,1.1,4.4,4.4,0,0,1-2.69-4.32,29,29,0,0,0-3.18.11A4.14,4.14,0,0,1,68,71.73,4.51,4.51,0,0,1,63,70.61,23.57,23.57,0,0,0,60.84,73a4.14,4.14,0,0,1,1.09,4.81,4.54,4.54,0,0,1-4.27,2.7,18.23,18.23,0,0,0,.07,3.2,4.19,4.19,0,0,1,4.14,2.63,4.43,4.43,0,0,1-1.11,4.92,24.36,24.36,0,0,0,2.31,2.18A4.07,4.07,0,0,1,66.25,92a4.16,4.16,0,0,1,1.63.32,4.41,4.41,0,0,1,2.7,4.32,13.39,13.39,0,0,1,1.57,0,14.3,14.3,0,0,0,1.6-.09,4.15,4.15,0,0,1,2.63-4.13,4.56,4.56,0,0,1,4.93,1.12,24.87,24.87,0,0,0,2.2-2.34,4.14,4.14,0,0,1-1.1-4.81,4.44,4.44,0,0,1,4.07-2.7h.22a21.22,21.22,0,0,0-.07-3.06A4.55,4.55,0,0,1,82.48,77.81ZM72.2,88.23a6.15,6.15,0,1,1,6.14-6.15A6.16,6.16,0,0,1,72.2,88.23Z" style="fill:#122129"/><path d="M360.49,285.26h0a1.43,1.43,0,0,0-.25.43.88.88,0,0,0-.05.15,1.51,1.51,0,0,0-.07.37c0,.05,0,.1,0,.15v.07a1.64,1.64,0,0,0,.09.44s0,0,0,0a2.06,2.06,0,0,0,.23.41s0,0,0,.05l6.54,7.72a1.18,1.18,0,0,0,1.84,0,1.66,1.66,0,0,0,0-2.11l-3.53-4.17a34,34,0,0,0,10.47-.45c15.65-2.84,26.73-17.29,24.69-32.22a1.36,1.36,0,0,0-1.28-1.26H399a1.49,1.49,0,0,0-1.08,1.71c1.81,13.3-8.29,26.22-22.57,28.81a32,32,0,0,1-10.23.36l5.45-3.23a1.62,1.62,0,0,0,.55-2,1.22,1.22,0,0,0-1.74-.65L360.8,285a1.14,1.14,0,0,0-.31.27Z" style="fill:#122129"/><path d="M49.2,63h0a1.67,1.67,0,0,0,.49-.12l.13-.07a1.66,1.66,0,0,0,.32-.22l.11-.09,0,0a2.19,2.19,0,0,0,.25-.37s0,0,0,0a1.83,1.83,0,0,0,.12-.46s0,0,0-.06l.82-10.08a1.18,1.18,0,0,0-1.28-1.32,1.66,1.66,0,0,0-1.51,1.48l-.45,5.44A33.89,33.89,0,0,0,40.57,50C27.5,40.94,9.45,43.33.33,55.33a1.38,1.38,0,0,0,0,1.8l.16.13a1.48,1.48,0,0,0,2-.45c8.12-10.68,24.4-12.67,36.33-4.41a32.22,32.22,0,0,1,7.49,7l-6.13-1.56a1.6,1.6,0,0,0-1.82,1,1.21,1.21,0,0,0,.77,1.69L48.79,63a1.39,1.39,0,0,0,.41,0Z" style="fill:#122129"/><path d="M122.26,270.06v20.4c0,5.18-3.42,8.59-8.6,8.6-2.25,0-4.51,0-6.77,0-.68,0-.82.2-.81.84,0,2,.45,2.41,2.45,2.41,2.89,0,5.79,0,8.68,0a4.85,4.85,0,1,1,0,9.69q-11.72,0-23.43,0a1.18,1.18,0,0,0-1.24.7,4.62,4.62,0,0,1-4.27,2.55c-2,0-4,0-6,0a1.79,1.79,0,0,0-.87.14c-4.89,2.68-10.07,4.75-15.13,7.05a11.4,11.4,0,0,1-4.73.88c-11.78,0-23.57,0-35.35,0-.75,0-.93-.18-.93-.93,0-4.71-.05-9.43,0-14.14a18.56,18.56,0,0,1,9-16.06A1.2,1.2,0,0,0,35,291c0-1,0-2.08,0-3.13a.84.84,0,0,0-.58-.9c-6-3-9-7.92-9.12-14.62,0-2.86,0-5.72,0-8.58a11,11,0,0,1,3.25-8.1c.57-.58.35-.79-.13-1.19a17.76,17.76,0,1,1,29-15.84c0,.2.07.4.09.6.2,1.65.2,1.65,1.85,1.65,6.63,0,13.26,0,19.89,0,.78,0,1.08-.13,1.18-1a17.72,17.72,0,0,1,35-.6,2.42,2.42,0,0,0,1.82,2.25,7.79,7.79,0,0,1,5,7.49C122.27,256.06,122.26,263.06,122.26,270.06ZM52.34,282.9h61.08c1.65,0,3.3,0,5,0,.54,0,.66-.16.66-.68,0-11.14,0-22.28,0-33.42a4.66,4.66,0,0,0-2.45-4c-.56-.34-.87-.46-1,.46a17.75,17.75,0,0,1-35.13-.36c-.06-.49-.14-.77-.75-.77q-10.91,0-21.82,0c-.36,0-.58,0-.68.49a17.5,17.5,0,0,1-7.09,10.78c-.22.16-.46.27-.2.62.59.78.56,2.1,1.25,2.53s1.89.12,2.87.13h.4a4.85,4.85,0,0,1,.05,9.69c-.84,0-1.69,0-2.52,0-.53,0-.63.16-.57.64.19,1.6.39,3.2.49,4.81C52.05,276.8,52.84,279.78,52.34,282.9Zm.5,37.17a13.55,13.55,0,0,1-4.08-6.16c-.58-1.86-1.12-3.73-1.67-5.6-.22-.74-.77-1.63-.54-2.18s1.43-.51,2.15-.84.85-.08,1,.53c.72,2.48,1.41,5,2.24,7.42a10,10,0,0,0,11.2,6.66c2.83-.48,5.21-2.1,7.82-3.13.46-.17.26-.44.14-.7-.45-1-.94-2-1.34-3-.22-.57-.43-.67-1-.4-2.18,1-4.39,2-6.59,3-.75.34-1.63,1.16-2.24.86s-.77-1.41-1.13-2.17a.36.36,0,0,0,0-.09c-.29-.41-.08-.58.3-.72s.6-.32.92-.41c.64-.18.7-.58.61-1.15-.33-2.09-.59-4.19-.95-6.27a15.67,15.67,0,0,0-31.13,2.52c0,3.67,0,7.34,0,11,0,.71.16.89.87.89,4,0,8.08,0,12.12,0Zm31.63-33.94q-15.73,0-31.49,0a7.49,7.49,0,0,0-4.49,1c-1,.68-.38,1.49-.55,2.22s.48.53.8.62a18.39,18.39,0,0,1,9,5.24,2,2,0,0,0,1.57.67q12.36,0,24.73,0h29.88a4.84,4.84,0,0,0,5.08-5.07c0-1.21-.06-2.42,0-3.63.06-.89-.26-1-1.06-1Q101.23,286.15,84.47,286.13ZM98.06,228a14.54,14.54,0,1,0,14.5,14.61A14.55,14.55,0,0,0,98.06,228ZM25.3,241.62a14.3,14.3,0,0,0,5.47,10.6,2.08,2.08,0,0,0,2.6.48,3.91,3.91,0,0,1,1.46-.34,69.93,69.93,0,0,1,9.27-.09,4.44,4.44,0,0,1,2.29.68,1.36,1.36,0,0,0,1.79-.18c4.66-3.51,6.79-8.14,6-14a14.51,14.51,0,0,0-15.46-12.44C31.25,226.92,25.32,233.29,25.3,241.62Zm12.93,48.73a17,17,0,0,1,5.74-1c.82,0,.68-.4.74-.91.07-.68-.23-.75-.8-.75-.8,0-1.92.37-2.3-.15s-.09-1.61-.16-2.44c-.05-.59.23-.64.7-.63,1.11,0,2.22,0,3.33,0a3.59,3.59,0,0,0,3.81-4.23c-.39-3.71-.79-7.42-1.12-11.14-.06-.69-.3-.8-.91-.8-3.09,0-6.19,0-9.29,0-.26,0-.53-.09-.77.1-2.58,2-2.89,4.73-1,6.83a16.33,16.33,0,0,0,1.5,1.5,1.63,1.63,0,0,1,.58,1.4C38.22,282.2,38.23,286.2,38.23,290.35Zm67.26,18.4H117.1c1.19,0,1.91-.62,1.92-1.6s-.71-1.62-1.9-1.62c-3.12,0-6.25,0-9.38,0a4.81,4.81,0,0,1-4.78-4,8.42,8.42,0,0,1-.09-1.81c0-.48-.05-.71-.63-.71-3.9,0-7.81,0-11.71,0-.5,0-.61.16-.6.63,0,1.24,0,2.49,0,3.73a1.09,1.09,0,0,0,.47.93A7.26,7.26,0,0,1,92.78,308c.17.66.48.78,1.11.77C97.76,308.74,101.62,308.75,105.49,308.75ZM47.54,258.66a4.62,4.62,0,0,0-4.39-3.23c-1.95,0-3.9,0-5.85,0-5.5,0-8.94,3.55-8.78,9,0,.52.13.68.67.68q4.48,0,9,0a1,1,0,0,0,1-.63q.75-1.65,1.62-3.24a4.73,4.73,0,0,1,4.35-2.61C45.91,258.65,46.68,258.66,47.54,258.66Zm13.18,40.4a19.48,19.48,0,0,1,2.29,6.8c.23,1.59.47,3.19.66,4.79.06.53.17.72.72.47,1.88-.88,3.78-1.74,5.68-2.58a.73.73,0,0,0,.49-.76c0-2.72,0-5.45,0-8.17,0-.46-.15-.56-.58-.56C67,299.07,63.93,299.06,60.72,299.06ZM35,283.66c0-1.38-.06-2.56,0-3.72a2.54,2.54,0,0,0-.87-2.1A7.29,7.29,0,0,1,32,270.58a19.25,19.25,0,0,1,.83-2.22c-1.26,0-2.45,0-3.65,0-.55,0-.67.18-.66.69,0,1.41-.05,2.82,0,4.23A12.58,12.58,0,0,0,35,283.66Zm38.78,22.65c3.59-4.23,8.15-4.31,12.93-3.88,0-1,0-1.9,0-2.83,0-.47-.17-.55-.59-.55-3.93,0-7.86,0-11.8,0-.33,0-.56,0-.56.46C73.79,301.69,73.78,303.86,73.78,306.31Zm6.4-.43a5.81,5.81,0,0,1,3.27,5.73c0,.45.25.37.51.37,1.45,0,2.89,0,4.34,0a1.56,1.56,0,0,0,1.62-1.78A4.46,4.46,0,0,0,87.1,306C84.86,305.09,82.52,305.49,80.18,305.88ZM42.49,265.12H54.05c1.2,0,1.92-.6,2-1.57s-.72-1.65-2-1.66H47.29C43.73,261.92,44.28,261.41,42.49,265.12ZM80.24,311.2a2.3,2.3,0,0,0-3.12-2.27c-1.44.54-2.82,1.24-4.23,1.85-.35.15-.45.33-.28.69.52,1.12,1,2.25,1.52,3.39.15.34.29.35.6.21,1.43-.67,2.88-1.28,4.29-2A2.13,2.13,0,0,0,80.24,311.2Z" style="fill:#122129"/><path d="M52.34,282.9c.5-3.12-.29-6.1-.48-9.11-.1-1.61-.3-3.21-.49-4.81-.06-.48,0-.66.57-.64.83.05,1.68,0,2.52,0a4.85,4.85,0,0,0-.05-9.69H54c-1,0-2.16.31-2.87-.13s-.66-1.75-1.25-2.53c-.26-.35,0-.46.2-.62a17.5,17.5,0,0,0,7.09-10.78c.1-.46.32-.49.68-.49q10.9,0,21.82,0c.61,0,.69.28.75.77a17.75,17.75,0,0,0,35.13.36c.13-.92.44-.8,1-.46a4.66,4.66,0,0,1,2.45,4c0,11.14,0,22.28,0,33.42,0,.52-.12.69-.66.68-1.65,0-3.3,0-5,0H52.34Zm18.13-3.23c2.45,0,4.91,0,7.37,0,.56,0,.81-.06.81-.74,0-3.84,0-7.67,0-11.51,0-.6-.2-.7-.74-.7q-7.37,0-14.74,0c-.6,0-.71.2-.7.75q0,5.75,0,11.51c0,.6.2.7.75.7C65.62,279.65,68,279.67,70.47,279.67ZM98.83,270H84.08c-2.22,0-2.18,0-2.24,2.22,0,.85.2,1,1,1q15.3,0,30.6,0c2.33,0,2.3,0,2.34-2.32,0-.76-.18-.93-.93-.93C109.53,270,104.18,270,98.83,270Zm0-6.46H84.08c-2.22,0-2.18,0-2.24,2.22,0,.85.2,1,1,1q15.3,0,30.6,0c2.33,0,2.3,0,2.34-2.33,0-.76-.18-.93-.93-.92C109.53,263.52,104.18,263.51,98.82,263.51ZM102,279.67h11.51c2.28,0,2.24,0,2.29-2.28,0-.8-.2-1-1-1-8,0-16.09,0-24.13,0-2.39,0-2.36,0-2.4,2.37,0,.72.18.88.89.87C93.46,279.65,97.73,279.67,102,279.67ZM70.5,250.58h5.75c2.39,0,2.36,0,2.4-2.38,0-.71-.18-.88-.89-.87-4.27,0-8.54,0-12.82,0-.8,0-1.84-.34-2.32.15s-.07,1.53-.16,2.32.15.78.77.77C65.65,250.56,68.08,250.58,70.5,250.58Zm0,6.46H76.2c2.46,0,2.43,0,2.44-2.42,0-.66-.17-.83-.82-.82-4.31,0-8.62,0-12.93,0-2.49,0-2.47,0-2.44,2.53,0,.57.16.72.73.72C65.6,257,68,257,70.45,257Zm0,6.47h5.75c2.4,0,2.37,0,2.41-2.37,0-.69-.15-.89-.87-.88-4.31,0-8.62,0-12.93,0-2.42,0-2.4,0-2.4,2.46,0,.61.13.8.77.78C65.64,263.48,68.06,263.51,70.49,263.51Zm12.93,16.16c1.67,0,1.67,0,1.67-1.66s0-1.57-1.56-1.57-1.67,0-1.67,1.65S81.86,279.67,83.42,279.67Z" style="fill:#fdfdfd"/><path d="M52.84,320.07H41.51c-4,0-8.08,0-12.12,0-.71,0-.88-.18-.87-.89,0-3.66,0-7.33,0-11a15.67,15.67,0,0,1,31.13-2.52c.36,2.08.62,4.18.95,6.27.09.57,0,1-.61,1.15-.32.09-.6.3-.92.41s-.59.31-.3.72a.36.36,0,0,1,0,.09c.36.76.54,1.87,1.13,2.17s1.49-.52,2.24-.86c2.2-1,4.41-2,6.59-3,.57-.27.78-.17,1,.4.4,1,.89,2,1.34,3,.12.26.32.53-.14.7-2.61,1-5,2.65-7.82,3.13A10,10,0,0,1,52,313.24c-.83-2.45-1.52-4.94-2.24-7.42-.18-.61-.4-.82-1-.53s-1.87.19-2.15.84.32,1.44.54,2.18c.55,1.87,1.09,3.74,1.67,5.6A13.55,13.55,0,0,0,52.84,320.07Z" style="fill:#fdfdfd"/><path d="M84.47,286.13q16.77,0,33.52,0c.8,0,1.12.12,1.06,1-.09,1.21,0,2.42,0,3.63a4.84,4.84,0,0,1-5.08,5.07H84.06q-12.36,0-24.73,0a2,2,0,0,1-1.57-.67,18.39,18.39,0,0,0-9-5.24c-.32-.09-1,0-.8-.62s-.46-1.54.55-2.22a7.49,7.49,0,0,1,4.49-1Q68.73,286.15,84.47,286.13Zm15.16,4.78c0,1.68,0,1.68,1.65,1.68s1.58,0,1.58-1.54c0-1.69,0-1.69-1.65-1.69S99.63,289.36,99.63,290.91Zm9.7.14c0-1.69,0-1.69-1.65-1.69s-1.58,0-1.58,1.55,0,1.68,1.65,1.68S109.33,292.59,109.33,291.05Zm4.94,1.54c1.52,0,1.52,0,1.52-1.5,0-1.73,0-1.73-1.71-1.73-1.52,0-1.52,0-1.52,1.51C112.56,292.59,112.56,292.59,114.27,292.59Z" style="fill:#fdfdfd"/><path d="M98.06,228a14.54,14.54,0,1,1-14.58,14.52A14.56,14.56,0,0,1,98.06,228Zm3.19,6.46h-4c-2.45,0-2.43,0-2.44,2.42,0,.67.17.83.83.83,3.23,0,6.46,0,9.69,0,2.49,0,2.47,0,2.44-2.52,0-.58-.16-.73-.73-.72C105.09,234.44,103.17,234.42,101.25,234.42Zm0,6.46H97.16c-2.41,0-2.39,0-2.39,2.47,0,.62.14.79.77.78,3.23,0,6.46,0,9.69,0,2.57,0,2.55,0,2.5-2.57,0-.52-.14-.68-.67-.67C105.14,240.9,103.22,240.88,101.3,240.88Zm0,6.47h-4c-2.45,0-2.43,0-2.44,2.42,0,.66.17.83.83.82,3.23,0,6.46,0,9.69,0,2.49,0,2.47,0,2.44-2.53,0-.57-.16-.73-.73-.72C105.09,247.37,103.17,247.35,101.25,247.35Zm-9.7-11.27c0-1.66,0-1.66-1.67-1.66s-1.56,0-1.56,1.57,0,1.66,1.68,1.66S91.55,237.65,91.55,236.08Zm0,6.43c0-1.63,0-1.63-1.6-1.63s-1.63,0-1.63,1.6,0,1.63,1.6,1.63S91.55,244.11,91.55,242.51Zm0,6.47c0-1.63,0-1.63-1.59-1.63s-1.64,0-1.64,1.59,0,1.64,1.6,1.64S91.55,250.58,91.55,249Z" style="fill:#fdfdfd"/><path d="M25.3,241.62c0-8.33,5.95-14.7,13.45-15.25a14.51,14.51,0,0,1,15.46,12.44c.76,5.82-1.37,10.45-6,14a1.36,1.36,0,0,1-1.79.18,4.44,4.44,0,0,0-2.29-.68,69.93,69.93,0,0,0-9.27.09,3.91,3.91,0,0,0-1.46.34,2.08,2.08,0,0,1-2.6-.48A14.3,14.3,0,0,1,25.3,241.62ZM41.57,228h-.21l-5,15.11c-.58-1.17-1.1-2.15-1.55-3.15a1,1,0,0,0-1.14-.72c-1.38.05-2.76.07-4.14,0-.82-.05-1,.23-1,1,0,2.26,0,2.36,2.3,2.22a2.07,2.07,0,0,1,2.31,1.47c1.17,2.52,2.46,5,3.78,7.62l4.46-13.34c.14.06.19.07.2.09.51,1.52,1.08,3,1.52,4.58.26.93.63,1.37,1.7,1.27,1.3-.13,2.62,0,3.94,0,2.55,0,2.54,0,2.44-2.62,0-.48-.12-.64-.61-.63-1.18,0-2.36-.06-3.53,0a1.27,1.27,0,0,1-1.55-1.07C44.22,235.87,42.88,232,41.57,228Z" style="fill:#fdfdfd"/><path d="M38.23,290.35c0-4.15,0-8.15,0-12.16a1.63,1.63,0,0,0-.58-1.4,16.33,16.33,0,0,1-1.5-1.5c-1.85-2.1-1.54-4.8,1-6.83.24-.19.51-.1.77-.1,3.1,0,6.2,0,9.29,0,.61,0,.85.11.91.8.33,3.72.73,7.43,1.12,11.14a3.59,3.59,0,0,1-3.81,4.23c-1.11,0-2.22,0-3.33,0-.47,0-.75,0-.7.63.07.83-.25,1.89.16,2.44s1.5.16,2.3.15c.57,0,.87.07.8.75-.06.51.08.94-.74.91A17,17,0,0,0,38.23,290.35Z" style="fill:#fdfdfd"/><path d="M105.49,308.75c-3.87,0-7.73,0-11.6,0-.63,0-.94-.11-1.11-.77a7.26,7.26,0,0,0-2.38-3.66,1.09,1.09,0,0,1-.47-.93c0-1.24,0-2.49,0-3.73,0-.47.1-.63.6-.63,3.9,0,7.81,0,11.71,0,.58,0,.64.23.63.71a8.42,8.42,0,0,0,.09,1.81,4.81,4.81,0,0,0,4.78,4c3.13,0,6.26,0,9.38,0,1.19,0,1.91.64,1.9,1.62s-.73,1.58-1.92,1.6H105.49Z" style="fill:#fdfdfd"/><path d="M47.54,258.66c-.86,0-1.63,0-2.4,0a4.73,4.73,0,0,0-4.35,2.61q-.87,1.59-1.62,3.24a1,1,0,0,1-1,.63q-4.5,0-9,0c-.54,0-.65-.16-.67-.68-.16-5.48,3.28-9,8.78-9,2,0,3.9,0,5.85,0A4.62,4.62,0,0,1,47.54,258.66Z" style="fill:#fdfdfd"/><path d="M60.72,299.06c3.21,0,6.24,0,9.26,0,.43,0,.58.1.58.56,0,2.72,0,5.45,0,8.17a.73.73,0,0,1-.49.76c-1.9.84-3.8,1.7-5.68,2.58-.55.25-.66.06-.72-.47-.19-1.6-.43-3.2-.66-4.79A19.48,19.48,0,0,0,60.72,299.06Z" style="fill:#fdfdfd"/><path d="M35,283.66a12.58,12.58,0,0,1-6.44-10.4c-.09-1.41,0-2.82,0-4.23,0-.51.11-.71.66-.69,1.2.05,2.39,0,3.65,0a19.25,19.25,0,0,0-.83,2.22,7.29,7.29,0,0,0,2.15,7.26,2.54,2.54,0,0,1,.87,2.1C34.94,281.1,35,282.28,35,283.66Z" style="fill:#fdfdfd"/><path d="M73.78,306.31c0-2.45,0-4.62,0-6.79,0-.46.23-.46.56-.46,3.94,0,7.87,0,11.8,0,.42,0,.6.08.59.55,0,.93,0,1.87,0,2.83C81.93,302,77.37,302.08,73.78,306.31Z" style="fill:#fdfdfd"/><path d="M80.18,305.88c2.34-.39,4.68-.79,6.92.12a4.46,4.46,0,0,1,2.82,4.19A1.56,1.56,0,0,1,88.3,312c-1.45,0-2.89,0-4.34,0-.26,0-.54.08-.51-.37A5.81,5.81,0,0,0,80.18,305.88Z" style="fill:#fdfdfd"/><path d="M42.49,265.12c1.79-3.71,1.24-3.2,4.8-3.23H54c1.24,0,2,.65,2,1.66s-.75,1.57-2,1.57Z" style="fill:#fdfdfd"/><path d="M80.24,311.2A2.13,2.13,0,0,1,79,313.09c-1.41.7-2.86,1.31-4.29,2-.31.14-.45.13-.6-.21-.49-1.14-1-2.27-1.52-3.39-.17-.36-.07-.54.28-.69,1.41-.61,2.79-1.31,4.23-1.85A2.3,2.3,0,0,1,80.24,311.2Z" style="fill:#fdfdfd"/><path d="M70.47,279.67c-2.43,0-4.85,0-7.27,0-.55,0-.75-.1-.75-.7q0-5.76,0-11.51c0-.55.1-.75.7-.75q7.36,0,14.74,0c.54,0,.75.1.74.7,0,3.84,0,7.67,0,11.51,0,.68-.25.74-.81.74C75.38,279.65,72.92,279.67,70.47,279.67Zm.15-3.23c1.35,0,2.7,0,4,0,.54,0,.77-.09.75-.7,0-1.68,0-3.37,0-5.05,0-.53-.09-.75-.7-.74-2.76,0-5.52,0-8.28,0-.53,0-.76.09-.75.7,0,1.68.06,3.36,0,5,0,.68.23.76.81.75C67.86,276.41,69.25,276.44,70.62,276.44Z" style="fill:#122129"/><path d="M98.83,270c5.35,0,10.7,0,16,0,.75,0,1,.17.93.93,0,2.32,0,2.32-2.34,2.32q-15.3,0-30.6,0c-.83,0-1.06-.18-1-1,.06-2.22,0-2.22,2.24-2.22Z" style="fill:#122129"/><path d="M98.82,263.51c5.36,0,10.71,0,16.06,0,.75,0,1,.16.93.92,0,2.33,0,2.33-2.34,2.33q-15.3,0-30.6,0c-.83,0-1.06-.18-1-1,.06-2.22,0-2.22,2.24-2.22Z" style="fill:#122129"/><path d="M102,279.67c-4.28,0-8.55,0-12.82,0-.71,0-.9-.15-.89-.87,0-2.37,0-2.37,2.4-2.37,8,0,16.08,0,24.13,0,.78,0,1,.17,1,1,0,2.28,0,2.28-2.29,2.28Z" style="fill:#122129"/><path d="M70.5,250.58c-2.42,0-4.85,0-7.27,0-.62,0-.84-.13-.77-.77s-.33-1.84.16-2.32,1.52-.14,2.32-.15c4.28,0,8.55,0,12.82,0,.71,0,.9.16.89.87,0,2.38,0,2.38-2.4,2.38Z" style="fill:#122129"/><path d="M70.45,257c-2.43,0-4.85,0-7.27,0-.57,0-.72-.15-.73-.72,0-2.53-.05-2.53,2.44-2.53,4.31,0,8.62,0,12.93,0,.65,0,.83.16.82.82,0,2.42,0,2.42-2.44,2.42Z" style="fill:#122129"/><path d="M70.49,263.51c-2.43,0-4.85,0-7.27,0-.64,0-.77-.17-.77-.78,0-2.46,0-2.46,2.4-2.46,4.31,0,8.62,0,12.93,0,.72,0,.87.19.87.88,0,2.37,0,2.37-2.41,2.37Z" style="fill:#122129"/><path d="M83.42,279.67c-1.56,0-1.56,0-1.56-1.58s0-1.65,1.67-1.65,1.56,0,1.56,1.57S85.09,279.67,83.42,279.67Z" style="fill:#122129"/><path d="M99.63,290.91c0-1.55,0-1.55,1.58-1.55s1.65,0,1.65,1.69c0,1.54,0,1.54-1.58,1.54S99.63,292.59,99.63,290.91Z"/><path d="M109.33,291.05c0,1.54,0,1.54-1.58,1.54s-1.65,0-1.65-1.68,0-1.55,1.58-1.55S109.33,289.36,109.33,291.05Z"/><path d="M114.27,292.59c-1.71,0-1.71,0-1.71-1.72,0-1.51,0-1.51,1.52-1.51,1.71,0,1.71,0,1.71,1.73C115.79,292.59,115.79,292.59,114.27,292.59Z"/><path d="M101.25,234.42c1.92,0,3.84,0,5.75,0,.57,0,.72.14.73.72,0,2.52,0,2.52-2.44,2.52-3.23,0-6.46,0-9.69,0-.66,0-.84-.16-.83-.83,0-2.42,0-2.42,2.44-2.42Z" style="fill:#122129"/><path d="M101.3,240.88c1.92,0,3.84,0,5.76,0,.53,0,.66.15.67.67,0,2.58.07,2.57-2.5,2.57-3.23,0-6.46,0-9.69,0-.63,0-.77-.16-.77-.78,0-2.47,0-2.47,2.39-2.47Z" style="fill:#122129"/><path d="M101.25,247.35c1.92,0,3.84,0,5.75,0,.57,0,.72.15.73.72,0,2.53,0,2.53-2.44,2.53-3.23,0-6.46,0-9.69,0-.66,0-.84-.16-.83-.82,0-2.42,0-2.42,2.44-2.42Z" style="fill:#122129"/><path d="M91.55,236.08c0,1.57,0,1.57-1.55,1.57s-1.68,0-1.68-1.66,0-1.57,1.56-1.57S91.55,234.42,91.55,236.08Z" style="fill:#122129"/><path d="M91.55,242.51c0,1.6,0,1.6-1.63,1.6s-1.6,0-1.6-1.63,0-1.6,1.63-1.6S91.55,240.88,91.55,242.51Z" style="fill:#122129"/><path d="M91.55,249c0,1.6,0,1.6-1.63,1.6s-1.6,0-1.6-1.64,0-1.59,1.64-1.59S91.55,247.35,91.55,249Z" style="fill:#122129"/><path d="M41.57,228c1.31,3.94,2.65,7.86,3.91,11.82A1.27,1.27,0,0,0,47,240.9c1.17-.09,2.35,0,3.53,0,.49,0,.59.15.61.63.1,2.62.11,2.62-2.44,2.62-1.32,0-2.64-.1-3.94,0-1.07.1-1.44-.34-1.7-1.27-.44-1.55-1-3.06-1.52-4.58,0,0-.06,0-.2-.09l-4.46,13.34c-1.32-2.64-2.61-5.1-3.78-7.62a2.07,2.07,0,0,0-2.31-1.47c-2.28.14-2.26,0-2.3-2.22,0-.76.14-1,1-1,1.38.07,2.76.05,4.14,0a1,1,0,0,1,1.14.72c.45,1,1,2,1.55,3.15l5-15.11Z" style="fill:#122129"/><path d="M70.62,276.44c-1.37,0-2.76,0-4.13,0-.58,0-.83-.07-.81-.75.06-1.68,0-3.36,0-5,0-.61.22-.71.75-.7,2.76,0,5.52,0,8.28,0,.61,0,.71.21.7.74,0,1.68,0,3.37,0,5.05,0,.61-.21.71-.75.7C73.32,276.41,72,276.44,70.62,276.44Z" style="fill:#fdfdfd"/><circle cx="138.52" cy="145.07" r="9.81" style="fill:#122129"/><circle cx="333.08" cy="82.08" r="10.77" style="fill:#f7bd1f"/><path d="M185.23,105.83h-9.67a3.15,3.15,0,0,1-2-2.5c0-.32-.26-.29-.48-.29H161.36c-.25,0-.48,0-.51.35a2.94,2.94,0,0,1-2.17,2.44H149a3.14,3.14,0,0,1-2.07-2.49c-.06-.45-.4-.29-.63-.29-2,0-4,0-6.06,0-1.05,0-1.69-.54-1.72-1.37s.64-1.42,1.73-1.42c2,0,3.93,0,5.89,0,.51,0,.76-.07.88-.64a2.64,2.64,0,0,1,2.61-2.16c.74,0,1.48,0,2.22,0,.49,0,.65-.1.65-.62q0-7.08,0-14.17c0-.53-.16-.62-.64-.62-2.84,0-5.68,0-8.52,0-3.18,0-4.83-1.66-4.83-4.85V33.78a8.08,8.08,0,0,1,0-1,4.17,4.17,0,0,1,2-3.28,4.86,4.86,0,0,1,2.67-.6c6.09,0,12.18,0,18.27,0,.66,0,.84-.19.8-.82a15.43,15.43,0,0,1,0-2,4.17,4.17,0,0,1,4.2-4.15q14,0,27.94,0a4.16,4.16,0,0,1,4.22,4.13,13.88,13.88,0,0,1,0,2c-.07.71.2.84.86.84,6,0,12.07,0,18.11,0a6.09,6.09,0,0,1,1.7.15,4.47,4.47,0,0,1,3.12,3.34V78.79c-.05,0-.11,0-.13.09-1.05,2.45-2.14,3.18-4.81,3.18s-5.56,0-8.34,0c-.58,0-.72.15-.71.72,0,1.88,0,3.76,0,5.64,0,2.78,0,5.56,0,8.34,0,.59.17.75.73.71s1.37,0,2,0A2.68,2.68,0,0,1,214,99.68c.11.49.31.58.76.58,1.93,0,3.87,0,5.81,0a1.94,1.94,0,0,1,1.92,1v1a2.66,2.66,0,0,1-2.33.83c-1.82,0-3.65,0-5.47,0-.24,0-.56-.14-.62.31a3,3,0,0,1-2.24,2.48h-9.67a3.12,3.12,0,0,1-2-2.52c0-.32-.29-.27-.5-.27H187.93c-.28,0-.47,0-.51.36A2.92,2.92,0,0,1,185.23,105.83Zm10.65-42.37c0-7,0-14.09,0-21.13,0-.69-.17-.85-.85-.85q-14.53,0-29.08,0c-.73,0-.89.18-.89.89q0,20.9,0,41.79c0,1.68.41,2.09,2.06,2.09q13.31,0,26.63,0c1.7,0,2.09-.4,2.1-2.14Zm-33.59-1c0-5.32,0-10.65,0-16,0-.67-.14-.85-.83-.85q-9.67,0-19.33,0c-.67,0-.85.14-.85.83q0,15.41,0,30.8c0,1.5.46,2,2,2,6.09,0,12.17,0,18.26,0,.69,0,.78-.24.77-.83C162.28,73.14,162.29,67.81,162.29,62.49Zm36.38,0c0,5.32,0,10.64,0,16,0,.58.07.83.77.83,6.11,0,12.23,0,18.34,0,1.38,0,1.87-.5,1.87-1.88q0-15.48,0-31c0-.63-.16-.76-.76-.76q-9.75,0-19.5,0c-.62,0-.75.16-.75.76C198.68,51.78,198.67,57.14,198.67,62.49Zm-18.19-23.8c4.86,0,9.72,0,14.58,0,.59,0,.84-.08.83-.77,0-3.77,0-7.54,0-11.31,0-1.43-.48-1.91-1.92-1.91H167c-1.44,0-1.92.48-1.92,1.92,0,3.74,0,7.48,0,11.22,0,.66.13.86.83.86C170.76,38.67,175.62,38.69,180.48,38.69ZM155.3,89.74c0,2.35,0,4.7,0,7,0,.54.14.72.68.68.71,0,1.42,0,2.13,0a2.67,2.67,0,0,1,2.71,2.25c.09.47.28.55.69.54q5.7,0,11.38,0c.43,0,.6-.11.7-.56a2.67,2.67,0,0,1,2.71-2.24,18.92,18.92,0,0,1,2.13,0c.57,0,.67-.19.67-.7,0-2.29,0-4.59,0-6.88,0-.68-.16-.86-.84-.85q-5.7.06-11.38,0a4.26,4.26,0,0,1-4.58-4.61c0-.6,0-1.2,0-1.8s-.12-.6-.58-.59c-1.94,0-3.88,0-5.81,0-.53,0-.63.17-.62.65C155.31,85.05,155.3,87.4,155.3,89.74Zm50.36,0c0-2.35,0-4.7,0-7,0-.54-.14-.7-.69-.68-1.44,0-2.89,0-4.33,0-.65,0-1.53-.29-1.87.13s-.12,1.24-.12,1.89c0,3.34-1.62,5-5,5H182.57c-.33,0-.7-.11-.7.48,0,2.49,0,5,0,7.45,0,.36.12.48.48.47.7,0,1.41,0,2.12,0a2.71,2.71,0,0,1,2.91,2.31c.1.44.29.49.66.49q5.74,0,11.47,0c.4,0,.54-.11.62-.52a2.7,2.7,0,0,1,2.78-2.27,17.34,17.34,0,0,1,2,0c.61,0,.72-.19.72-.74C205.65,94.41,205.66,92.09,205.66,89.77Zm3.42-46.87H219c.34,0,.68.1.68-.49,0-3.06,0-6.12,0-9.17a1.39,1.39,0,0,0-1.56-1.51c-6.3,0-12.6,0-18.91,0-.49,0-.51.21-.51.58,0,1,0,2,0,3,0,.54.14.67.67.66,2.84,0,5.68,0,8.52,0a3.3,3.3,0,0,1,1,.12,1.36,1.36,0,0,1,0,2.58,3.14,3.14,0,0,1-1,.09c-2.84,0-5.68,0-8.52,0-.54,0-.77.1-.74.7a25,25,0,0,1,0,2.87c0,.55.16.66.68.66C202.58,42.88,205.83,42.9,209.08,42.9Zm-57.35,0c3.3,0,6.61,0,9.91,0,.54,0,.7-.14.67-.67-.05-.74,0-1.48,0-2.21,0-1.27,0-1.27-1.22-1.34a2.7,2.7,0,0,1-.41,0,1.36,1.36,0,0,1-.08-2.66,3.58,3.58,0,0,1,1.22-.08c.39,0,.51-.1.5-.5,0-1,0-2.08,0-3.11,0-.48-.14-.58-.59-.58H143c-1.23,0-1.72.52-1.72,1.77,0,2.92,0,5.84,0,8.76,0,.55.17.66.68.66C145.23,42.88,148.48,42.9,151.73,42.9ZM180.48,103c.71,0,1.41,0,2.12,0s1.55.3,2-.12.05-1.3.13-2-.18-.71-.73-.71c-1.85,0-3.7,0-5.56,0-.67,0-1.61-.24-2,.11s-.08,1.39-.16,2.11c-.05.5.17.59.61.58C178.08,103,179.28,103,180.48,103Zm-26.65,0c.71,0,1.42,0,2.13,0s1.69.32,2-.13.09-1.42.13-2.15c0-.38-.09-.52-.5-.51-2.45,0-4.9,0-7.35,0-.41,0-.6.08-.57.53a12.34,12.34,0,0,1,0,1.72c0,.42.11.57.55.56C151.44,103,152.63,103,153.83,103Zm53.23,0h2c2.28,0,2.27,0,2.18-2.28,0-.46-.19-.52-.59-.52-2.42,0-4.85,0-7.27,0-.4,0-.6.06-.57.52a11,11,0,0,1,0,1.72c0,.5.18.58.61.57C204.66,103,205.86,103,207.06,103Z" style="fill:#122129"/><path d="M222.44,101.24a1.94,1.94,0,0,0-1.92-1c-1.94,0-3.88,0-5.81,0-.45,0-.65-.09-.76-.58a2.68,2.68,0,0,0-2.72-2.22c-.68,0-1.37,0-2,0s-.74-.12-.73-.71c0-2.78,0-5.56,0-8.34,0-1.88,0-3.76,0-5.64,0-.57.13-.73.71-.72,2.78,0,5.56,0,8.34,0s3.76-.73,4.81-3.18c0,0,.08-.06.13-.09Z" style="fill:#fdfdfd"/><path d="M185.23,105.83a2.92,2.92,0,0,0,2.19-2.43c0-.33.23-.36.51-.36H199.6c.21,0,.47-.05.5.27a3.12,3.12,0,0,0,2,2.52Z" style="fill:#fdfdfd"/><path d="M158.68,105.83a2.94,2.94,0,0,0,2.17-2.44c0-.36.26-.35.51-.35H173c.22,0,.45,0,.48.29a3.15,3.15,0,0,0,2,2.5Z" style="fill:#fdfdfd"/><path d="M211.78,105.83a3,3,0,0,0,2.24-2.48c.06-.45.38-.3.62-.31,1.82,0,3.65,0,5.47,0a2.66,2.66,0,0,0,2.33-.83c0,1,0,2.08,0,3.12,0,.41-.09.5-.5.5C218.56,105.82,215.17,105.83,211.78,105.83Z" style="fill:#fdfdfd"/><path d="M195.88,63.46V84.11c0,1.74-.4,2.14-2.1,2.14q-13.32,0-26.63,0c-1.65,0-2.06-.41-2.06-2.09q0-20.89,0-41.79c0-.71.16-.9.89-.89q14.53,0,29.08,0c.68,0,.85.16.85.85C195.86,49.37,195.88,56.42,195.88,63.46ZM180.47,80.63a5.58,5.58,0,0,0,5.59-5.54,5.58,5.58,0,1,0-11.16,0A5.58,5.58,0,0,0,180.47,80.63Zm0-36.33h-6.29a6.79,6.79,0,0,0-.9.05,1.35,1.35,0,0,0-.06,2.67,4.4,4.4,0,0,0,.89.08h12.76a4,4,0,0,0,1-.1,1.24,1.24,0,0,0,1-1.31,1.26,1.26,0,0,0-1.09-1.32,4.49,4.49,0,0,0-.9-.07Zm0,5.61h-6.7c-1.07,0-1.66.53-1.67,1.39s.62,1.37,1.66,1.41h13a5.43,5.43,0,0,0,.81,0,1.35,1.35,0,0,0,1.25-1.45,1.32,1.32,0,0,0-1.41-1.29C185.12,49.89,182.8,49.91,180.48,49.91Zm0,8.38h6.63c1.09,0,1.72-.56,1.7-1.45s-.63-1.34-1.7-1.34H173.82a2.32,2.32,0,0,0-.65,0,1.31,1.31,0,0,0-1,1.21,1.32,1.32,0,0,0,.81,1.38,2.48,2.48,0,0,0,1,.15Z" style="fill:#fcfcfc"/><path d="M162.29,62.49c0,5.32,0,10.65,0,16,0,.59-.08.83-.77.83-6.09,0-12.17,0-18.26,0-1.49,0-2-.47-2-2q0-15.39,0-30.8c0-.69.18-.83.85-.83q9.66,0,19.33,0c.69,0,.83.18.83.85C162.28,51.84,162.29,57.17,162.29,62.49Zm-8.1,0a5.57,5.57,0,1,0-.45,11.13,5.57,5.57,0,0,0,.45-11.13Zm-.26-11.25c1.34,0,2.67,0,4,0a1.41,1.41,0,0,0,1.55-1.34,1.42,1.42,0,0,0-1.55-1.44c-2.67,0-5.35,0-8,0a1.4,1.4,0,0,0-1.58,1.4c0,.84.58,1.37,1.58,1.38Zm-.06,5.6c1.34,0,2.67,0,4,0,1,0,1.6-.54,1.61-1.37a1.44,1.44,0,0,0-1.57-1.42c-2.68,0-5.35,0-8,0a1.39,1.39,0,0,0-1.55,1.42c0,.85.58,1.35,1.6,1.37C151.25,56.88,152.56,56.87,153.87,56.87Z" style="fill:#fdfdfd"/><path d="M198.67,62.49c0-5.35,0-10.71,0-16.06,0-.6.13-.76.75-.76q9.75,0,19.5,0c.6,0,.76.13.76.76q0,15.48,0,31c0,1.38-.49,1.88-1.87,1.88-6.11,0-12.23,0-18.34,0-.7,0-.78-.25-.77-.83C198.68,73.13,198.67,67.81,198.67,62.49Zm14,5.61a5.59,5.59,0,1,0-11.17,0,5.59,5.59,0,0,0,11.17,0ZM207,56.87c1.34,0,2.68,0,4,0,1,0,1.58-.53,1.58-1.38a1.41,1.41,0,0,0-1.58-1.4q-4,0-7.94,0c-1,0-1.66.61-1.63,1.45s.62,1.32,1.63,1.34C204.41,56.88,205.72,56.87,207,56.87Zm0-5.6H211c1.07,0,1.67-.5,1.67-1.37s-.6-1.41-1.65-1.42h-7.86c-1,0-1.66.6-1.64,1.44s.63,1.34,1.62,1.35Z" style="fill:#fdfdfd"/><path d="M180.48,38.69c-4.86,0-9.72,0-14.58,0-.7,0-.84-.2-.83-.86,0-3.74,0-7.48,0-11.22,0-1.44.48-1.92,1.92-1.92H194c1.44,0,1.92.48,1.92,1.91,0,3.77,0,7.54,0,11.31,0,.69-.24.77-.83.77C190.2,38.68,185.34,38.69,180.48,38.69Zm-3.5-5.6h6.14c.52,0,1,0,1.55,0a1.35,1.35,0,0,0,1.38-1.33,1.37,1.37,0,0,0-1.21-1.41,3.58,3.58,0,0,0-.73,0H169.86a2.81,2.81,0,0,0-1,.13,1.3,1.3,0,0,0-.9,1.4A1.28,1.28,0,0,0,169,33.05a4.46,4.46,0,0,0,.82,0Zm14,0h.33c1.11,0,1.75-.5,1.77-1.36s-.66-1.42-1.8-1.44H191c-1.44,0-2.16.48-2.15,1.43S189.56,33.09,191,33.09Z" style="fill:#fdfdfd"/><path d="M155.3,89.74c0-2.34,0-4.69,0-7,0-.48.09-.66.62-.65,1.93,0,3.87,0,5.81,0,.46,0,.61.12.58.59s0,1.2,0,1.8a4.26,4.26,0,0,0,4.58,4.61q5.69,0,11.38,0c.68,0,.86.17.84.85,0,2.29,0,4.59,0,6.88,0,.51-.1.74-.67.7a18.92,18.92,0,0,0-2.13,0,2.67,2.67,0,0,0-2.71,2.24c-.1.45-.27.56-.7.56q-5.69,0-11.38,0c-.41,0-.6-.07-.69-.54a2.67,2.67,0,0,0-2.71-2.25c-.71,0-1.42,0-2.13,0-.54,0-.69-.14-.68-.68C155.31,94.44,155.3,92.09,155.3,89.74Z" style="fill:#fdfdfd"/><path d="M205.66,89.77c0,2.32,0,4.64,0,7,0,.55-.11.78-.72.74a17.34,17.34,0,0,0-2,0,2.7,2.7,0,0,0-2.78,2.27c-.08.41-.22.53-.62.52q-5.73,0-11.47,0c-.37,0-.56,0-.66-.49a2.71,2.71,0,0,0-2.91-2.31c-.71,0-1.42,0-2.12,0-.36,0-.48-.11-.48-.47,0-2.48,0-5,0-7.45,0-.59.37-.48.7-.48h11.14c3.34,0,5-1.63,5-5,0-.65-.21-1.5.12-1.89s1.22-.12,1.87-.13c1.44,0,2.89,0,4.33,0,.55,0,.69.14.69.68C205.65,85.07,205.66,87.42,205.66,89.77Z" style="fill:#fdfdfd"/><path d="M209.08,42.9c-3.25,0-6.5,0-9.75,0-.52,0-.7-.11-.68-.66a25,25,0,0,0,0-2.87c0-.6.2-.71.74-.7,2.84,0,5.68,0,8.52,0a3.14,3.14,0,0,0,1-.09,1.36,1.36,0,0,0,0-2.58,3.3,3.3,0,0,0-1-.12c-2.84,0-5.68,0-8.52,0-.53,0-.7-.12-.67-.66,0-1,0-2,0-3,0-.37,0-.58.51-.58,6.31,0,12.61,0,18.91,0a1.39,1.39,0,0,1,1.56,1.51c0,3,0,6.11,0,9.17,0,.59-.34.49-.68.49Zm5.67-4.21H215c1.19,0,1.84-.49,1.85-1.37s-.68-1.42-1.89-1.43h-.17c-1.43,0-2.14.48-2.12,1.43S213.35,38.69,214.75,38.69Z" style="fill:#fdfdfd"/><path d="M151.73,42.9c-3.25,0-6.5,0-9.75,0-.51,0-.68-.11-.68-.66,0-2.92,0-5.84,0-8.76,0-1.25.49-1.77,1.72-1.77h18.67c.45,0,.61.1.59.58,0,1,0,2.07,0,3.11,0,.4-.11.53-.5.5a3.58,3.58,0,0,0-1.22.08,1.36,1.36,0,0,0,.08,2.66,2.7,2.7,0,0,0,.41,0c1.22.07,1.22.07,1.22,1.34,0,.73,0,1.47,0,2.21,0,.53-.13.67-.67.67C158.34,42.88,155,42.9,151.73,42.9Zm-1.32-4.21c1.53,0,3.05,0,4.58,0,1.07,0,1.69-.52,1.71-1.36s-.62-1.43-1.66-1.43c-3.08,0-6.17,0-9.25,0-1,0-1.68.58-1.67,1.42s.64,1.36,1.7,1.37C147.35,38.7,148.88,38.69,150.41,38.69Z" style="fill:#fdfdfd"/><path d="M180.48,103c-1.2,0-2.4,0-3.6,0-.44,0-.66-.08-.61-.58.08-.72-.3-1.66.16-2.11s1.3-.11,2-.11c1.86,0,3.71,0,5.56,0,.55,0,.81.1.73.71s.29,1.54-.13,2-1.29.1-2,.12S181.19,103,180.48,103Z" style="fill:#fcfcfc"/><path d="M153.83,103c-1.2,0-2.39,0-3.59,0-.44,0-.57-.14-.55-.56a12.34,12.34,0,0,0,0-1.72c0-.45.16-.53.57-.53,2.45,0,4.9,0,7.35,0,.41,0,.51.13.5.51,0,.73.23,1.67-.13,2.15s-1.32.11-2,.13S154.54,103,153.83,103Z" style="fill:#fcfcfc"/><path d="M207.06,103c-1.2,0-2.4,0-3.6,0-.43,0-.64-.07-.61-.57a11,11,0,0,0,0-1.72c0-.46.17-.52.57-.52,2.42,0,4.85,0,7.27,0,.4,0,.57.06.59.52.09,2.28.1,2.28-2.18,2.28Z" style="fill:#fcfcfc"/><path d="M180.47,80.63a5.58,5.58,0,0,1-5.57-5.56,5.58,5.58,0,1,1,11.16,0A5.58,5.58,0,0,1,180.47,80.63Zm2.8-5.55a2.79,2.79,0,0,0-5.58-.08,2.79,2.79,0,1,0,5.58.08Z" style="fill:#122129"/><path d="M180.47,44.3h6.38a4.49,4.49,0,0,1,.9.07,1.26,1.26,0,0,1,1.09,1.32,1.24,1.24,0,0,1-1,1.31,4,4,0,0,1-1,.1H174.11a4.4,4.4,0,0,1-.89-.08,1.35,1.35,0,0,1,.06-2.67,6.79,6.79,0,0,1,.9-.05Z" style="fill:#122129"/><path d="M180.48,49.91c2.32,0,4.64,0,7,0a1.32,1.32,0,0,1,1.41,1.29,1.35,1.35,0,0,1-1.25,1.45,5.43,5.43,0,0,1-.81,0h-13c-1,0-1.66-.56-1.66-1.41s.6-1.38,1.67-1.39h6.7Z" style="fill:#122129"/><path d="M180.52,58.29H174a2.48,2.48,0,0,1-1-.15,1.32,1.32,0,0,1-.81-1.38,1.31,1.31,0,0,1,1-1.21,2.32,2.32,0,0,1,.65,0h13.33c1.07,0,1.67.49,1.7,1.34s-.61,1.44-1.7,1.45Z" style="fill:#122129"/><path d="M154.19,62.52a5.57,5.57,0,1,1-5.83,5A5.58,5.58,0,0,1,154.19,62.52Zm-3.06,5.54a2.81,2.81,0,0,0,2.79,2.81A2.85,2.85,0,0,0,156.71,68a2.8,2.8,0,0,0-2.77-2.75A2.76,2.76,0,0,0,151.13,68.06Z" style="fill:#122129"/><path d="M153.93,51.27h-4c-1,0-1.58-.54-1.58-1.38a1.4,1.4,0,0,1,1.58-1.4c2.67,0,5.35,0,8,0a1.42,1.42,0,0,1,1.55,1.44,1.41,1.41,0,0,1-1.55,1.34C156.6,51.29,155.27,51.27,153.93,51.27Z" style="fill:#122129"/><path d="M153.87,56.87c-1.31,0-2.62,0-3.93,0-1,0-1.59-.52-1.6-1.37a1.39,1.39,0,0,1,1.55-1.42c2.68,0,5.35,0,8,0a1.44,1.44,0,0,1,1.57,1.42c0,.83-.61,1.35-1.61,1.37C156.54,56.88,155.21,56.87,153.87,56.87Z" style="fill:#122129"/><path d="M212.63,68.1a5.59,5.59,0,1,1-5.52-5.61A5.63,5.63,0,0,1,212.63,68.1Zm-5.57-2.81a2.79,2.79,0,0,0-2.8,2.8,2.79,2.79,0,0,0,5.57,0A2.75,2.75,0,0,0,207.06,65.29Z" style="fill:#122129"/><path d="M207,56.87c-1.31,0-2.62,0-3.93,0-1,0-1.6-.52-1.63-1.34s.61-1.44,1.63-1.45q4,0,7.94,0a1.41,1.41,0,0,1,1.58,1.4c0,.85-.57,1.37-1.58,1.38C209.71,56.88,208.37,56.87,207,56.87Z" style="fill:#122129"/><path d="M207,51.27h-3.93c-1,0-1.6-.54-1.62-1.35s.62-1.43,1.64-1.44H211c1.05,0,1.66.56,1.65,1.42s-.6,1.36-1.67,1.37Z" style="fill:#122129"/><path d="M177,33.09h-7.12a4.46,4.46,0,0,1-.82,0,1.28,1.28,0,0,1-1.12-1.23,1.3,1.3,0,0,1,.9-1.4,2.81,2.81,0,0,1,1-.13h14.25a3.58,3.58,0,0,1,.73,0,1.37,1.37,0,0,1,1.21,1.41,1.35,1.35,0,0,1-1.38,1.33c-.51,0-1,0-1.55,0Z" style="fill:#122129"/><path d="M191,33.09c-1.4,0-2.07-.44-2.09-1.37s.71-1.43,2.15-1.43h.24c1.14,0,1.83.57,1.8,1.44s-.66,1.35-1.77,1.36Z" style="fill:#122129"/><path d="M214.75,38.69c-1.4,0-2.07-.44-2.09-1.37s.69-1.43,2.12-1.43H215c1.21,0,1.9.53,1.89,1.43s-.66,1.36-1.85,1.37Z" style="fill:#122129"/><path d="M150.41,38.69c-1.53,0-3.06,0-4.59,0-1.06,0-1.69-.54-1.7-1.37s.63-1.42,1.67-1.42c3.08,0,6.17,0,9.25,0,1,0,1.68.59,1.66,1.43s-.64,1.35-1.71,1.36C153.46,38.7,151.94,38.69,150.41,38.69Z" style="fill:#122129"/><path d="M183.27,75.08a2.79,2.79,0,1,1-5.58-.08,2.79,2.79,0,0,1,5.58.08Z" style="fill:#fcfcfc"/><path d="M151.13,68.06a2.76,2.76,0,0,1,2.81-2.77A2.8,2.8,0,0,1,156.71,68a2.85,2.85,0,0,1-2.79,2.83A2.81,2.81,0,0,1,151.13,68.06Z" style="fill:#fcfcfc"/><path d="M207.06,65.29a2.75,2.75,0,0,1,2.77,2.8,2.79,2.79,0,1,1-2.77-2.8Z" style="fill:#fcfcfc"/><path d="M374.66,127v53c-.2,0-.19.2-.24.33a5.3,5.3,0,0,1-5.46,3.73h-4c-8.54,0-17.09,0-25.63,0-.8,0-1,.23-.93,1a19.38,19.38,0,0,1,0,2.64c0,.58.18.68.69.65q1.41,0,2.82,0a5.28,5.28,0,0,1,5.13,5.13c0,1-.05,2,0,3a2.32,2.32,0,0,1-1.25,2.44H313.18a2.54,2.54,0,0,1-1.07-2.16c.07-1,0-2.05,0-3.08a5.28,5.28,0,0,1,5.29-5.32c.94,0,1.88,0,2.82,0,.44,0,.55-.13.53-.54,0-.94-.06-1.89,0-2.82.06-.75-.19-.89-.91-.89q-15,0-29.93,0a5.24,5.24,0,0,1-5.45-5.25q0-25.41,0-50.81a5.23,5.23,0,0,1,5.2-5.23c1.17,0,2.35-.06,3.52,0,.7,0,.8-.2.79-.83,0-2.55,0-5.1,0-7.66a5.3,5.3,0,0,1,5.62-5.62h60a5.29,5.29,0,0,1,5.57,5.58c0,2.58,0,5.16,0,7.75,0,.59.1.81.75.78,1.2-.06,2.4,0,3.61,0a5.3,5.3,0,0,1,4.85,3.46C374.43,126.47,374.34,126.81,374.66,127Zm-45.1-.7q-14.79,0-29.59,0c-.8,0-1.88-.36-2.35.16s-.11,1.5-.11,2.29c0,3.52,0,7.05,0,10.57a1.77,1.77,0,0,1-2.25,1.86,1.82,1.82,0,0,1-1.27-2c0-4.08,0-8.16,0-12.24,0-.52-.08-.72-.66-.7-1.14.06-2.28,0-3.43,0a1.75,1.75,0,0,0-1.9,1.93q0,19.86,0,39.72c0,.48.11.65.62.64,1.56,0,3.11,0,4.67,0,.56,0,.73-.13.73-.72,0-2.49,0-5,0-7.48,0-1.67,0-3.35,0-5a1.72,1.72,0,0,1,1.36-1.72,1.7,1.7,0,0,1,1.89.81,2.22,2.22,0,0,1,.27,1.27c0,4.05,0,8.1,0,12.15,0,.49,0,.72.64.71,2.59,0,5.17,0,7.75,0,.52,0,.63-.17.62-.65,0-1.67,0-3.34,0-5,0-1.17.72-2,1.83-1.87,1.74.24,2.37-.5,3-2s.71-2.51-.67-3.58a1.61,1.61,0,0,1,0-2.61c1.7-1.74,3.43-3.46,5.16-5.17.83-.81,1.89-.92,2.55,0,1.12,1.48,2.15,1.32,3.73.68s2.13-1.27,1.94-2.91c-.14-1.23.64-1.88,1.9-1.89,2.41,0,4.81,0,7.22,0,1.25,0,2.05.69,1.88,1.91-.25,1.75.58,2.3,2,2.92s2.51.75,3.58-.66a1.6,1.6,0,0,1,2.55-.06c1.78,1.75,3.55,3.51,5.29,5.29a1.58,1.58,0,0,1,0,2.49c-1.56,1.14-1.54,2.32-.59,3.79.34.53.31,1.44.75,1.72s1.3.1,2,.12a1.8,1.8,0,0,1,2,2c0,1.61,0,3.23,0,4.84,0,.59.16.72.73.72,2.46,0,4.93-.05,7.4,0,.74,0,.89-.18.89-.9q0-20.26,0-40.51c0-.74-.18-.9-.9-.9Q345.16,126.3,329.56,126.27Zm0,45.8H311.81c-7.69,0-15.38,0-23.07,0-.61,0-.78.14-.77.76,0,1.79,0,3.59,0,5.38s.57,2.33,2.3,2.33h78.55c1.7,0,2.29-.58,2.29-2.26s-.05-3.52,0-5.28c0-.8-.22-.93-1-.93Q349.89,172.08,329.6,172.07Zm0-49.33q15.63,0,31.26,0c.66,0,.82-.15.81-.81,0-2.52,0-5,0-7.57,0-1.58-.61-2.2-2.17-2.2H299.66c-1.52,0-2.15.62-2.16,2.12,0,2.53,0,5,0,7.57,0,.76.21.89.92.89Q314,122.73,329.57,122.74Zm12.31,28.41a13.23,13.23,0,0,1-.92,1.11c-1,1.06-1.66,1.12-2.95.34a12.59,12.59,0,0,0-3.67-1.64c-2.3-.55-3-.81-2.76-3.48,0-.37-.11-.52-.5-.51-1,0-2,0-3,0-.43,0-.58.15-.55.56a6.94,6.94,0,0,1,0,.79c0,1.55-.38,2-1.88,2.39a16.24,16.24,0,0,0-4.3,1.74c-1.73,1-2.07,1-3.49-.47a3,3,0,0,1-.31-.31c-.26-.34-.49-.38-.81,0s-.94,1-1.42,1.44c-1,1-1,1,0,2.06s1.08,1.62.33,2.87a16.64,16.64,0,0,0-1.69,3.75c-.78,2.55-.78,2.56-3.49,2.72-.39,0-.5.12-.49.5,0,1,0,2,0,3,0,.49.16.57.6.57,3.25,0,6.51,0,9.77,0,.55,0,.59-.17.52-.65a8.4,8.4,0,0,1,3.86-8.72,8.26,8.26,0,0,1,9.6,0,8.39,8.39,0,0,1,3.89,8.7c-.08.54,0,.7.57.69,2.55,0,5.11,0,7.66,0,.87,0,2,.38,2.52-.17s.12-1.62.12-2.46c0-1.41,0-1.41-1.41-1.41s-1.93-.37-2.31-1.85a16.43,16.43,0,0,0-1.92-4.6c-.78-1.29-.71-1.87.35-2.94a6,6,0,0,1,.57-.56c.42-.31.33-.55,0-.88C343.57,152.9,342.8,152.09,341.88,151.15Zm29.25-3.1q0-9.86,0-19.72a1.8,1.8,0,0,0-2-2.06c-1.09,0-2.17,0-3.26,0-.49,0-.7,0-.7.64q0,20.5,0,41c0,.48.11.65.62.64,1.5,0,3-.06,4.49,0,.71,0,.92-.13.91-.89C371.12,161.13,371.13,154.59,371.13,148.05Zm-41.6,47.27h12.33c1.67,0,1.67,0,1.62-1.64a1.75,1.75,0,0,0-1.87-1.88q-12.06,0-24.13,0a1.74,1.74,0,0,0-1.83,1.82c0,.15,0,.29,0,.44,0,1.26,0,1.26,1.21,1.26Zm0-26.78c1.43,0,2.87,0,4.31,0a.73.73,0,0,0,.86-.61,5.29,5.29,0,1,0-10.19,0,.69.69,0,0,0,.79.58C326.67,168.52,328.08,168.54,329.49,168.54Zm0,19.73c1.52,0,3.05,0,4.57,0,.59,0,.84-.09.79-.74a22.11,22.11,0,0,1,0-2.82c0-.62-.21-.7-.74-.7-3,0-6.05,0-9.07,0-.58,0-.83.09-.79.74a22.11,22.11,0,0,1,0,2.82c0,.62.21.71.75.69C326.5,188.25,328,188.27,329.5,188.27Z" style="fill:#122129"/><path d="M345.77,198.84A2.32,2.32,0,0,0,347,196.4c-.07-1,0-2,0-3a5.28,5.28,0,0,0-5.13-5.13q-1.41,0-2.82,0c-.51,0-.73-.07-.69-.65a19.38,19.38,0,0,0,0-2.64c-.05-.74.13-1,.93-1,8.54,0,17.09,0,25.63,0h4a5.3,5.3,0,0,0,5.46-3.73c.05-.13,0-.3.24-.33,0,6.08,0,12.16,0,18.24,0,.52-.1.63-.63.63Q359.91,198.83,345.77,198.84Z" style="fill:#fefefe"/><path d="M329.56,126.27q15.58,0,31.18,0c.72,0,.9.16.9.9q0,20.25,0,40.51c0,.72-.15.92-.89.9-2.47-.05-4.94,0-7.4,0-.57,0-.74-.13-.73-.72.05-1.61,0-3.23,0-4.84a1.8,1.8,0,0,0-2-2c-.67,0-1.49.19-2-.12s-.41-1.19-.75-1.72c-.95-1.47-1-2.65.59-3.79a1.58,1.58,0,0,0,0-2.49c-1.74-1.78-3.51-3.54-5.29-5.29a1.6,1.6,0,0,0-2.55.06c-1.07,1.41-2.06,1.31-3.58.66s-2.29-1.17-2-2.92c.17-1.22-.63-1.9-1.88-1.91-2.41,0-4.81,0-7.22,0-1.26,0-2,.66-1.9,1.89.19,1.64-.42,2.29-1.94,2.91s-2.61.8-3.73-.68c-.66-.88-1.72-.77-2.55,0-1.73,1.71-3.46,3.43-5.16,5.17a1.61,1.61,0,0,0,0,2.61c1.38,1.07,1.32,2,.67,3.58s-1.28,2.28-3,2c-1.11-.16-1.82.7-1.83,1.87,0,1.68,0,3.35,0,5,0,.48-.1.65-.62.65-2.58,0-5.16,0-7.75,0-.6,0-.64-.22-.64-.71,0-4,0-8.1,0-12.15a2.22,2.22,0,0,0-.27-1.27,1.7,1.7,0,0,0-1.89-.81,1.72,1.72,0,0,0-1.36,1.72c0,1.67,0,3.35,0,5,0,2.49,0,5,0,7.48,0,.59-.17.73-.73.72-1.56,0-3.11,0-4.67,0-.51,0-.62-.16-.62-.64q0-19.86,0-39.72a1.75,1.75,0,0,1,1.9-1.93c1.15,0,2.29,0,3.43,0,.58,0,.66.18.66.7,0,4.08,0,8.16,0,12.24a1.82,1.82,0,0,0,1.27,2,1.77,1.77,0,0,0,2.25-1.86c0-3.52,0-7.05,0-10.57,0-.79-.28-1.84.11-2.29s1.55-.16,2.35-.16Q314.77,126.25,329.56,126.27Zm-5.37,4.93h-7.74c-1.29,0-2.06.67-2.05,1.77s.76,1.75,2.06,1.75h15.48c1.3,0,2.08-.65,2.11-1.72s-.78-1.8-2.12-1.8Zm23.34,0h-7.12c-1.31,0-2.08.64-2.1,1.72s.76,1.8,2.11,1.8h14.15c1.29,0,2.09-.66,2.11-1.72s-.79-1.8-2.12-1.8Zm1.45,8.46h-5.8c-1.28,0-2.05.67-2.05,1.76s.77,1.75,2.07,1.76h11.42c1.26,0,2.07-.71,2.06-1.77s-.8-1.75-2.07-1.75Zm-39.71,3.52h4.92a1.77,1.77,0,1,0,0-3.52h-9.76a1.77,1.77,0,1,0,0,3.52Zm-2.94-12h-2a1.76,1.76,0,1,0,0,3.52q2,0,4.05,0a1.76,1.76,0,1,0-.06-3.52Zm-10.56,18a1.76,1.76,0,1,0-1.78-1.77A1.78,1.78,0,0,0,295.77,149.16Z" style="fill:#fdfdfd"/><path d="M329.6,172.07q20.29,0,40.6,0c.74,0,1,.13,1,.93-.08,1.76,0,3.52,0,5.28s-.59,2.26-2.29,2.26H290.29c-1.73,0-2.3-.57-2.3-2.33s0-3.59,0-5.38c0-.62.16-.76.77-.76,7.69,0,15.38,0,23.07,0Z" style="fill:#fefefe"/><path d="M329.57,122.74q-15.58,0-31.17,0c-.71,0-.93-.13-.92-.89.06-2.52,0-5,0-7.57,0-1.5.64-2.12,2.16-2.12h59.79c1.56,0,2.17.62,2.17,2.2,0,2.52,0,5.05,0,7.57,0,.66-.15.81-.81.81Q345.2,122.73,329.57,122.74Zm14.75-3.52c3.14,0,6.28,0,9.42,0a1.77,1.77,0,0,0,1.89-1.77,1.74,1.74,0,0,0-1.82-1.74c-6.31,0-12.61,0-18.92,0a1.74,1.74,0,0,0-1.59.93,1.76,1.76,0,0,0,1.7,2.59C338.11,119.24,341.22,119.22,344.32,119.22ZM307,117.43a1.76,1.76,0,1,0-1.77,1.79A1.78,1.78,0,0,0,307,117.43Zm7.75,0a1.76,1.76,0,1,0-1.77,1.79A1.77,1.77,0,0,0,314.76,117.43Zm7.75,0a1.76,1.76,0,1,0-1.79,1.77A1.77,1.77,0,0,0,322.51,117.45Z" style="fill:#fefefe"/><path d="M341.88,151.15c.92.94,1.69,1.75,2.49,2.52.35.33.44.57,0,.88a6,6,0,0,0-.57.56c-1.06,1.07-1.13,1.65-.35,2.94a16.43,16.43,0,0,1,1.92,4.6c.38,1.48.83,1.84,2.31,1.85s1.42,0,1.41,1.41c0,.84.3,2-.12,2.46s-1.65.16-2.52.17c-2.55,0-5.11,0-7.66,0-.58,0-.65-.15-.57-.69a8.39,8.39,0,0,0-3.89-8.7,8.26,8.26,0,0,0-9.6,0,8.4,8.4,0,0,0-3.86,8.72c.07.48,0,.65-.52.65-3.26,0-6.52,0-9.77,0-.44,0-.62-.08-.6-.57,0-1,0-2,0-3,0-.38.1-.48.49-.5,2.71-.16,2.71-.17,3.49-2.72a16.64,16.64,0,0,1,1.69-3.75c.75-1.25.68-1.85-.33-2.87s-1-1,0-2.06c.48-.48,1-.93,1.42-1.44s.55-.32.81,0a3,3,0,0,0,.31.31c1.42,1.42,1.76,1.46,3.49.47a16.24,16.24,0,0,1,4.3-1.74c1.5-.35,1.87-.84,1.88-2.39a6.94,6.94,0,0,0,0-.79c0-.41.12-.57.55-.56,1,0,2,0,3,0,.39,0,.53.14.5.51-.22,2.67.46,2.93,2.76,3.48A12.59,12.59,0,0,1,338,152.6c1.29.78,1.91.72,2.95-.34A13.23,13.23,0,0,0,341.88,151.15Z" style="fill:#fdfdfd"/><path d="M371.13,148.05c0,6.54,0,13.08,0,19.62,0,.76-.2.92-.91.89-1.49-.06-3,0-4.49,0-.51,0-.62-.16-.62-.64q0-20.52,0-41c0-.59.21-.66.7-.64,1.09,0,2.17,0,3.26,0a1.8,1.8,0,0,1,2,2.06Q371.15,138.19,371.13,148.05Z" style="fill:#fefefe"/><path d="M329.53,195.32H316.85c-1.21,0-1.21,0-1.21-1.26,0-.15,0-.29,0-.44a1.74,1.74,0,0,1,1.83-1.82q12.07,0,24.13,0a1.75,1.75,0,0,1,1.87,1.88c0,1.64,0,1.64-1.62,1.64Z" style="fill:#fefefe"/><path d="M329.49,168.54c-1.41,0-2.82,0-4.23,0a.69.69,0,0,1-.79-.58,5.29,5.29,0,1,1,10.19,0,.73.73,0,0,1-.86.61C332.36,168.52,330.92,168.54,329.49,168.54Z" style="fill:#fdfdfd"/><path d="M329.5,188.27c-1.5,0-3,0-4.49,0-.54,0-.79-.07-.75-.69a22.11,22.11,0,0,0,0-2.82c0-.65.21-.74.79-.74,3,0,6.05,0,9.07,0,.53,0,.78.08.74.7a22.11,22.11,0,0,0,0,2.82c.05.65-.2.75-.79.74C332.55,188.25,331,188.27,329.5,188.27Z" style="fill:#fefefe"/><path d="M324.19,131.2h7.74c1.34,0,2.14.69,2.12,1.8s-.81,1.72-2.11,1.72H316.46c-1.3,0-2.06-.66-2.06-1.75s.76-1.77,2.05-1.77Z" style="fill:#122129"/><path d="M347.53,131.2h7c1.33,0,2.15.71,2.12,1.8s-.82,1.72-2.11,1.72H340.42c-1.35,0-2.13-.67-2.11-1.8s.79-1.72,2.1-1.72Z" style="fill:#122129"/><path d="M349,139.66h5.63c1.27,0,2.07.69,2.07,1.75s-.8,1.76-2.06,1.77H343.2c-1.3,0-2.06-.67-2.07-1.76s.77-1.76,2.05-1.76Z" style="fill:#122129"/><path d="M309.27,143.18h-4.84a1.77,1.77,0,1,1,0-3.52h9.76a1.77,1.77,0,1,1,0,3.52Z" style="fill:#122129"/><path d="M306.33,131.2h1.93a1.76,1.76,0,1,1,.06,3.52q-2,0-4.05,0a1.76,1.76,0,1,1,0-3.52Z" style="fill:#122129"/><path d="M295.77,149.16a1.76,1.76,0,1,1,1.73-1.83A1.76,1.76,0,0,1,295.77,149.16Z" style="fill:#122129"/><path d="M344.32,119.22c-3.1,0-6.21,0-9.32,0a1.76,1.76,0,0,1-1.7-2.59,1.74,1.74,0,0,1,1.59-.93c6.31,0,12.61,0,18.92,0a1.74,1.74,0,0,1,1.82,1.74,1.77,1.77,0,0,1-1.89,1.77C350.6,119.23,347.46,119.22,344.32,119.22Z" style="fill:#122129"/><path d="M307,117.43a1.76,1.76,0,1,1-1.74-1.73A1.78,1.78,0,0,1,307,117.43Z" style="fill:#122129"/><path d="M314.76,117.43A1.76,1.76,0,1,1,313,115.7,1.78,1.78,0,0,1,314.76,117.43Z" style="fill:#122129"/><path d="M322.51,117.45a1.76,1.76,0,1,1-1.72-1.75A1.78,1.78,0,0,1,322.51,117.45Z" style="fill:#122129"/></g></g></svg>