<svg xmlns="http://www.w3.org/2000/svg" xmlns:xlink="http://www.w3.org/1999/xlink" viewBox="0 0 524.82 340.16"><defs><linearGradient id="Áåçûìÿííûé_ãðàäèåíò_106" x1="487.37" y1="146.14" x2="510.38" y2="146.14" gradientUnits="userSpaceOnUse"><stop offset="0" stop-color="#0e31af"/><stop offset="1" stop-color="#3345cf"/></linearGradient><linearGradient id="Áåçûìÿííûé_ãðàäèåíò_106-2" x1="487.37" y1="259.06" x2="510.38" y2="259.06" xlink:href="#Áåçûìÿííûé_ãðàäèåíò_106"/><linearGradient id="Áåçûìÿííûé_ãðàäèåíò_7" x1="487.99" y1="221.93" x2="511" y2="221.93" gradientUnits="userSpaceOnUse"><stop offset="0" stop-color="#9eacff"/><stop offset="1" stop-color="#9e83f8"/></linearGradient><linearGradient id="Áåçûìÿííûé_ãðàäèåíò_106-3" x1="489.84" y1="221.2" x2="507.69" y2="221.2" xlink:href="#Áåçûìÿííûé_ãðàäèåíò_106"/></defs><g style="isolation:isolate"><g id="Layer_2" data-name="Layer 2"><g id="layer_1-2" data-name="layer 1"><path d="M506.44,50.06H417.22a16.06,16.06,0,0,0-16,16.1V287.6a16.06,16.06,0,0,0,16,16.1h89.22a16.06,16.06,0,0,0,16-16.1V66.16A16.06,16.06,0,0,0,506.44,50.06Z" style="fill:#b0bfdd"/><path d="M409.53,62.31a3.62,3.62,0,0,0-3.65,3.53V287.16a11.09,11.09,0,0,0,11.06,11.13h89.33a11.58,11.58,0,0,0,11.51-11.58V65.86a3.62,3.62,0,0,0-3.65-3.55Z" style="fill:#336291"/><path d="M427.53,70.41H410.11c-.51,0-.92-.76-.92-1.69h0c0-.93.41-1.68.92-1.68h17.42c.51,0,.92.75.92,1.68h0C428.45,69.65,428,70.41,427.53,70.41Z" style="fill:#2d5eea"/><path d="M501.11,70.41H432c-.51,0-.92-.76-.92-1.69h0c0-.93.41-1.68.92-1.68h69.08c.51,0,.92.75.92,1.68h0C502,69.65,501.62,70.41,501.11,70.41Z" style="fill:#194866"/><path d="M463.88,77.36H432c-.51,0-.92-.75-.92-1.68h0c0-.93.41-1.68.92-1.68h31.85c.51,0,.92.75.92,1.68h0C464.8,76.61,464.39,77.36,463.88,77.36Z" style="fill:#194866"/><path d="M492.57,77.36H467.43c-.51,0-.92-.75-.92-1.68h0c0-.93.41-1.68.92-1.68h25.14c.5,0,.92.75.92,1.68h0C493.49,76.61,493.07,77.36,492.57,77.36Z" style="fill:#194866"/><path d="M501.11,111.24H432c-.51,0-.92-.75-.92-1.68h0c0-.93.41-1.69.92-1.69h69.08c.51,0,.92.76.92,1.69h0C502,110.49,501.62,111.24,501.11,111.24Z" style="fill:#194866"/><path d="M427.53,118.2H410.11c-.51,0-.92-.76-.92-1.69h0c0-.93.41-1.68.92-1.68h17.42c.51,0,.92.75.92,1.68h0C428.45,117.44,428,118.2,427.53,118.2Z" style="fill:#194866"/><path d="M463.88,118.2H432c-.51,0-.92-.76-.92-1.69h0c0-.93.41-1.68.92-1.68h31.85c.51,0,.92.75.92,1.68h0C464.8,117.44,464.39,118.2,463.88,118.2Z" style="fill:#194866"/><path d="M492.57,118.2H467.43c-.51,0-.92-.76-.92-1.69h0c0-.93.41-1.68.92-1.68h25.14c.5,0,.92.75.92,1.68h0C493.49,117.44,493.07,118.2,492.57,118.2Z" style="fill:#2d5eea"/><path d="M514.67,84.32H432c-.51,0-.92-.75-.92-1.68h0c0-.93.41-1.68.92-1.68h82.64c.51,0,.92.75.92,1.68h0C515.59,83.57,515.18,84.32,514.67,84.32Z" style="fill:#194866"/><rect x="483.51" y="87.91" width="17.83" height="3.37" rx="0.67" style="fill:#194866"/><path d="M469.1,91.28H432c-.51,0-.92-.75-.92-1.68h0c0-.93.41-1.69.92-1.69H469.1c.51,0,.92.76.92,1.69h0C470,90.53,469.61,91.28,469.1,91.28Z" style="fill:#194866"/><path d="M481.17,91.28h-9c-.51,0-.92-.75-.92-1.68h0c0-.93.41-1.69.92-1.69h9c.51,0,.92.76.92,1.69h0C482.09,90.53,481.68,91.28,481.17,91.28Z" style="fill:#2d5eea"/><path d="M514.67,98H432c-.51,0-.92-.75-.92-1.68h0c0-.93.41-1.68.92-1.68h82.64c.51,0,.92.75.92,1.68h0C515.59,97.25,515.18,98,514.67,98Z" style="fill:#194866"/><path d="M427.53,124.64H410.11c-.51,0-.92-.75-.92-1.68h0c0-.93.41-1.69.92-1.69h17.42c.51,0,.92.76.92,1.69h0C428.45,123.89,428,124.64,427.53,124.64Z" style="fill:#194866"/><path d="M483.79,121.27h24.12a.27.27,0,0,1,.27.27v2.82a.28.28,0,0,1-.28.28H483.79a.27.27,0,0,1-.27-.27v-2.82A.28.28,0,0,1,483.79,121.27Z" style="fill:#194866"/><path d="M469.1,124.64H432c-.51,0-.92-.75-.92-1.68h0c0-.93.41-1.69.92-1.69H469.1c.51,0,.92.76.92,1.69h0C470,123.89,469.61,124.64,469.1,124.64Z" style="fill:#194866"/><path d="M481.17,124.64h-9c-.51,0-.92-.75-.92-1.68h0c0-.93.41-1.69.92-1.69h9c.51,0,.92.76.92,1.69h0C482.09,123.89,481.68,124.64,481.17,124.64Z" style="fill:#194866"/><path d="M427.53,131.37H410.11c-.51,0-.92-.76-.92-1.69h0c0-.93.41-1.68.92-1.68h17.42c.51,0,.92.75.92,1.68h0C428.45,130.61,428,131.37,427.53,131.37Z" style="fill:#194866"/><path d="M458.25,131.37H432c-.51,0-.92-.76-.92-1.69h0c0-.93.41-1.68.92-1.68h26.22c.51,0,.92.75.92,1.68h0C459.17,130.61,458.76,131.37,458.25,131.37Z" style="fill:#194866"/><path d="M410.11,84.32c-.51,0-.92-.75-.92-1.68h0c0-.93.41-1.68.92-1.68h17.42c.51,0,.92.75.92,1.68h0c0,.93-.41,1.68-.92,1.68Z" style="fill:#194866"/><rect x="483.51" y="101.59" width="27.88" height="3.37" rx="0.29" style="fill:#194866"/><path d="M469.1,105H432c-.51,0-.92-.75-.92-1.68h0c0-.93.41-1.69.92-1.69H469.1c.51,0,.92.76.92,1.69h0C470,104.21,469.61,105,469.1,105Z" style="fill:#194866"/><path d="M481.17,105h-9c-.51,0-.92-.75-.92-1.68h0c0-.93.41-1.69.92-1.69h9c.51,0,.92.76.92,1.69h0C482.09,104.21,481.68,105,481.17,105Z" style="fill:#194866"/><path d="M501.11,138.52H432c-.51,0-.92-.76-.92-1.68h0c0-.93.41-1.69.92-1.69h69.08c.51,0,.92.76.92,1.69h0C502,137.76,501.62,138.52,501.11,138.52Z" style="fill:#194866"/><path d="M463.88,145.48H432c-.51,0-.92-.76-.92-1.69h0c0-.93.41-1.68.92-1.68h31.85c.51,0,.92.75.92,1.68h0C464.8,144.72,464.39,145.48,463.88,145.48Z" style="fill:#194866"/><path d="M492.57,145.48H467.43c-.51,0-.92-.76-.92-1.69h0c0-.93.41-1.68.92-1.68h25.14c.5,0,.92.75.92,1.68h0C493.49,144.72,493.07,145.48,492.57,145.48Z" style="fill:#194866"/><path d="M501.11,179.35H432c-.51,0-.92-.75-.92-1.68h0c0-.93.41-1.69.92-1.69h69.08c.51,0,.92.76.92,1.69h0C502,178.6,501.62,179.35,501.11,179.35Z" style="fill:#194866"/><path d="M427.53,186.31H410.11c-.51,0-.92-.76-.92-1.69h0c0-.93.41-1.68.92-1.68h17.42c.51,0,.92.75.92,1.68h0C428.45,185.55,428,186.31,427.53,186.31Z" style="fill:#194866"/><path d="M463.88,186.31H432c-.51,0-.92-.76-.92-1.69h0c0-.93.41-1.68.92-1.68h31.85c.51,0,.92.75.92,1.68h0C464.8,185.55,464.39,186.31,463.88,186.31Z" style="fill:#194866"/><path d="M492.57,186.31H467.43c-.51,0-.92-.76-.92-1.69h0c0-.93.41-1.68.92-1.68h25.14c.5,0,.92.75.92,1.68h0C493.49,185.55,493.07,186.31,492.57,186.31Z" style="fill:#194866"/><path d="M427.53,152.43H410.11c-.51,0-.92-.75-.92-1.68h0c0-.93.41-1.68.92-1.68h17.42c.51,0,.92.75.92,1.68h0C428.45,151.68,428,152.43,427.53,152.43Z" style="fill:#194866"/><rect x="431.11" y="149.07" width="65.25" height="3.37" rx="0.27" style="fill:#194866"/><path d="M427.53,159.39H410.11c-.51,0-.92-.75-.92-1.68h0c0-.93.41-1.69.92-1.69h17.42c.51,0,.92.76.92,1.69h0C428.45,158.64,428,159.39,427.53,159.39Z" style="fill:#194866"/><path d="M469.1,159.39H432c-.51,0-.92-.75-.92-1.68h0c0-.93.41-1.69.92-1.69H469.1c.51,0,.92.76.92,1.69h0C470,158.64,469.61,159.39,469.1,159.39Z" style="fill:#194866"/><path d="M481.17,159.39h-9c-.51,0-.92-.75-.92-1.68h0c0-.93.41-1.69.92-1.69h9c.51,0,.92.76.92,1.69h0C482.09,158.64,481.68,159.39,481.17,159.39Z" style="fill:#194866"/><path d="M427.53,166.12H410.11c-.51,0-.92-.76-.92-1.69h0c0-.93.41-1.68.92-1.68h17.42c.51,0,.92.75.92,1.68h0C428.45,165.36,428,166.12,427.53,166.12Z" style="fill:#194866"/><rect x="431.11" y="162.75" width="78.43" height="3.37" rx="0.3" style="fill:#194866"/><path d="M427.53,192.75H410.11c-.51,0-.92-.75-.92-1.68h0c0-.93.41-1.69.92-1.69h17.42c.51,0,.92.76.92,1.69h0C428.45,192,428,192.75,427.53,192.75Z" style="fill:#194866"/><path d="M514.6,192.75H484.43c-.51,0-.92-.75-.92-1.68h0c0-.93.41-1.69.92-1.69H514.6c.51,0,.92.76.92,1.69h0C515.52,192,515.11,192.75,514.6,192.75Z" style="fill:#194866"/><path d="M469.1,192.75H432c-.51,0-.92-.75-.92-1.68h0c0-.93.41-1.69.92-1.69H469.1c.51,0,.92.76.92,1.69h0C470,192,469.61,192.75,469.1,192.75Z" style="fill:#194866"/><path d="M481.17,192.75h-9c-.51,0-.92-.75-.92-1.68h0c0-.93.41-1.69.92-1.69h9c.51,0,.92.76.92,1.69h0C482.09,192,481.68,192.75,481.17,192.75Z" style="fill:#194866"/><rect x="431.11" y="196.11" width="56.7" height="3.37" rx="0.24" style="fill:#194866"/><rect x="483.51" y="169.71" width="29.52" height="3.37" rx="0.3" style="fill:#194866"/><path d="M469.1,173.07H432c-.51,0-.92-.75-.92-1.68h0c0-.93.41-1.68.92-1.68H469.1c.51,0,.92.75.92,1.68h0C470,172.32,469.61,173.07,469.1,173.07Z" style="fill:#194866"/><path d="M481.17,173.07h-9c-.51,0-.92-.75-.92-1.68h0c0-.93.41-1.68.92-1.68h9c.51,0,.92.75.92,1.68h0C482.09,172.32,481.68,173.07,481.17,173.07Z" style="fill:#194866"/><path d="M405.88,122.7V287.16a11.09,11.09,0,0,0,11.06,11.13h89.33a11.58,11.58,0,0,0,11.51-11.58V130.8a8.1,8.1,0,0,0-8.09-8.1Z" style="fill:#2d5eea"/><path d="M401.21,148.14V180.3a2.38,2.38,0,0,1-2.37-2.39V150.52A2.38,2.38,0,0,1,401.21,148.14Z" style="fill:#86c0f2"/><path d="M401.21,107v32.16a2.38,2.38,0,0,1-2.37-2.39V109.4A2.38,2.38,0,0,1,401.21,107Z" style="fill:#86c0f2"/><path d="M522.45,121.17V96.56a2.38,2.38,0,0,1,2.37,2.38v19.84A2.39,2.39,0,0,1,522.45,121.17Z" style="fill:#86c0f2"/><path d="M401.21,79.61V90.54a2.38,2.38,0,0,1-2.37-2.39V82A2.38,2.38,0,0,1,401.21,79.61Z" style="fill:#86c0f2"/><path d="M479.44,295.79H446.21a1.79,1.79,0,0,1-1.78-1.79h0a1.79,1.79,0,0,1,1.78-1.79h33.23a1.79,1.79,0,0,1,1.78,1.79h0A1.79,1.79,0,0,1,479.44,295.79Z" style="fill:#3ec7c9"/><path d="M473.66,56.39a1.57,1.57,0,1,0,1.57-1.58A1.57,1.57,0,0,0,473.66,56.39Z" style="fill:#336291"/><path d="M455.45,57.28h14a.92.92,0,1,0,0-1.81h-14a.92.92,0,1,0,0,1.81Z" style="fill:#336291"/><rect x="484.17" y="131.35" width="29.42" height="29.59" rx="1.91" style="fill:#b0bfdd"/><path d="M510.33,146.13l1-.48a10.47,10.47,0,0,0-.19-1.12c-.08-.37-.18-.72-.29-1.09l-1.1,0a1.59,1.59,0,0,1-1.27-2.46l.61-.92a11.34,11.34,0,0,0-1.53-1.65l-.94.52a1.59,1.59,0,0,1-2.34-1.48l.07-1.09a10.66,10.66,0,0,0-2.14-.68l-.56.94a1.58,1.58,0,0,1-2.76-.13l-.48-1a10.29,10.29,0,0,0-1.11.19c-.37.08-.72.18-1.08.29l0,1.11a1.59,1.59,0,0,1-2.45,1.28l-.92-.6a10.61,10.61,0,0,0-1.63,1.52l.52,1a1.59,1.59,0,0,1-1.48,2.34l-1.09-.07a11.64,11.64,0,0,0-.67,2.15l.93.57a1.59,1.59,0,0,1-.12,2.77l-1,.5a10.55,10.55,0,0,0,.19,1.1c.08.37.18.74.29,1.09l1.1,0a1.59,1.59,0,0,1,1.27,2.46l-.59.92a10.67,10.67,0,0,0,1.51,1.65l.95-.52a1.58,1.58,0,0,1,2.33,1.49l-.06,1.1a12,12,0,0,0,2.13.67l.56-.93a1.57,1.57,0,0,1,2.76.11l.49,1c.37-.05.74-.12,1.1-.2s.73-.18,1.08-.29l0-1.1a1.58,1.58,0,0,1,2.44-1.29l.92.62a13.13,13.13,0,0,0,1.64-1.52l-.52-1a1.59,1.59,0,0,1,1.47-2.35l1.1.07a11.38,11.38,0,0,0,.66-2.15l-.93-.57A1.59,1.59,0,0,1,510.33,146.13ZM499.94,141a5.9,5.9,0,0,1,3.83,1.51.65.65,0,0,1-.06,1l-3.19,2.14a1.22,1.22,0,0,0-.4-.15l-.84-3.75A.65.65,0,0,1,499.94,141Zm-2.82.62a.65.65,0,0,1,.92.46l.84,3.73-.12.09-.13.15L494,145.4A6.07,6.07,0,0,1,497.12,141.66Zm-.27,9.74a.66.66,0,0,1-1,.21,6.07,6.07,0,0,1-1.9-3.22,5.94,5.94,0,0,1-.13-.93.65.65,0,0,1,.75-.69l3.74.57a1.51,1.51,0,0,0,.25.6Zm6.72.38a6,6,0,0,1-5.18,1.17A.66.66,0,0,1,498,152l1.68-3.42a1.59,1.59,0,0,0,1-.25l2.92,2.4A.66.66,0,0,1,503.57,151.78Zm1.75-2.34a.65.65,0,0,1-1,.26l-3-2.46a1.35,1.35,0,0,0,0-.49l3.15-2.11a.65.65,0,0,1,1,.3c.09.26.17.54.24.82A6.05,6.05,0,0,1,505.32,149.44Z" style="fill:#b0bfdd;mix-blend-mode:multiply"/><path d="M509.41,145.21l1-.49a9.88,9.88,0,0,0-.19-1.11c-.08-.38-.18-.73-.29-1.09l-1.1,0a1.59,1.59,0,0,1-1.27-2.46l.61-.92a11.92,11.92,0,0,0-1.53-1.65l-.95.53a1.58,1.58,0,0,1-2.33-1.49l.06-1.09a11.24,11.24,0,0,0-2.13-.68l-.56.94a1.58,1.58,0,0,1-2.76-.13l-.48-1a10.29,10.29,0,0,0-1.11.19,10.17,10.17,0,0,0-1.08.3l0,1.1a1.58,1.58,0,0,1-2.45,1.28l-.92-.6a10.61,10.61,0,0,0-1.63,1.52l.52,1a1.58,1.58,0,0,1-1.48,2.33l-1.09-.06a12.11,12.11,0,0,0-.68,2.14l.94.57a1.59,1.59,0,0,1-.12,2.77l-1,.5a10.55,10.55,0,0,0,.19,1.1c.08.38.18.74.29,1.09l1.1,0a1.6,1.6,0,0,1,1.27,2.47l-.6.92a10.68,10.68,0,0,0,1.52,1.64l.95-.52a1.58,1.58,0,0,1,2.33,1.49l-.07,1.1a12.08,12.08,0,0,0,2.14.67l.56-.93a1.57,1.57,0,0,1,2.76.11l.49,1c.36-.05.74-.12,1.1-.19s.73-.19,1.08-.3l0-1.1a1.58,1.58,0,0,1,2.45-1.28l.92.61a13,13,0,0,0,1.63-1.52l-.52-1a1.6,1.6,0,0,1,1.48-2.35l1.1.07a12.16,12.16,0,0,0,.66-2.15l-.93-.56A1.59,1.59,0,0,1,509.41,145.21ZM499,140.11a5.93,5.93,0,0,1,3.83,1.51.65.65,0,0,1-.07,1l-3.18,2.14a1.22,1.22,0,0,0-.4-.15l-.84-3.75A.65.65,0,0,1,499,140.11Zm-.07,5.12a.92.92,0,0,1,.84,1,.93.93,0,0,1-1,.85.92.92,0,0,1-.84-1A.9.9,0,0,1,499,145.23Zm-2.76-4.5a.66.66,0,0,1,.93.46l.83,3.73a.48.48,0,0,1-.11.09l-.13.15-4.61-.69A6.06,6.06,0,0,1,496.19,140.73Zm-.27,9.74a.65.65,0,0,1-1,.21,6,6,0,0,1-1.9-3.21,6.29,6.29,0,0,1-.13-.93.66.66,0,0,1,.75-.7l3.74.57a1.45,1.45,0,0,0,.25.6Zm6.73.38a6,6,0,0,1-5.18,1.17.66.66,0,0,1-.43-.93l1.68-3.42a1.53,1.53,0,0,0,1-.25l2.92,2.41A.65.65,0,0,1,502.65,150.85Zm1.75-2.34a.66.66,0,0,1-1,.26l-3-2.46a2,2,0,0,0,0-.49l3.15-2.11a.65.65,0,0,1,1,.3c.09.27.17.54.24.82A6.11,6.11,0,0,1,504.4,148.51Z" style="fill:url(#Áåçûìÿííûé_ãðàäèåíò_106)"/><path d="M499.79,146.22a.93.93,0,0,1-1,.85.92.92,0,0,1-.84-1,.9.9,0,0,1,1-.85A.92.92,0,0,1,499.79,146.22Z" style="fill:#3ec7c9"/><path d="M491.23,145.57a7.67,7.67,0,1,1,7.07,8.27A7.69,7.69,0,0,1,491.23,145.57Zm1,.08a6.63,6.63,0,1,0,7.11-6.15A6.66,6.66,0,0,0,492.26,145.65Z" style="fill:#3ec7c9"/><g style="mix-blend-mode:multiply"><path d="M427.52,148.12a.27.27,0,0,0-.33,0,2,2,0,0,1-1.89.42.31.31,0,0,0-.32.12l-2.9,4.58a.25.25,0,0,0,0,.22.28.28,0,0,0,.14.18,7.84,7.84,0,0,0,9.95-2.21.29.29,0,0,0,.06-.22.26.26,0,0,0-.13-.19Zm-4.79,5.18,2.62-4.14a2.61,2.61,0,0,0,2-.45l4.12,2.64A7.31,7.31,0,0,1,422.73,153.3Z" style="fill:#2d5eea"/><path d="M437.42,145.46l-1.49-.28a10.35,10.35,0,0,0-.35-1.56l1.24-.88a.3.3,0,0,0,.09-.36l-1.27-2.45a.27.27,0,0,0-.34-.13l-1.42.51a11,11,0,0,0-1.08-1.19l.63-1.38a.28.28,0,0,0-.1-.36L431,135.9a.28.28,0,0,0-.36.06l-1,1.16a10.47,10.47,0,0,0-1.53-.49l-.14-1.51a.28.28,0,0,0-.26-.26l-2.74-.12h0a.3.3,0,0,0-.28.23l-.27,1.5a10.63,10.63,0,0,0-1.56.35l-.87-1.25a.28.28,0,0,0-.36-.08l-2.43,1.26a.29.29,0,0,0-.13.35l.5,1.43a10.94,10.94,0,0,0-1.17,1.09l-1.38-.64a.28.28,0,0,0-.35.11l-1.47,2.31a.28.28,0,0,0,0,.37l1.16,1a9.39,9.39,0,0,0-.49,1.53l-1.5.14a.29.29,0,0,0-.26.27l-.12,2.75a.28.28,0,0,0,.23.29l1.49.27a10.45,10.45,0,0,0,.34,1.57l-1.23.88a.28.28,0,0,0-.09.36l1.26,2.44a.29.29,0,0,0,.35.14l1.42-.51a10.08,10.08,0,0,0,1.08,1.18l-.63,1.39a.27.27,0,0,0,.1.35l2.3,1.48a.28.28,0,0,0,.37,0l1-1.16a10.31,10.31,0,0,0,1.52.48l.14,1.52a.3.3,0,0,0,.27.26l2.73.12h0a.28.28,0,0,0,.28-.24l.28-1.49a10.5,10.5,0,0,0,1.55-.35l.88,1.24a.27.27,0,0,0,.36.09l2.42-1.27a.27.27,0,0,0,.14-.34l-.51-1.44a10.08,10.08,0,0,0,1.18-1.08l1.37.64a.3.3,0,0,0,.36-.11l1.47-2.32a.29.29,0,0,0-.05-.37l-1.16-1a10.43,10.43,0,0,0,.48-1.53l1.51-.14a.3.3,0,0,0,.26-.27l.12-2.75A.28.28,0,0,0,437.42,145.46Zm-.45,2.76-1.46.14a.27.27,0,0,0-.25.23,9.88,9.88,0,0,1-.58,1.82.3.3,0,0,0,.08.33l1.12,1-1.2,1.9-1.34-.62a.26.26,0,0,0-.33.07,10.1,10.1,0,0,1-1.4,1.29.28.28,0,0,0-.1.32l.5,1.39-2,1-.86-1.21a.27.27,0,0,0-.31-.1,10.64,10.64,0,0,1-1.86.41.28.28,0,0,0-.24.23l-.27,1.46-2.24-.1-.13-1.48a.3.3,0,0,0-.23-.25,8.88,8.88,0,0,1-1.81-.58.3.3,0,0,0-.33.08l-.95,1.13-1.89-1.21.62-1.35a.3.3,0,0,0-.07-.33,10.13,10.13,0,0,1-1.29-1.41.28.28,0,0,0-.32-.1l-1.38.5-1-2,1.21-.86a.27.27,0,0,0,.1-.31,11,11,0,0,1-.41-1.87.27.27,0,0,0-.23-.25l-1.45-.27.1-2.25,1.47-.13a.29.29,0,0,0,.25-.23,9.84,9.84,0,0,1,.57-1.82.29.29,0,0,0-.07-.33l-1.13-1,1.21-1.9,1.34.62a.29.29,0,0,0,.33-.07,9.52,9.52,0,0,1,1.4-1.29.28.28,0,0,0,.1-.32l-.5-1.4,2-1,.85,1.21a.27.27,0,0,0,.32.11,9.09,9.09,0,0,1,1.86-.41.29.29,0,0,0,.24-.23l.27-1.46,2.24.1.13,1.47a.29.29,0,0,0,.22.26,9.84,9.84,0,0,1,1.82.57.28.28,0,0,0,.32-.07l1-1.13,1.89,1.21-.62,1.35a.3.3,0,0,0,.07.33,9.53,9.53,0,0,1,1.28,1.41.28.28,0,0,0,.32.09l1.39-.49,1,2-1.2.85a.28.28,0,0,0-.11.32,9.33,9.33,0,0,1,.41,1.87.31.31,0,0,0,.23.25l1.45.26Z" style="fill:#2d5eea"/><path d="M424.19,145.08a.28.28,0,0,0,.15,0,.26.26,0,0,0,.19-.07,2,2,0,0,1,1.89-.42.26.26,0,0,0,.31-.12l2.91-4.57a.31.31,0,0,0,0-.23.26.26,0,0,0-.14-.17,7.86,7.86,0,0,0-10,2.21.25.25,0,0,0-.05.22.28.28,0,0,0,.12.19Zm4.8-5.18L426.37,144a2.58,2.58,0,0,0-2.05.45l-4.11-2.64A7.31,7.31,0,0,1,429,139.9Z" style="fill:#2d5eea"/><path d="M424.32,147.94a2.08,2.08,0,0,1-.42-1.9.28.28,0,0,0-.11-.32l-4.55-2.92a.27.27,0,0,0-.23,0,.28.28,0,0,0-.17.15,8,8,0,0,0,2.19,10,.28.28,0,0,0,.18.06h.05a.29.29,0,0,0,.18-.13l2.91-4.57A.3.3,0,0,0,424.32,147.94Zm-3.18,4.34a7.4,7.4,0,0,1-1.94-8.83l4.11,2.64a2.62,2.62,0,0,0,.45,2Z" style="fill:#2d5eea"/><path d="M430.68,140.27a.25.25,0,0,0-.22-.05.26.26,0,0,0-.19.13l-2.9,4.57a.28.28,0,0,0,0,.34,2,2,0,0,1,.42,1.9.31.31,0,0,0,.12.32l4.55,2.92a.26.26,0,0,0,.15,0h.07a.28.28,0,0,0,.18-.14A8,8,0,0,0,430.68,140.27Zm1.84,9.48-4.12-2.64a2.58,2.58,0,0,0-.45-2.05l2.63-4.14A7.4,7.4,0,0,1,432.52,149.75Z" style="fill:#2d5eea"/><path d="M426.45,145.33a1.42,1.42,0,0,0-1.66.37,1.44,1.44,0,0,0-.29,1.2,1.36,1.36,0,0,0,.77,1h0a1.29,1.29,0,0,0,.58.13,1.38,1.38,0,0,0,1.36-1.69A1.39,1.39,0,0,0,426.45,145.33Zm0,1.8a.83.83,0,0,1-1.44-.35.85.85,0,0,1,.18-.72.83.83,0,0,1,1-.21.81.81,0,0,1,.45.57A.8.8,0,0,1,426.49,147.13Z" style="fill:#2d5eea"/></g><path d="M436.34,161.32h-2.16a.38.38,0,0,1,0-.76h2.16a.38.38,0,1,1,0,.76Zm-5.39,0h-2.16a.38.38,0,0,1,0-.76H431a.38.38,0,0,1,0,.76Zm-5.4,0h-2.16a.38.38,0,0,1,0-.76h2.16a.38.38,0,0,1,0,.76Zm-5.39,0H418a.38.38,0,0,1,0-.76h2.16a.38.38,0,0,1,0,.76Zm-5.39,0h-2.16a2.29,2.29,0,0,1-1.6-.66.38.38,0,0,1,0-.53.39.39,0,0,1,.54,0,1.5,1.5,0,0,0,1.07.44h2.16a.38.38,0,0,1,0,.76Zm24.69-.47a.41.41,0,0,1-.29-.13.38.38,0,0,1,0-.53,1.54,1.54,0,0,0,.53-1.16v-.53a.38.38,0,0,1,.75,0V159a2.3,2.3,0,0,1-.78,1.72A.35.35,0,0,1,439.46,160.85Zm-28.76-3.16a.38.38,0,0,1-.38-.38v-2.15a.38.38,0,0,1,.76,0v2.15A.38.38,0,0,1,410.7,157.69Zm29.41-2a.38.38,0,0,1-.37-.38v-2.16a.38.38,0,1,1,.75,0v2.16A.38.38,0,0,1,440.11,155.65ZM410.7,152.3a.38.38,0,0,1-.38-.38v-2.16a.38.38,0,0,1,.76,0v2.16A.38.38,0,0,1,410.7,152.3Zm29.41-2.05a.38.38,0,0,1-.37-.37v-2.16a.38.38,0,1,1,.75,0v2.16A.38.38,0,0,1,440.11,150.25Zm-29.41-3.34a.38.38,0,0,1-.38-.38v-2.16a.38.38,0,1,1,.76,0v2.16A.38.38,0,0,1,410.7,146.91Zm29.41-2a.38.38,0,0,1-.37-.38v-2.15a.38.38,0,1,1,.75,0v2.15A.38.38,0,0,1,440.11,144.86Zm-29.41-3.35a.38.38,0,0,1-.38-.37V139a.38.38,0,1,1,.76,0v2.16A.38.38,0,0,1,410.7,141.51Zm29.41-2a.38.38,0,0,1-.37-.38v-2.16a.38.38,0,1,1,.75,0v2.16A.38.38,0,0,1,440.11,139.47Zm-29.41-3.35a.38.38,0,0,1-.38-.38v-2.15a.38.38,0,1,1,.76,0v2.15A.38.38,0,0,1,410.7,136.12Zm29.41-2.05a.38.38,0,0,1-.37-.37v-.44a1.52,1.52,0,0,0-.58-1.2.37.37,0,0,1-.06-.53.38.38,0,0,1,.53-.06,2.27,2.27,0,0,1,.86,1.79v.44A.38.38,0,0,1,440.11,134.07Zm-3.86-2.34h-2.16a.38.38,0,0,1,0-.76h2.16a.38.38,0,0,1,0,.76Zm-5.39,0H428.7a.38.38,0,0,1,0-.76h2.16a.38.38,0,0,1,0,.76Zm-5.4,0h-2.15a.38.38,0,0,1,0-.76h2.15a.38.38,0,0,1,0,.76Zm-5.39,0h-2.16a.38.38,0,0,1,0-.76h2.16a.38.38,0,0,1,0,.76Zm-5.39,0h-2.07a.42.42,0,0,1-.42-.37.34.34,0,0,1,.32-.39h2.17a.38.38,0,0,1,0,.76Z" style="fill:#194866"/><path d="M426.26,158h0l-2.73-.12a.29.29,0,0,1-.26-.25l-.14-1.52a10.47,10.47,0,0,1-1.53-.49l-1,1.16a.27.27,0,0,1-.35.06l-2.3-1.48a.26.26,0,0,1-.1-.34l.63-1.39a11.24,11.24,0,0,1-1.09-1.2l-1.43.51a.27.27,0,0,1-.33-.13l-1.26-2.44a.27.27,0,0,1,.08-.34l1.25-.89a9.71,9.71,0,0,1-.35-1.58l-1.5-.28a.27.27,0,0,1-.22-.27l.12-2.75A.27.27,0,0,1,414,144l1.51-.14a10.34,10.34,0,0,1,.49-1.55l-1.16-1a.28.28,0,0,1,0-.35l1.47-2.32a.27.27,0,0,1,.34-.1l1.38.64a11.24,11.24,0,0,1,1.19-1.1l-.51-1.44a.27.27,0,0,1,.13-.33l2.42-1.27a.28.28,0,0,1,.35.09l.88,1.25A9.37,9.37,0,0,1,424,136l.28-1.51a.3.3,0,0,1,.27-.22l2.73.12a.27.27,0,0,1,.26.25l.14,1.52a10.59,10.59,0,0,1,1.54.49l1-1.16a.27.27,0,0,1,.35-.06l2.31,1.48a.28.28,0,0,1,.1.34l-.64,1.39a10.27,10.27,0,0,1,1.09,1.2l1.43-.51a.26.26,0,0,1,.33.13l1.26,2.44a.26.26,0,0,1-.08.34l-1.24.89a10.58,10.58,0,0,1,.34,1.58l1.5.28a.25.25,0,0,1,.22.27l-.12,2.75a.26.26,0,0,1-.24.26l-1.52.14a9.3,9.3,0,0,1-.49,1.55l1.17,1a.28.28,0,0,1,0,.35l-1.47,2.32a.28.28,0,0,1-.34.1l-1.39-.64a10.41,10.41,0,0,1-1.19,1.1l.52,1.44a.27.27,0,0,1-.13.33l-2.43,1.27a.27.27,0,0,1-.34-.09l-.88-1.25a10.89,10.89,0,0,1-1.58.35l-.27,1.51A.27.27,0,0,1,426.26,158Zm-2.48-.65,2.26.1.27-1.47a.26.26,0,0,1,.23-.22,10,10,0,0,0,1.86-.41.25.25,0,0,1,.3.1l.86,1.22,2-1-.5-1.41a.29.29,0,0,1,.09-.31,9.55,9.55,0,0,0,1.41-1.29.26.26,0,0,1,.31-.06l1.35.62,1.22-1.92-1.14-1a.3.3,0,0,1-.07-.31,9.74,9.74,0,0,0,.58-1.83.27.27,0,0,1,.24-.21l1.47-.14.1-2.27-1.46-.27A.3.3,0,0,1,435,145a9.33,9.33,0,0,0-.41-1.87.29.29,0,0,1,.1-.3l1.22-.86-1.05-2-1.39.5a.29.29,0,0,1-.31-.1,9.55,9.55,0,0,0-1.29-1.41.27.27,0,0,1-.06-.31l.62-1.36L430.47,136l-1,1.14a.26.26,0,0,1-.31.07,9.84,9.84,0,0,0-1.82-.57.28.28,0,0,1-.21-.24L427,135l-2.26-.1-.26,1.47a.27.27,0,0,1-.24.22,9.7,9.7,0,0,0-1.85.41.27.27,0,0,1-.31-.1l-.86-1.22-2,1.05.5,1.41a.25.25,0,0,1-.09.3,9.59,9.59,0,0,0-1.4,1.3.27.27,0,0,1-.32.06l-1.34-.62-1.22,1.92,1.13,1a.26.26,0,0,1,.07.31,9.71,9.71,0,0,0-.57,1.83.28.28,0,0,1-.24.21l-1.48.13-.1,2.28,1.46.27a.27.27,0,0,1,.22.24,10.26,10.26,0,0,0,.41,1.87.26.26,0,0,1-.1.3l-1.21.86,1,2,1.4-.5a.26.26,0,0,1,.3.1,10.13,10.13,0,0,0,1.29,1.41.28.28,0,0,1,.07.31l-.63,1.36,1.91,1.22,1-1.13a.3.3,0,0,1,.32-.08,8.88,8.88,0,0,0,1.81.58.27.27,0,0,1,.21.24Zm1.63-3.23a7.94,7.94,0,0,1-3.67-.91.24.24,0,0,1-.13-.17.28.28,0,0,1,0-.22l2.9-4.57a.27.27,0,0,1,.3-.12,2,2,0,0,0,1.91-.42.26.26,0,0,1,.32,0l4.55,2.92a.29.29,0,0,1,.12.18.31.31,0,0,1-.05.21A7.9,7.9,0,0,1,425.41,154.11Zm-3.16-1.26a7.31,7.31,0,0,0,8.82-2l-4.13-2.65a2.62,2.62,0,0,1-2.05.45Zm-1.49-.34a.26.26,0,0,1-.17,0,8,8,0,0,1-2.2-10,.29.29,0,0,1,.17-.14.28.28,0,0,1,.22,0l4.55,2.92a.27.27,0,0,1,.11.3,2.07,2.07,0,0,0,.42,1.91.27.27,0,0,1,0,.32L421,152.39a.26.26,0,0,1-.18.12Zm-2-9.54a7.43,7.43,0,0,0,1.95,8.87l2.64-4.15a2.57,2.57,0,0,1-.45-2.06Zm13.44,7a.3.3,0,0,1-.15,0L427.49,147a.27.27,0,0,1-.12-.3,2,2,0,0,0-.42-1.91.26.26,0,0,1,0-.32l2.9-4.58a.28.28,0,0,1,.18-.12.23.23,0,0,1,.21.05,8,8,0,0,1,2.2,10,.29.29,0,0,1-.17.14Zm-4.24-3.32,4.13,2.66a7.43,7.43,0,0,0-1.94-8.88l-2.64,4.16A2.61,2.61,0,0,1,427.94,146.66Zm-2.54.87a1.48,1.48,0,0,1-.58-.13,1.4,1.4,0,0,1-.76-1,1.38,1.38,0,1,1,2.69-.6,1.39,1.39,0,0,1-1.35,1.68Zm0-2.23a.85.85,0,0,0-.36,1.61h0a.84.84,0,0,0,1-.22.88.88,0,0,0,.18-.73.85.85,0,0,0-.82-.66Zm-1.52-.64a.24.24,0,0,1-.14,0l-4.55-2.92a.23.23,0,0,1-.12-.18.23.23,0,0,1,.05-.21,7.86,7.86,0,0,1,9.94-2.21.29.29,0,0,1,.14.17.28.28,0,0,1,0,.22l-2.91,4.57a.28.28,0,0,1-.3.12,2,2,0,0,0-1.9.42A.29.29,0,0,1,423.89,144.66Zm-4.15-3.26,4.13,2.65a2.62,2.62,0,0,1,2.05-.45l2.64-4.16A7.31,7.31,0,0,0,419.74,141.4Z" style="fill:#194866"/><rect x="448.01" y="131.35" width="29.42" height="29.59" rx="1.91" style="fill:#3ec7c9"/><path d="M447.93,162.12h.19V161h2.27v1.17h.18V161h2.27v1.17H453V161h2.28v1.17h.18V161h2.27v1.17h.18V161h2.27v1.17h.19V161h2.27v1.17h.18V161h2.27v1.17h.19V161h2.26v1.17h.19V161H470v1.17h.18V161h2.27v1.17h.19V161h2.27v1.17h.18V161h2.27v1.17h.19V161h1.52v-.19h-1.52v-2.28h1.52v-.18h-1.52V156h1.52v-.18h-1.52v-2.29h1.52v-.18h-1.52v-2.28h1.52v-.18h-1.52v-2.29h1.52v-.18h-1.52v-2.28h1.52V146h-1.52v-2.29h1.52v-.18h-1.52v-2.28h1.52v-.18h-1.52v-2.29h1.52v-.18h-1.52V136.3h1.52v-.18h-1.52v-2.29h1.52v-.18h-1.52v-2.28h1.52v-.18h-1.52v-1.57h-.19v1.57h-2.27v-1.57h-.18v1.57h-2.27v-1.57h-.19v1.57H470.2v-1.57H470v1.57h-2.27v-1.57h-.19v1.57H465.3v-1.57h-.19v1.57h-2.27v-1.57h-.18v1.57h-2.27v-1.57h-.19v1.57h-2.27v-1.57h-.18v1.57h-2.27v-1.57h-.18v1.57H453v-1.57h-.18v1.57h-2.27v-1.57h-.18v1.57h-2.27v-1.57h-.19v1.57h-1.88v.18h1.88v2.28h-1.88v.18h1.88v2.29h-1.88v.18h1.88v2.28h-1.88v.18h1.88v2.29h-1.88v.18h1.88v2.28h-1.88v.18h1.88V146h-1.88v.18h1.88v2.28h-1.88v.18h1.88v2.29h-1.88v.18h1.88v2.28h-1.88v.18h1.88v2.29h-1.88V156h1.88v2.28h-1.88v.18h1.88v2.28h-1.88V161h1.88Zm27.18-30.75h2.27v2.28h-2.27Zm0,2.46h2.27v2.29h-2.27Zm0,2.47h2.27v2.28h-2.27Zm0,2.46h2.27v2.29h-2.27Zm0,2.47h2.27v2.28h-2.27Zm0,2.46h2.27V146h-2.27Zm0,2.47h2.27v2.28h-2.27Zm0,2.46h2.27v2.29h-2.27Zm0,2.47h2.27v2.28h-2.27Zm0,2.46h2.27v2.29h-2.27Zm0,2.47h2.27v2.28h-2.27Zm0,2.46h2.27v2.28h-2.27Zm-2.45-27.11h2.27v2.28h-2.27Zm0,2.46h2.27v2.29h-2.27Zm0,2.47h2.27v2.28h-2.27Zm0,2.46h2.27v2.29h-2.27Zm0,2.47h2.27v2.28h-2.27Zm0,2.46h2.27V146h-2.27Zm0,2.47h2.27v2.28h-2.27Zm0,2.46h2.27v2.29h-2.27Zm0,2.47h2.27v2.28h-2.27Zm0,2.46h2.27v2.29h-2.27Zm0,2.47h2.27v2.28h-2.27Zm0,2.46h2.27v2.28h-2.27Zm-2.46-27.11h2.27v2.28H470.2Zm0,2.46h2.27v2.29H470.2Zm0,2.47h2.27v2.28H470.2Zm0,2.46h2.27v2.29H470.2Zm0,2.47h2.27v2.28H470.2Zm0,2.46h2.27V146H470.2Zm0,2.47h2.27v2.28H470.2Zm0,2.46h2.27v2.29H470.2Zm0,2.47h2.27v2.28H470.2Zm0,2.46h2.27v2.29H470.2Zm0,2.47h2.27v2.28H470.2Zm0,2.46h2.27v2.28H470.2Zm-2.45-27.11H470v2.28h-2.27Zm0,2.46H470v2.29h-2.27Zm0,2.47H470v2.28h-2.27Zm0,2.46H470v2.29h-2.27Zm0,2.47H470v2.28h-2.27Zm0,2.46H470V146h-2.27Zm0,2.47H470v2.28h-2.27Zm0,2.46H470v2.29h-2.27Zm0,2.47H470v2.28h-2.27Zm0,2.46H470v2.29h-2.27Zm0,2.47H470v2.28h-2.27Zm0,2.46H470v2.28h-2.27Zm-2.45-27.11h2.26v2.28H465.3Zm0,2.46h2.26v2.29H465.3Zm0,2.47h2.26v2.28H465.3Zm0,2.46h2.26v2.29H465.3Zm0,2.47h2.26v2.28H465.3Zm0,2.46h2.26V146H465.3Zm0,2.47h2.26v2.28H465.3Zm0,2.46h2.26v2.29H465.3Zm0,2.47h2.26v2.28H465.3Zm0,2.46h2.26v2.29H465.3Zm0,2.47h2.26v2.28H465.3Zm0,2.46h2.26v2.28H465.3Zm-2.46-27.11h2.27v2.28h-2.27Zm0,2.46h2.27v2.29h-2.27Zm0,2.47h2.27v2.28h-2.27Zm0,2.46h2.27v2.29h-2.27Zm0,2.47h2.27v2.28h-2.27Zm0,2.46h2.27V146h-2.27Zm0,2.47h2.27v2.28h-2.27Zm0,2.46h2.27v2.29h-2.27Zm0,2.47h2.27v2.28h-2.27Zm0,2.46h2.27v2.29h-2.27Zm0,2.47h2.27v2.28h-2.27Zm0,2.46h2.27v2.28h-2.27Zm-2.45-27.11h2.27v2.28h-2.27Zm0,2.46h2.27v2.29h-2.27Zm0,2.47h2.27v2.28h-2.27Zm0,2.46h2.27v2.29h-2.27Zm0,2.47h2.27v2.28h-2.27Zm0,2.46h2.27V146h-2.27Zm0,2.47h2.27v2.28h-2.27Zm0,2.46h2.27v2.29h-2.27Zm0,2.47h2.27v2.28h-2.27Zm0,2.46h2.27v2.29h-2.27Zm0,2.47h2.27v2.28h-2.27Zm0,2.46h2.27v2.28h-2.27Zm-2.46-27.11h2.27v2.28h-2.27Zm0,2.46h2.27v2.29h-2.27Zm0,2.47h2.27v2.28h-2.27Zm0,2.46h2.27v2.29h-2.27Zm0,2.47h2.27v2.28h-2.27Zm0,2.46h2.27V146h-2.27Zm0,2.47h2.27v2.28h-2.27Zm0,2.46h2.27v2.29h-2.27Zm0,2.47h2.27v2.28h-2.27Zm0,2.46h2.27v2.29h-2.27Zm0,2.47h2.27v2.28h-2.27Zm0,2.46h2.27v2.28h-2.27Zm-2.45-27.11h2.27v2.28h-2.27Zm0,2.46h2.27v2.29h-2.27Zm0,2.47h2.27v2.28h-2.27Zm0,2.46h2.27v2.29h-2.27Zm0,2.47h2.27v2.28h-2.27Zm0,2.46h2.27V146h-2.27Zm0,2.47h2.27v2.28h-2.27Zm0,2.46h2.27v2.29h-2.27Zm0,2.47h2.27v2.28h-2.27Zm0,2.46h2.27v2.29h-2.27Zm0,2.47h2.27v2.28h-2.27Zm0,2.46h2.27v2.28h-2.27ZM453,131.37h2.28v2.28H453Zm0,2.46h2.28v2.29H453Zm0,2.47h2.28v2.28H453Zm0,2.46h2.28v2.29H453Zm0,2.47h2.28v2.28H453Zm0,2.46h2.28V146H453Zm0,2.47h2.28v2.28H453Zm0,2.46h2.28v2.29H453Zm0,2.47h2.28v2.28H453Zm0,2.46h2.28v2.29H453Zm0,2.47h2.28v2.28H453Zm0,2.46h2.28v2.28H453Zm-2.45-27.11h2.27v2.28h-2.27Zm0,2.46h2.27v2.29h-2.27Zm0,2.47h2.27v2.28h-2.27Zm0,2.46h2.27v2.29h-2.27Zm0,2.47h2.27v2.28h-2.27Zm0,2.46h2.27V146h-2.27Zm0,2.47h2.27v2.28h-2.27Zm0,2.46h2.27v2.29h-2.27Zm0,2.47h2.27v2.28h-2.27Zm0,2.46h2.27v2.29h-2.27Zm0,2.47h2.27v2.28h-2.27Zm0,2.46h2.27v2.28h-2.27Zm-2.45-27.11h2.27v2.28h-2.27Zm0,2.46h2.27v2.29h-2.27Zm0,2.47h2.27v2.28h-2.27Zm0,2.46h2.27v2.29h-2.27Zm0,2.47h2.27v2.28h-2.27Zm0,2.46h2.27V146h-2.27Zm0,2.47h2.27v2.28h-2.27Zm0,2.46h2.27v2.29h-2.27Zm0,2.47h2.27v2.28h-2.27Zm0,2.46h2.27v2.29h-2.27Zm0,2.47h2.27v2.28h-2.27Zm0,2.46h2.27v2.28h-2.27Z" style="fill:#fff"/><g style="mix-blend-mode:multiply"><path d="M472.8,147.79l0-2.34,2-1.19a12.1,12.1,0,0,0-.88-2.56l-2.33.32-1.41-1.87.95-2.16a11.88,11.88,0,0,0-2.15-1.52l-1.7,1.64-2.22-.69-.49-2.32a12.26,12.26,0,0,0-2.71,0l-.41,2.33-2.2.76-1.75-1.58a12.19,12.19,0,0,0-2.17,1.63l1,2.13L455,142.31l-2.33-.24a13.07,13.07,0,0,0-.5,1.33,11.15,11.15,0,0,0-.3,1.27l2.07,1.11,0,2.34-2,1.18a12.17,12.17,0,0,0,.88,2.59l2.33-.33,1.4,1.87-1,2.16a11.56,11.56,0,0,0,2.22,1.57l1.7-1.64,2.22.69.5,2.31a11.17,11.17,0,0,0,2.71-.06l.4-2.32,2.2-.76,1.75,1.57a11.83,11.83,0,0,0,2.16-1.64l-1-2.13,1.33-1.91,2.34.23a12.4,12.4,0,0,0,.79-2.6Zm-6.48,6.13a7.64,7.64,0,0,1-10-4.14,7.68,7.68,0,1,1,10,4.14Z" style="fill:#3ec7c9"/><path d="M460.7,140.38A7,7,0,0,0,457,149.5a6.9,6.9,0,0,0,9.05,3.73,7,7,0,0,0,3.72-9.11A6.9,6.9,0,0,0,460.7,140.38Zm4.69,11.29a5.24,5.24,0,0,1-6.87-2.83,5.31,5.31,0,0,1,2.83-6.9,5.23,5.23,0,0,1,6.86,2.82A5.29,5.29,0,0,1,465.39,151.67Z" style="fill:#3ec7c9"/></g><path d="M472.14,147.13l0-2.34,2-1.19a12.19,12.19,0,0,0-.88-2.57l-2.33.33-1.41-1.87.95-2.16a11.4,11.4,0,0,0-2.15-1.52l-1.7,1.63-2.22-.69-.49-2.31a11.69,11.69,0,0,0-2.71,0l-.41,2.33-2.2.76L456.83,136a12.14,12.14,0,0,0-2.17,1.62l1,2.14-1.34,1.9-2.33-.23a11.58,11.58,0,0,0-.5,1.32,10.83,10.83,0,0,0-.3,1.28l2.07,1.11,0,2.34-2,1.18a11.66,11.66,0,0,0,.89,2.59l2.32-.33,1.4,1.87-1,2.16a11.52,11.52,0,0,0,2.22,1.56l1.7-1.63,2.22.68.5,2.32a11.69,11.69,0,0,0,2.71-.06l.4-2.33,2.2-.76,1.75,1.58a11.88,11.88,0,0,0,2.16-1.65l-1-2.12,1.33-1.92,2.34.24a10,10,0,0,0,.47-1.29,10.41,10.41,0,0,0,.32-1.31Zm-6.48,6.13a7.65,7.65,0,0,1-10-4.14,7.68,7.68,0,1,1,10,4.14ZM460,139.71a7,7,0,1,0,9.06,3.75A7,7,0,0,0,460,139.71Zm4.69,11.3a5.27,5.27,0,1,1,2.82-6.91A5.29,5.29,0,0,1,464.73,151Z" style="fill:#194866"/><rect x="484.17" y="244.27" width="29.42" height="29.59" rx="1.91" style="fill:#e5f3fe"/><path d="M510.33,259.05l1-.49a10.29,10.29,0,0,0-.19-1.11c-.08-.38-.18-.73-.29-1.09l-1.1,0a1.6,1.6,0,0,1-1.27-2.47l.61-.92a11.27,11.27,0,0,0-1.53-1.64l-.94.52a1.59,1.59,0,0,1-2.34-1.49l.07-1.09a12.11,12.11,0,0,0-2.14-.68l-.56.94a1.58,1.58,0,0,1-2.76-.12l-.48-1c-.37.05-.75.12-1.11.19s-.72.19-1.08.3l0,1.1a1.58,1.58,0,0,1-2.45,1.28l-.92-.6a11.13,11.13,0,0,0-1.63,1.52l.52,1a1.59,1.59,0,0,1-1.48,2.34l-1.09-.07a11.41,11.41,0,0,0-.67,2.15l.93.56a1.59,1.59,0,0,1-.12,2.77l-1,.5a10.11,10.11,0,0,0,.19,1.1c.08.38.18.74.29,1.09l1.1,0a1.59,1.59,0,0,1,1.27,2.46l-.59.92a10.67,10.67,0,0,0,1.51,1.65l.95-.53a1.58,1.58,0,0,1,2.33,1.49l-.06,1.1a11.22,11.22,0,0,0,2.13.67l.56-.93a1.57,1.57,0,0,1,2.76.12l.49,1a10.11,10.11,0,0,0,1.1-.19,9.55,9.55,0,0,0,1.08-.3l0-1.1a1.57,1.57,0,0,1,2.44-1.28l.92.61a11.78,11.78,0,0,0,1.64-1.52l-.52-1a1.6,1.6,0,0,1,1.47-2.36l1.1.07a11.51,11.51,0,0,0,.66-2.14l-.93-.57A1.59,1.59,0,0,1,510.33,259.05ZM499.94,254a6,6,0,0,1,3.83,1.51.66.66,0,0,1-.06,1l-3.19,2.13a1.49,1.49,0,0,0-.4-.15l-.84-3.74A.66.66,0,0,1,499.94,254Zm-2.82.63a.64.64,0,0,1,.92.45l.84,3.74-.12.09-.13.14-4.61-.69A6.05,6.05,0,0,1,497.12,254.58Zm-.27,9.74a.66.66,0,0,1-1,.2,6.08,6.08,0,0,1-1.9-3.21,6.29,6.29,0,0,1-.13-.93.65.65,0,0,1,.75-.69l3.74.56a1.45,1.45,0,0,0,.25.6Zm6.72.37a6,6,0,0,1-5.18,1.17.66.66,0,0,1-.43-.93l1.68-3.42a1.48,1.48,0,0,0,1-.25l2.92,2.41A.65.65,0,0,1,503.57,264.69Zm1.75-2.34a.64.64,0,0,1-1,.26l-3-2.46a1.35,1.35,0,0,0,0-.49l3.15-2.11a.65.65,0,0,1,1,.31q.13.39.24.81A6,6,0,0,1,505.32,262.35Z" style="fill:#3ec7c9"/><path d="M509.41,258.12l1-.49a10.29,10.29,0,0,0-.19-1.11c-.08-.37-.18-.73-.29-1.09l-1.1,0a1.59,1.59,0,0,1-1.27-2.46l.61-.92a11.38,11.38,0,0,0-1.53-1.65l-.95.52a1.58,1.58,0,0,1-2.33-1.49l.06-1.09a12,12,0,0,0-2.13-.68l-.56,1a1.58,1.58,0,0,1-2.76-.13l-.48-1c-.37.05-.75.12-1.11.2s-.72.18-1.08.29l0,1.1a1.59,1.59,0,0,1-2.45,1.29l-.92-.61a11.2,11.2,0,0,0-1.63,1.53l.52,1a1.59,1.59,0,0,1-1.48,2.34l-1.09-.07a12.22,12.22,0,0,0-.68,2.15l.94.57a1.59,1.59,0,0,1-.12,2.77l-1,.5a11,11,0,0,0,.19,1.1c.08.37.18.73.29,1.09l1.1,0a1.59,1.59,0,0,1,1.27,2.46l-.6.92a10.74,10.74,0,0,0,1.52,1.65l.95-.52a1.58,1.58,0,0,1,2.33,1.48l-.07,1.1a10.63,10.63,0,0,0,2.14.67l.56-.93a1.57,1.57,0,0,1,2.76.12l.49,1a10.55,10.55,0,0,0,1.1-.19c.37-.08.73-.18,1.08-.29l0-1.11a1.59,1.59,0,0,1,2.45-1.28l.92.61a11.7,11.7,0,0,0,1.63-1.52l-.52-1a1.6,1.6,0,0,1,1.48-2.35l1.1.07a12.42,12.42,0,0,0,.66-2.15l-.93-.57A1.59,1.59,0,0,1,509.41,258.12ZM499,253a6,6,0,0,1,3.83,1.51.66.66,0,0,1-.07,1.05l-3.18,2.13a1.47,1.47,0,0,0-.4-.14l-.84-3.75A.66.66,0,0,1,499,253Zm-.07,5.12a.92.92,0,0,1-.14,1.84.9.9,0,0,1-.84-1A.91.91,0,0,1,499,258.14Zm-2.76-4.49a.66.66,0,0,1,.93.45l.83,3.74-.11.09-.13.15-4.61-.7A6,6,0,0,1,496.19,253.65Zm-.27,9.74a.64.64,0,0,1-1,.2,5.94,5.94,0,0,1-1.9-3.21,6.11,6.11,0,0,1-.13-.93.65.65,0,0,1,.75-.69l3.74.57a1.51,1.51,0,0,0,.25.6Zm6.73.37a6,6,0,0,1-2.46,1.2,5.94,5.94,0,0,1-2.72,0A.65.65,0,0,1,497,264l1.68-3.41a1.59,1.59,0,0,0,1-.25l2.92,2.4A.65.65,0,0,1,502.65,263.76Zm1.75-2.33a.66.66,0,0,1-1,.26l-3-2.47a1.91,1.91,0,0,0,0-.48l3.15-2.12a.65.65,0,0,1,1,.31c.09.26.17.53.24.82A6.13,6.13,0,0,1,504.4,261.43Z" style="fill:url(#Áåçûìÿííûé_ãðàäèåíò_106-2)"/><path d="M499.79,259.13a.92.92,0,0,1-1,.85.9.9,0,0,1-.84-1,.91.91,0,0,1,1-.86A.93.93,0,0,1,499.79,259.13Z" style="fill:#3ec7c9"/><path d="M491.23,258.48a7.67,7.67,0,1,1,7.07,8.27A7.68,7.68,0,0,1,491.23,258.48Zm1,.08a6.63,6.63,0,1,0,7.11-6.15A6.67,6.67,0,0,0,492.26,258.56Z" style="fill:#3ec7c9"/><g style="mix-blend-mode:multiply"><path d="M427.52,261a.29.29,0,0,0-.33,0,2,2,0,0,1-1.89.42.28.28,0,0,0-.32.12l-2.9,4.57a.27.27,0,0,0,0,.23.28.28,0,0,0,.14.18,7.87,7.87,0,0,0,9.95-2.21.32.32,0,0,0,.06-.23.3.3,0,0,0-.13-.19Zm-4.79,5.18,2.62-4.13a2.61,2.61,0,0,0,2-.46l4.12,2.64A7.3,7.3,0,0,1,422.73,266.21Z" style="fill:#2d5eea"/><path d="M437.42,258.37l-1.49-.27a10.48,10.48,0,0,0-.35-1.57l1.24-.88a.29.29,0,0,0,.09-.36l-1.27-2.44a.28.28,0,0,0-.34-.14l-1.42.51A11,11,0,0,0,432.8,252l.63-1.38a.28.28,0,0,0-.1-.36L431,248.82a.27.27,0,0,0-.36.06l-1,1.16a9.39,9.39,0,0,0-1.53-.49L428,248a.26.26,0,0,0-.26-.26l-2.74-.12h0a.29.29,0,0,0-.28.23l-.27,1.5a10.6,10.6,0,0,0-1.56.34l-.87-1.24a.27.27,0,0,0-.36-.09l-2.43,1.27a.28.28,0,0,0-.13.35l.5,1.43a10.85,10.85,0,0,0-1.17,1.08l-1.38-.63a.27.27,0,0,0-.35.1l-1.47,2.32a.28.28,0,0,0,0,.37l1.16,1a9.2,9.2,0,0,0-.49,1.54l-1.5.13a.3.3,0,0,0-.26.28l-.12,2.74a.27.27,0,0,0,.23.29l1.49.28a10.45,10.45,0,0,0,.34,1.57l-1.23.88a.28.28,0,0,0-.09.36l1.26,2.44a.28.28,0,0,0,.35.13l1.42-.51a11,11,0,0,0,1.08,1.19l-.63,1.38a.28.28,0,0,0,.1.36l2.3,1.48a.29.29,0,0,0,.37-.06l1-1.16a10.35,10.35,0,0,0,1.52.49l.14,1.51a.3.3,0,0,0,.27.26l2.73.12h0a.27.27,0,0,0,.28-.23l.28-1.5a9.37,9.37,0,0,0,1.55-.35l.88,1.25a.28.28,0,0,0,.36.09l2.42-1.27a.28.28,0,0,0,.14-.35l-.51-1.43a10.16,10.16,0,0,0,1.18-1.09l1.37.64a.28.28,0,0,0,.36-.1l1.47-2.32a.29.29,0,0,0-.05-.37l-1.16-1a10.06,10.06,0,0,0,.48-1.53l1.51-.14a.29.29,0,0,0,.26-.27l.12-2.75A.29.29,0,0,0,437.42,258.37Zm-.45,2.77-1.46.14a.27.27,0,0,0-.25.22,9.64,9.64,0,0,1-.58,1.82.29.29,0,0,0,.08.33l1.12,1-1.2,1.9-1.34-.62a.29.29,0,0,0-.33.07,9.52,9.52,0,0,1-1.4,1.29.3.3,0,0,0-.1.33L432,269l-2,1-.86-1.21a.27.27,0,0,0-.31-.11,9.82,9.82,0,0,1-1.86.42.27.27,0,0,0-.24.23l-.27,1.45-2.24-.1-.13-1.47a.29.29,0,0,0-.23-.25,9.54,9.54,0,0,1-1.81-.58.28.28,0,0,0-.33.08l-.95,1.13-1.89-1.22.62-1.34a.29.29,0,0,0-.07-.33,10.73,10.73,0,0,1-1.29-1.41.28.28,0,0,0-.32-.1l-1.38.5-1-2,1.21-.86a.28.28,0,0,0,.1-.32,10.55,10.55,0,0,1-.41-1.87.27.27,0,0,0-.23-.24l-1.45-.27.1-2.25,1.47-.14a.28.28,0,0,0,.25-.22,9.94,9.94,0,0,1,.57-1.83.28.28,0,0,0-.07-.32l-1.13-1,1.21-1.9,1.34.62a.29.29,0,0,0,.33-.07,9,9,0,0,1,1.4-1.29.3.3,0,0,0,.1-.33l-.5-1.39,2-1,.85,1.21a.28.28,0,0,0,.32.11,9.82,9.82,0,0,1,1.86-.42.27.27,0,0,0,.24-.23l.27-1.46,2.24.1.13,1.48a.28.28,0,0,0,.22.25,9.88,9.88,0,0,1,1.82.58.28.28,0,0,0,.32-.08l1-1.13,1.89,1.21L432.2,252a.29.29,0,0,0,.07.33,10.06,10.06,0,0,1,1.28,1.41.28.28,0,0,0,.32.1l1.39-.5,1,2-1.2.86a.28.28,0,0,0-.11.32,9,9,0,0,1,.41,1.87.29.29,0,0,0,.23.24l1.45.27Z" style="fill:#2d5eea"/><path d="M424.19,258a.42.42,0,0,0,.15,0,.26.26,0,0,0,.19-.07,2,2,0,0,1,1.89-.42.26.26,0,0,0,.31-.12l2.91-4.58a.28.28,0,0,0,0-.22.28.28,0,0,0-.14-.18,7.87,7.87,0,0,0-10,2.21.26.26,0,0,0-.05.22.28.28,0,0,0,.12.19Zm4.8-5.19L426.37,257a2.59,2.59,0,0,0-2.05.46l-4.11-2.65A7.31,7.31,0,0,1,429,252.81Z" style="fill:#2d5eea"/><path d="M424.32,260.85a2.07,2.07,0,0,1-.42-1.9.28.28,0,0,0-.11-.32l-4.55-2.92a.31.31,0,0,0-.23,0,.26.26,0,0,0-.17.14,8,8,0,0,0,2.19,10,.28.28,0,0,0,.18.06h.05a.28.28,0,0,0,.18-.12l2.91-4.58A.3.3,0,0,0,424.32,260.85Zm-3.18,4.34a7.4,7.4,0,0,1-1.94-8.83l4.11,2.64a2.65,2.65,0,0,0,.45,2.06Z" style="fill:#2d5eea"/><path d="M430.68,253.19a.29.29,0,0,0-.22-.06.33.33,0,0,0-.19.13l-2.9,4.58a.29.29,0,0,0,0,.34,2,2,0,0,1,.42,1.9.31.31,0,0,0,.12.32l4.55,2.91a.27.27,0,0,0,.15.05h.07a.28.28,0,0,0,.18-.14A8,8,0,0,0,430.68,253.19Zm1.84,9.48L428.4,260A2.6,2.6,0,0,0,428,258l2.63-4.14A7.42,7.42,0,0,1,432.52,262.67Z" style="fill:#2d5eea"/><path d="M426.45,258.25a1.39,1.39,0,0,0-1.66.37,1.42,1.42,0,0,0-.29,1.19,1.38,1.38,0,0,0,.77,1h0a1.29,1.29,0,0,0,.58.13,1.38,1.38,0,0,0,1.07-.5,1.37,1.37,0,0,0,.29-1.2A1.39,1.39,0,0,0,426.45,258.25Zm0,1.8a.85.85,0,0,1-1,.22.87.87,0,0,1-.46-.58.84.84,0,0,1,.18-.71.81.81,0,0,1,1.43.36A.8.8,0,0,1,426.49,260.05Z" style="fill:#2d5eea"/></g><path d="M418.34,254.69A8.89,8.89,0,0,1,430.66,252a9,9,0,0,1,2.72,12.39,8.9,8.9,0,0,1-12.32,2.74A9,9,0,0,1,418.34,254.69Zm.31.2a8.64,8.64,0,0,0,2.61,11.87,8.53,8.53,0,0,0,11.8-2.62,8.63,8.63,0,0,0-2.6-11.87A8.53,8.53,0,0,0,418.65,254.89Z" style="fill:#3ec7c9"/><path d="M436.34,274.23h-2.16a.38.38,0,1,1,0-.75h2.16a.38.38,0,1,1,0,.75Zm-5.39,0h-2.16a.38.38,0,1,1,0-.75H431a.38.38,0,0,1,0,.75Zm-5.4,0h-2.16a.38.38,0,0,1,0-.75h2.16a.38.38,0,1,1,0,.75Zm-5.39,0H418a.38.38,0,0,1,0-.75h2.16a.38.38,0,1,1,0,.75Zm-5.39,0h-2.16a2.28,2.28,0,0,1-1.6-.65.38.38,0,1,1,.53-.54,1.54,1.54,0,0,0,1.07.44h2.16a.38.38,0,0,1,0,.75Zm24.69-.47a.37.37,0,0,1-.29-.13.38.38,0,0,1,0-.53,1.51,1.51,0,0,0,.53-1.16v-.52a.38.38,0,1,1,.75,0V272a2.3,2.3,0,0,1-.78,1.72A.38.38,0,0,1,439.46,273.76Zm-28.76-3.15a.38.38,0,0,1-.38-.38v-2.16a.38.38,0,0,1,.76,0v2.16A.38.38,0,0,1,410.7,270.61Zm29.41-2.05a.38.38,0,0,1-.37-.38V266a.38.38,0,1,1,.75,0v2.15A.38.38,0,0,1,440.11,268.56Zm-29.41-3.35a.38.38,0,0,1-.38-.37v-2.16a.38.38,0,0,1,.76,0v2.16A.38.38,0,0,1,410.7,265.21Zm29.41-2a.38.38,0,0,1-.37-.38v-2.16a.38.38,0,0,1,.75,0v2.16A.38.38,0,0,1,440.11,263.17Zm-29.41-3.35a.38.38,0,0,1-.38-.38v-2.15a.38.38,0,0,1,.76,0v2.15A.38.38,0,0,1,410.7,259.82Zm29.41-2.05a.37.37,0,0,1-.37-.37v-2.16a.38.38,0,1,1,.75,0v2.16A.37.37,0,0,1,440.11,257.77Zm-29.41-3.34a.38.38,0,0,1-.38-.38v-2.16a.38.38,0,0,1,.76,0v2.16A.38.38,0,0,1,410.7,254.43Zm29.41-2.05a.38.38,0,0,1-.37-.38v-2.15a.38.38,0,1,1,.75,0V252A.38.38,0,0,1,440.11,252.38ZM410.7,249a.37.37,0,0,1-.38-.37V246.5a.38.38,0,0,1,.76,0v2.16A.37.37,0,0,1,410.7,249Zm29.41-2a.38.38,0,0,1-.37-.38v-.44a1.55,1.55,0,0,0-.58-1.2.37.37,0,0,1-.06-.53.38.38,0,0,1,.53-.06,2.27,2.27,0,0,1,.86,1.79v.44A.38.38,0,0,1,440.11,247Zm-3.86-2.35h-2.16a.38.38,0,0,1,0-.75h2.16a.38.38,0,1,1,0,.75Zm-5.39,0H428.7a.38.38,0,1,1,0-.75h2.16a.38.38,0,0,1,0,.75Zm-5.4,0h-2.15a.38.38,0,1,1,0-.75h2.15a.38.38,0,1,1,0,.75Zm-5.39,0h-2.16a.38.38,0,0,1,0-.75h2.16a.38.38,0,1,1,0,.75Zm-5.39,0h-2.07a.41.41,0,0,1-.42-.37.34.34,0,0,1,.32-.38h2.17a.38.38,0,0,1,0,.75Z" style="fill:#e5f3fe"/><path d="M426.26,270.9h0l-2.73-.12a.28.28,0,0,1-.26-.24l-.14-1.53a9.39,9.39,0,0,1-1.53-.49l-1,1.17a.26.26,0,0,1-.35.05l-2.3-1.48a.26.26,0,0,1-.1-.34l.63-1.39a10.35,10.35,0,0,1-1.09-1.2l-1.43.52a.28.28,0,0,1-.33-.13l-1.26-2.44a.28.28,0,0,1,.08-.35l1.25-.88a9.6,9.6,0,0,1-.35-1.59l-1.5-.27a.29.29,0,0,1-.22-.28l.12-2.75a.27.27,0,0,1,.25-.25l1.51-.14a10.34,10.34,0,0,1,.49-1.55l-1.16-1a.26.26,0,0,1,0-.34l1.47-2.32a.26.26,0,0,1,.34-.1l1.38.64a10.27,10.27,0,0,1,1.19-1.1l-.51-1.44a.26.26,0,0,1,.13-.33l2.42-1.27a.28.28,0,0,1,.35.08l.88,1.25A10.45,10.45,0,0,1,424,249l.28-1.51a.27.27,0,0,1,.27-.22l2.73.12a.26.26,0,0,1,.26.24l.14,1.53a9.5,9.5,0,0,1,1.54.49l1-1.17a.26.26,0,0,1,.35-.05l2.31,1.48a.28.28,0,0,1,.1.34l-.64,1.39a9.52,9.52,0,0,1,1.09,1.2l1.43-.52a.27.27,0,0,1,.33.13l1.26,2.44a.27.27,0,0,1-.08.35l-1.24.88a10.71,10.71,0,0,1,.34,1.59l1.5.27a.27.27,0,0,1,.22.28l-.12,2.75a.26.26,0,0,1-.24.25l-1.52.14a9.3,9.3,0,0,1-.49,1.55l1.17,1a.27.27,0,0,1,0,.35l-1.47,2.31a.26.26,0,0,1-.34.1l-1.39-.64a8.87,8.87,0,0,1-1.19,1.1l.52,1.44a.27.27,0,0,1-.13.33l-2.43,1.27a.26.26,0,0,1-.34-.08l-.88-1.25a10.86,10.86,0,0,1-1.58.34l-.27,1.51A.27.27,0,0,1,426.26,270.9Zm-2.48-.65,2.26.1.27-1.47a.26.26,0,0,1,.23-.21,9.82,9.82,0,0,0,1.86-.42.25.25,0,0,1,.3.1l.86,1.22,2-1.05-.5-1.4a.28.28,0,0,1,.09-.31,10.13,10.13,0,0,0,1.41-1.29.26.26,0,0,1,.31-.07l1.35.63,1.22-1.93-1.14-1a.3.3,0,0,1-.07-.31,10,10,0,0,0,.58-1.83.26.26,0,0,1,.24-.21l1.47-.14.1-2.28-1.46-.27a.28.28,0,0,1-.22-.23,9,9,0,0,0-.41-1.87.28.28,0,0,1,.1-.3l1.22-.87-1.05-2-1.39.5a.28.28,0,0,1-.31-.09,9.07,9.07,0,0,0-1.29-1.41.29.29,0,0,1-.06-.32l.62-1.35L430.47,249l-1,1.14a.26.26,0,0,1-.31.07,9.88,9.88,0,0,0-1.82-.58.27.27,0,0,1-.21-.24l-.14-1.48-2.26-.1-.26,1.47a.29.29,0,0,1-.24.22,9,9,0,0,0-1.85.41.27.27,0,0,1-.31-.1l-.86-1.22-2,1,.5,1.4a.26.26,0,0,1-.09.31,9.48,9.48,0,0,0-1.4,1.29.28.28,0,0,1-.32.07l-1.34-.62L415.37,254l1.13,1a.27.27,0,0,1,.07.31,9.94,9.94,0,0,0-.57,1.83.29.29,0,0,1-.24.22l-1.48.13-.1,2.28,1.46.27a.26.26,0,0,1,.22.23,10.08,10.08,0,0,0,.41,1.87.25.25,0,0,1-.1.3l-1.21.87,1,2,1.4-.5a.27.27,0,0,1,.3.09,9.6,9.6,0,0,0,1.29,1.41.29.29,0,0,1,.07.32l-.63,1.35,1.91,1.23,1-1.14a.28.28,0,0,1,.32-.07,9.54,9.54,0,0,0,1.81.58.26.26,0,0,1,.21.24Zm1.63-3.22a7.83,7.83,0,0,1-3.67-.92.23.23,0,0,1-.13-.17.26.26,0,0,1,0-.21l2.9-4.58a.26.26,0,0,1,.3-.11,2.07,2.07,0,0,0,1.91-.42.27.27,0,0,1,.32,0l4.55,2.92a.32.32,0,0,1,.12.18.3.3,0,0,1-.05.21A7.88,7.88,0,0,1,425.41,267Zm-3.16-1.26a7.32,7.32,0,0,0,8.82-2l-4.13-2.66a2.59,2.59,0,0,1-2.05.46Zm-1.49-.34a.27.27,0,0,1-.17-.06,8,8,0,0,1-2.2-10,.31.31,0,0,1,.17-.13.28.28,0,0,1,.22,0l4.55,2.92a.28.28,0,0,1,.11.3,2.09,2.09,0,0,0,.42,1.92.27.27,0,0,1,0,.32L421,265.3a.23.23,0,0,1-.18.12Zm-2-9.54a7.43,7.43,0,0,0,1.95,8.87l2.64-4.16a2.57,2.57,0,0,1-.45-2.06Zm13.44,7a.28.28,0,0,1-.15,0l-4.54-2.92a.28.28,0,0,1-.12-.3,2.09,2.09,0,0,0-.42-1.92.26.26,0,0,1,0-.32l2.9-4.57a.25.25,0,0,1,.18-.12.23.23,0,0,1,.21.05,8,8,0,0,1,2.2,10,.31.31,0,0,1-.17.13Zm-4.24-3.31,4.13,2.65a7.42,7.42,0,0,0-1.94-8.87l-2.64,4.16A2.6,2.6,0,0,1,427.94,259.58Zm-2.54.86a1.33,1.33,0,0,1-.58-.13,1.38,1.38,0,1,1,1.17-2.5,1.36,1.36,0,0,1,.76.95,1.39,1.39,0,0,1-.29,1.19A1.37,1.37,0,0,1,425.4,260.44Zm0-2.22a.81.81,0,0,0-.64.3.84.84,0,0,0-.18.73.87.87,0,0,0,.46.58h0a.85.85,0,0,0,1.18-.95.87.87,0,0,0-.47-.59A.84.84,0,0,0,425.41,258.22Zm-1.52-.65a.23.23,0,0,1-.14,0l-4.55-2.92a.25.25,0,0,1-.12-.18.23.23,0,0,1,.05-.21,7.86,7.86,0,0,1,9.94-2.21.26.26,0,0,1,.14.17.26.26,0,0,1,0,.21L426.27,257a.26.26,0,0,1-.3.11,2,2,0,0,0-1.9.42A.24.24,0,0,1,423.89,257.57Zm-4.15-3.26,4.13,2.66a2.59,2.59,0,0,1,2.05-.46l2.64-4.15A7.31,7.31,0,0,0,419.74,254.31Z" style="fill:#194866"/><path d="M417.89,254.23a8.9,8.9,0,0,1,12.32-2.74,9,9,0,0,1,2.72,12.4,8.91,8.91,0,0,1-12.32,2.74A9,9,0,0,1,417.89,254.23Zm.31.2a8.65,8.65,0,0,0,2.61,11.88,8.53,8.53,0,0,0,11.8-2.62,8.64,8.64,0,0,0-2.6-11.88A8.54,8.54,0,0,0,418.2,254.43Z" style="fill:#336291"/><rect x="448.01" y="244.27" width="29.42" height="29.59" rx="1.91" style="fill:#3ec7c9"/><path d="M447.93,275h.19v-1.18h2.27V275h.18v-1.18h2.27V275H453v-1.18h2.28V275h.18v-1.18h2.27V275h.18v-1.18h2.27V275h.19v-1.18h2.27V275h.18v-1.18h2.27V275h.19v-1.18h2.26V275h.19v-1.18H470V275h.18v-1.18h2.27V275h.19v-1.18h2.27V275h.18v-1.18h2.27V275h.19v-1.18h1.52v-.18h-1.52V271.4h1.52v-.19h-1.52v-2.28h1.52v-.18h-1.52v-2.28h1.52v-.18h-1.52V264h1.52v-.18h-1.52v-2.28h1.52v-.18h-1.52v-2.29h1.52v-.18h-1.52v-2.28h1.52v-.18h-1.52v-2.29h1.52V254h-1.52v-2.28h1.52v-.18h-1.52v-2.29h1.52V249h-1.52v-2.28h1.52v-.18h-1.52v-2.28h1.52v-.19h-1.52v-1.56h-.19v1.56h-2.27v-1.56h-.18v1.56h-2.27v-1.56h-.19v1.56H470.2v-1.56H470v1.56h-2.27v-1.56h-.19v1.56H465.3v-1.56h-.19v1.56h-2.27v-1.56h-.18v1.56h-2.27v-1.56h-.19v1.56h-2.27v-1.56h-.18v1.56h-2.27v-1.56h-.18v1.56H453v-1.56h-.18v1.56h-2.27v-1.56h-.18v1.56h-2.27v-1.56h-.19v1.56h-1.88v.19h1.88v2.28h-1.88v.18h1.88V249h-1.88v.18h1.88v2.29h-1.88v.18h1.88V254h-1.88v.18h1.88v2.29h-1.88v.18h1.88v2.28h-1.88v.18h1.88v2.29h-1.88v.18h1.88v2.28h-1.88V264h1.88v2.29h-1.88v.18h1.88v2.28h-1.88v.18h1.88v2.28h-1.88v.19h1.88v2.28h-1.88v.18h1.88Zm27.18-30.75h2.27v2.28h-2.27Zm0,2.46h2.27V249h-2.27Zm0,2.46h2.27v2.29h-2.27Zm0,2.47h2.27V254h-2.27Zm0,2.46h2.27v2.29h-2.27Zm0,2.47h2.27v2.28h-2.27Zm0,2.46h2.27v2.29h-2.27Zm0,2.47h2.27v2.28h-2.27Zm0,2.46h2.27v2.29h-2.27Zm0,2.47h2.27v2.28h-2.27Zm0,2.46h2.27v2.28h-2.27Zm0,2.47h2.27v2.28h-2.27Zm-2.45-27.11h2.27v2.28h-2.27Zm0,2.46h2.27V249h-2.27Zm0,2.46h2.27v2.29h-2.27Zm0,2.47h2.27V254h-2.27Zm0,2.46h2.27v2.29h-2.27Zm0,2.47h2.27v2.28h-2.27Zm0,2.46h2.27v2.29h-2.27Zm0,2.47h2.27v2.28h-2.27Zm0,2.46h2.27v2.29h-2.27Zm0,2.47h2.27v2.28h-2.27Zm0,2.46h2.27v2.28h-2.27Zm0,2.47h2.27v2.28h-2.27Zm-2.46-27.11h2.27v2.28H470.2Zm0,2.46h2.27V249H470.2Zm0,2.46h2.27v2.29H470.2Zm0,2.47h2.27V254H470.2Zm0,2.46h2.27v2.29H470.2Zm0,2.47h2.27v2.28H470.2Zm0,2.46h2.27v2.29H470.2Zm0,2.47h2.27v2.28H470.2Zm0,2.46h2.27v2.29H470.2Zm0,2.47h2.27v2.28H470.2Zm0,2.46h2.27v2.28H470.2Zm0,2.47h2.27v2.28H470.2Zm-2.45-27.11H470v2.28h-2.27Zm0,2.46H470V249h-2.27Zm0,2.46H470v2.29h-2.27Zm0,2.47H470V254h-2.27Zm0,2.46H470v2.29h-2.27Zm0,2.47H470v2.28h-2.27Zm0,2.46H470v2.29h-2.27Zm0,2.47H470v2.28h-2.27Zm0,2.46H470v2.29h-2.27Zm0,2.47H470v2.28h-2.27Zm0,2.46H470v2.28h-2.27Zm0,2.47H470v2.28h-2.27Zm-2.45-27.11h2.26v2.28H465.3Zm0,2.46h2.26V249H465.3Zm0,2.46h2.26v2.29H465.3Zm0,2.47h2.26V254H465.3Zm0,2.46h2.26v2.29H465.3Zm0,2.47h2.26v2.28H465.3Zm0,2.46h2.26v2.29H465.3Zm0,2.47h2.26v2.28H465.3Zm0,2.46h2.26v2.29H465.3Zm0,2.47h2.26v2.28H465.3Zm0,2.46h2.26v2.28H465.3Zm0,2.47h2.26v2.28H465.3Zm-2.46-27.11h2.27v2.28h-2.27Zm0,2.46h2.27V249h-2.27Zm0,2.46h2.27v2.29h-2.27Zm0,2.47h2.27V254h-2.27Zm0,2.46h2.27v2.29h-2.27Zm0,2.47h2.27v2.28h-2.27Zm0,2.46h2.27v2.29h-2.27Zm0,2.47h2.27v2.28h-2.27Zm0,2.46h2.27v2.29h-2.27Zm0,2.47h2.27v2.28h-2.27Zm0,2.46h2.27v2.28h-2.27Zm0,2.47h2.27v2.28h-2.27Zm-2.45-27.11h2.27v2.28h-2.27Zm0,2.46h2.27V249h-2.27Zm0,2.46h2.27v2.29h-2.27Zm0,2.47h2.27V254h-2.27Zm0,2.46h2.27v2.29h-2.27Zm0,2.47h2.27v2.28h-2.27Zm0,2.46h2.27v2.29h-2.27Zm0,2.47h2.27v2.28h-2.27Zm0,2.46h2.27v2.29h-2.27Zm0,2.47h2.27v2.28h-2.27Zm0,2.46h2.27v2.28h-2.27Zm0,2.47h2.27v2.28h-2.27Zm-2.46-27.11h2.27v2.28h-2.27Zm0,2.46h2.27V249h-2.27Zm0,2.46h2.27v2.29h-2.27Zm0,2.47h2.27V254h-2.27Zm0,2.46h2.27v2.29h-2.27Zm0,2.47h2.27v2.28h-2.27Zm0,2.46h2.27v2.29h-2.27Zm0,2.47h2.27v2.28h-2.27Zm0,2.46h2.27v2.29h-2.27Zm0,2.47h2.27v2.28h-2.27Zm0,2.46h2.27v2.28h-2.27Zm0,2.47h2.27v2.28h-2.27Zm-2.45-27.11h2.27v2.28h-2.27Zm0,2.46h2.27V249h-2.27Zm0,2.46h2.27v2.29h-2.27Zm0,2.47h2.27V254h-2.27Zm0,2.46h2.27v2.29h-2.27Zm0,2.47h2.27v2.28h-2.27Zm0,2.46h2.27v2.29h-2.27Zm0,2.47h2.27v2.28h-2.27Zm0,2.46h2.27v2.29h-2.27Zm0,2.47h2.27v2.28h-2.27Zm0,2.46h2.27v2.28h-2.27Zm0,2.47h2.27v2.28h-2.27ZM453,244.29h2.28v2.28H453Zm0,2.46h2.28V249H453Zm0,2.46h2.28v2.29H453Zm0,2.47h2.28V254H453Zm0,2.46h2.28v2.29H453Zm0,2.47h2.28v2.28H453Zm0,2.46h2.28v2.29H453Zm0,2.47h2.28v2.28H453Zm0,2.46h2.28v2.29H453Zm0,2.47h2.28v2.28H453Zm0,2.46h2.28v2.28H453Zm0,2.47h2.28v2.28H453Zm-2.45-27.11h2.27v2.28h-2.27Zm0,2.46h2.27V249h-2.27Zm0,2.46h2.27v2.29h-2.27Zm0,2.47h2.27V254h-2.27Zm0,2.46h2.27v2.29h-2.27Zm0,2.47h2.27v2.28h-2.27Zm0,2.46h2.27v2.29h-2.27Zm0,2.47h2.27v2.28h-2.27Zm0,2.46h2.27v2.29h-2.27Zm0,2.47h2.27v2.28h-2.27Zm0,2.46h2.27v2.28h-2.27Zm0,2.47h2.27v2.28h-2.27Zm-2.45-27.11h2.27v2.28h-2.27Zm0,2.46h2.27V249h-2.27Zm0,2.46h2.27v2.29h-2.27Zm0,2.47h2.27V254h-2.27Zm0,2.46h2.27v2.29h-2.27Zm0,2.47h2.27v2.28h-2.27Zm0,2.46h2.27v2.29h-2.27Zm0,2.47h2.27v2.28h-2.27Zm0,2.46h2.27v2.29h-2.27Zm0,2.47h2.27v2.28h-2.27Zm0,2.46h2.27v2.28h-2.27Zm0,2.47h2.27v2.28h-2.27Z" style="fill:#fff"/><g style="mix-blend-mode:multiply"><path d="M472.8,260.71l0-2.34,2-1.19a12.19,12.19,0,0,0-.88-2.57l-2.33.33-1.41-1.87.95-2.16a11.4,11.4,0,0,0-2.15-1.52l-1.7,1.63-2.22-.69-.49-2.32a11.68,11.68,0,0,0-2.71,0l-.41,2.33-2.2.76-1.75-1.58a12.14,12.14,0,0,0-2.17,1.62l1,2.14-1.34,1.9-2.33-.23a13.83,13.83,0,0,0-.5,1.32,10.83,10.83,0,0,0-.3,1.28l2.07,1.11,0,2.34-2,1.18a12.36,12.36,0,0,0,.88,2.59l2.33-.33,1.4,1.87-1,2.16a11.52,11.52,0,0,0,2.22,1.56l1.7-1.63,2.22.68.5,2.32a11.69,11.69,0,0,0,2.71-.06l.4-2.33,2.2-.76,1.75,1.58a11.88,11.88,0,0,0,2.16-1.65l-1-2.12,1.33-1.92,2.34.24a9.57,9.57,0,0,0,.47-1.3,10.27,10.27,0,0,0,.32-1.3Zm-6.48,6.13a7.65,7.65,0,0,1-10-4.15,7.68,7.68,0,1,1,10,4.15Z" style="fill:#3ec7c9"/><path d="M460.7,253.29a7,7,0,1,0,9.06,3.75A7,7,0,0,0,460.7,253.29Zm4.69,11.3a5.27,5.27,0,1,1,2.82-6.91A5.25,5.25,0,0,1,465.39,264.59Z" style="fill:#3ec7c9"/></g><path d="M472.14,260l0-2.33,2-1.2a12.1,12.1,0,0,0-.88-2.56l-2.33.33-1.41-1.88.95-2.15a11.92,11.92,0,0,0-2.15-1.53l-1.7,1.64-2.22-.69-.49-2.32a12.27,12.27,0,0,0-2.71,0l-.41,2.33-2.2.76-1.75-1.58a12.19,12.19,0,0,0-2.17,1.63l1,2.13-1.34,1.91-2.33-.24a11.74,11.74,0,0,0-.5,1.33,11.15,11.15,0,0,0-.3,1.27l2.07,1.11,0,2.34-2,1.18a11.66,11.66,0,0,0,.89,2.59l2.32-.33,1.4,1.88-1,2.15a11.14,11.14,0,0,0,2.22,1.57l1.7-1.63,2.22.68.5,2.31a11.69,11.69,0,0,0,2.71,0l.4-2.33,2.2-.76,1.75,1.58a11.88,11.88,0,0,0,2.16-1.65l-1-2.12,1.33-1.92,2.34.24a10.09,10.09,0,0,0,.47-1.3,10.27,10.27,0,0,0,.32-1.3Zm-6.48,6.13a7.64,7.64,0,0,1-10-4.14,7.68,7.68,0,1,1,10,4.14ZM460,252.63a7,7,0,0,0-3.71,9.12,6.9,6.9,0,0,0,9.05,3.73,7,7,0,0,0,3.72-9.1A6.9,6.9,0,0,0,460,252.63Zm4.69,11.3a5.27,5.27,0,1,1,2.82-6.92A5.31,5.31,0,0,1,464.73,263.93Z" style="fill:#194866"/><rect x="410.48" y="206.4" width="29.42" height="29.59" rx="1.91" style="fill:#3ec7c9"/><g style="mix-blend-mode:multiply"><path d="M435.27,222.85l0-2.34,2-1.2a12.3,12.3,0,0,0-.88-2.56l-2.32.33-1.42-1.87.95-2.16a11.4,11.4,0,0,0-2.15-1.52l-1.7,1.63-2.22-.69-.49-2.32a11.59,11.59,0,0,0-2.7,0l-.42,2.32-2.2.77L420,211.7a12.14,12.14,0,0,0-2.17,1.62l1,2.14-1.33,1.9-2.34-.24a14,14,0,0,0-.5,1.33c-.12.42-.22.84-.3,1.27l2.07,1.12,0,2.33-2,1.19a11.07,11.07,0,0,0,.88,2.58l2.32-.32,1.4,1.87-1,2.16a11.52,11.52,0,0,0,2.22,1.56l1.7-1.63,2.22.68.5,2.31a11.16,11.16,0,0,0,2.71,0l.4-2.33,2.2-.76,1.75,1.58a11.55,11.55,0,0,0,2.16-1.65l-1-2.12,1.33-1.92,2.34.24a9.57,9.57,0,0,0,.47-1.3,10.27,10.27,0,0,0,.32-1.3ZM428.8,229a7.72,7.72,0,1,1,4.13-10.1A7.75,7.75,0,0,1,428.8,229Z" style="fill:#3ec7c9"/><path d="M423.17,215.43a7,7,0,0,0-3.71,9.12,6.93,6.93,0,1,0,3.71-9.12Zm4.69,11.3a5.27,5.27,0,1,1,2.82-6.92A5.3,5.3,0,0,1,427.86,226.73Z" style="fill:#3ec7c9"/></g><path d="M434.61,222.18l0-2.34,2-1.19a12.1,12.1,0,0,0-.88-2.56l-2.33.32L432,214.54l.95-2.16a11.4,11.4,0,0,0-2.15-1.52l-1.7,1.64-2.22-.7-.49-2.31a12.17,12.17,0,0,0-2.7,0l-.42,2.33-2.2.76L419.3,211a12.19,12.19,0,0,0-2.17,1.63l1,2.13-1.34,1.91-2.33-.24a13.07,13.07,0,0,0-.5,1.33c-.12.42-.22.84-.3,1.27l2.07,1.11,0,2.34-2,1.18a11.15,11.15,0,0,0,.88,2.59L417,226l1.4,1.87-1,2.16a11.33,11.33,0,0,0,2.23,1.57l1.69-1.64,2.22.68.5,2.32a11.15,11.15,0,0,0,2.71-.06l.4-2.32,2.2-.76,1.75,1.57a11.83,11.83,0,0,0,2.16-1.64l-1-2.12,1.33-1.92,2.34.23a12.4,12.4,0,0,0,.79-2.6Zm-6.47,6.13a7.65,7.65,0,0,1-10-4.14,7.68,7.68,0,1,1,10,4.14Zm-5.62-13.54a7,7,0,1,0,9.05,3.74A6.89,6.89,0,0,0,422.52,214.77Zm4.68,11.29a5.26,5.26,0,1,1,2.82-6.91A5.29,5.29,0,0,1,427.2,226.06Z" style="fill:#194866"/><path d="M486.07,198.4a2.26,2.26,0,0,1-1.59-.65.38.38,0,1,1,.53-.54,1.49,1.49,0,0,0,1.06.43h2.16a.38.38,0,1,1,0,.76h-2.16Zm23.74,0h-2.16a.38.38,0,1,1,0-.76h2.16a.38.38,0,0,1,0,.76Zm-5.4,0h-2.15a.38.38,0,1,1,0-.76h2.15a.38.38,0,1,1,0,.76Zm-5.39,0h-2.16a.38.38,0,0,1,0-.76H499a.38.38,0,1,1,0,.76Zm-5.39,0h-2.16a.38.38,0,0,1,0-.76h2.16a.38.38,0,0,1,0,.76Zm19.3-.47a.41.41,0,0,1-.29-.13.37.37,0,0,1,0-.53,1.55,1.55,0,0,0,.52-1.16v-.52a.38.38,0,1,1,.76,0v.52a2.31,2.31,0,0,1-.79,1.73A.38.38,0,0,1,512.93,197.93Zm-28.76-3.16a.37.37,0,0,1-.38-.37v-2.16a.38.38,0,0,1,.38-.38.37.37,0,0,1,.37.38v2.16A.36.36,0,0,1,484.17,194.77Zm29.41-2a.38.38,0,0,1-.38-.38v-2.16a.38.38,0,0,1,.76,0v2.16A.38.38,0,0,1,513.58,192.73Zm-29.41-3.35a.38.38,0,0,1-.38-.38v-2.15a.38.38,0,0,1,.38-.38.37.37,0,0,1,.37.38V189A.37.37,0,0,1,484.17,189.38Zm29.41-2a.37.37,0,0,1-.38-.37V184.8a.38.38,0,0,1,.76,0V187A.37.37,0,0,1,513.58,187.33ZM484.17,184a.38.38,0,0,1-.38-.38v-2.16a.38.38,0,0,1,.38-.37.37.37,0,0,1,.37.37v2.16A.37.37,0,0,1,484.17,184Zm29.41-2.05a.38.38,0,0,1-.38-.38v-2.15a.38.38,0,1,1,.76,0v2.15A.38.38,0,0,1,513.58,181.94Zm-29.41-3.34a.38.38,0,0,1-.38-.38v-2.16a.38.38,0,0,1,.38-.38.37.37,0,0,1,.37.38v2.16A.37.37,0,0,1,484.17,178.6Zm29.41-2a.38.38,0,0,1-.38-.38V174a.38.38,0,0,1,.76,0v2.16A.38.38,0,0,1,513.58,176.55Zm-29.41-3.35a.38.38,0,0,1-.38-.37v-2.16a.38.38,0,0,1,.38-.38.37.37,0,0,1,.37.38v2.16A.37.37,0,0,1,484.17,173.2Zm29.41-2a.37.37,0,0,1-.38-.37v-.44a1.52,1.52,0,0,0-.58-1.2.38.38,0,1,1,.47-.59,2.28,2.28,0,0,1,.87,1.79v.44A.37.37,0,0,1,513.58,171.15Zm-3.86-2.34h-2.16a.38.38,0,0,1-.38-.38.37.37,0,0,1,.38-.37h2.16a.37.37,0,0,1,.37.37A.38.38,0,0,1,509.72,168.81Zm-5.4,0h-2.16a.38.38,0,0,1-.37-.38.37.37,0,0,1,.37-.37h2.16a.37.37,0,0,1,.38.37A.38.38,0,0,1,504.32,168.81Zm-5.39,0h-2.16a.38.38,0,0,1-.38-.38.37.37,0,0,1,.38-.37h2.16a.37.37,0,0,1,.38.37A.38.38,0,0,1,498.93,168.81Zm-5.39,0h-2.16a.38.38,0,0,1-.38-.38.37.37,0,0,1,.38-.37h2.16a.37.37,0,0,1,.37.37A.38.38,0,0,1,493.54,168.81Zm-5.4,0h-2.06a.42.42,0,0,1-.43-.37.34.34,0,0,1,.32-.38h2.17a.37.37,0,0,1,.38.37A.38.38,0,0,1,488.14,168.81Z" style="fill:#194866"/><rect x="448.01" y="168.43" width="29.42" height="29.59" rx="1.91" style="fill:#3ec7c9"/><rect x="410.48" y="168.7" width="29.42" height="29.59" rx="1.91" style="fill:#336291"/><path d="M410.41,199.48h.18V198.3h2.27v1.18H413V198.3h2.27v1.18h.19V198.3h2.27v1.18H418V198.3h2.27v1.18h.18V198.3h2.27v1.18h.19V198.3h2.27v1.18h.18V198.3h2.27v1.18h.19V198.3H430v1.18h.18V198.3h2.27v1.18h.19V198.3h2.26v1.18h.19V198.3h2.27v1.18h.18V198.3h2.27v1.18H440V198.3h1.52v-.18H440v-2.29h1.52v-.18H440v-2.28h1.52v-.18H440V190.9h1.52v-.18H440v-2.28h1.52v-.18H440V186h1.52v-.19H440v-2.28h1.52v-.18H440v-2.28h1.52v-.18H440v-2.29h1.52v-.18H440v-2.28h1.52v-.19H440v-2.28h1.52v-.18H440v-2.28h1.52V171H440v-2.28h1.52v-.18H440V167h-.19v1.56h-2.27V167h-.18v1.56h-2.27V167h-.19v1.56h-2.26V167h-.19v1.56h-2.27V167H430v1.56h-2.27V167h-.19v1.56h-2.27V167h-.18v1.56h-2.27V167h-.19v1.56H420.4V167h-.18v1.56H418V167h-.18v1.56H415.5V167h-.19v1.56H413V167h-.18v1.56h-2.27V167h-.18v1.56h-1.89v.18h1.89V171h-1.89v.19h1.89v2.28h-1.89v.18h1.89v2.28h-1.89v.19h1.89v2.28h-1.89v.18h1.89v2.29h-1.89v.18h1.89v2.28h-1.89v.18h1.89v2.28h-1.89V186h1.89v2.28h-1.89v.18h1.89v2.28h-1.89v.18h1.89v2.29h-1.89v.18h1.89v2.28h-1.89v.18h1.89v2.29h-1.89v.18h1.89Zm27.17-30.76h2.27V171h-2.27Zm0,2.47h2.27v2.28h-2.27Zm0,2.46h2.27v2.28h-2.27Zm0,2.47h2.27v2.28h-2.27Zm0,2.46h2.27v2.29h-2.27Zm0,2.47h2.27v2.28h-2.27Zm0,2.46h2.27v2.28h-2.27Zm0,2.47h2.27v2.28h-2.27Zm0,2.46h2.27v2.28h-2.27Zm0,2.46h2.27v2.29h-2.27Zm0,2.47h2.27v2.28h-2.27Zm0,2.46h2.27v2.29h-2.27Zm-2.45-27.11h2.27V171h-2.27Zm0,2.47h2.27v2.28h-2.27Zm0,2.46h2.27v2.28h-2.27Zm0,2.47h2.27v2.28h-2.27Zm0,2.46h2.27v2.29h-2.27Zm0,2.47h2.27v2.28h-2.27Zm0,2.46h2.27v2.28h-2.27Zm0,2.47h2.27v2.28h-2.27Zm0,2.46h2.27v2.28h-2.27Zm0,2.46h2.27v2.29h-2.27Zm0,2.47h2.27v2.28h-2.27Zm0,2.46h2.27v2.29h-2.27Zm-2.45-27.11h2.26V171h-2.26Zm0,2.47h2.26v2.28h-2.26Zm0,2.46h2.26v2.28h-2.26Zm0,2.47h2.26v2.28h-2.26Zm0,2.46h2.26v2.29h-2.26Zm0,2.47h2.26v2.28h-2.26Zm0,2.46h2.26v2.28h-2.26Zm0,2.47h2.26v2.28h-2.26Zm0,2.46h2.26v2.28h-2.26Zm0,2.46h2.26v2.29h-2.26Zm0,2.47h2.26v2.28h-2.26Zm0,2.46h2.26v2.29h-2.26Zm-2.46-27.11h2.27V171h-2.27Zm0,2.47h2.27v2.28h-2.27Zm0,2.46h2.27v2.28h-2.27Zm0,2.47h2.27v2.28h-2.27Zm0,2.46h2.27v2.29h-2.27Zm0,2.47h2.27v2.28h-2.27Zm0,2.46h2.27v2.28h-2.27Zm0,2.47h2.27v2.28h-2.27Zm0,2.46h2.27v2.28h-2.27Zm0,2.46h2.27v2.29h-2.27Zm0,2.47h2.27v2.28h-2.27Zm0,2.46h2.27v2.29h-2.27Zm-2.45-27.11H430V171h-2.27Zm0,2.47H430v2.28h-2.27Zm0,2.46H430v2.28h-2.27Zm0,2.47H430v2.28h-2.27Zm0,2.46H430v2.29h-2.27Zm0,2.47H430v2.28h-2.27Zm0,2.46H430v2.28h-2.27Zm0,2.47H430v2.28h-2.27Zm0,2.46H430v2.28h-2.27Zm0,2.46H430v2.29h-2.27Zm0,2.47H430v2.28h-2.27Zm0,2.46H430v2.29h-2.27Zm-2.46-27.11h2.27V171h-2.27Zm0,2.47h2.27v2.28h-2.27Zm0,2.46h2.27v2.28h-2.27Zm0,2.47h2.27v2.28h-2.27Zm0,2.46h2.27v2.29h-2.27Zm0,2.47h2.27v2.28h-2.27Zm0,2.46h2.27v2.28h-2.27Zm0,2.47h2.27v2.28h-2.27Zm0,2.46h2.27v2.28h-2.27Zm0,2.46h2.27v2.29h-2.27Zm0,2.47h2.27v2.28h-2.27Zm0,2.46h2.27v2.29h-2.27Zm-2.45-27.11h2.27V171h-2.27Zm0,2.47h2.27v2.28h-2.27Zm0,2.46h2.27v2.28h-2.27Zm0,2.47h2.27v2.28h-2.27Zm0,2.46h2.27v2.29h-2.27Zm0,2.47h2.27v2.28h-2.27Zm0,2.46h2.27v2.28h-2.27Zm0,2.47h2.27v2.28h-2.27Zm0,2.46h2.27v2.28h-2.27Zm0,2.46h2.27v2.29h-2.27Zm0,2.47h2.27v2.28h-2.27Zm0,2.46h2.27v2.29h-2.27Zm-2.46-27.11h2.27V171H420.4Zm0,2.47h2.27v2.28H420.4Zm0,2.46h2.27v2.28H420.4Zm0,2.47h2.27v2.28H420.4Zm0,2.46h2.27v2.29H420.4Zm0,2.47h2.27v2.28H420.4Zm0,2.46h2.27v2.28H420.4Zm0,2.47h2.27v2.28H420.4Zm0,2.46h2.27v2.28H420.4Zm0,2.46h2.27v2.29H420.4Zm0,2.47h2.27v2.28H420.4Zm0,2.46h2.27v2.29H420.4ZM418,168.72h2.27V171H418Zm0,2.47h2.27v2.28H418Zm0,2.46h2.27v2.28H418Zm0,2.47h2.27v2.28H418Zm0,2.46h2.27v2.29H418Zm0,2.47h2.27v2.28H418Zm0,2.46h2.27v2.28H418Zm0,2.47h2.27v2.28H418Zm0,2.46h2.27v2.28H418Zm0,2.46h2.27v2.29H418Zm0,2.47h2.27v2.28H418Zm0,2.46h2.27v2.29H418Zm-2.45-27.11h2.27V171H415.5Zm0,2.47h2.27v2.28H415.5Zm0,2.46h2.27v2.28H415.5Zm0,2.47h2.27v2.28H415.5Zm0,2.46h2.27v2.29H415.5Zm0,2.47h2.27v2.28H415.5Zm0,2.46h2.27v2.28H415.5Zm0,2.47h2.27v2.28H415.5Zm0,2.46h2.27v2.28H415.5Zm0,2.46h2.27v2.29H415.5Zm0,2.47h2.27v2.28H415.5Zm0,2.46h2.27v2.29H415.5ZM413,168.72h2.27V171H413Zm0,2.47h2.27v2.28H413Zm0,2.46h2.27v2.28H413Zm0,2.47h2.27v2.28H413Zm0,2.46h2.27v2.29H413Zm0,2.47h2.27v2.28H413Zm0,2.46h2.27v2.28H413Zm0,2.47h2.27v2.28H413Zm0,2.46h2.27v2.28H413Zm0,2.46h2.27v2.29H413Zm0,2.47h2.27v2.28H413Zm0,2.46h2.27v2.29H413Zm-2.45-27.11h2.27V171h-2.27Zm0,2.47h2.27v2.28h-2.27Zm0,2.46h2.27v2.28h-2.27Zm0,2.47h2.27v2.28h-2.27Zm0,2.46h2.27v2.29h-2.27Zm0,2.47h2.27v2.28h-2.27Zm0,2.46h2.27v2.28h-2.27Zm0,2.47h2.27v2.28h-2.27Zm0,2.46h2.27v2.28h-2.27Zm0,2.46h2.27v2.29h-2.27Zm0,2.47h2.27v2.28h-2.27Zm0,2.46h2.27v2.29h-2.27Z" style="fill:#fff"/><rect x="484.06" y="206.4" width="29.42" height="29.59" rx="1.91" style="fill:#336291"/><path d="M484,237.18h.19V236h2.27v1.18h.18V236h2.27v1.18h.19V236h2.27v1.18h.18V236h2.27v1.18H494V236h2.27v1.18h.19V236h2.27v1.18h.18V236h2.27v1.18h.19V236h2.27v1.18h.18V236h2.27v1.18h.19V236h2.26v1.18h.19V236H511v1.18h.18V236h2.27v1.18h.19V236h1.52v-.18h-1.52v-2.28h1.52v-.19h-1.52v-2.28h1.52v-.18h-1.52v-2.28h1.52v-.19h-1.52v-2.28h1.52V226h-1.52v-2.28h1.52v-.18h-1.52v-2.29h1.52V221h-1.52v-2.28h1.52v-.18h-1.52v-2.29h1.52v-.18h-1.52v-2.28h1.52v-.18h-1.52v-2.29h1.52v-.18h-1.52v-2.28h1.52v-.18h-1.52v-2.29h1.52v-.18h-1.52v-1.56h-.19v1.56h-2.27v-1.56H511v1.56h-2.27v-1.56h-.19v1.56h-2.26v-1.56h-.19v1.56H503.8v-1.56h-.18v1.56h-2.27v-1.56h-.19v1.56h-2.27v-1.56h-.18v1.56h-2.27v-1.56h-.19v1.56H494v-1.56h-.18v1.56h-2.27v-1.56h-.18v1.56h-2.27v-1.56h-.19v1.56h-2.27v-1.56h-.18v1.56h-2.27v-1.56H484v1.56H482.1v.18H484v2.29H482.1v.18H484v2.28H482.1v.18H484v2.29H482.1v.18H484v2.28H482.1v.18H484v2.29H482.1v.18H484V221H482.1v.18H484v2.29H482.1v.18H484V226H482.1v.18H484v2.28H482.1v.19H484v2.28H482.1v.18H484v2.28H482.1v.19H484v2.28H482.1V236H484Zm27.18-30.76h2.27v2.29h-2.27Zm0,2.47h2.27v2.28h-2.27Zm0,2.46h2.27v2.29h-2.27Zm0,2.47h2.27v2.28h-2.27Zm0,2.46h2.27v2.29h-2.27Zm0,2.47h2.27V221h-2.27Zm0,2.46h2.27v2.29h-2.27Zm0,2.47h2.27V226h-2.27Zm0,2.46h2.27v2.28h-2.27Zm0,2.47h2.27v2.28h-2.27Zm0,2.46h2.27v2.28h-2.27Zm0,2.47h2.27v2.28h-2.27Zm-2.45-27.12H511v2.29h-2.27Zm0,2.47H511v2.28h-2.27Zm0,2.46H511v2.29h-2.27Zm0,2.47H511v2.28h-2.27Zm0,2.46H511v2.29h-2.27Zm0,2.47H511V221h-2.27Zm0,2.46H511v2.29h-2.27Zm0,2.47H511V226h-2.27Zm0,2.46H511v2.28h-2.27Zm0,2.47H511v2.28h-2.27Zm0,2.46H511v2.28h-2.27Zm0,2.47H511v2.28h-2.27Zm-2.45-27.12h2.26v2.29h-2.26Zm0,2.47h2.26v2.28h-2.26Zm0,2.46h2.26v2.29h-2.26Zm0,2.47h2.26v2.28h-2.26Zm0,2.46h2.26v2.29h-2.26Zm0,2.47h2.26V221h-2.26Zm0,2.46h2.26v2.29h-2.26Zm0,2.47h2.26V226h-2.26Zm0,2.46h2.26v2.28h-2.26Zm0,2.47h2.26v2.28h-2.26Zm0,2.46h2.26v2.28h-2.26Zm0,2.47h2.26v2.28h-2.26Zm-2.46-27.12h2.27v2.29H503.8Zm0,2.47h2.27v2.28H503.8Zm0,2.46h2.27v2.29H503.8Zm0,2.47h2.27v2.28H503.8Zm0,2.46h2.27v2.29H503.8Zm0,2.47h2.27V221H503.8Zm0,2.46h2.27v2.29H503.8Zm0,2.47h2.27V226H503.8Zm0,2.46h2.27v2.28H503.8Zm0,2.47h2.27v2.28H503.8Zm0,2.46h2.27v2.28H503.8Zm0,2.47h2.27v2.28H503.8Zm-2.45-27.12h2.27v2.29h-2.27Zm0,2.47h2.27v2.28h-2.27Zm0,2.46h2.27v2.29h-2.27Zm0,2.47h2.27v2.28h-2.27Zm0,2.46h2.27v2.29h-2.27Zm0,2.47h2.27V221h-2.27Zm0,2.46h2.27v2.29h-2.27Zm0,2.47h2.27V226h-2.27Zm0,2.46h2.27v2.28h-2.27Zm0,2.47h2.27v2.28h-2.27Zm0,2.46h2.27v2.28h-2.27Zm0,2.47h2.27v2.28h-2.27Zm-2.46-27.12h2.27v2.29h-2.27Zm0,2.47h2.27v2.28h-2.27Zm0,2.46h2.27v2.29h-2.27Zm0,2.47h2.27v2.28h-2.27Zm0,2.46h2.27v2.29h-2.27Zm0,2.47h2.27V221h-2.27Zm0,2.46h2.27v2.29h-2.27Zm0,2.47h2.27V226h-2.27Zm0,2.46h2.27v2.28h-2.27Zm0,2.47h2.27v2.28h-2.27Zm0,2.46h2.27v2.28h-2.27Zm0,2.47h2.27v2.28h-2.27Zm-2.45-27.12h2.27v2.29h-2.27Zm0,2.47h2.27v2.28h-2.27Zm0,2.46h2.27v2.29h-2.27Zm0,2.47h2.27v2.28h-2.27Zm0,2.46h2.27v2.29h-2.27Zm0,2.47h2.27V221h-2.27Zm0,2.46h2.27v2.29h-2.27Zm0,2.47h2.27V226h-2.27Zm0,2.46h2.27v2.28h-2.27Zm0,2.47h2.27v2.28h-2.27Zm0,2.46h2.27v2.28h-2.27Zm0,2.47h2.27v2.28h-2.27ZM494,206.42h2.27v2.29H494Zm0,2.47h2.27v2.28H494Zm0,2.46h2.27v2.29H494Zm0,2.47h2.27v2.28H494Zm0,2.46h2.27v2.29H494Zm0,2.47h2.27V221H494Zm0,2.46h2.27v2.29H494Zm0,2.47h2.27V226H494Zm0,2.46h2.27v2.28H494Zm0,2.47h2.27v2.28H494Zm0,2.46h2.27v2.28H494Zm0,2.47h2.27v2.28H494Zm-2.45-27.12h2.27v2.29h-2.27Zm0,2.47h2.27v2.28h-2.27Zm0,2.46h2.27v2.29h-2.27Zm0,2.47h2.27v2.28h-2.27Zm0,2.46h2.27v2.29h-2.27Zm0,2.47h2.27V221h-2.27Zm0,2.46h2.27v2.29h-2.27Zm0,2.47h2.27V226h-2.27Zm0,2.46h2.27v2.28h-2.27Zm0,2.47h2.27v2.28h-2.27Zm0,2.46h2.27v2.28h-2.27Zm0,2.47h2.27v2.28h-2.27Zm-2.45-27.12h2.27v2.29h-2.27Zm0,2.47h2.27v2.28h-2.27Zm0,2.46h2.27v2.29h-2.27Zm0,2.47h2.27v2.28h-2.27Zm0,2.46h2.27v2.29h-2.27Zm0,2.47h2.27V221h-2.27Zm0,2.46h2.27v2.29h-2.27Zm0,2.47h2.27V226h-2.27Zm0,2.46h2.27v2.28h-2.27Zm0,2.47h2.27v2.28h-2.27Zm0,2.46h2.27v2.28h-2.27Zm0,2.47h2.27v2.28h-2.27Zm-2.46-27.12h2.27v2.29h-2.27Zm0,2.47h2.27v2.28h-2.27Zm0,2.46h2.27v2.29h-2.27Zm0,2.47h2.27v2.28h-2.27Zm0,2.46h2.27v2.29h-2.27Zm0,2.47h2.27V221h-2.27Zm0,2.46h2.27v2.29h-2.27Zm0,2.47h2.27V226h-2.27Zm0,2.46h2.27v2.28h-2.27Zm0,2.47h2.27v2.28h-2.27Zm0,2.46h2.27v2.28h-2.27Zm0,2.47h2.27v2.28h-2.27Zm-2.45-27.12h2.27v2.29h-2.27Zm0,2.47h2.27v2.28h-2.27Zm0,2.46h2.27v2.29h-2.27Zm0,2.47h2.27v2.28h-2.27Zm0,2.46h2.27v2.29h-2.27Zm0,2.47h2.27V221h-2.27Zm0,2.46h2.27v2.29h-2.27Zm0,2.47h2.27V226h-2.27Zm0,2.46h2.27v2.28h-2.27Zm0,2.47h2.27v2.28h-2.27Zm0,2.46h2.27v2.28h-2.27Zm0,2.47h2.27v2.28h-2.27Z" style="fill:#fff"/><path d="M473.65,236.1h-2.16a.38.38,0,0,1,0-.76h2.16a.38.38,0,0,1,0,.76Zm-5.4,0H466.1a.38.38,0,0,1,0-.76h2.15a.38.38,0,0,1,0,.76Zm-5.39,0H460.7a.38.38,0,0,1,0-.76h2.16a.38.38,0,0,1,0,.76Zm-5.39,0h-2.16a.38.38,0,0,1,0-.76h2.16a.38.38,0,0,1,0,.76Zm-5.4,0h-2.15a2.28,2.28,0,0,1-1.6-.65.38.38,0,1,1,.53-.54,1.51,1.51,0,0,0,1.07.43h2.15a.38.38,0,0,1,0,.76Zm24.7-.47a.37.37,0,0,1-.29-.13.37.37,0,0,1,0-.53,1.55,1.55,0,0,0,.52-1.16v-.52a.38.38,0,0,1,.76,0v.52a2.31,2.31,0,0,1-.79,1.73A.38.38,0,0,1,476.77,235.63ZM448,232.48a.38.38,0,0,1-.38-.38v-2.16a.37.37,0,0,1,.38-.37.36.36,0,0,1,.37.37v2.16A.37.37,0,0,1,448,232.48Zm29.41-2a.38.38,0,0,1-.38-.38v-2.16a.38.38,0,0,1,.76,0v2.16A.38.38,0,0,1,477.42,230.43ZM448,227.08a.37.37,0,0,1-.38-.37v-2.16a.38.38,0,0,1,.38-.38.37.37,0,0,1,.37.38v2.16A.36.36,0,0,1,448,227.08ZM477.42,225a.37.37,0,0,1-.38-.37V222.5a.38.38,0,0,1,.76,0v2.16A.37.37,0,0,1,477.42,225ZM448,221.69a.38.38,0,0,1-.38-.38v-2.15a.38.38,0,0,1,.38-.38.37.37,0,0,1,.37.38v2.15A.37.37,0,0,1,448,221.69Zm29.41-2.05a.38.38,0,0,1-.38-.38v-2.15a.38.38,0,0,1,.76,0v2.15A.38.38,0,0,1,477.42,219.64ZM448,216.3a.38.38,0,0,1-.38-.38v-2.16a.37.37,0,0,1,.38-.37.36.36,0,0,1,.37.37v2.16A.37.37,0,0,1,448,216.3Zm29.41-2.05a.38.38,0,0,1-.38-.38v-2.16a.38.38,0,0,1,.76,0v2.16A.38.38,0,0,1,477.42,214.25ZM448,210.9a.37.37,0,0,1-.38-.37v-2.16A.38.38,0,0,1,448,208a.37.37,0,0,1,.37.38v2.16A.36.36,0,0,1,448,210.9Zm29.41-2.05a.37.37,0,0,1-.38-.37V208a1.52,1.52,0,0,0-.58-1.2.38.38,0,0,1,.47-.59,2.27,2.27,0,0,1,.87,1.79v.44A.37.37,0,0,1,477.42,208.85Zm-3.87-2.34H471.4a.38.38,0,0,1-.38-.38.37.37,0,0,1,.38-.37h2.15a.37.37,0,0,1,.38.37A.38.38,0,0,1,473.55,206.51Zm-5.39,0H466a.37.37,0,0,1-.37-.38.36.36,0,0,1,.37-.37h2.16a.37.37,0,0,1,.38.37A.38.38,0,0,1,468.16,206.51Zm-5.39,0h-2.16a.38.38,0,0,1-.38-.38.37.37,0,0,1,.38-.37h2.16a.36.36,0,0,1,.37.37A.37.37,0,0,1,462.77,206.51Zm-5.4,0h-2.15a.38.38,0,0,1-.38-.38.37.37,0,0,1,.38-.37h2.15a.37.37,0,0,1,.38.37A.38.38,0,0,1,457.37,206.51Zm-5.39,0h-2.06a.42.42,0,0,1-.43-.37.34.34,0,0,1,.32-.38H452a.37.37,0,0,1,.38.37A.38.38,0,0,1,452,206.51Z" style="fill:#3ec7c9"/><path d="M476.66,235.16a.34.34,0,0,1-.26-.11l-1.28-1.28a.38.38,0,1,1,.54-.53l1.27,1.28a.37.37,0,0,1,0,.53A.35.35,0,0,1,476.66,235.16Zm-3.55-3.57a.39.39,0,0,1-.27-.11L471.32,230a.38.38,0,0,1,.53-.54l1.53,1.53a.39.39,0,0,1,0,.54A.38.38,0,0,1,473.11,231.59Zm-3.8-3.83a.39.39,0,0,1-.27-.11l-1.52-1.53a.37.37,0,1,1,.53-.53l1.52,1.53a.37.37,0,0,1,0,.53A.34.34,0,0,1,469.31,227.76Zm-3.81-3.82a.38.38,0,0,1-.26-.11l-1.52-1.53a.38.38,0,0,1,.53-.54l1.52,1.53a.38.38,0,0,1,0,.54A.39.39,0,0,1,465.5,223.94Zm-3.8-3.83a.36.36,0,0,1-.27-.11l-1.52-1.53a.39.39,0,0,1,0-.53.38.38,0,0,1,.54,0l1.52,1.53a.38.38,0,0,1,0,.53A.36.36,0,0,1,461.7,220.11Zm-3.8-3.82a.39.39,0,0,1-.27-.11l-1.52-1.53a.37.37,0,1,1,.53-.53l1.53,1.52a.4.4,0,0,1,0,.54A.43.43,0,0,1,457.9,216.29Zm-3.8-3.83a.35.35,0,0,1-.27-.11l-1.52-1.53a.37.37,0,0,1,.53-.53l1.52,1.53a.37.37,0,0,1,0,.53A.34.34,0,0,1,454.1,212.46Zm-3.81-3.82a.38.38,0,0,1-.26-.11L448.51,207a.37.37,0,1,1,.53-.53l1.52,1.53a.37.37,0,0,1,0,.53A.39.39,0,0,1,450.29,208.64Z" style="fill:#3ec7c9"/><path d="M448.77,235.16a.34.34,0,0,1-.26-.11.37.37,0,0,1,0-.53L450,233a.37.37,0,0,1,.53.53L449,235.05A.35.35,0,0,1,448.77,235.16Zm3.81-3.82a.39.39,0,0,1-.27-.11.37.37,0,0,1,0-.53l1.52-1.53a.37.37,0,1,1,.53.53l-1.52,1.53A.38.38,0,0,1,452.58,231.34Zm3.8-3.83a.39.39,0,0,1-.27-.1.38.38,0,0,1,0-.54l1.52-1.53a.38.38,0,0,1,.54.53l-1.53,1.53A.34.34,0,0,1,456.38,227.51Zm3.8-3.82a.4.4,0,0,1-.27-.11.39.39,0,0,1,0-.53l1.52-1.53a.38.38,0,1,1,.54.53l-1.52,1.53A.4.4,0,0,1,460.18,223.69Zm3.8-3.82a.38.38,0,0,1-.26-.65l1.52-1.53a.38.38,0,0,1,.53,0,.37.37,0,0,1,0,.53l-1.52,1.53A.36.36,0,0,1,464,219.87Zm3.8-3.83a.38.38,0,0,1-.26-.11.37.37,0,0,1,0-.53l1.52-1.53a.37.37,0,1,1,.53.53l-1.52,1.53A.39.39,0,0,1,467.78,216Zm3.81-3.82a.39.39,0,0,1-.27-.11.38.38,0,0,1,0-.54l1.52-1.53a.38.38,0,0,1,.53,0,.39.39,0,0,1,0,.54l-1.53,1.53A.38.38,0,0,1,471.59,212.22Zm3.8-3.83a.36.36,0,0,1-.27-.11.38.38,0,0,1,0-.53l1.28-1.28a.37.37,0,1,1,.53.53l-1.27,1.28A.4.4,0,0,1,475.39,208.39Z" style="fill:#3ec7c9"/><g style="mix-blend-mode:multiply"><path d="M509.11,184.38l0-2.34,2-1.2a12.3,12.3,0,0,0-.88-2.56l-2.33.33-1.41-1.88.95-2.15a11.81,11.81,0,0,0-2.16-1.52l-1.69,1.63-2.22-.69-.49-2.32a11.68,11.68,0,0,0-2.71,0l-.41,2.32-2.21.76-1.74-1.57a11.36,11.36,0,0,0-2.17,1.62l1,2.13-1.33,1.91-2.33-.24a11.74,11.74,0,0,0-.5,1.33,11.19,11.19,0,0,0-.31,1.27l2.08,1.12,0,2.33-2,1.18a11.46,11.46,0,0,0,.88,2.59l2.33-.33,1.4,1.88-1,2.15a11.14,11.14,0,0,0,2.22,1.57l1.69-1.63,2.23.68.5,2.31a11.6,11.6,0,0,0,2.7,0l.41-2.33,2.2-.76,1.75,1.58a11.88,11.88,0,0,0,2.16-1.65l-1-2.12,1.33-1.92,2.34.24a9.57,9.57,0,0,0,.47-1.3,10.27,10.27,0,0,0,.32-1.3Zm-6.48,6.13a7.65,7.65,0,0,1-10-4.15,7.68,7.68,0,1,1,10,4.15Z" style="fill:#3ec7c9"/><path d="M497,177a7,7,0,0,0-3.71,9.12A6.92,6.92,0,1,0,497,177Zm4.69,11.3a5.27,5.27,0,1,1,2.82-6.92A5.31,5.31,0,0,1,501.7,188.26Z" style="fill:#3ec7c9"/></g><path d="M508.46,183.71l-.06-2.34,2-1.19a12.22,12.22,0,0,0-.89-2.57l-2.32.33-1.41-1.86.94-2.17a11.22,11.22,0,0,0-2.15-1.52L502.92,174l-2.22-.7-.48-2.31a12.34,12.34,0,0,0-2.72,0l-.42,2.33-2.2.76-1.74-1.58a11.51,11.51,0,0,0-2.17,1.63l1,2.14-1.33,1.9-2.34-.24c-.18.42-.34.87-.49,1.33a11.15,11.15,0,0,0-.3,1.27l2.07,1.11,0,2.34-2,1.18a11.15,11.15,0,0,0,.88,2.59l2.33-.32,1.4,1.86-1,2.16a12,12,0,0,0,2.22,1.57l1.69-1.64,2.23.68.5,2.32a11.59,11.59,0,0,0,2.7-.05l.41-2.33,2.2-.76,1.75,1.57a11.45,11.45,0,0,0,2.16-1.65l-1-2.12,1.32-1.92,2.34.24a9,9,0,0,0,.47-1.29,8.88,8.88,0,0,0,.31-1.31ZM502,189.84a7.65,7.65,0,0,1-10-4.14,7.68,7.68,0,1,1,10,4.14Zm-5.62-13.55a7,7,0,0,0-3.71,9.13,6.9,6.9,0,0,0,9.05,3.73,7,7,0,0,0-5.34-12.86Zm4.68,11.3a5.24,5.24,0,0,1-6.86-2.84,5.29,5.29,0,0,1,2.82-6.89,5.27,5.27,0,0,1,4,9.73Z" style="fill:#3ec7c9"/><path d="M505.41,180a6.93,6.93,0,1,0-3.72,9.11A6.92,6.92,0,0,0,505.41,180ZM501,187.59a5.24,5.24,0,0,1-6.86-2.84,5.29,5.29,0,0,1,2.82-6.89,5.27,5.27,0,0,1,4,9.73Z" style="fill:#3ec7c9"/><path d="M505.41,180a6.93,6.93,0,1,0-3.72,9.11A6.92,6.92,0,0,0,505.41,180ZM501,187.59a5.24,5.24,0,0,1-6.86-2.84,5.29,5.29,0,0,1,2.82-6.89,5.27,5.27,0,0,1,4,9.73Z" style="fill:#3ec7c9"/><path d="M436.4,183.21l1-.49c-.05-.38-.12-.75-.2-1.11s-.18-.73-.29-1.09l-1.09,0a1.59,1.59,0,0,1-1.28-2.46l.61-.92a11.34,11.34,0,0,0-1.53-1.65l-.94.53a1.59,1.59,0,0,1-2.34-1.49l.07-1.09a11.48,11.48,0,0,0-2.13-.68l-.57.94a1.57,1.57,0,0,1-2.75-.13l-.49-1a10.11,10.11,0,0,0-1.1.19,9.72,9.72,0,0,0-1.09.3l0,1.1a1.58,1.58,0,0,1-2.45,1.28l-.91-.6a10.68,10.68,0,0,0-1.64,1.52l.52,1a1.59,1.59,0,0,1-1.48,2.34l-1.08-.07a11.34,11.34,0,0,0-.68,2.14l.94.57a1.59,1.59,0,0,1-.13,2.77l-1,.5c.05.36.11.74.19,1.1a9.16,9.16,0,0,0,.3,1.09l1.09,0a1.6,1.6,0,0,1,1.28,2.47l-.6.92a11.13,11.13,0,0,0,1.51,1.64l.95-.52a1.59,1.59,0,0,1,2.34,1.49l-.07,1.1a12.24,12.24,0,0,0,2.13.67l.57-.93a1.57,1.57,0,0,1,2.75.11l.5,1c.36-.05.73-.11,1.09-.19s.73-.19,1.08-.3l0-1.1a1.58,1.58,0,0,1,2.45-1.28l.91.61a13.13,13.13,0,0,0,1.64-1.52l-.52-1a1.59,1.59,0,0,1,1.48-2.35l1.09.07a12.19,12.19,0,0,0,.67-2.15l-.94-.56A1.59,1.59,0,0,1,436.4,183.21ZM426,178.11a6,6,0,0,1,3.84,1.51.66.66,0,0,1-.07,1l-3.18,2.14a1.27,1.27,0,0,0-.41-.15l-.84-3.75A.65.65,0,0,1,426,178.11Zm-2.82.62a.65.65,0,0,1,.92.46l.84,3.73-.11.09-.14.15-4.6-.69A6,6,0,0,1,423.19,178.73Zm-.27,9.75a.66.66,0,0,1-1,.2,6.14,6.14,0,0,1-1.9-3.21,8,8,0,0,1-.13-.93.67.67,0,0,1,.76-.7l3.73.57a1.78,1.78,0,0,0,.25.6Zm6.72.37a5.83,5.83,0,0,1-2.46,1.19,5.94,5.94,0,0,1-2.72,0,.66.66,0,0,1-.43-.93l1.69-3.42a1.49,1.49,0,0,0,1-.25l2.92,2.41A.65.65,0,0,1,429.64,188.85Zm1.75-2.34a.65.65,0,0,1-1,.26l-3-2.46a1.62,1.62,0,0,0,0-.49l3.15-2.11a.65.65,0,0,1,1,.3,7.71,7.71,0,0,1,.24.82A6,6,0,0,1,431.39,186.51Z" style="fill:#336291;mix-blend-mode:multiply"/><path d="M435.48,182.28l1-.49a10.29,10.29,0,0,0-.19-1.11c-.08-.38-.18-.73-.29-1.09l-1.1,0a1.6,1.6,0,0,1-1.27-2.47l.61-.92a11.27,11.27,0,0,0-1.53-1.64l-.95.52a1.58,1.58,0,0,1-2.33-1.49l.07-1.09a12.11,12.11,0,0,0-2.14-.68l-.56.94a1.57,1.57,0,0,1-2.75-.12l-.49-1a10.31,10.31,0,0,0-1.11.2,10.12,10.12,0,0,0-1.08.29l0,1.1a1.58,1.58,0,0,1-2.45,1.28l-.92-.6a11.7,11.7,0,0,0-1.63,1.52l.52,1a1.59,1.59,0,0,1-1.48,2.34l-1.09-.07a12.19,12.19,0,0,0-.67,2.15l.93.56a1.59,1.59,0,0,1-.12,2.77l-1,.5a10.11,10.11,0,0,0,.19,1.1c.08.38.18.74.29,1.09l1.1,0a1.59,1.59,0,0,1,1.27,2.46l-.59.92a10.67,10.67,0,0,0,1.51,1.65l1-.53a1.58,1.58,0,0,1,2.33,1.49l-.06,1.1a11.22,11.22,0,0,0,2.13.67l.56-.93a1.57,1.57,0,0,1,2.76.11l.49,1a10.55,10.55,0,0,0,1.1-.19,9.55,9.55,0,0,0,1.08-.3l0-1.1a1.58,1.58,0,0,1,2.45-1.28l.92.61a11.7,11.7,0,0,0,1.63-1.52l-.51-1a1.58,1.58,0,0,1,1.47-2.34l1.1.06a12.08,12.08,0,0,0,.67-2.14l-.94-.57A1.59,1.59,0,0,1,435.48,182.28Zm-10.39-5.1a6,6,0,0,1,3.83,1.51.66.66,0,0,1-.06,1.05l-3.19,2.13a1.49,1.49,0,0,0-.4-.15l-.84-3.74A.66.66,0,0,1,425.09,177.18ZM425,182.3a.92.92,0,0,1-.14,1.84.92.92,0,0,1-.84-1A.91.91,0,0,1,425,182.3Zm-2.75-4.49a.64.64,0,0,1,.92.45L424,182l-.12.09-.13.14-4.61-.69A6.05,6.05,0,0,1,422.27,177.81Zm-.28,9.74a.65.65,0,0,1-1,.2,6.08,6.08,0,0,1-1.9-3.21,7.69,7.69,0,0,1-.13-.93.66.66,0,0,1,.75-.69l3.74.56a1.55,1.55,0,0,0,.25.61Zm6.73.37a6,6,0,0,1-5.18,1.17.65.65,0,0,1-.43-.93l1.68-3.42a1.48,1.48,0,0,0,1-.25l2.92,2.41A.65.65,0,0,1,428.72,187.92Zm1.75-2.34a.64.64,0,0,1-1,.26l-3-2.46a1.35,1.35,0,0,0,0-.49l3.15-2.11a.65.65,0,0,1,1,.31c.09.26.17.53.24.82A6.09,6.09,0,0,1,430.47,185.58Z" style="fill:#86c0f2"/><path d="M425.87,183.29a.94.94,0,0,1-1,.85.92.92,0,0,1-.84-1,.91.91,0,0,1,1-.85A.93.93,0,0,1,425.87,183.29Z" style="fill:#3ec7c9"/><path d="M417.3,182.64a7.67,7.67,0,1,1,7.07,8.27A7.7,7.7,0,0,1,417.3,182.64Zm1,.08a6.63,6.63,0,1,0,7.1-6.15A6.67,6.67,0,0,0,418.34,182.72Z" style="fill:#336291"/><path d="M510.88,223.82l.12-2.75-1.69-.31a10.62,10.62,0,0,0-.42-1.92l1.4-1L509,215.4l-1.61.58a9.57,9.57,0,0,0-1.33-1.45l.72-1.57-2.3-1.48-1.12,1.32a9.6,9.6,0,0,0-1.86-.6l-.16-1.72-2.73-.12-.31,1.7a9.6,9.6,0,0,0-1.91.43l-1-1.42L493,212.34l.58,1.63a9.51,9.51,0,0,0-1.44,1.33l-1.57-.72-1.47,2.31,1.31,1.12a10,10,0,0,0-.59,1.88l-1.71.16L488,222.8l1.69.31a10.62,10.62,0,0,0,.42,1.92l-1.4,1,1.26,2.44,1.62-.58a10,10,0,0,0,1.32,1.45l-.72,1.57,2.3,1.48,1.12-1.32a9.83,9.83,0,0,0,1.86.6l.16,1.72,2.73.12.31-1.7a9.6,9.6,0,0,0,1.91-.43l1,1.42,2.42-1.27-.58-1.63a9.57,9.57,0,0,0,1.45-1.33l1.56.72,1.47-2.31-1.31-1.12a10,10,0,0,0,.59-1.88ZM496,228.75l2.9-4.58a2.28,2.28,0,0,0,2.15-.48l4.55,2.92A7.6,7.6,0,0,1,496,228.75ZM503,215.12l-2.91,4.58a2.28,2.28,0,0,0-2.15.48l-4.55-2.92A7.62,7.62,0,0,1,503,215.12Zm-2.69,7.53a1.09,1.09,0,0,1-1.32.29,1.11,1.11,0,0,1-.38-1.72,1.09,1.09,0,0,1,1.32-.29A1.12,1.12,0,0,1,500.35,222.65Zm-3.08-1.36a2.36,2.36,0,0,0,.48,2.17l-2.9,4.57a7.71,7.71,0,0,1-2.13-9.66Zm4.45,1.29a2.33,2.33,0,0,0-.47-2.17l2.9-4.57a7.72,7.72,0,0,1,2.12,9.66Z" style="mix-blend-mode:multiply;fill:url(#Áåçûìÿííûé_ãðàäèåíò_7)"/><path d="M489.68,217.28a9.88,9.88,0,0,0-.59,1.87l-1.71.16-.12,2.75,1.69.31a10.44,10.44,0,0,0,.42,1.92l-1.4,1,1.26,2.44,1.62-.58a9,9,0,0,0,1.32,1.45l-.72,1.57,2.3,1.48,1.12-1.31a9.79,9.79,0,0,0,1.86.59l.16,1.72,2.73.12.31-1.7a10.33,10.33,0,0,0,1.91-.42l1,1.41,2.43-1.27-.58-1.63a9.53,9.53,0,0,0,1.45-1.33l1.56.73,1.47-2.32-1.31-1.12a9.75,9.75,0,0,0,.59-1.88l1.71-.15.12-2.75-1.69-.31a10.54,10.54,0,0,0-.42-1.93l1.4-1-1.26-2.44-1.62.58a9.52,9.52,0,0,0-1.32-1.46l.72-1.57-2.3-1.48-1.12,1.32a9.79,9.79,0,0,0-1.86-.59l-.16-1.72-2.73-.13-.31,1.71a9.58,9.58,0,0,0-1.91.42l-1-1.41-2.43,1.27.58,1.62a10.69,10.69,0,0,0-1.45,1.33l-1.56-.72-1.47,2.32Zm15.86,7.48L501,221.84a2.38,2.38,0,0,0-.48-2.17l2.91-4.57A7.73,7.73,0,0,1,505.54,224.76Zm-7.41-1.32a2.33,2.33,0,0,0,2.15-.48l4.55,2.92a7.63,7.63,0,0,1-9.61,2.13Zm.17-1.23a1.12,1.12,0,0,1-.38-1.73,1.1,1.1,0,0,1,1.31-.29,1.12,1.12,0,0,1,.38,1.73A1.11,1.11,0,0,1,498.3,222.21ZM492,217.64l4.55,2.92a2.35,2.35,0,0,0,.48,2.16l-2.91,4.58A7.73,7.73,0,0,1,492,217.64Zm.71-1.12a7.61,7.61,0,0,1,9.61-2.13L499.4,219a2.33,2.33,0,0,0-2.15.48Z" style="fill:#b0bfdd"/><path d="M491.24,216.37a8.92,8.92,0,0,1,12.33-2.74,9,9,0,0,1,2.72,12.4A8.9,8.9,0,0,1,494,228.76,9,9,0,0,1,491.24,216.37Zm.32.2a8.64,8.64,0,0,0,2.61,11.88,8.52,8.52,0,0,0,11.8-2.63A8.63,8.63,0,0,0,503.36,214,8.53,8.53,0,0,0,491.56,216.57Z" style="fill:url(#Áåçûìÿííûé_ãðàäèåíò_106-3)"/><path d="M397.42,132.81c0,.16,0,26.33,0,26.33v4.47h86.42a7.81,7.81,0,0,0,6.94-4.22,7.68,7.68,0,0,0,.88-3.58l.45-22.92c0-5.42,3-9.55,9.55-9.55l-92.19,0C401,123.36,397.57,126,397.42,132.81Z" style="fill:#86c0f2"/><path d="M381.53,93.71l.28,59.27s-1,10.63,13.94,10.63h87.1c-1.27,0-9.22-.72-9.22-10.6l-.28-47.72s1.12-11.57-10.88-11.57Z" style="fill:#d2dbea"/><path d="M464.68,93.71c-6.56,0-8.59,4.49-9.55,9.83-1.79,9.91-6.8,30.19-8.33,35.71-25.2,91.1-92.75,165.08-159.25,189.23A201.47,201.47,0,0,1,249,338.57c-4.07.61-8,1.05-11.88,1.3q-4,.27-7.73.28H0V.16L169.08,0c74.48,0,76.51,162.87,194.06,99.41A46.1,46.1,0,0,1,384.87,94Z" style="fill:#e5f3fe"/></g></g></g></svg>