<svg xmlns="http://www.w3.org/2000/svg" xmlns:xlink="http://www.w3.org/1999/xlink" viewBox="0 0 135.93 273.68"><defs><linearGradient id="Áåçûìÿííûé_ãðàäèåíò_106" x1="112.84" y1="18.86" x2="113.8" y2="18.86" gradientUnits="userSpaceOnUse"><stop offset="0" stop-color="#0e31af"/><stop offset="1" stop-color="#3345cf"/></linearGradient><linearGradient id="Áåçûìÿííûé_ãðàäèåíò_106-2" x1="111.93" y1="17.54" x2="114.71" y2="17.54" xlink:href="#Áåçûìÿííûé_ãðàäèåíò_106"/><linearGradient id="Áåçûìÿííûé_ãðàäèåíò_106-3" x1="111.04" y1="16.46" x2="115.6" y2="16.46" xlink:href="#Áåçûìÿííûé_ãðàäèåíò_106"/><clipPath id="clip-path"><path d="M128.34,17.05v238.3a12.49,12.49,0,0,1-12.42,12.49H87.47a71.9,71.9,0,0,1-3.13-13.43c-7.6-53.38-40.59-53.77-37.53-92,3.76-47,49.69-36.57,49.69-66.32,0-36.31-40.8-13.44-40.8-56.63,0-11.13-5.13-19.43-13.12-26.23H124.4A3.91,3.91,0,0,1,128.34,17.05Z" style="fill:#2c7dea"/></clipPath><linearGradient id="Áåçûìÿííûé_ãðàäèåíò_70" x1="267.87" y1="180.76" x2="507.22" y2="47.39" gradientTransform="matrix(-0.67, 0, 0, 0.4, 325.16, 6.8)" gradientUnits="userSpaceOnUse"><stop offset="0" stop-color="#f95e06"/><stop offset="0.12" stop-color="#fb7d18"/><stop offset="0.29" stop-color="#fc9e2b"/><stop offset="0.45" stop-color="#fdb93a"/><stop offset="0.62" stop-color="#fecb45"/><stop offset="0.8" stop-color="#ffd64b"/><stop offset="0.99" stop-color="#ffda4d"/></linearGradient><linearGradient id="Áåçûìÿííûé_ãðàäèåíò_70-2" x1="235.53" y1="150.31" x2="427.34" y2="68.27" xlink:href="#Áåçûìÿííûé_ãðàäèåíò_70"/><linearGradient id="Áåçûìÿííûé_ãðàäèåíò_70-3" x1="294.68" y1="98.55" x2="407.4" y2="98.55" xlink:href="#Áåçûìÿííûé_ãðàäèåíò_70"/><linearGradient id="Áåçûìÿííûé_ãðàäèåíò_70-4" x1="330.06" y1="549.32" x2="330.06" y2="485.36" xlink:href="#Áåçûìÿííûé_ãðàäèåíò_70"/><linearGradient id="Áåçûìÿííûé_ãðàäèåíò_70-5" x1="439.92" y1="549.32" x2="439.92" y2="485.36" xlink:href="#Áåçûìÿííûé_ãðàäèåíò_70"/><linearGradient id="Áåçûìÿííûé_ãðàäèåíò_164" x1="-489" y1="362.57" x2="-489" y2="469.32" gradientTransform="translate(391.84 6.8) scale(0.67 0.4)" gradientUnits="userSpaceOnUse"><stop offset="0" stop-color="#275882"/><stop offset="0.1" stop-color="#2f5e87"/><stop offset="0.25" stop-color="#467094"/><stop offset="0.43" stop-color="#6b8daa"/><stop offset="0.65" stop-color="#9fb5c7"/><stop offset="0.89" stop-color="#e0e7ed"/><stop offset="0.99" stop-color="#fff"/></linearGradient><linearGradient id="Áåçûìÿííûé_ãðàäèåíò_70-6" x1="389.11" y1="468.59" x2="389.11" y2="351.77" xlink:href="#Áåçûìÿííûé_ãðàäèåíò_70"/><linearGradient id="Áåçûìÿííûé_ãðàäèåíò_70-7" x1="384.97" y1="549.32" x2="384.97" y2="485.36" xlink:href="#Áåçûìÿííûé_ãðàäèåíò_70"/></defs><g id="Layer_2" data-name="Layer 2"><g id="layer_1-2" data-name="layer 1"><path d="M116.11,0H19.83A17.32,17.32,0,0,0,2.56,17.37V256.31a17.32,17.32,0,0,0,17.27,17.37h96.28a17.32,17.32,0,0,0,17.26-17.37V17.37A17.32,17.32,0,0,0,116.11,0Z" style="fill:#275882"/><path d="M128.34,17.05v238.3a12.49,12.49,0,0,1-12.42,12.49H19.53a12,12,0,0,1-11.94-12V17a3.9,3.9,0,0,1,3.94-3.8H124.4A3.91,3.91,0,0,1,128.34,17.05Z" style="fill:#fff"/><path d="M133.37,94.48V59.77a2.58,2.58,0,0,1,2.56,2.58V91.9A2.58,2.58,0,0,1,133.37,94.48Z" style="fill:#275882"/><path d="M2.56,105.82v34.71A2.58,2.58,0,0,1,0,138V108.4A2.58,2.58,0,0,1,2.56,105.82Z" style="fill:#275882"/><path d="M2.56,61.46v34.7A2.57,2.57,0,0,1,0,93.59V64A2.57,2.57,0,0,1,2.56,61.46Z" style="fill:#275882"/><path d="M2.56,31.89V43.68A2.58,2.58,0,0,1,0,41.1V34.46A2.57,2.57,0,0,1,2.56,31.89Z" style="fill:#275882"/><path d="M113.32,18.37a.49.49,0,1,0,.48.49A.48.48,0,0,0,113.32,18.37Z" style="fill:url(#Áåçûìÿííûé_ãðàäèåíò_106)"/><path d="M114.57,17.44a2.2,2.2,0,0,0-2.5,0,.33.33,0,0,0,0,.5.31.31,0,0,0,.41,0,1.57,1.57,0,0,1,1.76,0,.31.31,0,0,0,.41,0A.33.33,0,0,0,114.57,17.44Z" style="fill:url(#Áåçûìÿííûé_ãðàäèåíò_106-2)"/><path d="M115.48,16.55a3.41,3.41,0,0,0-4.32,0,.33.33,0,1,0,.42.51,2.75,2.75,0,0,1,3.48,0,.33.33,0,1,0,.42-.51Z" style="fill:url(#Áåçûìÿííûé_ãðàäèåíò_106-3)"/><path d="M80.73,6.82a1.69,1.69,0,1,0,1.69-1.7A1.7,1.7,0,0,0,80.73,6.82Z" style="fill:#1e4a62"/><path d="M61.08,7.79h15.1a1.06,1.06,0,0,0,1.16-1,1.06,1.06,0,0,0-1.16-1H61.08a1.06,1.06,0,0,0-1.16,1A1.06,1.06,0,0,0,61.08,7.79Z" style="fill:#1e4a62"/><path d="M96.75,264.3H39.18A1.34,1.34,0,0,1,37.84,263h0a1.34,1.34,0,0,1,1.34-1.34H96.75A1.34,1.34,0,0,1,98.09,263h0A1.34,1.34,0,0,1,96.75,264.3Z" style="fill:#e5e8ed"/><path d="M26.23,25.17a6.59,6.59,0,1,1-6.59-6.58A6.59,6.59,0,0,1,26.23,25.17Z" style="fill:#e5e8ed"/><path d="M22.43,25.17a2.79,2.79,0,1,1-2.79-2.79A2.78,2.78,0,0,1,22.43,25.17Z" style="fill:#fff"/><rect x="17.41" y="98.45" width="25" height="25" style="fill:#e5e8ed"/><rect x="57.08" y="98.45" width="25" height="25" style="fill:#e5e8ed"/><rect x="11.29" y="70.96" width="35.8" height="12.34" style="fill:#e5e8ed"/><path d="M56.13,139.9h-2a.25.25,0,1,1,0-.5h2a.25.25,0,0,1,0,.5Zm-4,0h-2a.25.25,0,1,1,0-.5h2a.25.25,0,0,1,0,.5Zm-4,0h-2a.25.25,0,1,1,0-.5h2a.25.25,0,0,1,0,.5Zm-4,0h-2a.25.25,0,1,1,0-.5h2a.25.25,0,0,1,0,.5Zm-4,0h-2a.25.25,0,1,1,0-.5h2a.25.25,0,0,1,0,.5Zm-4,0h-2a.25.25,0,1,1,0-.5h2a.25.25,0,0,1,0,.5Zm-4,0h-2a.25.25,0,1,1,0-.5h2a.25.25,0,0,1,0,.5Zm-4,0h-2a.25.25,0,1,1,0-.5h2a.25.25,0,0,1,0,.5Zm-4,0h-2a.25.25,0,1,1,0-.5h2a.25.25,0,0,1,0,.5Zm-4,0h-2a.25.25,0,1,1,0-.5h2a.25.25,0,0,1,0,.5Zm-4,0h-2a.25.25,0,1,1,0-.5h2a.25.25,0,0,1,0,.5Z" style="fill:#275882"/><path d="M32,193.13a.25.25,0,0,1-.25-.25v-2a.25.25,0,0,1,.5,0v2A.25.25,0,0,1,32,193.13Zm0-4a.25.25,0,0,1-.25-.25v-2a.25.25,0,0,1,.5,0v2A.25.25,0,0,1,32,189.13Zm0-4a.25.25,0,0,1-.25-.25v-2a.25.25,0,0,1,.5,0v2A.25.25,0,0,1,32,185.13Zm0-4a.25.25,0,0,1-.25-.25v-2a.25.25,0,0,1,.5,0v2A.25.25,0,0,1,32,181.13Zm0-4a.25.25,0,0,1-.25-.25v-2a.25.25,0,0,1,.5,0v2A.25.25,0,0,1,32,177.13Zm0-4a.25.25,0,0,1-.25-.25v-2a.25.25,0,0,1,.5,0v2A.25.25,0,0,1,32,173.13Zm0-4a.25.25,0,0,1-.25-.25v-2a.25.25,0,0,1,.5,0v2A.25.25,0,0,1,32,169.13Zm0-4a.25.25,0,0,1-.25-.25v-2a.25.25,0,0,1,.5,0v2A.25.25,0,0,1,32,165.13Zm0-4a.25.25,0,0,1-.25-.25v-2a.25.25,0,0,1,.5,0v2A.25.25,0,0,1,32,161.13Zm0-4a.25.25,0,0,1-.25-.25v-2a.25.25,0,0,1,.5,0v2A.25.25,0,0,1,32,157.13Zm0-4a.25.25,0,0,1-.25-.25v-2a.25.25,0,0,1,.5,0v2A.25.25,0,0,1,32,153.13Zm0-4a.25.25,0,0,1-.25-.25v-2a.25.25,0,0,1,.5,0v2A.25.25,0,0,1,32,149.13Zm0-4a.25.25,0,0,1-.25-.25v-2a.25.25,0,0,1,.5,0v2A.25.25,0,0,1,32,145.13Zm0-4a.25.25,0,0,1-.25-.25v-2a.25.25,0,0,1,.5,0v2A.25.25,0,0,1,32,141.13Zm0-4a.25.25,0,0,1-.25-.25v-2a.25.25,0,0,1,.5,0v2A.25.25,0,0,1,32,137.13Zm0-4a.25.25,0,0,1-.25-.25v-.1a.25.25,0,0,1,.5,0v.1A.25.25,0,0,1,32,133.13Z" style="fill:#275882"/><path d="M47.82,193.13a.25.25,0,0,1-.25-.25v-2a.25.25,0,0,1,.5,0v2A.25.25,0,0,1,47.82,193.13Zm0-4a.25.25,0,0,1-.25-.25v-2a.25.25,0,0,1,.5,0v2A.25.25,0,0,1,47.82,189.13Zm0-4a.25.25,0,0,1-.25-.25v-2a.25.25,0,0,1,.5,0v2A.25.25,0,0,1,47.82,185.13Zm0-4a.25.25,0,0,1-.25-.25v-2a.25.25,0,0,1,.5,0v2A.25.25,0,0,1,47.82,181.13Zm0-4a.25.25,0,0,1-.25-.25v-2a.25.25,0,0,1,.5,0v2A.25.25,0,0,1,47.82,177.13Zm0-4a.25.25,0,0,1-.25-.25v-2a.25.25,0,0,1,.5,0v2A.25.25,0,0,1,47.82,173.13Zm0-4a.25.25,0,0,1-.25-.25v-2a.25.25,0,0,1,.5,0v2A.25.25,0,0,1,47.82,169.13Zm0-4a.25.25,0,0,1-.25-.25v-2a.25.25,0,0,1,.5,0v2A.25.25,0,0,1,47.82,165.13Zm0-4a.25.25,0,0,1-.25-.25v-2a.25.25,0,0,1,.5,0v2A.25.25,0,0,1,47.82,161.13Zm0-4a.25.25,0,0,1-.25-.25v-2a.25.25,0,0,1,.5,0v2A.25.25,0,0,1,47.82,157.13Zm0-4a.25.25,0,0,1-.25-.25v-2a.25.25,0,0,1,.5,0v2A.25.25,0,0,1,47.82,153.13Zm0-4a.25.25,0,0,1-.25-.25v-2a.25.25,0,0,1,.5,0v2A.25.25,0,0,1,47.82,149.13Zm0-4a.25.25,0,0,1-.25-.25v-2a.25.25,0,0,1,.5,0v2A.25.25,0,0,1,47.82,145.13Zm0-4a.25.25,0,0,1-.25-.25v-2a.25.25,0,0,1,.5,0v2A.25.25,0,0,1,47.82,141.13Zm0-4a.25.25,0,0,1-.25-.25v-2a.25.25,0,0,1,.5,0v2A.25.25,0,0,1,47.82,137.13Zm0-4a.25.25,0,0,1-.25-.25v-.1a.25.25,0,0,1,.5,0v.1A.25.25,0,0,1,47.82,133.13Z" style="fill:#275882"/><path d="M16.12,193.13a.25.25,0,0,1-.25-.25v-2a.25.25,0,0,1,.25-.25.25.25,0,0,1,.25.25v2A.25.25,0,0,1,16.12,193.13Zm0-4a.25.25,0,0,1-.25-.25v-2a.25.25,0,0,1,.25-.25.25.25,0,0,1,.25.25v2A.25.25,0,0,1,16.12,189.13Zm0-4a.25.25,0,0,1-.25-.25v-2a.25.25,0,0,1,.25-.25.25.25,0,0,1,.25.25v2A.25.25,0,0,1,16.12,185.13Zm0-4a.25.25,0,0,1-.25-.25v-2a.25.25,0,0,1,.25-.25.25.25,0,0,1,.25.25v2A.25.25,0,0,1,16.12,181.13Zm0-4a.25.25,0,0,1-.25-.25v-2a.25.25,0,0,1,.25-.25.25.25,0,0,1,.25.25v2A.25.25,0,0,1,16.12,177.13Zm0-4a.25.25,0,0,1-.25-.25v-2a.25.25,0,0,1,.25-.25.25.25,0,0,1,.25.25v2A.25.25,0,0,1,16.12,173.13Zm0-4a.25.25,0,0,1-.25-.25v-2a.25.25,0,0,1,.25-.25.25.25,0,0,1,.25.25v2A.25.25,0,0,1,16.12,169.13Zm0-4a.25.25,0,0,1-.25-.25v-2a.25.25,0,0,1,.25-.25.25.25,0,0,1,.25.25v2A.25.25,0,0,1,16.12,165.13Zm0-4a.25.25,0,0,1-.25-.25v-2a.25.25,0,0,1,.25-.25.25.25,0,0,1,.25.25v2A.25.25,0,0,1,16.12,161.13Zm0-4a.25.25,0,0,1-.25-.25v-2a.25.25,0,0,1,.25-.25.25.25,0,0,1,.25.25v2A.25.25,0,0,1,16.12,157.13Zm0-4a.25.25,0,0,1-.25-.25v-2a.25.25,0,0,1,.25-.25.25.25,0,0,1,.25.25v2A.25.25,0,0,1,16.12,153.13Zm0-4a.25.25,0,0,1-.25-.25v-2a.25.25,0,0,1,.25-.25.25.25,0,0,1,.25.25v2A.25.25,0,0,1,16.12,149.13Zm0-4a.25.25,0,0,1-.25-.25v-2a.25.25,0,0,1,.25-.25.25.25,0,0,1,.25.25v2A.25.25,0,0,1,16.12,145.13Zm0-4a.25.25,0,0,1-.25-.25v-2a.25.25,0,0,1,.25-.25.25.25,0,0,1,.25.25v2A.25.25,0,0,1,16.12,141.13Zm0-4a.25.25,0,0,1-.25-.25v-2a.25.25,0,0,1,.25-.25.25.25,0,0,1,.25.25v2A.25.25,0,0,1,16.12,137.13Zm0-4a.25.25,0,0,1-.25-.25v-.1a.25.25,0,0,1,.25-.25.26.26,0,0,1,.25.25v.1A.25.25,0,0,1,16.12,133.13Z" style="fill:#275882"/><path d="M56.13,148.65h-2a.25.25,0,1,1,0-.5h2a.25.25,0,0,1,0,.5Zm-4,0h-2a.25.25,0,1,1,0-.5h2a.25.25,0,0,1,0,.5Zm-4,0h-2a.25.25,0,1,1,0-.5h2a.25.25,0,0,1,0,.5Zm-4,0h-2a.25.25,0,1,1,0-.5h2a.25.25,0,0,1,0,.5Zm-4,0h-2a.25.25,0,1,1,0-.5h2a.25.25,0,0,1,0,.5Zm-4,0h-2a.25.25,0,1,1,0-.5h2a.25.25,0,0,1,0,.5Zm-4,0h-2a.25.25,0,1,1,0-.5h2a.25.25,0,0,1,0,.5Zm-4,0h-2a.25.25,0,1,1,0-.5h2a.25.25,0,0,1,0,.5Zm-4,0h-2a.25.25,0,1,1,0-.5h2a.25.25,0,0,1,0,.5Zm-4,0h-2a.25.25,0,1,1,0-.5h2a.25.25,0,0,1,0,.5Zm-4,0h-2a.25.25,0,1,1,0-.5h2a.25.25,0,0,1,0,.5Z" style="fill:#275882"/><path d="M56.13,157.41h-2a.25.25,0,0,1-.25-.25.25.25,0,0,1,.25-.25h2a.25.25,0,0,1,.25.25A.25.25,0,0,1,56.13,157.41Zm-4,0h-2a.25.25,0,0,1-.25-.25.25.25,0,0,1,.25-.25h2a.25.25,0,0,1,.25.25A.25.25,0,0,1,52.13,157.41Zm-4,0h-2a.25.25,0,0,1-.25-.25.25.25,0,0,1,.25-.25h2a.25.25,0,0,1,.25.25A.25.25,0,0,1,48.13,157.41Zm-4,0h-2a.25.25,0,0,1-.25-.25.25.25,0,0,1,.25-.25h2a.25.25,0,0,1,.25.25A.25.25,0,0,1,44.13,157.41Zm-4,0h-2a.25.25,0,0,1-.25-.25.25.25,0,0,1,.25-.25h2a.25.25,0,0,1,.25.25A.25.25,0,0,1,40.13,157.41Zm-4,0h-2a.25.25,0,0,1-.25-.25.25.25,0,0,1,.25-.25h2a.25.25,0,0,1,.25.25A.25.25,0,0,1,36.13,157.41Zm-4,0h-2a.25.25,0,0,1-.25-.25.25.25,0,0,1,.25-.25h2a.25.25,0,0,1,.25.25A.25.25,0,0,1,32.13,157.41Zm-4,0h-2a.25.25,0,0,1-.25-.25.25.25,0,0,1,.25-.25h2a.25.25,0,0,1,.25.25A.25.25,0,0,1,28.13,157.41Zm-4,0h-2a.25.25,0,0,1-.25-.25.25.25,0,0,1,.25-.25h2a.25.25,0,0,1,.25.25A.25.25,0,0,1,24.13,157.41Zm-4,0h-2a.25.25,0,0,1-.25-.25.25.25,0,0,1,.25-.25h2a.25.25,0,0,1,.25.25A.25.25,0,0,1,20.13,157.41Zm-4,0h-2a.25.25,0,0,1-.25-.25.25.25,0,0,1,.25-.25h2a.25.25,0,0,1,.25.25A.25.25,0,0,1,16.13,157.41Z" style="fill:#275882"/><path d="M56.13,166.16h-2a.25.25,0,1,1,0-.5h2a.25.25,0,0,1,0,.5Zm-4,0h-2a.25.25,0,1,1,0-.5h2a.25.25,0,0,1,0,.5Zm-4,0h-2a.25.25,0,1,1,0-.5h2a.25.25,0,0,1,0,.5Zm-4,0h-2a.25.25,0,1,1,0-.5h2a.25.25,0,0,1,0,.5Zm-4,0h-2a.25.25,0,1,1,0-.5h2a.25.25,0,0,1,0,.5Zm-4,0h-2a.25.25,0,1,1,0-.5h2a.25.25,0,0,1,0,.5Zm-4,0h-2a.25.25,0,1,1,0-.5h2a.25.25,0,0,1,0,.5Zm-4,0h-2a.25.25,0,1,1,0-.5h2a.25.25,0,0,1,0,.5Zm-4,0h-2a.25.25,0,1,1,0-.5h2a.25.25,0,0,1,0,.5Zm-4,0h-2a.25.25,0,1,1,0-.5h2a.25.25,0,0,1,0,.5Zm-4,0h-2a.25.25,0,1,1,0-.5h2a.25.25,0,0,1,0,.5Z" style="fill:#275882"/><path d="M56.13,174.91h-2a.25.25,0,0,1-.25-.25.25.25,0,0,1,.25-.25h2a.25.25,0,0,1,.25.25A.25.25,0,0,1,56.13,174.91Zm-4,0h-2a.25.25,0,0,1-.25-.25.25.25,0,0,1,.25-.25h2a.25.25,0,0,1,.25.25A.25.25,0,0,1,52.13,174.91Zm-4,0h-2a.25.25,0,0,1-.25-.25.25.25,0,0,1,.25-.25h2a.25.25,0,0,1,.25.25A.25.25,0,0,1,48.13,174.91Zm-4,0h-2a.25.25,0,0,1-.25-.25.25.25,0,0,1,.25-.25h2a.25.25,0,0,1,.25.25A.25.25,0,0,1,44.13,174.91Zm-4,0h-2a.25.25,0,0,1-.25-.25.25.25,0,0,1,.25-.25h2a.25.25,0,0,1,.25.25A.25.25,0,0,1,40.13,174.91Zm-4,0h-2a.25.25,0,0,1-.25-.25.25.25,0,0,1,.25-.25h2a.25.25,0,0,1,.25.25A.25.25,0,0,1,36.13,174.91Zm-4,0h-2a.25.25,0,0,1-.25-.25.25.25,0,0,1,.25-.25h2a.25.25,0,0,1,.25.25A.25.25,0,0,1,32.13,174.91Zm-4,0h-2a.25.25,0,0,1-.25-.25.25.25,0,0,1,.25-.25h2a.25.25,0,0,1,.25.25A.25.25,0,0,1,28.13,174.91Zm-4,0h-2a.25.25,0,0,1-.25-.25.25.25,0,0,1,.25-.25h2a.25.25,0,0,1,.25.25A.25.25,0,0,1,24.13,174.91Zm-4,0h-2a.25.25,0,0,1-.25-.25.25.25,0,0,1,.25-.25h2a.25.25,0,0,1,.25.25A.25.25,0,0,1,20.13,174.91Zm-4,0h-2a.25.25,0,0,1-.25-.25.25.25,0,0,1,.25-.25h2a.25.25,0,0,1,.25.25A.25.25,0,0,1,16.13,174.91Z" style="fill:#275882"/><path d="M56.13,183.67h-2a.25.25,0,1,1,0-.5h2a.25.25,0,0,1,0,.5Zm-4,0h-2a.25.25,0,1,1,0-.5h2a.25.25,0,0,1,0,.5Zm-4,0h-2a.25.25,0,1,1,0-.5h2a.25.25,0,0,1,0,.5Zm-4,0h-2a.25.25,0,1,1,0-.5h2a.25.25,0,0,1,0,.5Zm-4,0h-2a.25.25,0,1,1,0-.5h2a.25.25,0,0,1,0,.5Zm-4,0h-2a.25.25,0,1,1,0-.5h2a.25.25,0,0,1,0,.5Zm-4,0h-2a.25.25,0,1,1,0-.5h2a.25.25,0,0,1,0,.5Zm-4,0h-2a.25.25,0,1,1,0-.5h2a.25.25,0,0,1,0,.5Zm-4,0h-2a.25.25,0,1,1,0-.5h2a.25.25,0,0,1,0,.5Zm-4,0h-2a.25.25,0,1,1,0-.5h2a.25.25,0,0,1,0,.5Zm-4,0h-2a.25.25,0,1,1,0-.5h2a.25.25,0,0,1,0,.5Z" style="fill:#275882"/><path d="M56.13,192.42h-2a.25.25,0,1,1,0-.5h2a.25.25,0,0,1,0,.5Zm-4,0h-2a.25.25,0,1,1,0-.5h2a.25.25,0,0,1,0,.5Zm-4,0h-2a.25.25,0,1,1,0-.5h2a.25.25,0,0,1,0,.5Zm-4,0h-2a.25.25,0,1,1,0-.5h2a.25.25,0,0,1,0,.5Zm-4,0h-2a.25.25,0,1,1,0-.5h2a.25.25,0,0,1,0,.5Zm-4,0h-2a.25.25,0,1,1,0-.5h2a.25.25,0,0,1,0,.5Zm-4,0h-2a.25.25,0,1,1,0-.5h2a.25.25,0,0,1,0,.5Zm-4,0h-2a.25.25,0,1,1,0-.5h2a.25.25,0,0,1,0,.5Zm-4,0h-2a.25.25,0,1,1,0-.5h2a.25.25,0,0,1,0,.5Zm-4,0h-2a.25.25,0,1,1,0-.5h2a.25.25,0,0,1,0,.5Zm-4,0h-2a.25.25,0,1,1,0-.5h2a.25.25,0,0,1,0,.5Z" style="fill:#275882"/><rect x="49.41" y="100.97" width="0.5" height="19.96" style="fill:#275882"/><rect x="89.06" y="100.97" width="0.5" height="19.96" style="fill:#275882"/><path d="M40.26,202.52a12.62,12.62,0,0,0-8.85-3.71h-.2c-.2,0-.4,0-.6,0a13,13,0,0,0-10.74,7.22,13.5,13.5,0,0,0-1.21,5.41,12.65,12.65,0,0,0,12.65,12.65,12.32,12.32,0,0,0,3.91-.62,12.65,12.65,0,0,0,5-21Zm-5.54,18.8a10.43,10.43,0,1,1,7-9.86A10.43,10.43,0,0,1,34.72,221.32Zm-3.41.82a10.67,10.67,0,1,1,3.49-.58h0A10.56,10.56,0,0,1,31.31,222.14Zm0-20.86a10.18,10.18,0,1,0,3.33,19.81h0a10.18,10.18,0,0,0-3.33-19.81Z" style="fill:#e5e8ed"/><path d="M44,230.93H43a.25.25,0,1,1,0-.5h.75v-.75a.25.25,0,0,1,.5,0v1A.25.25,0,0,1,44,230.93Z" style="fill:#275882"/><path d="M40.81,230.93H38.66a.25.25,0,0,1,0-.5h2.15a.25.25,0,0,1,0,.5Zm-4.29,0H34.37a.25.25,0,0,1,0-.5h2.15a.25.25,0,0,1,0,.5Zm-4.3,0H30.07a.25.25,0,1,1,0-.5h2.15a.25.25,0,0,1,0,.5Zm-4.3,0H25.78a.25.25,0,0,1,0-.5h2.14a.25.25,0,1,1,0,.5Zm-4.29,0H21.48a.25.25,0,1,1,0-.5h2.15a.25.25,0,0,1,0,.5Z" style="fill:#275882"/><path d="M19.33,230.93h-1a.25.25,0,0,1-.25-.25v-1a.25.25,0,0,1,.5,0v.75h.75a.25.25,0,0,1,0,.5Z" style="fill:#275882"/><path d="M18.33,228.49a.25.25,0,0,1-.25-.25v-1a.25.25,0,0,1,.25-.25h1a.25.25,0,0,1,0,.5h-.75v.75A.25.25,0,0,1,18.33,228.49Z" style="fill:#275882"/><path d="M40.81,227.49H38.67a.25.25,0,0,1,0-.5h2.14a.25.25,0,0,1,0,.5Zm-4.29,0H34.37a.25.25,0,0,1,0-.5h2.15a.25.25,0,0,1,0,.5Zm-4.3,0H30.07a.25.25,0,1,1,0-.5h2.15a.25.25,0,1,1,0,.5Zm-4.3,0H25.78a.25.25,0,0,1,0-.5h2.14a.25.25,0,1,1,0,.5Zm-4.29,0H21.48a.25.25,0,1,1,0-.5h2.15a.25.25,0,0,1,0,.5Z" style="fill:#275882"/><path d="M44,228.49a.25.25,0,0,1-.25-.25v-.75H43a.25.25,0,1,1,0-.5h1a.25.25,0,0,1,.25.25v1A.25.25,0,0,1,44,228.49Z" style="fill:#275882"/><path d="M83,254H82a.25.25,0,1,1,0-.5h.75v-.75a.25.25,0,0,1,.25-.25.25.25,0,0,1,.25.25v1A.25.25,0,0,1,83,254Z" style="fill:#275882"/><path d="M80,254H78a.25.25,0,1,1,0-.5h2a.25.25,0,0,1,0,.5Zm-4,0H74a.25.25,0,0,1,0-.5h2a.25.25,0,1,1,0,.5Zm-4,0H70a.25.25,0,1,1,0-.5h2a.25.25,0,0,1,0,.5Zm-4,0h-2a.25.25,0,0,1,0-.5h2a.25.25,0,0,1,0,.5Zm-4,0h-2a.25.25,0,0,1,0-.5h2a.25.25,0,1,1,0,.5Zm-4,0h-2a.25.25,0,1,1,0-.5h2a.25.25,0,0,1,0,.5Zm-4,0h-2a.25.25,0,1,1,0-.5h2a.25.25,0,0,1,0,.5Zm-4,0h-2a.25.25,0,0,1,0-.5h2a.25.25,0,1,1,0,.5Zm-4,0h-2a.25.25,0,1,1,0-.5h2a.25.25,0,0,1,0,.5Zm-4,0h-2a.25.25,0,0,1,0-.5h2a.25.25,0,0,1,0,.5Zm-4,0h-2a.25.25,0,0,1,0-.5h2a.25.25,0,1,1,0,.5Z" style="fill:#275882"/><path d="M36.22,254h-1a.25.25,0,0,1-.25-.25v-1a.25.25,0,0,1,.5,0v.75h.75a.25.25,0,0,1,0,.5Z" style="fill:#275882"/><path d="M35.22,251.58a.25.25,0,0,1-.25-.25v-1a.25.25,0,0,1,.25-.25h1a.25.25,0,0,1,0,.5h-.75v.75A.25.25,0,0,1,35.22,251.58Z" style="fill:#275882"/><path d="M80,250.58H78a.25.25,0,0,1,0-.5h2a.25.25,0,0,1,0,.5Zm-4,0H74a.25.25,0,0,1,0-.5h2a.25.25,0,1,1,0,.5Zm-4,0H70a.25.25,0,1,1,0-.5h2a.25.25,0,0,1,0,.5Zm-4,0h-2a.25.25,0,1,1,0-.5h2a.25.25,0,0,1,0,.5Zm-4,0h-2a.25.25,0,0,1,0-.5h2a.25.25,0,0,1,0,.5Zm-4,0h-2a.25.25,0,1,1,0-.5h2a.25.25,0,0,1,0,.5Zm-4,0h-2a.25.25,0,1,1,0-.5h2a.25.25,0,0,1,0,.5Zm-4,0h-2a.25.25,0,0,1,0-.5h2a.25.25,0,1,1,0,.5Zm-4,0h-2a.25.25,0,1,1,0-.5h2a.25.25,0,0,1,0,.5Zm-4,0h-2a.25.25,0,1,1,0-.5h2a.25.25,0,0,1,0,.5Zm-4,0h-2a.25.25,0,0,1,0-.5h2a.25.25,0,1,1,0,.5Z" style="fill:#275882"/><path d="M83,251.58a.25.25,0,0,1-.25-.25v-.75H82a.25.25,0,1,1,0-.5h1a.25.25,0,0,1,.25.25v1A.25.25,0,0,1,83,251.58Z" style="fill:#275882"/><path d="M48.9,246.13a.25.25,0,0,1-.25-.25v-.75H47.9a.25.25,0,1,1,0-.5h1a.25.25,0,0,1,.25.25v1A.25.25,0,0,1,48.9,246.13Z" style="fill:#275882"/><path d="M45.57,245.13H43.23a.25.25,0,0,1,0-.5h2.34a.25.25,0,0,1,0,.5Zm-4.68,0H38.56a.25.25,0,0,1,0-.5h2.33a.25.25,0,0,1,0,.5Z" style="fill:#275882"/><path d="M35.22,246.13a.25.25,0,0,1-.25-.25v-1a.25.25,0,0,1,.25-.25h1a.25.25,0,1,1,0,.5h-.75v.75A.25.25,0,0,1,35.22,246.13Z" style="fill:#275882"/><path d="M36.22,248.57h-1a.25.25,0,0,1-.25-.25v-1a.25.25,0,0,1,.5,0v.75h.75a.25.25,0,0,1,0,.5Z" style="fill:#275882"/><path d="M45.57,248.57H43.23a.25.25,0,0,1,0-.5h2.34a.25.25,0,0,1,0,.5Zm-4.68,0H38.56a.25.25,0,0,1,0-.5h2.33a.25.25,0,0,1,0,.5Z" style="fill:#275882"/><path d="M48.9,248.57h-1a.25.25,0,1,1,0-.5h.75v-.75a.25.25,0,0,1,.25-.25.25.25,0,0,1,.25.25v1A.25.25,0,0,1,48.9,248.57Z" style="fill:#275882"/><path d="M51.78,246.13a.25.25,0,0,1-.25-.25v-1a.25.25,0,0,1,.25-.25h1a.25.25,0,0,1,0,.5H52v.75A.25.25,0,0,1,51.78,246.13Z" style="fill:#275882"/><path d="M52.78,248.57h-1a.25.25,0,0,1-.25-.25v-1a.25.25,0,0,1,.5,0v.75h.75a.25.25,0,1,1,0,.5Z" style="fill:#275882"/><path d="M66.89,248.57H65.12a.25.25,0,0,1,0-.5h1.77a.25.25,0,0,1,0,.5Zm-3.53,0H61.6a.25.25,0,0,1,0-.5h1.76a.25.25,0,1,1,0,.5Zm-3.53,0H58.07a.25.25,0,1,1,0-.5h1.76a.25.25,0,0,1,0,.5Zm-3.52,0H54.54a.25.25,0,0,1,0-.5h1.77a.25.25,0,0,1,0,.5Z" style="fill:#275882"/><path d="M69.65,248.57h-1a.25.25,0,0,1,0-.5h.75v-.75a.25.25,0,0,1,.25-.25.25.25,0,0,1,.25.25v1A.25.25,0,0,1,69.65,248.57Z" style="fill:#275882"/><path d="M69.65,246.13a.25.25,0,0,1-.25-.25v-.75h-.75a.25.25,0,1,1,0-.5h1a.25.25,0,0,1,.25.25v1A.25.25,0,0,1,69.65,246.13Z" style="fill:#275882"/><path d="M66.89,245.13H65.13a.25.25,0,0,1,0-.5h1.76a.25.25,0,0,1,0,.5Zm-3.53,0H61.6a.25.25,0,0,1,0-.5h1.76a.25.25,0,1,1,0,.5Zm-3.53,0H58.07a.25.25,0,1,1,0-.5h1.76a.25.25,0,0,1,0,.5Zm-3.52,0H54.54a.25.25,0,0,1,0-.5h1.77a.25.25,0,0,1,0,.5Z" style="fill:#275882"/><path d="M78.29,230.93h-1a.25.25,0,0,1,0-.5h.63c-.08-.19-.16-.39-.23-.58a.25.25,0,0,1,.13-.33.25.25,0,0,1,.33.14l.37.93a.26.26,0,0,1,0,.23A.26.26,0,0,1,78.29,230.93Z" style="fill:#275882"/><path d="M75.37,230.93H73.45a.25.25,0,1,1,0-.5h1.92a.25.25,0,0,1,0,.5Zm-3.84,0H69.62a.25.25,0,0,1,0-.5h1.91a.25.25,0,1,1,0,.5Zm-3.83,0H65.78a.25.25,0,0,1,0-.5H67.7a.25.25,0,0,1,0,.5Zm-3.84,0H61.94a.25.25,0,0,1,0-.5h1.92a.25.25,0,1,1,0,.5Zm-3.84,0H58.11a.25.25,0,0,1,0-.5H60a.25.25,0,0,1,0,.5Z" style="fill:#275882"/><path d="M56.19,230.93h-1a.25.25,0,0,1-.25-.25v-1a.25.25,0,0,1,.5,0v.75h.75a.25.25,0,0,1,0,.5Z" style="fill:#275882"/><path d="M55.19,228.49a.25.25,0,0,1-.25-.25v-1a.25.25,0,0,1,.25-.25h1a.25.25,0,0,1,0,.5h-.75v.75A.25.25,0,0,1,55.19,228.49Z" style="fill:#275882"/><path d="M73.67,227.49H71.49a.25.25,0,0,1,0-.5h2.18a.25.25,0,1,1,0,.5Zm-4.37,0H67.12a.25.25,0,0,1,0-.5H69.3a.25.25,0,1,1,0,.5Zm-4.37,0H62.75a.25.25,0,0,1,0-.5h2.18a.25.25,0,0,1,0,.5Zm-4.37,0H58.37a.25.25,0,0,1,0-.5h2.19a.25.25,0,0,1,0,.5Z" style="fill:#275882"/><path d="M77.26,228.41a.25.25,0,0,1-.23-.15l-.33-.77h-.84a.25.25,0,0,1,0-.5h1a.25.25,0,0,1,.23.15c.13.31.26.61.4.92a.25.25,0,0,1-.14.33Z" style="fill:#275882"/><path d="M61.11,60.48h-1a.25.25,0,0,1,0-.5h.51l-.29-.42a.25.25,0,0,1,.06-.35.25.25,0,0,1,.35.07l.57.8a.25.25,0,0,1,0,.26A.24.24,0,0,1,61.11,60.48Z" style="fill:#275882"/><path d="M58.34,60.48H56.57a.25.25,0,0,1,0-.5h1.77a.25.25,0,0,1,0,.5Zm-3.54,0H53a.25.25,0,0,1,0-.5H54.8a.25.25,0,0,1,0,.5Zm-3.54,0H49.49a.25.25,0,0,1,0-.5h1.77a.25.25,0,0,1,0,.5Z" style="fill:#275882"/><path d="M47.72,60.48h-1a.25.25,0,0,1-.25-.25v-1a.25.25,0,1,1,.5,0V60h.75a.25.25,0,0,1,0,.5Z" style="fill:#275882"/><path d="M46.72,57.3a.25.25,0,0,1-.25-.25v-1a.25.25,0,0,1,.25-.25h1a.25.25,0,0,1,0,.5H47v.75A.25.25,0,0,1,46.72,57.3Z" style="fill:#275882"/><path d="M55.67,56.3h-2a.25.25,0,1,1,0-.5h2a.25.25,0,0,1,0,.5Zm-4,0h-2a.25.25,0,1,1,0-.5h2a.25.25,0,0,1,0,.5Z" style="fill:#275882"/><path d="M59.09,57.2a.25.25,0,0,1-.22-.13c-.13-.25-.25-.51-.37-.77h-.84a.25.25,0,0,1,0-.5h1a.26.26,0,0,1,.23.15c.14.3.28.6.43.89a.26.26,0,0,1-.11.34A.25.25,0,0,1,59.09,57.2Z" style="fill:#275882"/><path d="M68.25,66.82h-1a.25.25,0,0,1,0-.5h.12l-.11-.07a.25.25,0,0,1-.07-.34.26.26,0,0,1,.35-.08c.27.18.55.36.84.53a.26.26,0,0,1,.11.28A.25.25,0,0,1,68.25,66.82Z" style="fill:#275882"/><path d="M65.51,66.82H63.77a.25.25,0,0,1,0-.5h1.74a.25.25,0,0,1,0,.5Zm-3.48,0H60.29a.25.25,0,1,1,0-.5H62a.25.25,0,0,1,0,.5Zm-3.47,0H56.82a.25.25,0,1,1,0-.5h1.74a.25.25,0,0,1,0,.5Z" style="fill:#275882"/><path d="M55.08,66.82h-1a.25.25,0,0,1-.25-.25v-1a.25.25,0,0,1,.5,0v.75h.75a.25.25,0,0,1,0,.5Z" style="fill:#275882"/><path d="M54.08,63.63a.25.25,0,0,1-.25-.25v-1a.25.25,0,0,1,.25-.25h1a.25.25,0,0,1,0,.5h-.75v.75A.25.25,0,0,1,54.08,63.63Z" style="fill:#275882"/><path d="M59.64,62.63H57.36a.25.25,0,0,1,0-.5h2.28a.25.25,0,0,1,0,.5Z" style="fill:#275882"/><path d="M63.63,63.34a.24.24,0,0,1-.18-.07l-.64-.64h-.89a.25.25,0,0,1,0-.5h1a.25.25,0,0,1,.18.08c.23.24.46.47.7.7a.25.25,0,0,1,0,.35A.27.27,0,0,1,63.63,63.34Z" style="fill:#275882"/><path d="M66.08,65.39a.3.3,0,0,1-.15,0c-.44-.33-.87-.66-1.27-1a.24.24,0,0,1,0-.35A.25.25,0,0,1,65,64c.4.33.82.66,1.25,1a.26.26,0,0,1-.15.46Z" style="fill:#275882"/><path d="M43.05,79.47h-1a.25.25,0,0,1,0-.5h.75v-.75a.25.25,0,0,1,.25-.25.25.25,0,0,1,.25.25v1A.25.25,0,0,1,43.05,79.47Z" style="fill:#275882"/><path d="M40.07,79.47h-2a.25.25,0,0,1,0-.5h2a.25.25,0,0,1,0,.5Zm-4,0h-2a.25.25,0,1,1,0-.5h2a.25.25,0,0,1,0,.5Zm-4,0h-2a.25.25,0,0,1,0-.5h2a.25.25,0,1,1,0,.5Zm-3.95,0h-2a.25.25,0,0,1,0-.5h2a.25.25,0,1,1,0,.5Zm-4,0h-2a.25.25,0,0,1,0-.5h2a.25.25,0,0,1,0,.5Zm-4,0h-2a.25.25,0,0,1,0-.5h2a.25.25,0,0,1,0,.5Z" style="fill:#275882"/><path d="M16.33,79.47h-1a.25.25,0,0,1-.25-.25v-1a.25.25,0,0,1,.25-.25.25.25,0,0,1,.25.25V79h.75a.25.25,0,0,1,0,.5Z" style="fill:#275882"/><path d="M15.33,76.28a.25.25,0,0,1-.25-.25V75a.25.25,0,0,1,.25-.25h1a.25.25,0,0,1,0,.5h-.75V76A.25.25,0,0,1,15.33,76.28Z" style="fill:#275882"/><path d="M40.07,75.28h-2a.25.25,0,0,1,0-.5h2a.25.25,0,0,1,0,.5Zm-4,0h-2a.25.25,0,1,1,0-.5h2a.25.25,0,0,1,0,.5Zm-4,0h-2a.25.25,0,0,1,0-.5h2a.25.25,0,1,1,0,.5Zm-3.95,0h-2a.25.25,0,0,1,0-.5h2a.25.25,0,1,1,0,.5Zm-4,0h-2a.25.25,0,0,1,0-.5h2a.25.25,0,0,1,0,.5Zm-4,0h-2a.25.25,0,0,1,0-.5h2a.25.25,0,0,1,0,.5Z" style="fill:#275882"/><path d="M43.05,76.28A.25.25,0,0,1,42.8,76v-.75h-.75a.25.25,0,0,1,0-.5h1a.25.25,0,0,1,.25.25v1A.25.25,0,0,1,43.05,76.28Z" style="fill:#275882"/><path d="M16.12,192.17H54.56a42.62,42.62,0,0,1-7.46-20,51.55,51.55,0,0,1,0-9.73,59,59,0,0,1,.89-6.5,8.06,8.06,0,0,1-.72-.59.45.45,0,0,0-.74.24A22.48,22.48,0,0,1,45,160.47c-.7,1.31-1.81-6.22-3.17-5.77a3.74,3.74,0,0,1-4-.95c-.41-.45-.69-1-1.13-1.45-2.72-2.72-4.47,5.44-5,7-.89,2.66-2.79,5.46-5.48,5.44-1.32,0-2.71-.72-3.88-.11a4.14,4.14,0,0,0-1.61,2.17c-1.64,3.7-3.11,7.48-4.63,11.22Z" style="fill:#fff"/><path d="M55,192.42H15.87l0-14.49L17,175.24c1.13-2.81,2.3-5.71,3.55-8.53a4.46,4.46,0,0,1,1.72-2.29,4,4,0,0,1,2.67-.09,7.68,7.68,0,0,0,1.34.17h0c2.53,0,4.35-2.72,5.22-5.27.07-.21.17-.55.29-1,.61-2.19,1.76-6.26,3.52-6.72a1.65,1.65,0,0,1,1.6.58,6,6,0,0,1,.65.82,6.72,6.72,0,0,0,.49.64,3.48,3.48,0,0,0,3.7.88.65.65,0,0,1,.49,0c.66.33,1.15,1.74,1.77,3.69a12.29,12.29,0,0,0,.79,2.1,15.34,15.34,0,0,0,1.15-3.55c.1-.43.2-.85.31-1.26a.73.73,0,0,1,.5-.52.67.67,0,0,1,.65.16,8.38,8.38,0,0,0,.69.57l.13.09,0,.16a58.59,58.59,0,0,0-.88,6.47,51.18,51.18,0,0,0,0,9.69c.7,7.08,3,13.23,7.42,19.93Zm-38.66-.5H54.1a42.45,42.45,0,0,1-7.25-19.76,51.3,51.3,0,0,1,0-9.78,61.84,61.84,0,0,1,.86-6.37c-.22-.17-.43-.35-.6-.51a.2.2,0,0,0-.18-.05.27.27,0,0,0-.16.17c-.11.41-.2.82-.3,1.24a15.53,15.53,0,0,1-1.22,3.73c-.14.25-.32.3-.44.28-.41,0-.66-.68-1.25-2.52-.42-1.32-1-3.13-1.51-3.4a.17.17,0,0,0-.12,0,4,4,0,0,1-4.22-1c-.19-.22-.36-.46-.53-.69a5.58,5.58,0,0,0-.59-.75,1.16,1.16,0,0,0-1.13-.45c-1.47.38-2.61,4.42-3.16,6.37-.13.42-.22.77-.3,1C31,162.11,29.07,165,26.27,165h0a8.36,8.36,0,0,1-1.42-.18,3.62,3.62,0,0,0-2.35,0,4,4,0,0,0-1.49,2c-1.25,2.81-2.41,5.71-3.55,8.52l-1.06,2.64Z" style="fill:#275882"/><path d="M16.12,192.17H54.56a42.62,42.62,0,0,1-7.46-20c-2.36-.49-4-3.21-5-5-1.61-3.08-3.14-6.19-4.74-9.28a1.87,1.87,0,0,0-3.14,0c-1.31,2.39-2.49,4.84-3.6,7.3-.83,1.8-2.55,6.35-5.72,5.86-1.94-.3-2.49-3.79-4.42-1.22a32.43,32.43,0,0,0-4.4,8.41Z" style="fill:#e5e8ed"/><path d="M55,192.42H15.87V178.08a33.13,33.13,0,0,1,4.44-8.47c.51-.68,1-1,1.45-1h.05c.6,0,1.05.49,1.53,1A3.12,3.12,0,0,0,25,170.74c2.73.41,4.35-3.25,5.23-5.23l.22-.49c1.25-2.77,2.43-5.16,3.61-7.32a2,2,0,0,1,1.77-1h0a2,2,0,0,1,1.79,1c.73,1.41,1.44,2.82,2.16,4.23.85,1.69,1.7,3.37,2.58,5.05,1.5,2.88,3.11,4.52,4.79,4.87l.18,0,0,.19c.7,7.08,3,13.23,7.42,19.93Zm-38.66-.5H54.1a42.52,42.52,0,0,1-7.23-19.58c-1.79-.46-3.41-2.13-4.95-5.09-.88-1.68-1.73-3.37-2.59-5.05q-1.06-2.12-2.15-4.23a1.53,1.53,0,0,0-1.36-.74h0a1.46,1.46,0,0,0-1.33.71c-1.18,2.15-2.35,4.53-3.6,7.28-.06.15-.14.32-.22.5-.92,2.09-2.65,6-5.75,5.51A3.5,3.5,0,0,1,23,169.92c-.43-.46-.83-.86-1.19-.85s-.67.3-1.07.84a32.57,32.57,0,0,0-4.35,8.3Z" style="fill:#275882"/><path d="M113.38,192.17h-.08s0-.37-.1-1C113.32,191.79,113.38,192.17,113.38,192.17Z" style="fill:#2c7dea"/><path d="M60.47,201.31c-.14.1-.28.2-.41.31l-.67.58c-.21.2-.42.41-.62.63a12.62,12.62,0,0,0-2.5,3.91A12.66,12.66,0,0,0,68,224.11a12.53,12.53,0,0,0,6.51-1.8c-.35-.67-.69-1.33-1-2a10.43,10.43,0,0,1-13.12-16,10.52,10.52,0,0,1,1.45-1.3Z" style="fill:#e5e8ed"/><path d="M68,224.36a12.9,12.9,0,0,1-12-17.71,12.64,12.64,0,0,1,2.55-4c.2-.22.41-.43.63-.64s.45-.4.68-.59.28-.22.42-.32l.29.41c-.13.09-.27.19-.39.29s-.45.38-.66.58-.41.4-.61.61a12.4,12.4,0,0,0,15.24,19.22l-.12-.22c-.23-.44-.45-.88-.69-1.31A10.68,10.68,0,0,1,60.17,204.2a11.44,11.44,0,0,1,1.49-1.33l.3.4a10.4,10.4,0,0,0-1.42,1.27,10.18,10.18,0,0,0,12.81,15.59l.22-.14.13.23.82,1.55.33.63-.2.13A12.83,12.83,0,0,1,68,224.36Z" style="fill:#275882"/><path d="M61.81,203.07a10.52,10.52,0,0,0-1.45,1.3l-1.59-1.54c.2-.22.41-.43.62-.63l.67-.58c.13-.11.27-.21.41-.31Z" style="fill:#fff"/><path d="M60.37,204.73l-1.95-1.89.16-.18c.21-.22.42-.43.64-.64s.45-.4.68-.59.28-.22.42-.32l.29.41c-.13.09-.27.19-.39.29s-.45.38-.66.58-.3.28-.44.43l1.23,1.2a11.34,11.34,0,0,1,1.31-1.15l.3.4a10.4,10.4,0,0,0-1.42,1.27Z" style="fill:#275882"/><path d="M35.22,223.49a12.65,12.65,0,1,1-3.91-24.69V201a10.43,10.43,0,1,0,3.41,20.29Z" style="fill:#fff"/><path d="M31.4,224.36a12.91,12.91,0,1,1-.09-25.81h.25v2.73h-.25a10.18,10.18,0,1,0,3.33,19.81l.26-.09.61,2.66-.21.07A12.48,12.48,0,0,1,31.4,224.36Zm-.34-25.31a12.41,12.41,0,1,0,3.86,24.27l-.38-1.67a10.68,10.68,0,1,1-3.48-20.86Z" style="fill:#275882"/><path d="M30,248.25a7,7,0,1,1-7-7A7,7,0,0,1,30,248.25Z" style="fill:#fff"/><path d="M23,255.55a7.3,7.3,0,1,1,7.29-7.3A7.32,7.32,0,0,1,23,255.55Zm0-14.09a6.8,6.8,0,1,0,6.79,6.79A6.8,6.8,0,0,0,23,241.46Z" style="fill:#275882"/><path d="M26.22,251.31a.34.34,0,0,1-.35-.35v-5.19a.61.61,0,0,0-.62-.61H20.11a.36.36,0,1,1,0-.71h5.14a1.32,1.32,0,0,1,1.32,1.32V251A.35.35,0,0,1,26.22,251.31Z" style="fill:#275882"/><path d="M20.71,252.05a1.33,1.33,0,0,1-1.32-1.32v-5a.36.36,0,1,1,.71,0v5a.62.62,0,0,0,.61.62h5.17a.34.34,0,0,1,.35.35.35.35,0,0,1-.35.35Z" style="fill:#275882"/><path d="M18.47,247.78l-.14-.06a.33.33,0,0,1-.14-.23.32.32,0,0,1,.06-.27l1.21-1.67a.37.37,0,0,1,.28-.14.36.36,0,0,1,.29.14l1.21,1.68a.39.39,0,0,1,.06.26.43.43,0,0,1-.14.23l-.06,0-.15,0a.34.34,0,0,1-.28-.14l-.93-1.28-.92,1.28a.36.36,0,0,1-.29.14Z" style="fill:#275882"/><path d="M26.22,251.32a.37.37,0,0,1-.29-.14l-1.21-1.68a.36.36,0,0,1,.08-.49l.06,0,.15,0a.34.34,0,0,1,.28.14l.93,1.28.92-1.28a.36.36,0,0,1,.29-.14h.06l.14.06a.33.33,0,0,1,.14.24.31.31,0,0,1-.06.26l-1.21,1.67A.34.34,0,0,1,26.22,251.32Z" style="fill:#275882"/><rect x="7.59" y="90.42" width="88.56" height="0.5" style="fill:#275882"/><path d="M37.47,121.46H36a.27.27,0,0,1,0-.53h1.49a.27.27,0,1,1,0,.53Zm-3.73,0H32.25a.27.27,0,0,1,0-.53h1.49a.27.27,0,0,1,0,.53Zm-3.73,0H28.52a.27.27,0,1,1,0-.53H30a.27.27,0,0,1,0,.53Zm-3.73,0h-1.5a.27.27,0,0,1,0-.53h1.5a.27.27,0,0,1,0,.53Zm-3.74,0H21.05A1.56,1.56,0,0,1,20,121a.26.26,0,0,1,.36-.38,1,1,0,0,0,.74.3h1.49a.27.27,0,0,1,0,.53Zm17.09-.33a.25.25,0,0,1-.19-.09.26.26,0,0,1,0-.37,1.06,1.06,0,0,0,.37-.8v-.36a.25.25,0,0,1,.26-.26.26.26,0,0,1,.26.26v.36a1.58,1.58,0,0,1-.55,1.2A.25.25,0,0,1,39.63,121.13ZM19.73,119a.26.26,0,0,1-.26-.26v-1.5a.26.26,0,0,1,.52,0v1.5A.26.26,0,0,1,19.73,119Zm20.36-1.42a.26.26,0,0,1-.26-.26v-1.49a.26.26,0,0,1,.26-.27.27.27,0,0,1,.26.27v1.49A.26.26,0,0,1,40.09,117.53Zm-20.36-2.31a.26.26,0,0,1-.26-.26v-1.5a.26.26,0,0,1,.52,0V115A.26.26,0,0,1,19.73,115.22Zm20.36-1.42a.26.26,0,0,1-.26-.26V112a.26.26,0,0,1,.26-.26.26.26,0,0,1,.26.26v1.5A.26.26,0,0,1,40.09,113.8Zm-20.36-2.32a.26.26,0,0,1-.26-.26v-1.49a.26.26,0,1,1,.52,0v1.49A.26.26,0,0,1,19.73,111.48Zm20.36-1.42a.25.25,0,0,1-.26-.26v-1.49a.26.26,0,0,1,.26-.26.26.26,0,0,1,.26.26v1.49A.26.26,0,0,1,40.09,110.06Zm-20.36-2.31a.26.26,0,0,1-.26-.26V106a.26.26,0,0,1,.52,0v1.49A.26.26,0,0,1,19.73,107.75Zm20.36-1.42a.26.26,0,0,1-.26-.26v-1.49a.25.25,0,0,1,.26-.26.26.26,0,0,1,.26.26v1.49A.26.26,0,0,1,40.09,106.33ZM19.73,104a.26.26,0,0,1-.26-.26v-1.5a.26.26,0,1,1,.52,0v1.5A.26.26,0,0,1,19.73,104Zm20.36-1.42a.26.26,0,0,1-.26-.26V102a1,1,0,0,0-.41-.83.27.27,0,0,1,0-.37.26.26,0,0,1,.37,0,1.57,1.57,0,0,1,.6,1.24v.3A.26.26,0,0,1,40.09,102.6ZM37.41,101H35.92a.26.26,0,0,1-.26-.26.25.25,0,0,1,.26-.26h1.49a.26.26,0,0,1,.26.26A.26.26,0,0,1,37.41,101Zm-3.73,0h-1.5a.26.26,0,0,1-.26-.26.26.26,0,0,1,.26-.26h1.5a.26.26,0,0,1,.26.26A.26.26,0,0,1,33.68,101Zm-3.74,0H28.45a.26.26,0,0,1-.26-.26.26.26,0,0,1,.26-.26h1.49a.26.26,0,0,1,.27.26A.27.27,0,0,1,29.94,101Zm-3.73,0H24.72a.26.26,0,0,1-.26-.26.25.25,0,0,1,.26-.26h1.49a.25.25,0,0,1,.26.26A.26.26,0,0,1,26.21,101Zm-3.73,0H21.05a.29.29,0,0,1-.29-.26.23.23,0,0,1,.22-.26h1.5a.26.26,0,0,1,.26.26A.26.26,0,0,1,22.48,101Z" style="fill:#275882"/><path d="M39.56,120.81a.27.27,0,0,1-.18-.08l-.88-.89a.25.25,0,0,1,0-.37.27.27,0,0,1,.37,0l.88.88a.27.27,0,0,1,0,.37A.27.27,0,0,1,39.56,120.81Zm-2.46-2.48a.24.24,0,0,1-.18-.07l-1.06-1.06a.26.26,0,0,1,.37-.37l1.06,1.06a.27.27,0,0,1,0,.37A.28.28,0,0,1,37.1,118.33Zm-2.63-2.64a.25.25,0,0,1-.18-.08l-1.06-1.06a.26.26,0,0,1,.37-.37l1.06,1.06a.27.27,0,0,1,0,.37A.29.29,0,0,1,34.47,115.69ZM31.84,113a.29.29,0,0,1-.19-.08l-1-1.06a.26.26,0,0,1,.37-.37L32,112.59a.26.26,0,0,1,0,.37A.25.25,0,0,1,31.84,113Zm-2.63-2.65a.24.24,0,0,1-.19-.08l-1.05-1a.26.26,0,0,1,.37-.37L29.39,110a.27.27,0,0,1,0,.37A.26.26,0,0,1,29.21,110.39Zm-2.63-2.65a.26.26,0,0,1-.19-.07l-1.05-1.06a.26.26,0,1,1,.37-.37l1.05,1.06a.27.27,0,0,1,0,.37A.26.26,0,0,1,26.58,107.74Zm-2.64-2.64a.27.27,0,0,1-.18-.08L22.71,104a.25.25,0,0,1,0-.37.27.27,0,0,1,.37,0l1.05,1.06a.27.27,0,0,1,0,.37A.27.27,0,0,1,23.94,105.1Zm-2.63-2.65a.27.27,0,0,1-.18-.08l-1.06-1.06a.25.25,0,0,1,0-.36.25.25,0,0,1,.37,0l1.05,1a.28.28,0,0,1,0,.38A.26.26,0,0,1,21.31,102.45Z" style="fill:#275882"/><path d="M20.26,120.81a.25.25,0,0,1-.18-.08.26.26,0,0,1,0-.37l1.06-1.06a.26.26,0,0,1,.37.37l-1.05,1.06A.29.29,0,0,1,20.26,120.81Zm2.63-2.65a.26.26,0,0,1-.18-.07.25.25,0,0,1,0-.37l1.05-1.06a.26.26,0,0,1,.37,0,.27.27,0,0,1,0,.37l-1.05,1A.24.24,0,0,1,22.89,118.16Zm2.63-2.65a.26.26,0,0,1-.18-.07.27.27,0,0,1,0-.37L26.39,114a.26.26,0,1,1,.37.37l-1.05,1.06A.26.26,0,0,1,25.52,115.51Zm2.63-2.64a.27.27,0,0,1-.18-.08.27.27,0,0,1,0-.37L29,111.36a.26.26,0,0,1,.37.37l-1.05,1.06A.27.27,0,0,1,28.15,112.87Zm2.64-2.65a.24.24,0,0,1-.19-.08.27.27,0,0,1,0-.37l1-1a.27.27,0,0,1,.37,0,.27.27,0,0,1,0,.38l-1.05,1A.27.27,0,0,1,30.79,110.22Zm2.63-2.65a.26.26,0,0,1-.19-.44l1.06-1.06a.26.26,0,0,1,.37,0,.27.27,0,0,1,0,.37L33.6,107.5A.26.26,0,0,1,33.42,107.57Zm2.63-2.64a.29.29,0,0,1-.19-.08.27.27,0,0,1,0-.37l1.06-1.06a.26.26,0,1,1,.37.37l-1.06,1.06A.25.25,0,0,1,36.05,104.93Zm2.63-2.65a.27.27,0,0,1-.18-.45l.88-.88a.25.25,0,0,1,.37,0,.25.25,0,0,1,0,.36l-.88.89A.29.29,0,0,1,38.68,102.28Z" style="fill:#275882"/><path d="M77.15,121.46H75.66a.27.27,0,1,1,0-.53h1.49a.27.27,0,0,1,0,.53Zm-3.73,0h-1.5a.27.27,0,0,1,0-.53h1.5a.27.27,0,0,1,0,.53Zm-3.74,0H68.19a.27.27,0,0,1,0-.53h1.49a.27.27,0,0,1,0,.53Zm-3.73,0H64.46a.27.27,0,0,1,0-.53H66a.27.27,0,0,1,0,.53Zm-3.73,0h-1.5a1.58,1.58,0,0,1-1.1-.45.27.27,0,0,1,0-.37.26.26,0,0,1,.37,0,1,1,0,0,0,.74.3h1.5a.27.27,0,0,1,0,.53Zm17.09-.33a.25.25,0,0,1-.2-.09.27.27,0,0,1,0-.37,1.05,1.05,0,0,0,.36-.8v-.36a.26.26,0,0,1,.26-.26.25.25,0,0,1,.26.26v.36a1.61,1.61,0,0,1-.54,1.2A.27.27,0,0,1,79.31,121.13ZM59.4,119a.26.26,0,0,1-.26-.26v-1.5a.26.26,0,0,1,.26-.26.26.26,0,0,1,.26.26v1.5A.26.26,0,0,1,59.4,119Zm20.36-1.42a.26.26,0,0,1-.26-.26v-1.49a.27.27,0,0,1,.26-.27.26.26,0,0,1,.26.27v1.49A.26.26,0,0,1,79.76,117.53ZM59.4,115.22a.26.26,0,0,1-.26-.26v-1.5a.26.26,0,0,1,.26-.26.26.26,0,0,1,.26.26V115A.26.26,0,0,1,59.4,115.22Zm20.36-1.42a.26.26,0,0,1-.26-.26V112a.26.26,0,0,1,.26-.26A.26.26,0,0,1,80,112v1.5A.26.26,0,0,1,79.76,113.8ZM59.4,111.48a.26.26,0,0,1-.26-.26v-1.49a.26.26,0,0,1,.26-.26.26.26,0,0,1,.26.26v1.49A.25.25,0,0,1,59.4,111.48Zm20.36-1.42a.26.26,0,0,1-.26-.26v-1.49a.26.26,0,0,1,.26-.26.26.26,0,0,1,.26.26v1.49A.25.25,0,0,1,79.76,110.06ZM59.4,107.75a.26.26,0,0,1-.26-.26V106a.26.26,0,0,1,.26-.26.25.25,0,0,1,.26.26v1.49A.26.26,0,0,1,59.4,107.75Zm20.36-1.42a.26.26,0,0,1-.26-.26v-1.49a.26.26,0,0,1,.26-.26.25.25,0,0,1,.26.26v1.49A.26.26,0,0,1,79.76,106.33ZM59.4,104a.26.26,0,0,1-.26-.26v-1.5a.26.26,0,0,1,.26-.26.26.26,0,0,1,.26.26v1.5A.26.26,0,0,1,59.4,104Zm20.36-1.42a.26.26,0,0,1-.26-.26V102a1.06,1.06,0,0,0-.4-.83.26.26,0,1,1,.32-.41A1.57,1.57,0,0,1,80,102v.3A.26.26,0,0,1,79.76,102.6ZM77.08,101H75.59a.26.26,0,0,1-.26-.26.26.26,0,0,1,.26-.26h1.49a.25.25,0,0,1,.26.26A.26.26,0,0,1,77.08,101Zm-3.73,0H71.86a.26.26,0,0,1-.26-.26.25.25,0,0,1,.26-.26h1.49a.25.25,0,0,1,.26.26A.26.26,0,0,1,73.35,101Zm-3.73,0H68.13a.26.26,0,0,1-.26-.26.25.25,0,0,1,.26-.26h1.49a.26.26,0,0,1,.26.26A.26.26,0,0,1,69.62,101Zm-3.73,0h-1.5a.26.26,0,0,1-.26-.26.26.26,0,0,1,.26-.26h1.5a.26.26,0,0,1,.26.26A.26.26,0,0,1,65.89,101Zm-3.74,0H60.72a.29.29,0,0,1-.29-.26.23.23,0,0,1,.22-.26h1.5a.26.26,0,0,1,.27.26A.27.27,0,0,1,62.15,101Z" style="fill:#275882"/><path d="M79.24,120.81a.27.27,0,0,1-.19-.08l-.88-.89a.26.26,0,1,1,.37-.36l.88.88a.27.27,0,0,1,0,.37A.27.27,0,0,1,79.24,120.81Zm-2.46-2.48a.26.26,0,0,1-.19-.07l-1-1.06a.26.26,0,1,1,.37-.37l1,1.06a.27.27,0,0,1,0,.37A.26.26,0,0,1,76.78,118.33Zm-2.64-2.64a.27.27,0,0,1-.18-.08l-1-1.06a.26.26,0,0,1,0-.37.27.27,0,0,1,.37,0l1,1.06a.27.27,0,0,1,0,.37A.27.27,0,0,1,74.14,115.69ZM71.51,113a.27.27,0,0,1-.18-.08l-1-1.06a.25.25,0,0,1,0-.37.27.27,0,0,1,.37,0l1,1.06a.27.27,0,0,1,0,.37A.27.27,0,0,1,71.51,113Zm-2.63-2.65a.22.22,0,0,1-.18-.08l-1.06-1a.26.26,0,0,1,.37-.37L69.07,110a.27.27,0,0,1,0,.37A.28.28,0,0,1,68.88,110.39Zm-2.63-2.65a.28.28,0,0,1-.19-.07l-1-1.06a.26.26,0,1,1,.37-.37l1.05,1.06a.25.25,0,0,1,0,.37A.24.24,0,0,1,66.25,107.74Zm-2.63-2.64a.27.27,0,0,1-.19-.08l-1-1.06a.26.26,0,0,1,.37-.37l1,1.06a.26.26,0,0,1,0,.37A.27.27,0,0,1,63.62,105.1ZM61,102.45a.27.27,0,0,1-.19-.08l-1-1.06a.25.25,0,0,1,0-.36.25.25,0,0,1,.37,0l1.05,1a.28.28,0,0,1,0,.38A.26.26,0,0,1,61,102.45Z" style="fill:#275882"/><path d="M59.93,120.81a.27.27,0,0,1-.18-.08.27.27,0,0,1,0-.37l1-1.06a.26.26,0,0,1,.37.37l-1.05,1.06A.27.27,0,0,1,59.93,120.81Zm2.64-2.65a.26.26,0,0,1-.19-.44l1-1.06a.26.26,0,0,1,.37.37l-1,1A.23.23,0,0,1,62.57,118.16Zm2.63-2.65a.26.26,0,0,1-.19-.44l1-1.06a.27.27,0,0,1,.37,0,.25.25,0,0,1,0,.37l-1.05,1.06A.26.26,0,0,1,65.2,115.51Zm2.63-2.64a.29.29,0,0,1-.19-.08.27.27,0,0,1,0-.37l1.06-1.06a.26.26,0,0,1,.37.37L68,112.79A.25.25,0,0,1,67.83,112.87Zm2.63-2.65a.22.22,0,0,1-.18-.08.25.25,0,0,1,0-.37l1-1a.27.27,0,0,1,.37,0,.28.28,0,0,1,0,.38l-1,1A.29.29,0,0,1,70.46,110.22Zm2.63-2.65a.26.26,0,0,1-.18-.44l1-1.06a.26.26,0,0,1,.37,0,.27.27,0,0,1,0,.37l-1,1.06A.26.26,0,0,1,73.09,107.57Zm2.63-2.64a.27.27,0,0,1-.18-.08.27.27,0,0,1,0-.37l1-1.06a.26.26,0,1,1,.37.37l-1,1.06A.27.27,0,0,1,75.72,104.93Zm2.63-2.65a.27.27,0,0,1-.18-.08.27.27,0,0,1,0-.37l.88-.88a.25.25,0,0,1,.37,0,.25.25,0,0,1,0,.36l-.88.89A.27.27,0,0,1,78.35,102.28Z" style="fill:#275882"/><rect x="18.28" y="24.92" width="4.14" height="0.5" style="fill:#275882"/><polygon points="18.57 24.18 16.85 25.18 18.57 26.17 18.57 24.18" style="fill:#275882"/><path d="M19.64,29.66a4.49,4.49,0,1,1,4.48-4.49A4.5,4.5,0,0,1,19.64,29.66Zm0-8.47a4,4,0,1,0,4,4A4,4,0,0,0,19.64,21.19Z" style="fill:#275882"/><path d="M128.34,17.05v238.3a12.49,12.49,0,0,1-12.42,12.49H87.47a71.9,71.9,0,0,1-3.13-13.43c-7.6-53.38-40.59-53.77-37.53-92,3.76-47,49.69-36.57,49.69-66.32,0-36.31-40.8-13.44-40.8-56.63,0-11.13-5.13-19.43-13.12-26.23H124.4A3.91,3.91,0,0,1,128.34,17.05Z" style="fill:#2c7dea"/><g style="clip-path:url(#clip-path)"><path d="M128.34,17.05V90.67H7.59V17.05a3.82,3.82,0,0,1,3.83-3.83H124.51A3.82,3.82,0,0,1,128.34,17.05Z" style="fill:url(#Áåçûìÿííûé_ãðàäèåíò_70)"/><path d="M128.34,17.05V90.67H97.65c-4.87-2.93-5.44-23.35-16.34-31.84A21.34,21.34,0,0,0,72.47,55c-6.66-1.47-13.31-3.32-19.35-6.73A33.61,33.61,0,0,1,38.68,33.1c-2-4.41-4.37-14.61-.69-19.88h86.52A3.82,3.82,0,0,1,128.34,17.05Z" style="fill:url(#Áåçûìÿííûé_ãðàäèåíò_70-2)"/><path d="M128.34,17.05V78.36c-5.17-1.74-9.52-10.7-11-16.78-.48-2-.73-4.18-1.91-5.7-2-2.6-5.52-2-8.5-1.67a18.26,18.26,0,0,1-10.85-1.68A13.64,13.64,0,0,1,89.17,43c-.49-2.84-.09-6-1.41-8.47-1.69-3.1-5.32-3.62-8.46-3.66-3.94-.06-7.89.14-11.79-.51A18.16,18.16,0,0,1,56.84,25a14.42,14.42,0,0,1-3.6-11.77h71.51A3.71,3.71,0,0,1,128.34,17.05Z" style="fill:url(#Áåçûìÿííûé_ãðàäèåíò_70-3)"/><rect x="11.17" y="20.6" width="8.38" height="0.35" style="fill:#fff"/><rect x="11.17" y="22.98" width="8.38" height="0.35" style="fill:#fff"/><rect x="11.17" y="25.86" width="4.88" height="0.35" style="fill:#fff"/><g style="opacity:0.4"><rect x="46.84" y="100.97" width="0.3" height="19.96" style="fill:#fff"/></g><g style="opacity:0.4"><rect x="89.04" y="100.97" width="0.3" height="19.96" style="fill:#fff"/></g><g style="opacity:0.4"><rect x="9.06" y="237.71" width="117.86" height="0.3" style="fill:#fff"/></g><path d="M80.73,35.93a12.68,12.68,0,0,1-3.13,8.36,9.46,9.46,0,0,1-.75.8,12.76,12.76,0,0,1-17.77,0c-.26-.25-.51-.52-.75-.79a12.76,12.76,0,1,1,22.4-8.37Z" style="fill:#fff"/><path d="M77.6,44.29a9.46,9.46,0,0,1-.75.8,12.76,12.76,0,0,1-17.77,0c-.26-.25-.51-.52-.75-.79a11.15,11.15,0,0,1,6.14-4.87A10.86,10.86,0,0,1,68,38.87a11,11,0,0,1,3.51.56A11.27,11.27,0,0,1,77.6,44.29Z" style="fill:#b0bfdf"/><path d="M75.75,34.61A7.79,7.79,0,1,1,68,26.83,7.78,7.78,0,0,1,75.75,34.61Z" style="fill:#fff"/><path d="M73.92,34.61a6,6,0,1,1-6-6A6,6,0,0,1,73.92,34.61Z" style="fill:#b0bfdf"/><path d="M104.71,198.81l-.65,0c-.22,0-.43,0-.64,0s-.43,0-.64.08a12.18,12.18,0,0,0-1.81.41h0l-.58.2-.61.23c-.26.11-.51.23-.76.36s-.43.22-.63.35l-.22.13a6,6,0,0,0-.67.44c-.25.17-.48.34-.71.53l-.67.58c-.21.2-.42.41-.62.63h0a12.63,12.63,0,1,0,9.23-4Zm0,23.08a10.43,10.43,0,1,1,10.43-10.43A10.43,10.43,0,0,1,104.71,221.89Z" style="fill:url(#Áåçûìÿííûé_ãðàäèåíò_70-4)"/><path d="M104.71,198.81V201a10.4,10.4,0,0,0-7.65,3.34l-1.59-1.54c.2-.22.41-.43.62-.63l.67-.58c.23-.19.46-.36.71-.53a6,6,0,0,1,.67-.44l.22-.13c.2-.13.42-.24.63-.35s.5-.25.76-.36l.61-.23.58-.2h0l.55-.16a8.78,8.78,0,0,1,1.26-.25c.21,0,.42-.06.64-.08s.42,0,.64,0Z" style="fill:#d0dfe6"/><path d="M40.29,202.52a12.62,12.62,0,0,0-8.85-3.71h-.2l-.6,0-.59,0-.64.08c-.2,0-.42.06-.62.11l-.63.14-.64.19-.46.16a.34.34,0,0,0-.14.05,8.22,8.22,0,0,0-1.06.45c-.38.18-.73.37-1.08.58l-.52.33-.42.3-.15.12a4.08,4.08,0,0,0-.39.31,4.25,4.25,0,0,0-.46.4,2.57,2.57,0,0,0-.29.28,2,2,0,0,0-.29.29.43.43,0,0,0-.11.12.1.1,0,0,0,0,0l0,0L22,203c-.1.1-.18.2-.27.3-.25.3-.49.6-.71.92a3.51,3.51,0,0,0-.27.4c-.09.13-.17.27-.25.41a2.56,2.56,0,0,0-.22.39,5.38,5.38,0,0,0-.36.67l-.21.49c-.06.14-.13.3-.18.45a12,12,0,0,0-.45,1.44c0,.2-.09.4-.13.59s-.07.34-.09.51-.06.43-.08.64c0,.42-.07.86-.07,1.29a12.65,12.65,0,0,0,12.65,12.65,12.32,12.32,0,0,0,3.91-.62,12.65,12.65,0,0,0,5-21Zm-5.54,18.8a10.43,10.43,0,1,1,7-9.86A10.43,10.43,0,0,1,34.75,221.32Z" style="fill:url(#Áåçûìÿííûé_ãðàäèåíò_70-5)"/><path d="M122.58,26.71h-.38V23.27a3.17,3.17,0,0,0-6.34,0v3.44h-.39a.3.3,0,0,0-.3.31v.15a.3.3,0,0,0,.3.3h2.74a.82.82,0,0,0,.82.78.81.81,0,0,0,.81-.78h2.74a.31.31,0,0,0,.31-.3V27A.31.31,0,0,0,122.58,26.71Z" style="fill:#fff"/><polygon points="115.86 74.13 116.84 76.1 119.01 76.42 117.44 77.95 117.81 80.12 115.86 79.1 113.92 80.12 114.29 77.95 112.72 76.42 114.89 76.1 115.86 74.13" style="fill:#fff"/><polygon points="107.58 74.13 108.55 76.1 110.73 76.42 109.15 77.95 109.52 80.12 107.58 79.1 105.63 80.12 106 77.95 104.43 76.42 106.61 76.1 107.58 74.13" style="fill:#fff"/><polygon points="99.29 74.13 100.26 76.1 102.44 76.42 100.86 77.95 101.24 80.12 99.29 79.1 97.34 80.12 97.72 77.95 96.14 76.42 98.32 76.1 99.29 74.13" style="fill:#fff"/><polygon points="91 74.13 91.98 76.1 94.15 76.42 92.58 77.95 92.95 80.12 91 79.1 89.06 80.12 89.43 77.95 87.86 76.42 90.03 76.1 91 74.13" style="fill:#fff"/><polygon points="82.72 74.13 83.69 76.1 85.86 76.42 84.29 77.95 84.66 80.12 82.72 79.1 80.77 80.12 81.14 77.95 79.57 76.42 81.74 76.1 82.72 74.13" style="fill:#fff"/><rect x="18.36" y="227.24" width="25.63" height="3.44" style="fill:#d0dfe6"/><rect x="35.25" y="250.33" width="47.76" height="3.44" style="fill:#d0dfe6"/><rect x="35.25" y="244.88" width="13.68" height="3.44" style="fill:#d0dfe6"/><rect x="51.81" y="244.88" width="17.87" height="3.44" style="fill:#d0dfe6"/><rect x="55.22" y="227.24" width="25.63" height="3.44" style="fill:#d0dfe6"/><rect x="55.21" y="103.97" width="25.52" height="4.18" style="fill:#d0dfe6"/><rect x="59.63" y="110.31" width="16.67" height="4.19" style="fill:#d0dfe6"/><rect x="13.96" y="103.97" width="25.52" height="4.18" style="fill:#d0dfe6"/><rect x="18.38" y="110.31" width="16.67" height="4.19" style="fill:#d0dfe6"/><rect x="96.5" y="103.97" width="25.52" height="4.18" style="fill:#d0dfe6"/><rect x="100.92" y="110.31" width="16.67" height="4.19" style="fill:#d0dfe6"/><rect x="46.75" y="56.05" width="42.44" height="4.19" style="fill:#fff"/><rect x="54.11" y="62.38" width="27.72" height="4.18" style="fill:#fff"/><rect x="15.36" y="75.03" width="27.72" height="4.19" style="fill:#fff"/><rect x="92.08" y="227.24" width="25.63" height="3.44" style="fill:#d0dfe6"/><g style="opacity:0.4"><polygon points="115.52 192.4 17.05 192.4 17.05 131.95 17.35 131.95 17.35 192.1 115.52 192.1 115.52 192.4" style="fill:#fff"/></g><path d="M109.1,164.24c-1.85-3.2-2.36,1.14-4.23,1.52-3,.6-4.67-5.06-5.45-7.31-1.07-3.06-2.2-6.11-3.45-9.1a1.59,1.59,0,0,0-3,0c-1.53,3.85-3,7.73-4.53,11.57-1.26,3.14-3.9,8.55-7.79,5.4-.88-.72-1.59-15.32-2-16.44-1.42-3.84-4.47,16.07-5.45,17.26a3,3,0,0,1-1,.89c-2.35,1.09-4.09-2.86-4.65-4.66L58.67,143.9a.91.91,0,0,0-1.77,0c-1.65,5.06-5.71,13.76-8.39,12.53A5.64,5.64,0,0,1,47,155.32a.41.41,0,0,0-.7.23,24.12,24.12,0,0,1-1.45,4.92c-.67,1.31-1.73-6.22-3-5.77a3.49,3.49,0,0,1-3.78-.94c-.39-.46-.66-1-1.07-1.46-2.61-2.72-4.28,5.45-4.78,7-.87,2.65-2.68,5.46-5.25,5.43-1.26,0-2.59-.72-3.71-.1a4.17,4.17,0,0,0-1.54,2.17c-1.6,3.78-3,7.65-4.53,11.49v13.87h96.19S111.1,167.68,109.1,164.24Z" style="opacity:0.8;fill:url(#Áåçûìÿííûé_ãðàäèåíò_164)"/><path d="M17.14,178.46a33.39,33.39,0,0,1,4.31-8.69c1.85-2.57,2.37.91,4.23,1.21,3,.49,4.67-4,5.46-5.86,1.06-2.45,2.19-4.9,3.44-7.3a1.74,1.74,0,0,1,3,0c1.53,3.08,3,6.19,4.53,9.27,1.26,2.52,3.9,6.86,7.79,4.33a5.43,5.43,0,0,0,2-2.26c1.42-3.09,4.47,2,5.45,2.92a2.92,2.92,0,0,0,1,.72c2.34.87,4.08-2.3,4.64-3.74l8.88-22.58a1,1,0,0,1,1.77,0c1.65,4.06,5.71,11,8.39,10a5.87,5.87,0,0,0,1.53-.9.47.47,0,0,1,.71.2,16.18,16.18,0,0,0,1.44,3.94,5.42,5.42,0,0,0,3,2.31,4.14,4.14,0,0,0,3.79-.76c.38-.37.66-.82,1.07-1.17,2.6-2.19,4.27,4.37,4.78,5.63.86,2.13,2.68,4.38,5.24,4.35,1.26,0,2.59-.57,3.72-.08a3.51,3.51,0,0,1,1.53,1.74c1.6,3,4.53,20.35,4.53,20.35H17.23Z" style="fill:url(#Áåçûìÿííûé_ãðàäèåíò_70-6)"/><g style="opacity:0.4"><g style="opacity:0.36181"><rect x="17.17" y="183.41" width="98" height="0.3" style="fill:#fff"/></g><g style="opacity:0.36181"><rect x="17.17" y="174.63" width="98" height="0.3" style="fill:#fff"/></g><g style="opacity:0.36181"><rect x="17.17" y="165.85" width="98" height="0.3" style="fill:#fff"/></g><g style="opacity:0.36181"><rect x="17.17" y="157.07" width="98" height="0.3" style="fill:#fff"/></g><g style="opacity:0.36181"><rect x="17.17" y="148.29" width="98" height="0.3" style="fill:#fff"/></g><g style="opacity:0.36181"><rect x="17.17" y="139.5" width="98" height="0.3" style="fill:#fff"/></g></g><g style="opacity:0.4"><g style="opacity:0.36181"><rect x="32.14" y="132.55" width="0.3" height="59.7" style="fill:#fff"/></g><g style="opacity:0.36181"><rect x="47.9" y="132.55" width="0.3" height="59.7" style="fill:#fff"/></g><g style="opacity:0.36181"><rect x="63.66" y="132.55" width="0.3" height="59.7" style="fill:#fff"/></g><g style="opacity:0.36181"><rect x="79.43" y="132.55" width="0.3" height="59.7" style="fill:#fff"/></g><g style="opacity:0.36181"><rect x="95.19" y="132.55" width="0.3" height="59.7" style="fill:#fff"/></g><g style="opacity:0.36181"><rect x="110.95" y="132.55" width="0.3" height="59.7" style="fill:#fff"/></g></g><path d="M68,198.81l-.65,0c-.22,0-.43,0-.64,0s-.43,0-.64.08a12.18,12.18,0,0,0-1.81.41h0l-.58.2-.61.23c-.26.11-.51.23-.76.36s-.43.22-.63.35l-.22.13a6,6,0,0,0-.67.44c-.25.17-.48.34-.71.53l-.67.58c-.21.2-.42.41-.62.63h0a12.64,12.64,0,1,0,9.24-4Zm0,23.08a10.43,10.43,0,1,1,10.43-10.43A10.43,10.43,0,0,1,68,221.89Z" style="fill:url(#Áåçûìÿííûé_ãðàäèåíò_70-7)"/><path d="M66.75,198.88c-.22,0-.43,0-.64.08a8.78,8.78,0,0,0-1.26.25l-.55.16h0l-.58.2-.61.23c-.26.11-.51.23-.76.36s-.43.22-.63.35l-.22.13a6,6,0,0,0-.67.44c-.25.17-.48.34-.71.53l-.67.58c-.21.2-.42.41-.62.63l1.59,1.54A10.4,10.4,0,0,1,68,201v-2.22l-.65,0C67.17,198.84,67,198.85,66.75,198.88Z" style="fill:#d0dfe6"/><path d="M26.34,220.62a10.43,10.43,0,0,1,5-19.59V198.8a12.65,12.65,0,1,0,3.91,24.69l-.5-2.17A10.51,10.51,0,0,1,26.34,220.62Z" style="fill:#d0dfe6"/><circle cx="23.01" cy="248.25" r="7.04" transform="translate(-6.04 0.63) rotate(-1.4)" style="fill:#d0dfe6"/><path d="M25.28,244.45H20.14a.36.36,0,0,0,0,.71h5.14a.61.61,0,0,1,.62.61V251a.35.35,0,1,0,.7,0v-5.19A1.32,1.32,0,0,0,25.28,244.45Z" style="fill:#275882"/><path d="M25.91,251.35H20.75a.62.62,0,0,1-.62-.62v-5a.35.35,0,1,0-.7,0v5a1.32,1.32,0,0,0,1.32,1.32h5.16a.36.36,0,0,0,.36-.35A.35.35,0,0,0,25.91,251.35Z" style="fill:#275882"/><path d="M20.06,245.55a.36.36,0,0,0-.29-.14.37.37,0,0,0-.28.14l-1.21,1.67a.36.36,0,0,0-.06.27.33.33,0,0,0,.14.23l.14.06h.07a.34.34,0,0,0,.28-.14l.92-1.28.93,1.28a.34.34,0,0,0,.28.14l.16,0,.05,0a.43.43,0,0,0,.14-.23.39.39,0,0,0-.06-.26Z" style="fill:#275882"/><path d="M27.52,249h-.06a.37.37,0,0,0-.29.14l-.92,1.28-.92-1.28A.37.37,0,0,0,25,249l-.15,0-.05,0a.34.34,0,0,0-.08.49L26,251.18a.34.34,0,0,0,.28.14.37.37,0,0,0,.29-.14l1.2-1.67a.36.36,0,0,0,.07-.26.42.42,0,0,0-.14-.24Z" style="fill:#275882"/></g><path d="M83.92,75.78l-1.2-2.44-1.21,2.44-2.69.39,2,1.9-.46,2.69,2.41-1.27,2.41,1.27-.46-2.69,2-1.9Zm.28,3.7-1.48-.78-1.48.78.28-1.65-1.2-1.17L82,76.42l.74-1.5.74,1.5,1.65.24-1.19,1.17Z" style="fill:#275882"/></g></g></svg>