<svg xmlns="http://www.w3.org/2000/svg" xmlns:xlink="http://www.w3.org/1999/xlink" viewBox="0 0 444.65 381.09"><defs><filter id="luminosity-noclip" x="332.42" y="-8160.16" width="112.23" height="32766" filterUnits="userSpaceOnUse" color-interpolation-filters="sRGB"><feFlood flood-color="#fff" result="bg"/><feBlend in="SourceGraphic" in2="bg"/></filter><mask id="mask" x="332.42" y="-8160.16" width="112.23" height="32766" maskUnits="userSpaceOnUse"><g style="filter:url(#luminosity-noclip)"/></mask><linearGradient id="linear-gradient" x1="388.54" y1="97.11" x2="388.54" y2="172.55" gradientUnits="userSpaceOnUse"><stop offset="0" stop-color="#fff"/><stop offset="0.13" stop-color="#ddd"/><stop offset="0.34" stop-color="#aaa"/><stop offset="0.54" stop-color="#828282"/><stop offset="0.73" stop-color="#656565"/><stop offset="0.88" stop-color="#535353"/><stop offset="1" stop-color="#4d4d4d"/></linearGradient><linearGradient id="Áåçûìÿííûé_ãðàäèåíò_1" x1="222.33" y1="249.67" x2="222.33" gradientUnits="userSpaceOnUse"><stop offset="0" stop-color="#317feb"/><stop offset="0.43" stop-color="#2790f3"/><stop offset="0.99" stop-color="#16acff"/></linearGradient><filter id="luminosity-noclip-2" x="332.42" y="98.13" width="112.23" height="87.47" filterUnits="userSpaceOnUse" color-interpolation-filters="sRGB"><feFlood flood-color="#fff" result="bg"/><feBlend in="SourceGraphic" in2="bg"/></filter><mask id="mask-2" x="332.42" y="99.55" width="112.23" height="87.47" maskUnits="userSpaceOnUse"><g style="filter:url(#luminosity-noclip-2)"><g transform="translate(0 1.42)"><g style="mask:url(#mask)"><path d="M437.58,143.8c-1.31-.94-2.86.13-4.33.15-3,.05-5.11-4.21-6.11-8.25-.59-2.38-2.54-14.78-5.57-10.64-.48.66-.8,1.51-1.25,2.2a3.48,3.48,0,0,1-4.42,1.44,7.83,7.83,0,0,1-3.53-4.36,44,44,0,0,1-1.68-7.47c-.1-.52-.54-.72-.82-.36a7.16,7.16,0,0,1-1.79,1.7c-3.12,1.85-7.86-11.34-9.78-19-.35-1.39-1.72-1.39-2.06,0l-10.35,42.74c-.66,2.73-2.68,8.74-5.42,7.08a4,4,0,0,1-1.17-1.36c-1.14-1.81-4.7-11.38-6.35-5.54a10.45,10.45,0,0,1-2.34,4.29c-4.53,4.79-7.61-3.42-9.08-8.19-1.8-5.83-3.5-11.72-5.28-17.56-.66-2.17-2.81-2.22-3.5-.07-1.45,4.54-2.77,9.17-4,13.82-.92,3.42-2.83,12-6.36,11.09-2.18-.57-2.77-7.16-4.94-2.3a84.79,84.79,0,0,0-5,16.46l.1,26H444.65V164.54c-1.74-5.83-3.41-11.7-5.28-17.45C439,145.81,438.47,144.43,437.58,143.8Z" style="mix-blend-mode:multiply;fill:url(#linear-gradient)"/></g></g></g></mask><linearGradient id="linear-gradient-2" x1="388.54" y1="97.11" x2="388.54" y2="172.55" gradientUnits="userSpaceOnUse"><stop offset="0" stop-color="#fff"/><stop offset="1" stop-color="#fff"/></linearGradient><linearGradient id="Áåçûìÿííûé_ãðàäèåíò_11" x1="386.75" y1="97.11" x2="386.75" y2="172.55" gradientUnits="userSpaceOnUse"><stop offset="0" stop-color="#fff"/><stop offset="1"/></linearGradient><clipPath id="clip-path" transform="translate(0 1.42)"><path d="M48.66,64c11,42.5,48.94,24.52,59.9,48.15,11.79,25.43-8.17,25.9-4.39,60.06,1.71,15.52,5.07,21.07,10.63,28.79,9.19,12.74,24,24.84,41.86,34a136.49,136.49,0,0,0,45.79,14.18c24.68,2.9,91.92-7.15,123.47-22.28,65-31.17,118.73-5.86,118.73-5.86V0H0C3.84,37.66,40.69,33.17,48.66,64Z" style="fill:none;clip-rule:evenodd"/></clipPath><linearGradient id="Áåçûìÿííûé_ãðàäèåíò_15" x1="159.08" y1="32.4" x2="197.83" y2="71.15" gradientUnits="userSpaceOnUse"><stop offset="0.01" stop-color="#16acff"/><stop offset="0.33" stop-color="#1ca2fa"/><stop offset="0.88" stop-color="#2d86ee"/><stop offset="1" stop-color="#317feb"/></linearGradient></defs><g style="isolation:isolate"><g id="Layer_2" data-name="Layer 2"><g id="layer_1-2" data-name="layer 1"><polygon points="131.38 320.61 166.08 278.13 137.9 278.13 131.38 320.61" style="fill:#1e4a62"/><path d="M163.12,263c-39,0-70.62,3.56-70.62,7.95s31.62,7.95,70.62,7.95,70.62-3.56,70.62-7.95S202.12,263,163.12,263Z" transform="translate(0 1.42)" style="fill:#1e4a62"/><path d="M240.68,242.2s-4.18,3.11-5,5.39c-15.26,11.72-48.67,9-81.41-7.9-23.7-12.26-41.5-29.1-49.26-44.76-.08-.17-.69-1.44-.9-1.91-.06-.16-.64-1.51-.84-2,0-.09-1-2.75-1.34-4,0-.11-.34-1.3-.45-1.79l-.09-.45c-.1-.45-.18-.89-.25-1.33,0-.16-.2-1.37-.25-1.82,0-.13,0-.25,0-.38,0-.54-.09-1.08-.1-1.61a22.45,22.45,0,0,1,1.4-8.88l-8.57,18.9h0c-6.36,19.56,16.11,49.12,52.45,67.92,38,19.68,77,20.11,87.31,1.08l0,.09Z" transform="translate(0 1.42)" style="fill:#86c0f2"/><path d="M240.68,242.2s-4.18,3.11-5,5.39c-4.67,3.59-11,5.82-18.57,6.71-12,15.21-45,13.58-77.27-4.74-24.5-13.9-42.06-33.68-47.22-50.95,1.35,18.85,22.28,42.87,53.43,59,38,19.68,77,20.11,87.31,1.08l0,.09Z" transform="translate(0 1.42)" style="fill:#3c7ba7"/><path d="M190.58,169.41c-38.3-19.81-77.49-20.14-87.53-.73s12.88,51.19,51.19,71,77.48,20.13,87.52.73S228.88,189.22,190.58,169.41ZM237.08,238a16.27,16.27,0,0,1-4.23,5.11c-6.27,5.08-17.06,7.23-30.4,6.07-14.25-1.24-30.51-6.27-45.79-14.18-17.81-9.2-32.67-21.3-41.86-34-8.32-11.55-10.9-22.42-7.06-29.84A16.06,16.06,0,0,1,112,166c6.26-5.08,17.05-7.24,30.39-6.07,14.25,1.24,30.51,6.27,45.79,14.17,17.81,9.21,32.67,21.3,41.86,34.06C238.34,219.69,240.91,230.57,237.08,238Z" transform="translate(0 1.42)" style="fill:#f7f7f7"/><path d="M150.83,241.75a9.85,9.85,0,0,0-13.3,4.25l-21.26,41.37,17.5,9.08L155.07,255A9.86,9.86,0,0,0,150.83,241.75Z" transform="translate(0 1.42)" style="fill:#f7f7f7"/><path d="M150.83,241.75a9.86,9.86,0,0,0-12.05,2.38c4.68-2.16,11.2,2.79,7.66,8-5,7.32-17.21,35-19.85,40.58l7.18,3.72L155.07,255A9.86,9.86,0,0,0,150.83,241.75Z" transform="translate(0 1.42)" style="fill:#d8dfe2"/><path d="M100,300.87c-.14.28-.27.55-.39.82,0,0,0,0,0,.06-.07.17.22-.4.78-1.48a.91.91,0,0,0-.08.13C100.2,300.56,100.11,300.71,100,300.87Z" transform="translate(0 1.42)" style="fill:#dd0a59"/><path d="M137.48,267.9c-8.48-4.45-18.2-2.8-22.4,3.58-.26.3-11.58,22.73-14.69,28.79,4-6.73,14-8.55,22.66-4s12.76,13.62,9.68,20.74l14-27.49,0,0C150.57,282.24,146.4,272.59,137.48,267.9Z" transform="translate(0 1.42)" style="fill:#2ba0ae"/><path d="M137.48,267.9c-8-4.19-17-3-21.6,2.5,4-1.87,9.3-1.73,14.13.81,7.39,3.88,10.85,11.88,7.7,17.87l0,0-7,13.78c3.08,4.4,4,9.65,2.07,14.11l14-27.49,0,0C150.57,282.24,146.4,272.59,137.48,267.9Z" transform="translate(0 1.42)" style="fill:#3c7ba7"/><path d="M100,300.87c-.14.28-.27.55-.39.82,0,0,0,0,0,.06-.07.17.22-.4.78-1.48a.91.91,0,0,0-.08.13C100.2,300.56,100.11,300.71,100,300.87Z" transform="translate(0 1.42)" style="fill:#a6003e"/><path d="M103.54,294.09l-3.15,6.18c3-5.13,9.58-7.4,16.35-6.17A15.66,15.66,0,0,0,103.54,294.09Z" transform="translate(0 1.42)" style="fill:#3c7ba7"/><path d="M123,296.27c-8.72-4.58-18.78-2.72-22.74,4.13l-.28.47c-.14.28-.27.55-.39.82a.14.14,0,0,0,0,.06c-2.93,6.85.84,15.52,8.76,20.15.14.08.27.17.41.24l.06,0c.16.09.32.16.47.25l.64.33h0l.61.28.15.07c8.42,3.71,17.69,1.63,21.4-4.95.07-.12.13-.22.19-.34s.25-.49.36-.74a.3.3,0,0,0,0-.08C135.81,309.9,131.63,300.79,123,296.27Z" transform="translate(0 1.42)" style="fill:#40c8cb"/><path d="M0,0C3.84,37.66,40.69,33.17,48.66,64c11,42.5,48.94,24.52,59.9,48.15,11.79,25.43-8.17,25.9-4.39,60.06,1.71,15.52,5.07,21.07,10.63,28.79,9.19,12.74,24,24.84,41.86,34a136.49,136.49,0,0,0,45.79,14.18c24.68,2.9,91.92-7.15,123.47-22.28,65-31.17,118.73-5.86,118.73-5.86V0Z" transform="translate(0 1.42)" style="fill-rule:evenodd;fill:url(#Áåçûìÿííûé_ãðàäèåíò_1)"/><g style="opacity:0.36181"><path d="M443.69,185.5H329.32V71.6a.25.25,0,0,0-.25-.25.25.25,0,0,0-.25.25V186H443.69a.25.25,0,1,0,0-.5Z" transform="translate(0 1.42)" style="fill:#fff"/></g><g style="mask:url(#mask-2)"><path d="M437.58,143.8c-1.31-.94-2.86.13-4.33.15-3,.05-5.11-4.21-6.11-8.25-.59-2.38-2.54-14.78-5.57-10.64-.48.66-.8,1.51-1.25,2.2a3.48,3.48,0,0,1-4.42,1.44,7.83,7.83,0,0,1-3.53-4.36,44,44,0,0,1-1.68-7.47c-.1-.52-.54-.72-.82-.36a7.16,7.16,0,0,1-1.79,1.7c-3.12,1.85-7.86-11.34-9.78-19-.35-1.39-1.72-1.39-2.06,0l-10.35,42.74c-.66,2.73-2.68,8.74-5.42,7.08a4,4,0,0,1-1.17-1.36c-1.14-1.81-4.7-11.38-6.35-5.54a10.45,10.45,0,0,1-2.34,4.29c-4.53,4.79-7.61-3.42-9.08-8.19-1.8-5.83-3.5-11.72-5.28-17.56-.66-2.17-2.81-2.22-3.5-.07-1.45,4.54-2.77,9.17-4,13.82-.92,3.42-2.83,12-6.36,11.09-2.18-.57-2.77-7.16-4.94-2.3a84.79,84.79,0,0,0-5,16.46l.1,26H444.65V164.54c-1.74-5.83-3.41-11.7-5.28-17.45C439,145.81,438.47,144.43,437.58,143.8Z" transform="translate(0 1.42)" style="mix-blend-mode:screen;opacity:0.12461399999999999;fill:url(#linear-gradient-2)"/></g><path d="M434.16,143.8c-1.31-.94-2.86.13-4.33.15-3,.05-5.11-4.21-6.11-8.25-.6-2.38-2.54-14.78-5.58-10.64-.48.66-1.6,6.06-5.66,3.64s-1.38-14.91-3.86-14.91c-.53,0-1.7,4.42-4,4.42-3.63,0-7.86-11.34-9.78-19-.35-1.39-1.72-1.39-2.06,0l-10.35,42.74c-.66,2.73-2.69,8.74-5.42,7.08a4,4,0,0,1-1.17-1.36c-1.14-1.81-3.46-10.66-6.36-5.54-.87,1.54-1.3,3.2-2.33,4.29-4.53,4.79-12.58-19.91-14.36-25.75-.67-2.17-2.81-2.22-3.5-.07-1.46,4.54-6.84,25.84-10.38,24.91-2.17-.57-2.77-7.16-4.93-2.3a84.79,84.79,0,0,0-5,16.46l.1,26H444.5V164.54c-5-5.83-6.69-11.7-8.55-17.45C435.53,145.81,435.05,144.43,434.16,143.8Z" transform="translate(0 1.42)" style="mix-blend-mode:screen;opacity:0.481207;fill:url(#Áåçûìÿííûé_ãðàäèåíò_11)"/><g style="opacity:0.36181"><path d="M443.28,169.17H329a.12.12,0,0,0-.12.12.12.12,0,0,0,.12.13H443.28a.13.13,0,0,0,.13-.13A.12.12,0,0,0,443.28,169.17Z" transform="translate(0 1.42)" style="fill:#fff"/></g><g style="opacity:0.36181"><path d="M443.28,152.55H329a.12.12,0,0,0-.12.12.12.12,0,0,0,.12.13H443.28a.13.13,0,0,0,.13-.13A.12.12,0,0,0,443.28,152.55Z" transform="translate(0 1.42)" style="fill:#fff"/></g><g style="opacity:0.36181"><path d="M443.28,135.92H329a.12.12,0,0,0-.12.13.12.12,0,0,0,.12.12H443.28a.12.12,0,0,0,.13-.12A.13.13,0,0,0,443.28,135.92Z" transform="translate(0 1.42)" style="fill:#fff"/></g><g style="opacity:0.36181"><path d="M443.28,119.3H329a.12.12,0,0,0-.12.13.12.12,0,0,0,.12.12H443.28a.12.12,0,0,0,.13-.12A.13.13,0,0,0,443.28,119.3Z" transform="translate(0 1.42)" style="fill:#fff"/></g><g style="opacity:0.36181"><path d="M443.28,102.68H329a.12.12,0,0,0-.12.13.12.12,0,0,0,.12.12H443.28a.12.12,0,0,0,.13-.12A.13.13,0,0,0,443.28,102.68Z" transform="translate(0 1.42)" style="fill:#fff"/></g><g style="opacity:0.36181"><path d="M443.28,86.06H329a.12.12,0,0,0-.12.13.12.12,0,0,0,.12.12H443.28a.12.12,0,0,0,.13-.12A.13.13,0,0,0,443.28,86.06Z" transform="translate(0 1.42)" style="fill:#fff"/></g><g style="opacity:0.36181"><path d="M346.66,72.61a.13.13,0,0,0-.13.13v113a.13.13,0,0,0,.13.13.12.12,0,0,0,.12-.13v-113A.12.12,0,0,0,346.66,72.61Z" transform="translate(0 1.42)" style="fill:#fff"/></g><g style="opacity:0.36181"><path d="M365,72.61a.12.12,0,0,0-.12.13v113a.12.12,0,0,0,.12.13.13.13,0,0,0,.13-.13v-113A.13.13,0,0,0,365,72.61Z" transform="translate(0 1.42)" style="fill:#fff"/></g><g style="opacity:0.36181"><path d="M383.41,72.61a.12.12,0,0,0-.12.13v113a.12.12,0,0,0,.12.13.13.13,0,0,0,.13-.13v-113A.13.13,0,0,0,383.41,72.61Z" transform="translate(0 1.42)" style="fill:#fff"/></g><g style="opacity:0.36181"><path d="M401.79,72.61a.13.13,0,0,0-.13.13v113a.13.13,0,0,0,.13.13.12.12,0,0,0,.12-.13v-113A.12.12,0,0,0,401.79,72.61Z" transform="translate(0 1.42)" style="fill:#fff"/></g><g style="opacity:0.36181"><path d="M420.16,72.61a.12.12,0,0,0-.12.13v113a.12.12,0,0,0,.12.13.13.13,0,0,0,.13-.13v-113A.13.13,0,0,0,420.16,72.61Z" transform="translate(0 1.42)" style="fill:#fff"/></g><g style="opacity:0.36181"><path d="M438.54,72.61a.12.12,0,0,0-.12.13v113a.12.12,0,0,0,.12.13.13.13,0,0,0,.13-.13v-113A.13.13,0,0,0,438.54,72.61Z" transform="translate(0 1.42)" style="fill:#fff"/></g><path d="M443.35,154.09l-17.76-.23a.31.31,0,0,0-.19.09l-10.31,11.71-7.32-16a.26.26,0,0,0-.23-.14h0a.24.24,0,0,0-.22.14l-6.94,14.25-7.88-5.72a.26.26,0,0,0-.29,0l-6.94,4.55-10.86-44.4a.25.25,0,0,0-.49,0L364.4,159.9l-13-13.69a.3.3,0,0,0-.19-.08.28.28,0,0,0-.19.09l-19.06,23.07a.25.25,0,0,0,0,.35.27.27,0,0,0,.16.06.23.23,0,0,0,.19-.09l18.89-22.86,13.18,13.83a.22.22,0,0,0,.24.07.24.24,0,0,0,.18-.18l9.39-41,10.7,43.72a.27.27,0,0,0,.15.18.24.24,0,0,0,.23,0l7.09-4.65,8,5.79a.23.23,0,0,0,.21,0,.21.21,0,0,0,.16-.13l6.84-14,7.26,15.85a.27.27,0,0,0,.19.14.29.29,0,0,0,.23-.08l10.48-11.92,17.65.23a.25.25,0,0,0,0-.5Z" transform="translate(0 1.42)" style="fill:#e9edf3"/><path d="M401.47,138.6a1.54,1.54,0,1,0,1.54,1.54A1.54,1.54,0,0,0,401.47,138.6Z" transform="translate(0 1.42)" style="fill:#e9edf3"/><path d="M426.64,151.79a1.54,1.54,0,1,0,1.53,1.54A1.54,1.54,0,0,0,426.64,151.79Z" transform="translate(0 1.42)" style="fill:#e9edf3"/><path d="M346.66,133.44A1.54,1.54,0,1,0,348.2,135,1.53,1.53,0,0,0,346.66,133.44Z" transform="translate(0 1.42)" style="fill:#e9edf3"/><path d="M365,117.89a1.54,1.54,0,1,0,1.54,1.54A1.54,1.54,0,0,0,365,117.89Z" transform="translate(0 1.42)" style="fill:#e9edf3"/><path d="M420.94,113.53a1.54,1.54,0,1,0,1.54,1.54A1.54,1.54,0,0,0,420.94,113.53Z" transform="translate(0 1.42)" style="fill:#e9edf3"/><g style="clip-path:url(#clip-path)"><g style="opacity:0.7000000000000001"><rect x="100.06" y="66.34" width="222.77" height="314.75" style="fill:#fff"/><rect x="100.06" y="226.57" width="222.77" height="154.52" style="fill:#d8dfe2"/><rect x="100.06" y="296.49" width="222.77" height="68.27" style="fill:#2c7fea"/><rect x="100.06" y="166.62" width="222.77" height="59.95" style="fill:#1e4a62"/><polygon points="99.87 0 100.06 83.39 323.02 83.39 322.65 0 99.87 0" style="fill:#2c7fea"/><path d="M212.85,71v-1.5H213v1.33h.74V71Z" transform="translate(0 1.42)" style="fill:#fff"/><path d="M214,70.23a.82.82,0,0,1,.2-.58.67.67,0,0,1,.52-.21.66.66,0,0,1,.37.1.55.55,0,0,1,.25.27.9.9,0,0,1,.09.4.88.88,0,0,1-.09.41.7.7,0,0,1-.26.28.74.74,0,0,1-.36.09.77.77,0,0,1-.38-.1.77.77,0,0,1-.26-.28A1,1,0,0,1,214,70.23Zm.2,0a.57.57,0,0,0,.15.42.46.46,0,0,0,.36.16.46.46,0,0,0,.37-.16.61.61,0,0,0,.15-.45.83.83,0,0,0-.06-.32.63.63,0,0,0-.18-.21.5.5,0,0,0-.27-.07.52.52,0,0,0-.36.14A.63.63,0,0,0,214.16,70.24Z" transform="translate(0 1.42)" style="fill:#fff"/><path d="M215.65,71v-1.5h.67a1.08,1.08,0,0,1,.3,0,.35.35,0,0,1,.17.15.4.4,0,0,1,.06.22.36.36,0,0,1-.1.27.56.56,0,0,1-.32.14.62.62,0,0,1,.12.08,1.06,1.06,0,0,1,.16.19L217,71h-.25l-.2-.31a1.51,1.51,0,0,0-.14-.21.93.93,0,0,0-.1-.1l-.09,0h-.34V71Zm.2-.84h.43a.62.62,0,0,0,.21,0,.27.27,0,0,0,.12-.09.33.33,0,0,0,0-.14.21.21,0,0,0-.08-.17.36.36,0,0,0-.25-.07h-.47Z" transform="translate(0 1.42)" style="fill:#fff"/><path d="M217.16,71v-1.5h1.09v.18h-.89v.46h.83v.18h-.83v.51h.92V71Z" transform="translate(0 1.42)" style="fill:#fff"/><path d="M218.55,71v-1.5h.3l.36,1.07c0,.09,0,.17.07.22a1.33,1.33,0,0,1,.08-.24l.36-1.05H220V71h-.19V69.71L219.36,71h-.18l-.44-1.27V71Z" transform="translate(0 1.42)" style="fill:#fff"/><path d="M220.92,71v-1.5h.2V71Z" transform="translate(0 1.42)" style="fill:#fff"/><path d="M221.47,71v-1.5H222l.23,0a.4.4,0,0,1,.19.07.33.33,0,0,1,.12.14.46.46,0,0,1,0,.21.47.47,0,0,1-.12.32.58.58,0,0,1-.44.13h-.38V71Zm.2-.78h.38a.43.43,0,0,0,.28-.08.25.25,0,0,0,.08-.2.3.3,0,0,0,0-.16.25.25,0,0,0-.13-.09h-.56Z" transform="translate(0 1.42)" style="fill:#fff"/><path d="M222.8,70.48l.18,0a.36.36,0,0,0,.07.19.31.31,0,0,0,.15.12.56.56,0,0,0,.23,0,.64.64,0,0,0,.2,0,.34.34,0,0,0,.13-.1.19.19,0,0,0,0-.12.2.2,0,0,0,0-.13.42.42,0,0,0-.14-.09l-.26-.07a1.11,1.11,0,0,1-.29-.09.45.45,0,0,1-.16-.14.33.33,0,0,1-.06-.19.44.44,0,0,1,.07-.21.32.32,0,0,1,.19-.15.76.76,0,0,1,.27,0,.94.94,0,0,1,.3,0,.43.43,0,0,1,.19.16.49.49,0,0,1,.08.24h-.19a.29.29,0,0,0-.11-.21.38.38,0,0,0-.26-.08.37.37,0,0,0-.26.07.18.18,0,0,0-.08.16.19.19,0,0,0,0,.13.78.78,0,0,0,.3.11,3,3,0,0,1,.34.09.43.43,0,0,1,.19.16.37.37,0,0,1,.06.21.36.36,0,0,1-.07.22.39.39,0,0,1-.19.17.72.72,0,0,1-.29.06.83.83,0,0,1-.34-.06.44.44,0,0,1-.22-.18A.5.5,0,0,1,222.8,70.48Z" transform="translate(0 1.42)" style="fill:#fff"/><path d="M225.25,69.46h.19v.87a.92.92,0,0,1-.05.36.42.42,0,0,1-.18.22.72.72,0,0,1-.35.08.87.87,0,0,1-.35-.07.43.43,0,0,1-.19-.21,1,1,0,0,1,0-.38v-.87h.19v.87a1,1,0,0,0,0,.29.28.28,0,0,0,.12.14.51.51,0,0,0,.22,0,.39.39,0,0,0,.31-.1.58.58,0,0,0,.1-.38Z" transform="translate(0 1.42)" style="fill:#fff"/><path d="M225.77,71v-1.5h.3l.35,1.07a1.06,1.06,0,0,1,.07.22l.08-.24.36-1.05h.27V71H227V69.71L226.57,71h-.18L226,69.69V71Z" transform="translate(0 1.42)" style="fill:#fff"/><path d="M228.1,71v-1.5h.52a1,1,0,0,1,.27,0,.49.49,0,0,1,.22.1.78.78,0,0,1,.17.26,1,1,0,0,1,.06.36,1,1,0,0,1,0,.3.64.64,0,0,1-.1.22.57.57,0,0,1-.14.13.49.49,0,0,1-.18.08l-.24,0Zm.2-.17h.32a.67.67,0,0,0,.23,0,.47.47,0,0,0,.14-.08.5.5,0,0,0,.11-.19,1.12,1.12,0,0,0,0-.29.71.71,0,0,0-.08-.36.39.39,0,0,0-.19-.17.77.77,0,0,0-.25,0h-.32Z" transform="translate(0 1.42)" style="fill:#fff"/><path d="M229.55,70.23a.82.82,0,0,1,.2-.58.76.76,0,0,1,.9-.11.6.6,0,0,1,.25.27.9.9,0,0,1,.09.4.88.88,0,0,1-.09.41.78.78,0,0,1-.26.28.81.81,0,0,1-.37.09.8.8,0,0,1-.38-.1.75.75,0,0,1-.25-.28A.85.85,0,0,1,229.55,70.23Zm.21,0a.61.61,0,0,0,.14.42.51.51,0,0,0,.74,0,.61.61,0,0,0,.14-.45.83.83,0,0,0-.06-.32.46.46,0,0,0-.18-.21.5.5,0,0,0-.27-.07.52.52,0,0,0-.36.14A.67.67,0,0,0,229.76,70.24Z" transform="translate(0 1.42)" style="fill:#fff"/><path d="M231.24,71v-1.5h.19v1.33h.74V71Z" transform="translate(0 1.42)" style="fill:#fff"/><path d="M232.35,70.23a.77.77,0,0,1,.2-.58.67.67,0,0,1,.52-.21.66.66,0,0,1,.37.1.55.55,0,0,1,.25.27.9.9,0,0,1,.09.4.88.88,0,0,1-.09.41.7.7,0,0,1-.26.28.74.74,0,0,1-.36.09.77.77,0,0,1-.38-.1.77.77,0,0,1-.26-.28A1,1,0,0,1,232.35,70.23Zm.2,0a.57.57,0,0,0,.15.42.46.46,0,0,0,.36.16.46.46,0,0,0,.37-.16.61.61,0,0,0,.15-.45.83.83,0,0,0-.06-.32.55.55,0,0,0-.19-.21.46.46,0,0,0-.26-.07.52.52,0,0,0-.36.14A.63.63,0,0,0,232.55,70.24Z" transform="translate(0 1.42)" style="fill:#fff"/><path d="M234,71v-1.5h.67a1.08,1.08,0,0,1,.3,0,.4.4,0,0,1,.23.37.36.36,0,0,1-.1.27.56.56,0,0,1-.32.14.62.62,0,0,1,.12.08,1.06,1.06,0,0,1,.16.19l.26.41h-.25l-.2-.31a1.51,1.51,0,0,0-.14-.21l-.1-.1-.09,0h-.34V71Zm.2-.84h.42a.65.65,0,0,0,.22,0A.27.27,0,0,0,235,70a.33.33,0,0,0,0-.14.21.21,0,0,0-.08-.17.36.36,0,0,0-.25-.07h-.47Z" transform="translate(0 1.42)" style="fill:#fff"/><path d="M236.06,70.48l.19,0a.47.47,0,0,0,.06.19.44.44,0,0,0,.15.12.59.59,0,0,0,.23,0,.66.66,0,0,0,.21,0,.31.31,0,0,0,.12-.1.21.21,0,0,0,0-.12.28.28,0,0,0,0-.13.56.56,0,0,0-.14-.09l-.27-.07a1.44,1.44,0,0,1-.29-.09.56.56,0,0,1-.16-.14.41.41,0,0,1,0-.19.35.35,0,0,1,.07-.21.34.34,0,0,1,.18-.15.87.87,0,0,1,.28,0,.84.84,0,0,1,.29,0,.46.46,0,0,1,.2.16.4.4,0,0,1,.07.24H237a.28.28,0,0,0-.1-.21.4.4,0,0,0-.26-.08.37.37,0,0,0-.26.07.19.19,0,0,0-.09.16.16.16,0,0,0,.06.13.78.78,0,0,0,.3.11,2.23,2.23,0,0,1,.33.09.46.46,0,0,1,.2.16.37.37,0,0,1,.06.21.36.36,0,0,1-.07.22.42.42,0,0,1-.2.17.65.65,0,0,1-.29.06.9.9,0,0,1-.34-.06.46.46,0,0,1-.21-.18A.51.51,0,0,1,236.06,70.48Z" transform="translate(0 1.42)" style="fill:#fff"/><path d="M237.56,71v-1.5h.2V71Z" transform="translate(0 1.42)" style="fill:#fff"/><path d="M238.49,71V69.64H238v-.18h1.19v.18h-.5V71Z" transform="translate(0 1.42)" style="fill:#fff"/><path d="M239.66,71l.57-1.5h.21l.62,1.5h-.23l-.17-.45H240l-.16.45Zm.43-.61h.51l-.16-.42c-.05-.12-.08-.23-.11-.31a1.57,1.57,0,0,1-.08.29Z" transform="translate(0 1.42)" style="fill:#fff"/><path d="M241.21,71v-1.5h.3l.35,1.07c0,.09.06.17.08.22a1.33,1.33,0,0,1,.08-.24l.35-1.05h.27V71h-.19V69.71L242,71h-.17l-.44-1.27V71Z" transform="translate(0 1.42)" style="fill:#fff"/><path d="M243,71v-1.5h1.08v.18h-.89v.46H244v.18h-.83v.51h.92V71Z" transform="translate(0 1.42)" style="fill:#fff"/><path d="M244.74,71V69.64h-.49v-.18h1.19v.18h-.5V71Z" transform="translate(0 1.42)" style="fill:#fff"/><path d="M245.43,71v-.21h.21V71a.36.36,0,0,1,0,.19.28.28,0,0,1-.13.11l-.05-.08s.07,0,.08-.07a.46.46,0,0,0,0-.15Z" transform="translate(0 1.42)" style="fill:#fff"/><path d="M247.64,70.44l.2,0a.67.67,0,0,1-.23.37.58.58,0,0,1-.39.13.7.7,0,0,1-.4-.1.68.68,0,0,1-.23-.29,1.06,1.06,0,0,1-.08-.4.91.91,0,0,1,.09-.41.65.65,0,0,1,.26-.26.74.74,0,0,1,.36-.09.66.66,0,0,1,.38.11.63.63,0,0,1,.21.33l-.19,0a.55.55,0,0,0-.15-.24.41.41,0,0,0-.25-.07.46.46,0,0,0-.46.3,1,1,0,0,0,0,.29,1.16,1.16,0,0,0,.05.34.46.46,0,0,0,.18.21.45.45,0,0,0,.25.07.39.39,0,0,0,.28-.1A.49.49,0,0,0,247.64,70.44Z" transform="translate(0 1.42)" style="fill:#fff"/><path d="M248,70.23a.82.82,0,0,1,.2-.58.7.7,0,0,1,.52-.21.72.72,0,0,1,.38.1.6.6,0,0,1,.25.27.9.9,0,0,1,.09.4.88.88,0,0,1-.09.41.73.73,0,0,1-.27.28.74.74,0,0,1-.36.09.8.8,0,0,1-.38-.1.75.75,0,0,1-.25-.28A.85.85,0,0,1,248,70.23Zm.21,0a.61.61,0,0,0,.14.42.51.51,0,0,0,.74,0,.65.65,0,0,0,.14-.45.83.83,0,0,0-.06-.32.46.46,0,0,0-.18-.21.5.5,0,0,0-.27-.07.52.52,0,0,0-.36.14A.67.67,0,0,0,248.23,70.24Z" transform="translate(0 1.42)" style="fill:#fff"/><path d="M249.71,71v-1.5h.2l.79,1.18V69.46h.19V71h-.2l-.79-1.17V71Z" transform="translate(0 1.42)" style="fill:#fff"/><path d="M251.16,70.48l.18,0a.36.36,0,0,0,.07.19.31.31,0,0,0,.15.12.56.56,0,0,0,.23,0,.64.64,0,0,0,.2,0,.34.34,0,0,0,.13-.1.19.19,0,0,0,0-.12.2.2,0,0,0,0-.13.42.42,0,0,0-.14-.09l-.26-.07a1.11,1.11,0,0,1-.29-.09.45.45,0,0,1-.16-.14.33.33,0,0,1-.06-.19.44.44,0,0,1,.07-.21.32.32,0,0,1,.19-.15.76.76,0,0,1,.27,0,.94.94,0,0,1,.3,0,.43.43,0,0,1,.19.16.49.49,0,0,1,.08.24h-.19a.29.29,0,0,0-.11-.21.38.38,0,0,0-.26-.08.37.37,0,0,0-.26.07.18.18,0,0,0-.08.16.19.19,0,0,0,.05.13.78.78,0,0,0,.3.11,2.48,2.48,0,0,1,.34.09.43.43,0,0,1,.19.16.37.37,0,0,1,.06.21.36.36,0,0,1-.07.22.39.39,0,0,1-.19.17.72.72,0,0,1-.29.06.83.83,0,0,1-.34-.06.44.44,0,0,1-.22-.18A.5.5,0,0,1,251.16,70.48Z" transform="translate(0 1.42)" style="fill:#fff"/><path d="M252.63,71v-1.5h1.08v.18h-.88v.46h.82v.18h-.82v.51h.92V71Z" transform="translate(0 1.42)" style="fill:#fff"/><path d="M255.09,70.44l.2,0a.67.67,0,0,1-.23.37.58.58,0,0,1-.39.13.7.7,0,0,1-.4-.1.61.61,0,0,1-.23-.29,1.06,1.06,0,0,1-.08-.4.91.91,0,0,1,.09-.41.65.65,0,0,1,.26-.26.74.74,0,0,1,.36-.09.66.66,0,0,1,.38.11.63.63,0,0,1,.21.33l-.19,0a.55.55,0,0,0-.15-.24.41.41,0,0,0-.25-.07.46.46,0,0,0-.46.3,1,1,0,0,0,0,.29,1.16,1.16,0,0,0,.05.34.46.46,0,0,0,.18.21.43.43,0,0,0,.25.07.39.39,0,0,0,.28-.1A.49.49,0,0,0,255.09,70.44Z" transform="translate(0 1.42)" style="fill:#fff"/><path d="M255.91,71V69.64h-.49v-.18h1.19v.18h-.5V71Z" transform="translate(0 1.42)" style="fill:#fff"/><path d="M256.82,71v-1.5h1.08v.18H257v.46h.83v.18H257v.51h.92V71Z" transform="translate(0 1.42)" style="fill:#fff"/><path d="M258.59,71V69.64h-.49v-.18h1.19v.18h-.5V71Z" transform="translate(0 1.42)" style="fill:#fff"/><path d="M260.47,69.46h.2v.87a1.15,1.15,0,0,1-.05.36.48.48,0,0,1-.18.22.74.74,0,0,1-.36.08.82.82,0,0,1-.34-.07.43.43,0,0,1-.19-.21,1,1,0,0,1-.06-.38v-.87h.2v.87a.75.75,0,0,0,0,.29.24.24,0,0,0,.12.14.48.48,0,0,0,.22,0,.4.4,0,0,0,.31-.1.59.59,0,0,0,.09-.38Z" transform="translate(0 1.42)" style="fill:#fff"/><path d="M261,71v-1.5h.67a1.08,1.08,0,0,1,.3,0,.35.35,0,0,1,.17.15.4.4,0,0,1,.06.22.36.36,0,0,1-.1.27.56.56,0,0,1-.32.14.62.62,0,0,1,.12.08,1.08,1.08,0,0,1,.17.19l.26.41h-.25l-.2-.31-.15-.21a.47.47,0,0,0-.1-.1l-.09,0h-.34V71Zm.2-.84h.43a.62.62,0,0,0,.21,0A.27.27,0,0,0,262,70a.23.23,0,0,0,0-.14.21.21,0,0,0-.08-.17.33.33,0,0,0-.24-.07h-.48Z" transform="translate(0 1.42)" style="fill:#fff"/><path d="M262.82,71l.57-1.5h.22l.61,1.5H264l-.17-.45h-.63L263,71Zm.43-.61h.51l-.16-.42c-.05-.12-.08-.23-.11-.31a1,1,0,0,1-.08.29Z" transform="translate(0 1.42)" style="fill:#fff"/><path d="M264.38,71v-1.5h.51a.91.91,0,0,1,.27,0,.41.41,0,0,1,.22.1.68.68,0,0,1,.18.26,1,1,0,0,1,.06.36,1.36,1.36,0,0,1,0,.3.9.9,0,0,1-.1.22.83.83,0,0,1-.14.13.49.49,0,0,1-.18.08l-.24,0Zm.2-.17h.32a.71.71,0,0,0,.23,0,.32.32,0,0,0,.13-.08.4.4,0,0,0,.11-.19.81.81,0,0,0,0-.29.72.72,0,0,0-.07-.36.5.5,0,0,0-.19-.17.79.79,0,0,0-.26,0h-.31Z" transform="translate(0 1.42)" style="fill:#fff"/><path d="M265.92,71v-1.5h.2V71Z" transform="translate(0 1.42)" style="fill:#fff"/><path d="M266.47,71v-1.5H267l.23,0a.36.36,0,0,1,.18.07.33.33,0,0,1,.12.14.46.46,0,0,1,.05.21.47.47,0,0,1-.12.32.59.59,0,0,1-.44.13h-.39V71Zm.2-.78h.39a.38.38,0,0,0,.27-.08.22.22,0,0,0,.08-.2.29.29,0,0,0,0-.16.38.38,0,0,0-.13-.09h-.57Z" transform="translate(0 1.42)" style="fill:#fff"/><path d="M267.9,71v-1.5h.2V71Z" transform="translate(0 1.42)" style="fill:#fff"/><path d="M268.38,70.48l.19,0a.47.47,0,0,0,.06.19.4.4,0,0,0,.16.12.51.51,0,0,0,.22,0,.66.66,0,0,0,.21,0,.31.31,0,0,0,.12-.1.21.21,0,0,0,.05-.12.28.28,0,0,0,0-.13.56.56,0,0,0-.14-.09l-.27-.07a1.14,1.14,0,0,1-.28-.09.38.38,0,0,1-.16-.14.33.33,0,0,1-.06-.19.35.35,0,0,1,.07-.21.32.32,0,0,1,.19-.15.76.76,0,0,1,.27,0,.84.84,0,0,1,.29,0,.46.46,0,0,1,.2.16.4.4,0,0,1,.07.24h-.19a.28.28,0,0,0-.1-.21.4.4,0,0,0-.26-.08.37.37,0,0,0-.26.07.19.19,0,0,0-.09.16.16.16,0,0,0,.06.13.78.78,0,0,0,.3.11,2.23,2.23,0,0,1,.33.09.46.46,0,0,1,.2.16.37.37,0,0,1,.06.21.36.36,0,0,1-.07.22.42.42,0,0,1-.2.17A.65.65,0,0,1,269,71a.9.9,0,0,1-.34-.06.46.46,0,0,1-.21-.18A.51.51,0,0,1,268.38,70.48Z" transform="translate(0 1.42)" style="fill:#fff"/><path d="M270.92,70.44l.2,0a.67.67,0,0,1-.23.37.58.58,0,0,1-.39.13.7.7,0,0,1-.4-.1.61.61,0,0,1-.23-.29,1.06,1.06,0,0,1-.08-.4.91.91,0,0,1,.09-.41.65.65,0,0,1,.26-.26.74.74,0,0,1,.36-.09.66.66,0,0,1,.38.11.63.63,0,0,1,.21.33l-.19,0a.55.55,0,0,0-.15-.24.41.41,0,0,0-.25-.07.46.46,0,0,0-.46.3,1,1,0,0,0,0,.29,1.16,1.16,0,0,0,.05.34.46.46,0,0,0,.18.21.43.43,0,0,0,.25.07.39.39,0,0,0,.28-.1A.49.49,0,0,0,270.92,70.44Z" transform="translate(0 1.42)" style="fill:#fff"/><path d="M271.4,71v-1.5h.19V71Z" transform="translate(0 1.42)" style="fill:#fff"/><path d="M271.94,71v-1.5h.21l.78,1.18V69.46h.19V71h-.2l-.79-1.17V71Z" transform="translate(0 1.42)" style="fill:#fff"/><path d="M274.16,70.38V70.2h.63v.55a.92.92,0,0,1-.3.18.87.87,0,0,1-.32.06.79.79,0,0,1-.4-.1.59.59,0,0,1-.27-.27.87.87,0,0,1-.09-.4,1,1,0,0,1,.09-.41.64.64,0,0,1,.26-.28.87.87,0,0,1,.4-.09.88.88,0,0,1,.29,0,.57.57,0,0,1,.21.15.53.53,0,0,1,.11.24l-.18.05a.75.75,0,0,0-.08-.18.3.3,0,0,0-.14-.1.52.52,0,0,0-.21,0,.61.61,0,0,0-.24,0,.46.46,0,0,0-.16.11.38.38,0,0,0-.09.15.73.73,0,0,0-.06.3.67.67,0,0,0,.07.33.43.43,0,0,0,.2.2.55.55,0,0,0,.28.07.7.7,0,0,0,.25,0,.48.48,0,0,0,.19-.11v-.27Z" transform="translate(0 1.42)" style="fill:#fff"/><path d="M275.67,71v-1.5h1.09v.18h-.89v.46h.83v.18h-.83v.51h.92V71Z" transform="translate(0 1.42)" style="fill:#fff"/><path d="M277.06,71v-1.5h.2v1.33H278V71Z" transform="translate(0 1.42)" style="fill:#fff"/><path d="M278.26,71v-1.5h.2V71Z" transform="translate(0 1.42)" style="fill:#fff"/><path d="M279.19,71V69.64h-.49v-.18h1.19v.18h-.5V71Z" transform="translate(0 1.42)" style="fill:#fff"/><path d="M279.88,71v-.21h.21V71a.36.36,0,0,1,0,.19.24.24,0,0,1-.13.11l-.05-.08a.22.22,0,0,0,.09-.07.31.31,0,0,0,0-.15Z" transform="translate(0 1.42)" style="fill:#fff"/><path d="M281,70.48l.18,0a.36.36,0,0,0,.07.19.31.31,0,0,0,.15.12.53.53,0,0,0,.23,0,.64.64,0,0,0,.2,0,.45.45,0,0,0,.13-.1.28.28,0,0,0,0-.12.2.2,0,0,0,0-.13.42.42,0,0,0-.14-.09l-.26-.07a1.11,1.11,0,0,1-.29-.09.45.45,0,0,1-.16-.14.33.33,0,0,1-.06-.19.44.44,0,0,1,.07-.21.32.32,0,0,1,.19-.15.76.76,0,0,1,.27,0,.84.84,0,0,1,.29,0,.41.41,0,0,1,.2.16.4.4,0,0,1,.07.24h-.19a.28.28,0,0,0-.1-.21.4.4,0,0,0-.26-.08.37.37,0,0,0-.26.07.18.18,0,0,0-.08.16.15.15,0,0,0,.05.13.78.78,0,0,0,.3.11,2.23,2.23,0,0,1,.33.09.41.41,0,0,1,.2.16.37.37,0,0,1,.06.21.36.36,0,0,1-.07.22.38.38,0,0,1-.2.17.64.64,0,0,1-.28.06.91.91,0,0,1-.35-.06.46.46,0,0,1-.21-.18A.5.5,0,0,1,281,70.48Z" transform="translate(0 1.42)" style="fill:#fff"/><path d="M282.43,71v-1.5h1.08v.18h-.89v.46h.83v.18h-.83v.51h.92V71Z" transform="translate(0 1.42)" style="fill:#fff"/><path d="M283.82,71v-1.5h.51a.91.91,0,0,1,.27,0,.41.41,0,0,1,.22.1.68.68,0,0,1,.18.26,1,1,0,0,1,.06.36,1.36,1.36,0,0,1,0,.3.9.9,0,0,1-.1.22.83.83,0,0,1-.14.13.49.49,0,0,1-.18.08l-.24,0Zm.2-.17h.32a.71.71,0,0,0,.23,0,.32.32,0,0,0,.13-.08.4.4,0,0,0,.11-.19.81.81,0,0,0,0-.29.72.72,0,0,0-.07-.36.5.5,0,0,0-.19-.17.79.79,0,0,0-.26,0H284Z" transform="translate(0 1.42)" style="fill:#fff"/><path d="M285.91,71v-1.5h.52a.91.91,0,0,1,.27,0,.44.44,0,0,1,.22.1.65.65,0,0,1,.17.26,1,1,0,0,1,.06.36,1,1,0,0,1,0,.3.64.64,0,0,1-.1.22.57.57,0,0,1-.14.13.38.38,0,0,1-.17.08l-.25,0Zm.2-.17h.32a.67.67,0,0,0,.23,0,.37.37,0,0,0,.14-.08.5.5,0,0,0,.11-.19.81.81,0,0,0,0-.29.71.71,0,0,0-.08-.36.39.39,0,0,0-.19-.17.77.77,0,0,0-.25,0h-.32Z" transform="translate(0 1.42)" style="fill:#fff"/><path d="M287.37,70.23a.77.77,0,0,1,.2-.58.66.66,0,0,1,.51-.21.7.7,0,0,1,.38.1.6.6,0,0,1,.25.27.9.9,0,0,1,.09.4.88.88,0,0,1-.09.41.7.7,0,0,1-.26.28.81.81,0,0,1-.37.09.83.83,0,0,1-.38-.1.75.75,0,0,1-.25-.28A.84.84,0,0,1,287.37,70.23Zm.2,0a.57.57,0,0,0,.15.42.45.45,0,0,0,.36.16.47.47,0,0,0,.37-.16.61.61,0,0,0,.14-.45.83.83,0,0,0-.06-.32.46.46,0,0,0-.18-.21.5.5,0,0,0-.27-.07.52.52,0,0,0-.36.14A.67.67,0,0,0,287.57,70.24Z" transform="translate(0 1.42)" style="fill:#fff"/><path d="M212.86,75.15v-1.5h1.08v.18h-.88v.46h.83v.17h-.83V75H214v.18Z" transform="translate(0 1.42)" style="fill:#fff"/><path d="M214.29,75.15v-1.5h.19v1.5Z" transform="translate(0 1.42)" style="fill:#fff"/><path d="M215.82,73.65h.2v.87a.9.9,0,0,1-.06.36.37.37,0,0,1-.18.21.63.63,0,0,1-.35.09.72.72,0,0,1-.35-.08.39.39,0,0,1-.19-.21,1.18,1.18,0,0,1,0-.37v-.87h.2v.87a1.07,1.07,0,0,0,0,.29.35.35,0,0,0,.13.14.43.43,0,0,0,.21,0,.42.42,0,0,0,.31-.1.53.53,0,0,0,.1-.38Z" transform="translate(0 1.42)" style="fill:#fff"/><path d="M216.28,74.67l.19,0a.36.36,0,0,0,.06.19.3.3,0,0,0,.15.11.56.56,0,0,0,.23,0,.45.45,0,0,0,.2,0,.25.25,0,0,0,.13-.09.2.2,0,0,0,0-.13.19.19,0,0,0,0-.12.48.48,0,0,0-.13-.09l-.27-.07a1.11,1.11,0,0,1-.29-.09.45.45,0,0,1-.16-.14.32.32,0,0,1,0-.19.37.37,0,0,1,.06-.21.36.36,0,0,1,.19-.15.59.59,0,0,1,.27-.05.73.73,0,0,1,.3.05.43.43,0,0,1,.19.16.49.49,0,0,1,.08.23l-.19,0a.31.31,0,0,0-.11-.22.45.45,0,0,0-.26-.07.37.37,0,0,0-.26.07.17.17,0,0,0-.08.16.18.18,0,0,0,.06.13.8.8,0,0,0,.29.11,1.4,1.4,0,0,1,.34.09.49.49,0,0,1,.19.15.43.43,0,0,1,.06.22.36.36,0,0,1-.07.22.45.45,0,0,1-.19.17.72.72,0,0,1-.29.06.83.83,0,0,1-.34-.06.49.49,0,0,1-.22-.18A.5.5,0,0,1,216.28,74.67Z" transform="translate(0 1.42)" style="fill:#fff"/><path d="M217.74,75.15v-1.5h.3l.35,1.06c0,.1.06.18.07.23l.08-.24.36-1h.27v1.5H219V73.9l-.44,1.25h-.18l-.43-1.27v1.27Z" transform="translate(0 1.42)" style="fill:#fff"/><path d="M219.43,74.42a.82.82,0,0,1,.2-.58.67.67,0,0,1,.52-.21.75.75,0,0,1,.37.09.62.62,0,0,1,.25.28.87.87,0,0,1,.09.4.88.88,0,0,1-.09.41.62.62,0,0,1-.26.27.65.65,0,0,1-.36.1.75.75,0,0,1-.64-.38A1,1,0,0,1,219.43,74.42Zm.2,0a.59.59,0,0,0,.15.43.46.46,0,0,0,.36.16.46.46,0,0,0,.37-.16.61.61,0,0,0,.15-.45.79.79,0,0,0-.06-.32.55.55,0,0,0-.19-.21.46.46,0,0,0-.26-.07.48.48,0,0,0-.36.14A.62.62,0,0,0,219.63,74.42Z" transform="translate(0 1.42)" style="fill:#fff"/><path d="M221.12,75.15v-1.5h.51l.27,0a.51.51,0,0,1,.22.11.61.61,0,0,1,.18.26,1,1,0,0,1,.06.35,1.37,1.37,0,0,1,0,.31.76.76,0,0,1-.11.22.53.53,0,0,1-.13.13.75.75,0,0,1-.18.08l-.24,0Zm.2-.18h.32l.23,0a.41.41,0,0,0,.13-.08.4.4,0,0,0,.11-.19.85.85,0,0,0,0-.29.7.7,0,0,0-.07-.36.43.43,0,0,0-.19-.17.84.84,0,0,0-.26,0h-.31Z" transform="translate(0 1.42)" style="fill:#fff"/><path d="M223.56,75.15V73.83h-.5v-.18h1.19v.18h-.5v1.32Z" transform="translate(0 1.42)" style="fill:#fff"/><path d="M224.46,75.15v-1.5h1.08v.18h-.88v.46h.83v.17h-.83V75h.92v.18Z" transform="translate(0 1.42)" style="fill:#fff"/><path d="M225.84,75.15v-1.5h.3l.36,1.06c0,.1.05.18.07.23s0-.14.08-.24l.36-1h.27v1.5h-.2V73.9l-.43,1.25h-.18L226,73.88v1.27Z" transform="translate(0 1.42)" style="fill:#fff"/><path d="M227.6,75.15v-1.5h.56l.23,0a.4.4,0,0,1,.19.07.58.58,0,0,1,.12.14.46.46,0,0,1,0,.21.47.47,0,0,1-.12.32.58.58,0,0,1-.44.13h-.39v.61Zm.19-.78h.39a.43.43,0,0,0,.28-.08.25.25,0,0,0,.08-.2.25.25,0,0,0-.18-.25h-.57Z" transform="translate(0 1.42)" style="fill:#fff"/><path d="M228.93,74.42a.82.82,0,0,1,.2-.58.7.7,0,0,1,.52-.21.82.82,0,0,1,.38.09.68.68,0,0,1,.25.28.87.87,0,0,1,.09.4.88.88,0,0,1-.09.41.64.64,0,0,1-.27.27.65.65,0,0,1-.36.1.7.7,0,0,1-.38-.11.65.65,0,0,1-.25-.27A.85.85,0,0,1,228.93,74.42Zm.21,0a.63.63,0,0,0,.14.43.51.51,0,0,0,.74,0,.65.65,0,0,0,.14-.45.79.79,0,0,0-.06-.32.46.46,0,0,0-.18-.21.5.5,0,0,0-.27-.07.48.48,0,0,0-.36.14A.66.66,0,0,0,229.14,74.42Z" transform="translate(0 1.42)" style="fill:#fff"/><path d="M230.63,75.15v-1.5h.66a1,1,0,0,1,.3,0,.39.39,0,0,1,.17.14.46.46,0,0,1,.06.23.36.36,0,0,1-.1.27.53.53,0,0,1-.32.14l.12.07a1.77,1.77,0,0,1,.17.2l.26.41h-.25l-.2-.31-.14-.21a.33.33,0,0,0-.11-.1.19.19,0,0,0-.09,0h-.34v.66Zm.19-.84h.43l.21,0a.27.27,0,0,0,.12-.09.25.25,0,0,0,0-.14.21.21,0,0,0-.08-.17.33.33,0,0,0-.24-.07h-.48Z" transform="translate(0 1.42)" style="fill:#fff"/><path d="M232.75,75.15v-1.5h.2v1.5Z" transform="translate(0 1.42)" style="fill:#fff"/><path d="M233.3,75.15v-1.5h.2l.79,1.18V73.65h.19v1.5h-.2L233.49,74v1.18Z" transform="translate(0 1.42)" style="fill:#fff"/><path d="M235.88,74.63l.2.05a.72.72,0,0,1-.22.37.66.66,0,0,1-.4.13.75.75,0,0,1-.39-.1.63.63,0,0,1-.24-.29,1.06,1.06,0,0,1-.08-.4.88.88,0,0,1,.09-.41.65.65,0,0,1,.26-.26.74.74,0,0,1,.36-.09.66.66,0,0,1,.38.11.6.6,0,0,1,.21.32l-.19,0a.55.55,0,0,0-.15-.24.41.41,0,0,0-.25-.07.45.45,0,0,0-.29.08.4.4,0,0,0-.16.22.71.71,0,0,0,0,.29,1,1,0,0,0,0,.33.44.44,0,0,0,.18.22.55.55,0,0,0,.25.07.43.43,0,0,0,.29-.1A.54.54,0,0,0,235.88,74.63Z" transform="translate(0 1.42)" style="fill:#fff"/><path d="M236.36,75.15v-1.5h.2v1.5Z" transform="translate(0 1.42)" style="fill:#fff"/><path d="M236.91,75.15v-1.5h.51l.27,0a.51.51,0,0,1,.22.11.61.61,0,0,1,.18.26,1,1,0,0,1,.06.35,1.37,1.37,0,0,1,0,.31.76.76,0,0,1-.11.22.53.53,0,0,1-.13.13.75.75,0,0,1-.18.08l-.24,0Zm.2-.18h.31l.24,0a.41.41,0,0,0,.13-.08.4.4,0,0,0,.11-.19.85.85,0,0,0,0-.29.6.6,0,0,0-.08-.36.36.36,0,0,0-.18-.17.84.84,0,0,0-.26,0h-.31Z" transform="translate(0 1.42)" style="fill:#fff"/><path d="M238.45,75.15v-1.5h.2v1.5Z" transform="translate(0 1.42)" style="fill:#fff"/><path d="M239,75.15v-1.5h.52l.27,0a.53.53,0,0,1,.21.11.61.61,0,0,1,.18.26,1,1,0,0,1,.06.35,1,1,0,0,1,0,.31,1.12,1.12,0,0,1-.1.22.57.57,0,0,1-.14.13.75.75,0,0,1-.18.08l-.24,0Zm.2-.18h.32l.23,0a.47.47,0,0,0,.14-.08.68.68,0,0,0,.11-.19,1.19,1.19,0,0,0,0-.29A.69.69,0,0,0,240,74a.38.38,0,0,0-.19-.17.79.79,0,0,0-.26,0h-.31Z" transform="translate(0 1.42)" style="fill:#fff"/><path d="M241.5,73.65h.2v.87a1.15,1.15,0,0,1,0,.36.43.43,0,0,1-.19.21.63.63,0,0,1-.35.09.68.68,0,0,1-.34-.08.38.38,0,0,1-.2-.21,1.18,1.18,0,0,1,0-.37v-.87h.2v.87a1.07,1.07,0,0,0,0,.29.35.35,0,0,0,.13.14.46.46,0,0,0,.21,0,.47.47,0,0,0,.32-.1.59.59,0,0,0,.09-.38Z" transform="translate(0 1.42)" style="fill:#fff"/><path d="M242,75.15v-1.5h.21l.79,1.18V73.65h.19v1.5H243L242.21,74v1.18Z" transform="translate(0 1.42)" style="fill:#fff"/><path d="M243.92,75.15V73.83h-.49v-.18h1.19v.18h-.5v1.32Z" transform="translate(0 1.42)" style="fill:#fff"/><path d="M246.35,73.65h.2v.87a1.15,1.15,0,0,1-.05.36.43.43,0,0,1-.19.21.63.63,0,0,1-.35.09.68.68,0,0,1-.34-.08.38.38,0,0,1-.2-.21,1.18,1.18,0,0,1,0-.37v-.87h.2v.87a1.07,1.07,0,0,0,0,.29.35.35,0,0,0,.13.14.46.46,0,0,0,.21,0,.42.42,0,0,0,.31-.1.53.53,0,0,0,.1-.38Z" transform="translate(0 1.42)" style="fill:#fff"/><path d="M247.26,75.15V73.83h-.5v-.18H248v.18h-.49v1.32Z" transform="translate(0 1.42)" style="fill:#fff"/><path d="M248.69,75.15v-1.5h.2V75h.74v.18Z" transform="translate(0 1.42)" style="fill:#fff"/><path d="M249.7,75.15l.58-1.5h.21l.61,1.5h-.22l-.18-.45h-.62l-.17.45Zm.43-.61h.51l-.16-.42c0-.13-.08-.23-.1-.31,0,.1,0,.19-.08.29Z" transform="translate(0 1.42)" style="fill:#fff"/><path d="M251.25,75.15v-1.5h.57a.68.68,0,0,1,.27,0,.28.28,0,0,1,.16.14.36.36,0,0,1,.06.2.31.31,0,0,1-.05.18.35.35,0,0,1-.16.13.46.46,0,0,1,.21.14.36.36,0,0,1,.08.23.41.41,0,0,1,0,.19.31.31,0,0,1-.11.14.6.6,0,0,1-.16.08l-.24,0Zm.2-.87h.33a.5.5,0,0,0,.19,0,.21.21,0,0,0,.11-.07.18.18,0,0,0,0-.13.2.2,0,0,0,0-.13.16.16,0,0,0-.1-.08l-.23,0h-.3Zm0,.69H252l.12,0a.22.22,0,0,0,.07-.09.24.24,0,0,0,0-.12.24.24,0,0,0,0-.15.27.27,0,0,0-.12-.09l-.22,0h-.35Z" transform="translate(0 1.42)" style="fill:#fff"/><path d="M252.6,74.42a.82.82,0,0,1,.2-.58.69.69,0,0,1,.52-.21.75.75,0,0,1,.37.09A.7.7,0,0,1,254,74a1,1,0,0,1,.08.4.88.88,0,0,1-.09.41.62.62,0,0,1-.26.27.65.65,0,0,1-.36.1.68.68,0,0,1-.38-.11.59.59,0,0,1-.25-.27A.85.85,0,0,1,252.6,74.42Zm.2,0a.59.59,0,0,0,.15.43.47.47,0,0,0,.37.16.45.45,0,0,0,.36-.16.61.61,0,0,0,.15-.45.79.79,0,0,0-.06-.32.53.53,0,0,0-.18-.21.5.5,0,0,0-.27-.07.48.48,0,0,0-.36.14A.62.62,0,0,0,252.8,74.42Z" transform="translate(0 1.42)" style="fill:#fff"/><path d="M254.29,75.15v-1.5H255a1.08,1.08,0,0,1,.3,0,.39.39,0,0,1,.17.14.46.46,0,0,1,.06.23.36.36,0,0,1-.1.27.56.56,0,0,1-.32.14l.12.07a1.08,1.08,0,0,1,.16.2l.26.41h-.25l-.2-.31a1.51,1.51,0,0,0-.14-.21l-.1-.1-.09,0h-.34v.66Zm.2-.84h.43l.21,0a.27.27,0,0,0,.12-.09.37.37,0,0,0,0-.14.21.21,0,0,0-.08-.17.34.34,0,0,0-.25-.07h-.47Z" transform="translate(0 1.42)" style="fill:#fff"/><path d="M255.81,75.15v-1.5h1.08v.18H256v.46h.83v.17H256V75h.92v.18Z" transform="translate(0 1.42)" style="fill:#fff"/><path d="M257.79,75.15v-1.5h1.08v.18H258v.46h.83v.17H258V75h.92v.18Z" transform="translate(0 1.42)" style="fill:#fff"/><path d="M259.56,75.15V73.83h-.49v-.18h1.18v.18h-.49v1.32Z" transform="translate(0 1.42)" style="fill:#fff"/><path d="M261,75.15v-1.5h.52l.27,0a.53.53,0,0,1,.21.11.61.61,0,0,1,.18.26,1,1,0,0,1,.06.35,1,1,0,0,1,0,.31,1.12,1.12,0,0,1-.1.22.57.57,0,0,1-.14.13.75.75,0,0,1-.18.08l-.24,0Zm.2-.18h.32l.23,0a.47.47,0,0,0,.14-.08.68.68,0,0,0,.11-.19,1.19,1.19,0,0,0,0-.29A.69.69,0,0,0,262,74a.38.38,0,0,0-.19-.17.79.79,0,0,0-.26,0h-.31Z" transform="translate(0 1.42)" style="fill:#fff"/><path d="M262.45,74.42a.82.82,0,0,1,.2-.58.7.7,0,0,1,.52-.21.82.82,0,0,1,.38.09.68.68,0,0,1,.25.28.87.87,0,0,1,.09.4.88.88,0,0,1-.09.41.68.68,0,0,1-.26.27.72.72,0,0,1-.75,0,.65.65,0,0,1-.25-.27A.85.85,0,0,1,262.45,74.42Zm.21,0a.63.63,0,0,0,.14.43.51.51,0,0,0,.74,0,.65.65,0,0,0,.14-.45.79.79,0,0,0-.06-.32.46.46,0,0,0-.18-.21.5.5,0,0,0-.27-.07.48.48,0,0,0-.36.14A.66.66,0,0,0,262.66,74.42Z" transform="translate(0 1.42)" style="fill:#fff"/><path d="M264.13,75.15v-1.5h.2V75h.74v.18Z" transform="translate(0 1.42)" style="fill:#fff"/><path d="M265.25,74.42a.77.77,0,0,1,.2-.58.67.67,0,0,1,.52-.21.78.78,0,0,1,.37.09.62.62,0,0,1,.25.28.87.87,0,0,1,.09.4.88.88,0,0,1-.09.41.62.62,0,0,1-.26.27.69.69,0,0,1-.37.1.75.75,0,0,1-.63-.38A1,1,0,0,1,265.25,74.42Zm.2,0a.59.59,0,0,0,.15.43A.46.46,0,0,0,266,75a.46.46,0,0,0,.37-.16.61.61,0,0,0,.15-.45.66.66,0,0,0-.07-.32.46.46,0,0,0-.44-.28.52.52,0,0,0-.37.14A.66.66,0,0,0,265.45,74.42Z" transform="translate(0 1.42)" style="fill:#fff"/><path d="M266.94,75.15v-1.5h.66a1.11,1.11,0,0,1,.31,0,.46.46,0,0,1,.17.14.46.46,0,0,1,.06.23.41.41,0,0,1-.1.27.56.56,0,0,1-.32.14l.12.07a1.75,1.75,0,0,1,.16.2l.26.41H268l-.2-.31a1.51,1.51,0,0,0-.14-.21.46.46,0,0,0-.1-.1l-.09,0h-.34v.66Zm.2-.84h.42l.22,0a.2.2,0,0,0,.11-.09.25.25,0,0,0,0-.14.21.21,0,0,0-.07-.17.36.36,0,0,0-.25-.07h-.47Z" transform="translate(0 1.42)" style="fill:#fff"/><path d="M268.45,75.15v-1.5h1.09v.18h-.89v.46h.83v.17h-.83V75h.92v.18Z" transform="translate(0 1.42)" style="fill:#fff"/><path d="M270.42,75.15v-1.5h.3l.36,1.06c0,.1.05.18.07.23a1.33,1.33,0,0,1,.08-.24l.36-1h.26v1.5h-.19V73.9l-.43,1.25h-.18l-.44-1.27v1.27Z" transform="translate(0 1.42)" style="fill:#fff"/><path d="M272,75.15l.57-1.5h.22l.61,1.5h-.22L273,74.7h-.63l-.16.45Zm.43-.61H273l-.16-.42c0-.13-.08-.23-.1-.31,0,.1-.05.19-.08.29Z" transform="translate(0 1.42)" style="fill:#fff"/><path d="M274.27,74.56v-.17h.64v.55a1.19,1.19,0,0,1-.3.18.91.91,0,0,1-.32.06.77.77,0,0,1-.4-.1.61.61,0,0,1-.28-.27.87.87,0,0,1-.09-.4,1,1,0,0,1,.09-.41.57.57,0,0,1,.27-.28.8.8,0,0,1,.39-.09.73.73,0,0,1,.3.05.43.43,0,0,1,.2.15.67.67,0,0,1,.12.24l-.18.05a.5.5,0,0,0-.09-.18.3.3,0,0,0-.14-.1.46.46,0,0,0-.21,0,.53.53,0,0,0-.23,0,.38.38,0,0,0-.16.11.71.71,0,0,0-.1.14,1.06,1.06,0,0,0,0,.31.81.81,0,0,0,.06.33.45.45,0,0,0,.21.2.53.53,0,0,0,.28.07.74.74,0,0,0,.25,0,.5.5,0,0,0,.18-.11v-.28Z" transform="translate(0 1.42)" style="fill:#fff"/><path d="M275.2,75.15v-1.5h.2l.79,1.18V73.65h.19v1.5h-.2L275.39,74v1.18Z" transform="translate(0 1.42)" style="fill:#fff"/><path d="M276.55,75.15l.57-1.5h.22l.61,1.5h-.22l-.18-.45h-.63l-.16.45Zm.43-.61h.51l-.16-.42c0-.13-.08-.23-.1-.31,0,.1-.05.19-.08.29Z" transform="translate(0 1.42)" style="fill:#fff"/><path d="M278.3,75.15l.57-1.5h.22l.61,1.5h-.23l-.17-.45h-.63l-.16.45Zm.43-.61h.51l-.16-.42c-.05-.13-.08-.23-.11-.31a1,1,0,0,1-.08.29Z" transform="translate(0 1.42)" style="fill:#fff"/><path d="M279.85,75.15v-1.5h.2V75h.74v.18Z" transform="translate(0 1.42)" style="fill:#fff"/><path d="M281.06,75.15v-1.5h.2v1.5Z" transform="translate(0 1.42)" style="fill:#fff"/><path d="M282.74,75a1.34,1.34,0,0,0,.26.14l-.06.14a1,1,0,0,1-.32-.19.71.71,0,0,1-.37.1.76.76,0,0,1-.37-.1.7.7,0,0,1-.26-.28.93.93,0,0,1,0-.8.64.64,0,0,1,.26-.28.78.78,0,0,1,.37-.09.79.79,0,0,1,.38.09.68.68,0,0,1,.25.28.87.87,0,0,1,.09.4.88.88,0,0,1-.06.33A.65.65,0,0,1,282.74,75Zm-.43-.25a.82.82,0,0,1,.28.14.61.61,0,0,0,.17-.48.79.79,0,0,0-.06-.32.46.46,0,0,0-.18-.21.5.5,0,0,0-.27-.07.51.51,0,0,0-.37.15.79.79,0,0,0,0,.9.47.47,0,0,0,.37.16.65.65,0,0,0,.2,0,.66.66,0,0,0-.19-.09Z" transform="translate(0 1.42)" style="fill:#fff"/><path d="M284.22,73.65h.2v.87a1.15,1.15,0,0,1-.05.36.43.43,0,0,1-.19.21.61.61,0,0,1-.35.09.68.68,0,0,1-.34-.08.38.38,0,0,1-.2-.21,1.18,1.18,0,0,1-.05-.37v-.87h.2v.87a1.07,1.07,0,0,0,0,.29.35.35,0,0,0,.13.14.46.46,0,0,0,.21,0,.47.47,0,0,0,.32-.1.59.59,0,0,0,.09-.38Z" transform="translate(0 1.42)" style="fill:#fff"/><path d="M284.58,75.15l.58-1.5h.21l.62,1.5h-.23l-.18-.45H285l-.17.45Zm.44-.61h.5l-.15-.42a3.07,3.07,0,0,1-.11-.31c0,.1-.05.19-.08.29Z" transform="translate(0 1.42)" style="fill:#fff"/><path d="M286.17,75.15v-.21h.21v.21Z" transform="translate(0 1.42)" style="fill:#fff"/><g style="opacity:0.8"><polygon points="287.1 50.73 289.93 53.65 287.18 56.01 288.7 57.77 293 53.74 288.77 49.12 287.1 50.73" style="fill:#fff"/><polygon points="136.06 50.88 134.54 49.12 130.23 53.15 134.46 57.77 136.13 56.16 133.31 53.24 136.06 50.88" style="fill:#fff"/></g><rect x="173.92" y="70.24" width="10.4" height="5.92" style="fill:#dbdcd9"/><path d="M203.63,34.34H153.28a2.42,2.42,0,0,0-2.42,2.43V64.65A4.17,4.17,0,0,0,155,68.82h46.86a4.17,4.17,0,0,0,4.16-4.17V36.77A2.42,2.42,0,0,0,203.63,34.34Zm0,29.59H153.28V36.77h50.35Z" transform="translate(0 1.42)" style="fill:#1e4a62"/><rect x="169.74" y="75.8" width="18.7" height="1.66" style="fill:#fff"/><rect x="153.28" y="38.19" width="50.34" height="27.16" style="fill:url(#Áåçûìÿííûé_ãðàäèåíò_15)"/><rect x="100.06" y="83.46" width="222.77" height="19.31" style="fill:#1e4a62"/><path d="M233.16,114.8A13.19,13.19,0,1,0,246.35,128,13.21,13.21,0,0,0,233.16,114.8Zm0,25.77A12.58,12.58,0,1,1,245.73,128,12.59,12.59,0,0,1,233.16,140.57Z" transform="translate(0 1.42)" style="fill:#2c7fea"/><path d="M190,117.48A10.52,10.52,0,1,0,200.47,128,10.53,10.53,0,0,0,190,117.48Z" transform="translate(0 1.42)" style="fill:#1e4a62"/><path d="M233.16,117.48A10.52,10.52,0,1,0,243.67,128,10.52,10.52,0,0,0,233.16,117.48Z" transform="translate(0 1.42)" style="fill:#2c7fea"/><path d="M276.33,117.48A10.52,10.52,0,1,0,286.84,128,10.53,10.53,0,0,0,276.33,117.48Z" transform="translate(0 1.42)" style="fill:#1e4a62"/><path d="M147.32,117.48A10.52,10.52,0,1,0,157.83,128,10.53,10.53,0,0,0,147.32,117.48Z" transform="translate(0 1.42)" style="fill:#1e4a62"/><rect x="256.95" y="315.2" width="38.91" height="31" style="fill:#fff"/><rect x="170.68" y="315.2" width="38.91" height="31" style="fill:#fff"/><rect x="127.03" y="315.2" width="38.91" height="31" style="fill:#fff"/><rect x="213.78" y="315.05" width="38.91" height="31" style="fill:#fff"/><rect x="213.78" y="315.05" width="38.91" height="31" style="fill:#1e4a62"/><path d="M233.24,325.89a3.23,3.23,0,1,0,3.22,3.23A3.23,3.23,0,0,0,233.24,325.89Zm0,6.11a2.89,2.89,0,1,1,2.88-2.88A2.88,2.88,0,0,1,233.24,332Z" transform="translate(0 1.42)" style="fill:#fff"/><path d="M233.24,327.09a2,2,0,1,0,2,2A2,2,0,0,0,233.24,327.09Zm.92,2.26h-.7V330H233v-.69h-.7v-.46h.7v-.69h.45v.69h.7Z" transform="translate(0 1.42)" style="fill:#fff"/><path d="M280.08,234.16a13,13,0,1,0,13,13.05A13.05,13.05,0,0,0,280.08,234.16Z" transform="translate(0 1.42)" style="fill:#2c7fea"/><path d="M286.28,246.52h0v0a.37.37,0,0,0-.39-.32,1.61,1.61,0,0,1-1.18-.48,2,2,0,0,1-.21-.35,1.39,1.39,0,0,1,.37-1.56.35.35,0,0,0,0-.48l0,0v0a3.71,3.71,0,0,0-.27-.29l-.21-.23-.16-.13-.36-.32,0,0,0,0a.37.37,0,0,0-.49,0,1.56,1.56,0,0,1-1.62.36,2.12,2.12,0,0,1-.36-.21,1.38,1.38,0,0,1-.48-1.13.35.35,0,0,0-.33-.37h-.08c-.22,0-.44,0-.67,0h0a6.28,6.28,0,0,0-.75,0,.34.34,0,0,0-.31.37,1.4,1.4,0,0,1-.89,1.37,1.53,1.53,0,0,1-1.62-.35.37.37,0,0,0-.5,0,6.2,6.2,0,0,0-1,1,.35.35,0,0,0,0,.48,1.38,1.38,0,0,1,.37,1.56,1.45,1.45,0,0,1-1.35.87.44.44,0,0,0-.43.31c0,.21,0,.41,0,.62h0v.17h0c0,.2,0,.41,0,.62a.45.45,0,0,0,.43.31,1.46,1.46,0,0,1,1.35.86,1.4,1.4,0,0,1-.37,1.57.34.34,0,0,0,0,.48,7.1,7.1,0,0,0,1,1,.37.37,0,0,0,.5,0,1.53,1.53,0,0,1,1.62-.36,1.42,1.42,0,0,1,.89,1.38.34.34,0,0,0,.31.37c.25,0,.5,0,.75,0h0c.23,0,.45,0,.67,0h.08a.36.36,0,0,0,.33-.37,1.38,1.38,0,0,1,.48-1.13,1.31,1.31,0,0,1,.36-.21,1.56,1.56,0,0,1,1.62.36.38.38,0,0,0,.49,0l0,0h0l.36-.32.16-.14.21-.22c.09-.1.19-.2.27-.3h0s0,0,0,0a.34.34,0,0,0,0-.48,1.41,1.41,0,0,1-.37-1.57,1.94,1.94,0,0,1,.21-.34,1.58,1.58,0,0,1,1.18-.49.36.36,0,0,0,.39-.31v-.11c0-.2,0-.42,0-.63s0-.42,0-.63Zm-6.5,3a2.29,2.29,0,1,1,2.37-2.29A2.34,2.34,0,0,1,279.78,249.51Z" transform="translate(0 1.42)" style="fill:#fff"/><path d="M211.59,234.16a13,13,0,1,0,13,13.05A13.05,13.05,0,0,0,211.59,234.16Z" transform="translate(0 1.42)" style="fill:#2c7fea"/><path d="M216.27,248.76a.78.78,0,0,0-.74-.52h-9.19a.77.77,0,0,0-.73.52l-.79,2.24a.75.75,0,0,0,.09.71.8.8,0,0,0,.65.34h10.76a.8.8,0,0,0,.64-.34.75.75,0,0,0,.1-.71Z" transform="translate(0 1.42)" style="fill:#fff"/><rect x="210.25" y="252.93" width="1.38" height="0.23" style="fill:#2c7fea"/><path d="M215.53,242.4h-9.19a.78.78,0,0,0-.78.79V249h10.76v-5.77A.79.79,0,0,0,215.53,242.4Zm-.19,5.67h-8.81v-4.78h8.81Z" transform="translate(0 1.42)" style="fill:#fff"/><path d="M143.1,234.16a13,13,0,1,0,13,13.05A13.06,13.06,0,0,0,143.1,234.16Z" transform="translate(0 1.42)" style="fill:#2c7fea"/><path d="M138.39,241.18h0a1.39,1.39,0,1,0-2,2h0l10.11,10.11,2.37.41-.4-2.38Z" transform="translate(0 1.42)" style="fill:#fff"/><path d="M216.82,184.94v-2.15h.28v1.9h1.06v.25Z" transform="translate(0 1.42)" style="fill:#fff"/><path d="M218.41,183.89a1.16,1.16,0,0,1,.29-.83,1,1,0,0,1,.74-.31,1,1,0,0,1,.54.15.91.91,0,0,1,.36.39,1.34,1.34,0,0,1,.13.58,1.21,1.21,0,0,1-.14.58.87.87,0,0,1-.37.39,1.07,1.07,0,0,1-.52.14,1,1,0,0,1-.54-.15,1,1,0,0,1-.37-.4A1.25,1.25,0,0,1,218.41,183.89Zm.29,0a.85.85,0,0,0,.21.61.69.69,0,0,0,.53.22.66.66,0,0,0,.52-.22.91.91,0,0,0,.21-.64,1.08,1.08,0,0,0-.09-.46.64.64,0,0,0-.26-.3.63.63,0,0,0-.38-.11.73.73,0,0,0-.52.21A.93.93,0,0,0,218.7,183.9Z" transform="translate(0 1.42)" style="fill:#fff"/><path d="M220.84,184.94v-2.15h.95a1.25,1.25,0,0,1,.44.06.5.5,0,0,1,.23.2.63.63,0,0,1,.09.33.56.56,0,0,1-.14.38.76.76,0,0,1-.46.2.83.83,0,0,1,.17.11,1.85,1.85,0,0,1,.24.29l.37.58h-.36l-.28-.45c-.09-.13-.15-.22-.21-.29a.69.69,0,0,0-.14-.15l-.13-.05h-.49v.95Zm.28-1.2h.61a.9.9,0,0,0,.31,0,.34.34,0,0,0,.16-.13.33.33,0,0,0,.06-.19.33.33,0,0,0-.11-.25.49.49,0,0,0-.35-.1h-.68Z" transform="translate(0 1.42)" style="fill:#fff"/><path d="M223,184.94v-2.15h1.56v.26h-1.27v.65h1.19V184h-1.19v.73h1.32v.25Z" transform="translate(0 1.42)" style="fill:#fff"/><path d="M225,184.94v-2.15h.43l.51,1.52c0,.14.08.25.1.32s.06-.19.11-.34l.52-1.5H227v2.15h-.27v-1.8l-.63,1.8h-.25l-.63-1.83v1.83Z" transform="translate(0 1.42)" style="fill:#fff"/><path d="M228.38,184.94v-2.15h.28v2.15Z" transform="translate(0 1.42)" style="fill:#fff"/><path d="M229.17,184.94v-2.15H230l.32,0a.66.66,0,0,1,.27.1.51.51,0,0,1,.17.21.73.73,0,0,1,.07.29.66.66,0,0,1-.18.47.88.88,0,0,1-.63.19h-.55v.87Zm.28-1.13H230a.6.6,0,0,0,.4-.1.38.38,0,0,0,.11-.29.35.35,0,0,0-.07-.23.3.3,0,0,0-.18-.13h-.81Z" transform="translate(0 1.42)" style="fill:#fff"/><path d="M231.07,184.25l.27,0a.54.54,0,0,0,.09.26.41.41,0,0,0,.21.17.88.88,0,0,0,.33.06.65.65,0,0,0,.29-.05.43.43,0,0,0,.19-.13.32.32,0,0,0,.06-.18.28.28,0,0,0-.06-.18.53.53,0,0,0-.2-.13l-.38-.1a1.56,1.56,0,0,1-.41-.14.51.51,0,0,1-.23-.2.45.45,0,0,1-.08-.26.52.52,0,0,1,.1-.31.61.61,0,0,1,.26-.21,1,1,0,0,1,.4-.07,1.09,1.09,0,0,1,.42.07.63.63,0,0,1,.28.23.76.76,0,0,1,.11.34l-.28,0a.4.4,0,0,0-.15-.31.56.56,0,0,0-.37-.1.64.64,0,0,0-.38.09.3.3,0,0,0-.11.23.22.22,0,0,0,.08.19,1.09,1.09,0,0,0,.43.15,2.3,2.3,0,0,1,.47.14.64.64,0,0,1,.28.22.53.53,0,0,1,.09.3.61.61,0,0,1-.38.56.91.91,0,0,1-.41.09,1.16,1.16,0,0,1-.49-.09.7.7,0,0,1-.31-.25A.69.69,0,0,1,231.07,184.25Z" transform="translate(0 1.42)" style="fill:#fff"/><path d="M234.58,182.79h.28V184a1.48,1.48,0,0,1-.07.52.67.67,0,0,1-.27.31.9.9,0,0,1-.5.12,1,1,0,0,1-.49-.11.63.63,0,0,1-.28-.3,1.54,1.54,0,0,1-.08-.54v-1.24h.29V184a1,1,0,0,0,0,.41.37.37,0,0,0,.18.21.57.57,0,0,0,.31.07.59.59,0,0,0,.44-.14.83.83,0,0,0,.14-.55Z" transform="translate(0 1.42)" style="fill:#fff"/><path d="M235.33,184.94v-2.15h.42l.51,1.52c.05.14.08.25.1.32l.12-.34.51-1.5h.38v2.15h-.27v-1.8l-.62,1.8h-.26l-.62-1.83v1.83Z" transform="translate(0 1.42)" style="fill:#fff"/><path d="M238.67,184.94v-2.15h.81l.32,0a.66.66,0,0,1,.27.1.51.51,0,0,1,.17.21.73.73,0,0,1,.07.29.66.66,0,0,1-.18.47.88.88,0,0,1-.63.19H239v.87Zm.28-1.13h.55a.6.6,0,0,0,.4-.1.38.38,0,0,0,.11-.29.35.35,0,0,0-.07-.23.3.3,0,0,0-.18-.13H239Z" transform="translate(0 1.42)" style="fill:#fff"/><path d="M240.21,184.94l.82-2.15h.31l.88,2.15h-.33l-.25-.65h-.89l-.24.65Zm.62-.88h.73l-.23-.6a4.64,4.64,0,0,1-.15-.44,3.17,3.17,0,0,1-.12.41Z" transform="translate(0 1.42)" style="fill:#fff"/><path d="M242.35,184.25l.27,0a.54.54,0,0,0,.09.26.41.41,0,0,0,.21.17.88.88,0,0,0,.33.06.65.65,0,0,0,.29-.05.35.35,0,0,0,.18-.13.32.32,0,0,0,.06-.18.35.35,0,0,0-.05-.18.53.53,0,0,0-.2-.13l-.38-.1a1.43,1.43,0,0,1-.41-.14.51.51,0,0,1-.23-.2.45.45,0,0,1-.08-.26.54.54,0,0,1,.36-.52,1,1,0,0,1,.4-.07,1.09,1.09,0,0,1,.42.07.63.63,0,0,1,.28.23.65.65,0,0,1,.1.34l-.27,0a.4.4,0,0,0-.15-.31.56.56,0,0,0-.37-.1.64.64,0,0,0-.38.09.28.28,0,0,0-.12.23.23.23,0,0,0,.09.19,1.09,1.09,0,0,0,.43.15,2.3,2.3,0,0,1,.47.14.64.64,0,0,1,.28.22.53.53,0,0,1,.09.3.58.58,0,0,1-.1.33.63.63,0,0,1-.28.23.93.93,0,0,1-.42.09,1.14,1.14,0,0,1-.48-.09.65.65,0,0,1-.31-.25A.69.69,0,0,1,242.35,184.25Z" transform="translate(0 1.42)" style="fill:#fff"/><path d="M244.35,184.25l.27,0a.54.54,0,0,0,.09.26.41.41,0,0,0,.21.17.88.88,0,0,0,.33.06.65.65,0,0,0,.29-.05.35.35,0,0,0,.18-.13.34.34,0,0,0,.07-.18.28.28,0,0,0-.06-.18.53.53,0,0,0-.2-.13l-.38-.1a1.56,1.56,0,0,1-.41-.14.51.51,0,0,1-.23-.2.45.45,0,0,1-.08-.26.54.54,0,0,1,.36-.52,1,1,0,0,1,.4-.07,1.09,1.09,0,0,1,.42.07.63.63,0,0,1,.28.23.76.76,0,0,1,.11.34l-.28,0a.4.4,0,0,0-.15-.31.56.56,0,0,0-.37-.1.64.64,0,0,0-.38.09.3.3,0,0,0-.11.23.22.22,0,0,0,.08.19,1.09,1.09,0,0,0,.43.15,2.3,2.3,0,0,1,.47.14.64.64,0,0,1,.28.22.53.53,0,0,1,.09.3.61.61,0,0,1-.38.56.93.93,0,0,1-.42.09,1.14,1.14,0,0,1-.48-.09.7.7,0,0,1-.31-.25A.69.69,0,0,1,244.35,184.25Z" transform="translate(0 1.42)" style="fill:#fff"/><path d="M246.21,184.94l.83-2.15h.3l.88,2.15h-.32l-.25-.65h-.9l-.24.65Zm.62-.88h.73l-.23-.6-.15-.44a2.08,2.08,0,0,1-.11.41Z" transform="translate(0 1.42)" style="fill:#fff"/><path d="M249.45,184.1v-.25h.91v.8a1.46,1.46,0,0,1-.43.25,1.22,1.22,0,0,1-.46.09,1.2,1.2,0,0,1-.57-.14.92.92,0,0,1-.39-.39,1.2,1.2,0,0,1-.13-.57,1.31,1.31,0,0,1,.13-.59.8.8,0,0,1,.37-.4,1.2,1.2,0,0,1,.57-.13,1.09,1.09,0,0,1,.42.07.68.68,0,0,1,.3.21,1,1,0,0,1,.16.35l-.26.07a.65.65,0,0,0-.12-.25.41.41,0,0,0-.2-.16.94.94,0,0,0-.3-.05.81.81,0,0,0-.33.06.66.66,0,0,0-.23.15.74.74,0,0,0-.14.22,1.18,1.18,0,0,0-.08.43,1,1,0,0,0,.1.48.63.63,0,0,0,.29.29.9.9,0,0,0,.4.09.92.92,0,0,0,.36-.07,1.19,1.19,0,0,0,.26-.15v-.4Z" transform="translate(0 1.42)" style="fill:#fff"/><path d="M250.79,184.94v-2.15h1.55v.26h-1.27v.65h1.19V184h-1.19v.73h1.32v.25Z" transform="translate(0 1.42)" style="fill:#fff"/><path d="M252.69,184.25l.26,0a.88.88,0,0,0,.09.26.48.48,0,0,0,.22.17.88.88,0,0,0,.33.06.61.61,0,0,0,.28-.05.34.34,0,0,0,.19-.13.32.32,0,0,0,.06-.18.28.28,0,0,0-.06-.18.48.48,0,0,0-.19-.13l-.38-.1a1.67,1.67,0,0,1-.42-.14.57.57,0,0,1-.23-.2.44.44,0,0,1-.07-.26.54.54,0,0,1,.36-.52,1,1,0,0,1,.39-.07,1.09,1.09,0,0,1,.42.07.61.61,0,0,1,.29.23.65.65,0,0,1,.1.34l-.27,0a.48.48,0,0,0-.15-.31.56.56,0,0,0-.37-.1.62.62,0,0,0-.38.09.28.28,0,0,0-.12.23.26.26,0,0,0,.08.19,1.16,1.16,0,0,0,.43.15,2.7,2.7,0,0,1,.48.14.71.71,0,0,1,.28.22.53.53,0,0,1,.09.3.67.67,0,0,1-.1.33.61.61,0,0,1-.29.23.91.91,0,0,1-.41.09,1.19,1.19,0,0,1-.49-.09.66.66,0,0,1-.42-.64Z" transform="translate(0 1.42)" style="fill:#fff"/><path d="M254.82,184.94v-.3h.3v.3a.54.54,0,0,1-.06.27.37.37,0,0,1-.19.15l-.07-.11a.19.19,0,0,0,.12-.11.44.44,0,0,0,.05-.2Z" transform="translate(0 1.42)" style="fill:#fff"/><path d="M256.05,184.94l.82-2.15h.31l.88,2.15h-.32l-.25-.65h-.9l-.24.65Zm.62-.88h.73l-.23-.6A4.64,4.64,0,0,1,257,183c0,.14-.07.27-.11.41Z" transform="translate(0 1.42)" style="fill:#fff"/><path d="M258.28,184.94v-2.15h.3l1.12,1.69v-1.69H260v2.15h-.3l-1.12-1.69v1.69Z" transform="translate(0 1.42)" style="fill:#fff"/><path d="M260.45,184.94v-2.15h.74a1.92,1.92,0,0,1,.39,0,.71.71,0,0,1,.31.16.78.78,0,0,1,.25.36,1.36,1.36,0,0,1,.09.51,1.46,1.46,0,0,1-.06.44,1.12,1.12,0,0,1-.15.31.91.91,0,0,1-.19.2.88.88,0,0,1-.26.1,1.18,1.18,0,0,1-.34,0Zm.29-.25h.46a1.34,1.34,0,0,0,.33,0,.68.68,0,0,0,.19-.11.69.69,0,0,0,.16-.28,1.22,1.22,0,0,0,.06-.41,1,1,0,0,0-.11-.52.61.61,0,0,0-.27-.24,1.14,1.14,0,0,0-.37,0h-.45Z" transform="translate(0 1.42)" style="fill:#fff"/><path d="M263.44,184.94v-2.15h.43l.51,1.52c.05.14.08.25.1.32s.06-.19.12-.34l.51-1.5h.38v2.15h-.27v-1.8l-.62,1.8h-.26l-.62-1.83v1.83Z" transform="translate(0 1.42)" style="fill:#fff"/><path d="M265.87,183.89a1.16,1.16,0,0,1,.28-.83,1,1,0,0,1,.75-.31,1,1,0,0,1,.53.15.85.85,0,0,1,.36.39,1.36,1.36,0,0,1,0,1.16.89.89,0,0,1-.38.39,1,1,0,0,1-.52.14,1,1,0,0,1-.54-.15.93.93,0,0,1-.36-.4A1.25,1.25,0,0,1,265.87,183.89Zm.29,0a.85.85,0,0,0,.21.61.67.67,0,0,0,.52.22.68.68,0,0,0,.53-.22.91.91,0,0,0,.21-.64,1.08,1.08,0,0,0-.09-.46.7.7,0,0,0-.26-.3.63.63,0,0,0-.38-.11.72.72,0,0,0-.52.21A.89.89,0,0,0,266.16,183.9Z" transform="translate(0 1.42)" style="fill:#fff"/><path d="M268.29,184.94v-2.15h.95a1.25,1.25,0,0,1,.44.06.52.52,0,0,1,.24.2.63.63,0,0,1,.09.33.52.52,0,0,1-.15.38.73.73,0,0,1-.46.2.62.62,0,0,1,.17.11,1.43,1.43,0,0,1,.24.29l.37.58h-.35l-.29-.45a2.22,2.22,0,0,0-.21-.29.69.69,0,0,0-.14-.15l-.13-.05h-.49v.95Zm.28-1.2h.61a.86.86,0,0,0,.31,0,.37.37,0,0,0,.17-.13.41.41,0,0,0,0-.19.3.3,0,0,0-.11-.25.49.49,0,0,0-.35-.1h-.68Z" transform="translate(0 1.42)" style="fill:#fff"/><path d="M270.46,184.94v-2.15H272v.26h-1.27v.65h1.19V184h-1.19v.73h1.32v.25Z" transform="translate(0 1.42)" style="fill:#fff"/><path d="M216.83,189.13V187h1a1.19,1.19,0,0,1,.43.06.52.52,0,0,1,.24.2.63.63,0,0,1,.09.33.52.52,0,0,1-.15.38.73.73,0,0,1-.45.2.83.83,0,0,1,.17.11,1.32,1.32,0,0,1,.23.28l.38.59h-.36l-.29-.45-.2-.3a.92.92,0,0,0-.14-.14l-.13-.06h-.49v1Zm.29-1.2h.61a.8.8,0,0,0,.3,0,.33.33,0,0,0,.17-.13.33.33,0,0,0,.06-.19.31.31,0,0,0-.11-.25.5.5,0,0,0-.35-.1h-.68Z" transform="translate(0 1.42)" style="fill:#fff"/><path d="M219,189.13V187h1.55v.25h-1.26v.66h1.18v.25h-1.18v.74h1.31v.25Z" transform="translate(0 1.42)" style="fill:#fff"/><path d="M222.53,188.38l.28.07a.92.92,0,0,1-.32.53.88.88,0,0,1-.57.18,1,1,0,0,1-.56-.14.8.8,0,0,1-.33-.41,1.41,1.41,0,0,1,0-1.16,1,1,0,0,1,.37-.38,1.14,1.14,0,0,1,.52-.13.89.89,0,0,1,.54.17.84.84,0,0,1,.31.46l-.28.06a.77.77,0,0,0-.22-.34.57.57,0,0,0-.36-.1.69.69,0,0,0-.41.12.56.56,0,0,0-.23.31,1.23,1.23,0,0,0-.07.42,1.13,1.13,0,0,0,.08.47.56.56,0,0,0,.25.31.65.65,0,0,0,.36.1.6.6,0,0,0,.41-.14A.74.74,0,0,0,222.53,188.38Z" transform="translate(0 1.42)" style="fill:#fff"/><path d="M223.17,189.13V187h1.55v.25h-1.27v.66h1.19v.25h-1.19v.74h1.32v.25Z" transform="translate(0 1.42)" style="fill:#fff"/><path d="M225.16,189.13V187h.29l1.13,1.69V187h.27v2.15h-.29l-1.13-1.69v1.69Z" transform="translate(0 1.42)" style="fill:#fff"/><path d="M227.88,189.13v-1.9h-.71V187h1.7v.25h-.71v1.9Z" transform="translate(0 1.42)" style="fill:#fff"/><path d="M229.15,189.13V187h.29v1.9h1.05v.25Z" transform="translate(0 1.42)" style="fill:#fff"/><path d="M231.21,189.13v-.91l-.82-1.24h.34l.43.65c.07.12.15.24.21.36l.24-.38L232,187h.34l-.86,1.24v.91Z" transform="translate(0 1.42)" style="fill:#fff"/><path d="M233.76,189.13l-.57-2.15h.3l.32,1.41a3.43,3.43,0,0,1,.09.44c.06-.23.09-.36.1-.4l.41-1.45h.34l.31,1.09a6.22,6.22,0,0,1,.17.76c0-.14.06-.29.1-.47l.34-1.38H236l-.59,2.15h-.28l-.45-1.64c0-.13-.06-.22-.07-.25s0,.18-.06.25l-.46,1.64Z" transform="translate(0 1.42)" style="fill:#fff"/><path d="M236.27,189.13V187h.28v2.15Z" transform="translate(0 1.42)" style="fill:#fff"/><path d="M237.6,189.13v-1.9h-.71V187h1.71v.25h-.71v1.9Z" transform="translate(0 1.42)" style="fill:#fff"/><path d="M238.9,189.13V187h.28v.88h1.12V187h.28v2.15h-.28v-1h-1.12v1Z" transform="translate(0 1.42)" style="fill:#fff"/><path d="M241.89,189.13V187h.74a1.87,1.87,0,0,1,.38,0,.66.66,0,0,1,.31.16.8.8,0,0,1,.26.36,1.6,1.6,0,0,1,.08.51,1.46,1.46,0,0,1-.06.44.89.89,0,0,1-.14.31.71.71,0,0,1-.2.19.64.64,0,0,1-.25.11,1.25,1.25,0,0,1-.35,0Zm.28-.25h.46a1,1,0,0,0,.33,0,.43.43,0,0,0,.2-.11.58.58,0,0,0,.15-.27,1.22,1.22,0,0,0,.06-.41,1,1,0,0,0-.11-.52.61.61,0,0,0-.27-.24,1.09,1.09,0,0,0-.37-.05h-.45Z" transform="translate(0 1.42)" style="fill:#fff"/><path d="M244.06,189.13V187h1.55v.25h-1.27v.66h1.19v.25h-1.19v.74h1.32v.25Z" transform="translate(0 1.42)" style="fill:#fff"/><path d="M246,188.44l.27,0a.66.66,0,0,0,.08.27.56.56,0,0,0,.22.17.9.9,0,0,0,.62,0,.35.35,0,0,0,.18-.13.32.32,0,0,0,.06-.18.28.28,0,0,0-.06-.18.42.42,0,0,0-.19-.13,2.94,2.94,0,0,0-.38-.1,1.67,1.67,0,0,1-.42-.14.54.54,0,0,1-.22-.2.5.5,0,0,1-.08-.26.54.54,0,0,1,.36-.52,1,1,0,0,1,.4-.08,1.08,1.08,0,0,1,.42.08.63.63,0,0,1,.28.23.65.65,0,0,1,.1.34l-.27,0a.4.4,0,0,0-.15-.31.56.56,0,0,0-.37-.11.64.64,0,0,0-.38.1.28.28,0,0,0-.12.23.25.25,0,0,0,.09.19,1,1,0,0,0,.43.15,2.53,2.53,0,0,1,.47.14.58.58,0,0,1,.28.22.51.51,0,0,1,.09.3.6.6,0,0,1-.1.32.66.66,0,0,1-.28.24,1,1,0,0,1-.42.08,1.23,1.23,0,0,1-.49-.08.73.73,0,0,1-.42-.64Z" transform="translate(0 1.42)" style="fill:#fff"/><path d="M248,189.13V187h.29v1.07l1.06-1.07h.39l-.9.87.94,1.28h-.38l-.76-1.09-.35.34v.75Z" transform="translate(0 1.42)" style="fill:#fff"/><path d="M250.6,189.13v-1.9h-.7V187h1.7v.25h-.71v1.9Z" transform="translate(0 1.42)" style="fill:#fff"/><path d="M251.75,188.08a1.12,1.12,0,0,1,.29-.83.94.94,0,0,1,.74-.31,1.08,1.08,0,0,1,.53.14,1,1,0,0,1,.37.4,1.34,1.34,0,0,1,.12.58,1.21,1.21,0,0,1-.13.58.93.93,0,0,1-.37.39,1.06,1.06,0,0,1-.52.13,1,1,0,0,1-.55-.14.93.93,0,0,1-.36-.4A1.25,1.25,0,0,1,251.75,188.08Zm.29,0a.85.85,0,0,0,.21.61.67.67,0,0,0,.52.22.68.68,0,0,0,.53-.22.91.91,0,0,0,.21-.64,1.08,1.08,0,0,0-.09-.46.64.64,0,0,0-.26-.3.63.63,0,0,0-.38-.11.75.75,0,0,0-.52.2A.92.92,0,0,0,252,188.09Z" transform="translate(0 1.42)" style="fill:#fff"/><path d="M254.17,189.13V187H255l.33,0a.67.67,0,0,1,.26.1.51.51,0,0,1,.17.21.59.59,0,0,1,.07.29.67.67,0,0,1-.18.47.85.85,0,0,1-.63.18h-.55v.88Zm.28-1.13H255a.59.59,0,0,0,.39-.1.36.36,0,0,0,.11-.29.41.41,0,0,0-.06-.23.38.38,0,0,0-.18-.13l-.27,0h-.55Z" transform="translate(0 1.42)" style="fill:#fff"/><path d="M257,189.13V187h.81l.33,0a.67.67,0,0,1,.26.1.51.51,0,0,1,.17.21.59.59,0,0,1,.07.29.67.67,0,0,1-.18.47.85.85,0,0,1-.63.18h-.55v.88Zm.28-1.13h.56a.59.59,0,0,0,.39-.1.37.37,0,0,0,.12-.29.42.42,0,0,0-.07-.23.38.38,0,0,0-.18-.13l-.27,0h-.55Z" transform="translate(0 1.42)" style="fill:#fff"/><path d="M260.36,187h.28v1.24a1.48,1.48,0,0,1-.07.52.67.67,0,0,1-.27.31,1,1,0,0,1-.5.11,1,1,0,0,1-.49-.1.56.56,0,0,1-.27-.3,1.32,1.32,0,0,1-.09-.54V187h.29v1.24a1.08,1.08,0,0,0,.05.41.37.37,0,0,0,.18.21.71.71,0,0,0,.31.07.62.62,0,0,0,.45-.14.9.9,0,0,0,.13-.55Z" transform="translate(0 1.42)" style="fill:#fff"/><path d="M261.11,189.13V187h.8a.9.9,0,0,1,.4.07.5.5,0,0,1,.23.2.57.57,0,0,1,.08.28.48.48,0,0,1-.07.26.57.57,0,0,1-.23.2.52.52,0,0,1,.41.52.55.55,0,0,1-.07.28.62.62,0,0,1-.15.2.75.75,0,0,1-.24.1,1.16,1.16,0,0,1-.35,0Zm.28-1.25h.46a.91.91,0,0,0,.27,0,.3.3,0,0,0,.17-.11.29.29,0,0,0,0-.19.27.27,0,0,0,0-.18.24.24,0,0,0-.14-.12,1.31,1.31,0,0,0-.33,0h-.43Zm0,1h.53l.2,0,.16-.05a.32.32,0,0,0,.11-.12.39.39,0,0,0,0-.18.34.34,0,0,0-.23-.34,1.24,1.24,0,0,0-.31,0h-.5Z" transform="translate(0 1.42)" style="fill:#fff"/><path d="M263.11,189.13V187h.28v1.9h1.06v.25Z" transform="translate(0 1.42)" style="fill:#fff"/><path d="M264.83,189.13V187h.29v2.15Z" transform="translate(0 1.42)" style="fill:#fff"/><path d="M265.52,188.44l.27,0a.54.54,0,0,0,.09.27.56.56,0,0,0,.22.17.81.81,0,0,0,.33.06.78.78,0,0,0,.28,0,.34.34,0,0,0,.19-.13.32.32,0,0,0,.06-.18.28.28,0,0,0-.06-.18.48.48,0,0,0-.19-.13l-.38-.1a1.67,1.67,0,0,1-.42-.14.57.57,0,0,1-.23-.2.48.48,0,0,1-.07-.26A.54.54,0,0,1,266,187a1,1,0,0,1,.39-.08,1.08,1.08,0,0,1,.42.08.54.54,0,0,1,.28.23.65.65,0,0,1,.11.34l-.27,0a.48.48,0,0,0-.15-.31.59.59,0,0,0-.38-.11.61.61,0,0,0-.37.1.28.28,0,0,0-.12.23.27.27,0,0,0,.08.19,1.16,1.16,0,0,0,.43.15,2.7,2.7,0,0,1,.48.14.6.6,0,0,1,.27.22.51.51,0,0,1,.09.3.59.59,0,0,1-.09.32.63.63,0,0,1-.29.24.91.91,0,0,1-.41.08,1.2,1.2,0,0,1-.49-.08.71.71,0,0,1-.31-.26A.81.81,0,0,1,265.52,188.44Z" transform="translate(0 1.42)" style="fill:#fff"/><path d="M267.63,189.13V187h.28v.88H269V187h.28v2.15H269v-1h-1.12v1Z" transform="translate(0 1.42)" style="fill:#fff"/><path d="M269.84,189.13V187h.28v2.15Z" transform="translate(0 1.42)" style="fill:#fff"/><path d="M270.62,189.13V187h.29l1.13,1.69V187h.27v2.15H272l-1.13-1.69v1.69Z" transform="translate(0 1.42)" style="fill:#fff"/><path d="M273.79,188.29V188h.91v.8a1.72,1.72,0,0,1-.43.25,1.34,1.34,0,0,1-1-.05.92.92,0,0,1-.39-.39,1.21,1.21,0,0,1-.13-.58,1.29,1.29,0,0,1,.13-.58.82.82,0,0,1,.38-.4,1.13,1.13,0,0,1,.56-.14,1.08,1.08,0,0,1,.42.08.68.68,0,0,1,.3.21,1,1,0,0,1,.16.35l-.26.07a.79.79,0,0,0-.12-.26.46.46,0,0,0-.2-.15.94.94,0,0,0-.3-.05.81.81,0,0,0-.33.06.66.66,0,0,0-.23.15.74.74,0,0,0-.14.22,1.18,1.18,0,0,0-.08.43,1,1,0,0,0,.1.48.57.57,0,0,0,.29.28.79.79,0,0,0,.4.1,1.15,1.15,0,0,0,.36-.07,1,1,0,0,0,.26-.15v-.4Z" transform="translate(0 1.42)" style="fill:#fff"/><path d="M216.73,192.63l.27,0a.54.54,0,0,0,.09.27.47.47,0,0,0,.22.16.66.66,0,0,0,.32.07.84.84,0,0,0,.29,0,.46.46,0,0,0,.19-.13.33.33,0,0,0,.06-.19.27.27,0,0,0-.06-.17.4.4,0,0,0-.19-.13,3.27,3.27,0,0,0-.39-.1,2.32,2.32,0,0,1-.41-.14.57.57,0,0,1-.23-.2.5.5,0,0,1-.08-.27.49.49,0,0,1,.1-.3.52.52,0,0,1,.27-.21,1,1,0,0,1,.39-.08,1.08,1.08,0,0,1,.42.08.58.58,0,0,1,.28.23.65.65,0,0,1,.11.33l-.28,0a.43.43,0,0,0-.14-.31.59.59,0,0,0-.38-.11.55.55,0,0,0-.37.1.28.28,0,0,0-.12.23.27.27,0,0,0,.08.19,1.16,1.16,0,0,0,.43.15,2.7,2.7,0,0,1,.48.14.65.65,0,0,1,.27.21.54.54,0,0,1,.09.31.55.55,0,0,1-.1.32.67.67,0,0,1-.28.24.91.91,0,0,1-.41.08,1.36,1.36,0,0,1-.49-.08.66.66,0,0,1-.31-.26A.81.81,0,0,1,216.73,192.63Z" transform="translate(0 1.42)" style="fill:#fff"/><path d="M218.74,192.27a1.17,1.17,0,0,1,.29-.84,1,1,0,0,1,.74-.3,1.09,1.09,0,0,1,.54.14.93.93,0,0,1,.36.4,1.21,1.21,0,0,1,.13.58,1.24,1.24,0,0,1-.14.58.87.87,0,0,1-.37.39,1,1,0,0,1-.52.13,1.09,1.09,0,0,1-.54-.14.93.93,0,0,1-.36-.4A1.13,1.13,0,0,1,218.74,192.27Zm.3,0a.87.87,0,0,0,.21.61.66.66,0,0,0,.52.22.67.67,0,0,0,.53-.23.89.89,0,0,0,.2-.64,1.25,1.25,0,0,0-.08-.45.72.72,0,0,0-.26-.31.76.76,0,0,0-.39-.1.72.72,0,0,0-.52.2A1,1,0,0,0,219,192.28Z" transform="translate(0 1.42)" style="fill:#fff"/><path d="M221.18,193.32v-2.15h1.45v.25h-1.17v.67h1v.25h-1v1Z" transform="translate(0 1.42)" style="fill:#fff"/><path d="M223.54,193.32v-1.9h-.71v-.25h1.71v.25h-.71v1.9Z" transform="translate(0 1.42)" style="fill:#fff"/><path d="M225.2,193.32l-.57-2.15h.29l.33,1.41a3.12,3.12,0,0,1,.09.44c.06-.23.09-.37.1-.4l.41-1.45h.34l.31,1.09a4.7,4.7,0,0,1,.16.76c0-.14.07-.3.11-.47l.34-1.38h.28l-.58,2.15h-.28l-.45-1.64-.07-.25c0,.1,0,.18-.06.25l-.46,1.64Z" transform="translate(0 1.42)" style="fill:#fff"/><path d="M227.31,193.32l.83-2.15h.3l.88,2.15H229l-.25-.65h-.9l-.24.65Zm.62-.89h.73l-.22-.59c-.07-.18-.12-.33-.16-.45a1.91,1.91,0,0,1-.11.41Z" transform="translate(0 1.42)" style="fill:#fff"/><path d="M229.55,193.32v-2.15h1a1.19,1.19,0,0,1,.43.06.47.47,0,0,1,.24.2.62.62,0,0,1,.09.32.53.53,0,0,1-.15.39.73.73,0,0,1-.45.2.83.83,0,0,1,.17.11,1.32,1.32,0,0,1,.23.28l.38.59h-.36l-.28-.45-.21-.3a.92.92,0,0,0-.14-.14l-.13-.06h-.49v1Zm.29-1.2h.61a1.08,1.08,0,0,0,.3,0,.33.33,0,0,0,.17-.13.36.36,0,0,0,.06-.2.34.34,0,0,0-.11-.25.56.56,0,0,0-.35-.09h-.68Z" transform="translate(0 1.42)" style="fill:#fff"/><path d="M231.72,193.32v-2.15h1.56v.25H232v.66h1.18v.25H232v.73h1.32v.26Z" transform="translate(0 1.42)" style="fill:#fff"/><path d="M234.54,193.32v-2.15h.28v1.89h1.06v.26Z" transform="translate(0 1.42)" style="fill:#fff"/><path d="M236.27,193.32v-2.15h.28v2.15Z" transform="translate(0 1.42)" style="fill:#fff"/><path d="M237,193.32v-2.15h.29v1.06l1.06-1.06h.39l-.9.87.94,1.28h-.38l-.76-1.09-.35.34v.75Z" transform="translate(0 1.42)" style="fill:#fff"/><path d="M239.06,193.32v-2.15h1.55v.25h-1.27v.66h1.19v.25h-1.19v.73h1.32v.26Z" transform="translate(0 1.42)" style="fill:#fff"/><path d="M241.49,193.32l.82-2.15h.31l.88,2.15h-.33l-.25-.65H242l-.23.65Zm.62-.89h.72l-.22-.59a3.91,3.91,0,0,1-.15-.45,2.77,2.77,0,0,1-.12.41Z" transform="translate(0 1.42)" style="fill:#fff"/><path d="M243.71,193.32v-2.15H244v1.89h1.05v.26Z" transform="translate(0 1.42)" style="fill:#fff"/><path d="M245.39,193.32v-2.15h.74a1.74,1.74,0,0,1,.38,0,.79.79,0,0,1,.32.15.87.87,0,0,1,.25.37,1.36,1.36,0,0,1,.09.51,1.4,1.4,0,0,1-.06.43,1.19,1.19,0,0,1-.15.32.85.85,0,0,1-.19.19.68.68,0,0,1-.26.11,1.67,1.67,0,0,1-.34,0Zm.29-.26h.46a1,1,0,0,0,.33,0,.4.4,0,0,0,.19-.11.72.72,0,0,0,.16-.27,1.24,1.24,0,0,0,.05-.41.94.94,0,0,0-.11-.52.54.54,0,0,0-.26-.24,1.09,1.09,0,0,0-.37-.05h-.45Z" transform="translate(0 1.42)" style="fill:#fff"/><path d="M249,191.17h.28v1.24a1.39,1.39,0,0,1-.07.51.62.62,0,0,1-.27.31.9.9,0,0,1-.5.12,1,1,0,0,1-.49-.1.56.56,0,0,1-.27-.3,1.32,1.32,0,0,1-.09-.54v-1.24h.29v1.24a1.11,1.11,0,0,0,.05.41.37.37,0,0,0,.18.21.71.71,0,0,0,.31.07.58.58,0,0,0,.44-.14.83.83,0,0,0,.14-.55Z" transform="translate(0 1.42)" style="fill:#fff"/><path d="M249.63,192.63l.27,0a.66.66,0,0,0,.08.27.47.47,0,0,0,.22.16.72.72,0,0,0,.33.07.88.88,0,0,0,.29,0,.42.42,0,0,0,.18-.13.33.33,0,0,0,.06-.19.27.27,0,0,0-.06-.17.35.35,0,0,0-.19-.13,2.94,2.94,0,0,0-.38-.1,2.21,2.21,0,0,1-.42-.14.54.54,0,0,1-.22-.2.5.5,0,0,1-.08-.27.55.55,0,0,1,.09-.3.52.52,0,0,1,.27-.21,1,1,0,0,1,.4-.08,1.12,1.12,0,0,1,.42.08.61.61,0,0,1,.38.56l-.27,0a.4.4,0,0,0-.15-.31.56.56,0,0,0-.37-.11.58.58,0,0,0-.38.1.28.28,0,0,0-.12.23.25.25,0,0,0,.09.19,1,1,0,0,0,.43.15,2.53,2.53,0,0,1,.47.14.63.63,0,0,1,.28.21.54.54,0,0,1,.09.31.63.63,0,0,1-.1.32.73.73,0,0,1-.28.24,1,1,0,0,1-.42.08,1.44,1.44,0,0,1-.49-.08.73.73,0,0,1-.42-.64Z" transform="translate(0 1.42)" style="fill:#fff"/><path d="M252.56,193.32v-2.15h.81l.33,0a.67.67,0,0,1,.26.1.51.51,0,0,1,.17.21.57.57,0,0,1,.07.29.63.63,0,0,1-.18.46.8.8,0,0,1-.63.19h-.55v.88Zm.28-1.13h.56a.59.59,0,0,0,.39-.1.37.37,0,0,0,.12-.29.42.42,0,0,0-.07-.23.32.32,0,0,0-.18-.13l-.27,0h-.55Z" transform="translate(0 1.42)" style="fill:#fff"/><path d="M254.1,193.32l.83-2.15h.3l.88,2.15h-.32l-.25-.65h-.9l-.24.65Zm.62-.89h.73l-.22-.59c-.07-.18-.12-.33-.16-.45a1.91,1.91,0,0,1-.11.41Z" transform="translate(0 1.42)" style="fill:#fff"/><path d="M257.34,192.47v-.25h.91v.8a1.72,1.72,0,0,1-.43.25,1.34,1.34,0,0,1-1-.05.92.92,0,0,1-.39-.39,1.24,1.24,0,0,1-.13-.58,1.27,1.27,0,0,1,.13-.58.87.87,0,0,1,.37-.41,1.33,1.33,0,0,1,.57-.13,1.08,1.08,0,0,1,.42.08.68.68,0,0,1,.3.21,1,1,0,0,1,.16.35l-.26.07a.7.7,0,0,0-.12-.26.46.46,0,0,0-.2-.15.73.73,0,0,0-.3-.05,1,1,0,0,0-.33.05.59.59,0,0,0-.23.16.85.85,0,0,0-.14.21,1.27,1.27,0,0,0-.08.44,1,1,0,0,0,.1.48.61.61,0,0,0,.29.28.79.79,0,0,0,.4.1,1.15,1.15,0,0,0,.36-.07.78.78,0,0,0,.26-.16v-.4Z" transform="translate(0 1.42)" style="fill:#fff"/><path d="M258.68,193.32v-2.15h1.55v.25H259v.66h1.19v.25H259v.73h1.32v.26Z" transform="translate(0 1.42)" style="fill:#fff"/><path d="M260.66,193.32v-2.15h.43l.51,1.52c0,.14.08.25.1.32l.12-.35.51-1.49h.38v2.15h-.27v-1.8l-.62,1.8h-.26l-.62-1.83v1.83Z" transform="translate(0 1.42)" style="fill:#fff"/><path d="M262.94,193.32l.82-2.15h.31l.88,2.15h-.33l-.25-.65h-.9l-.23.65Zm.62-.89h.72l-.22-.59a3.91,3.91,0,0,1-.15-.45,2.77,2.77,0,0,1-.12.41Z" transform="translate(0 1.42)" style="fill:#fff"/><path d="M265.16,193.32v-2.15h.29v1.06l1.06-1.06h.39l-.9.87.94,1.28h-.38l-.76-1.09-.35.34v.75Z" transform="translate(0 1.42)" style="fill:#fff"/><path d="M267.18,193.32v-2.15h1.55v.25h-1.27v.66h1.19v.25h-1.19v.73h1.32v.26Z" transform="translate(0 1.42)" style="fill:#fff"/><path d="M269.18,193.32v-2.15h.95a1.25,1.25,0,0,1,.44.06.47.47,0,0,1,.24.2.62.62,0,0,1,.09.32.53.53,0,0,1-.15.39.73.73,0,0,1-.46.2.62.62,0,0,1,.17.11,1.35,1.35,0,0,1,.24.28l.37.59h-.35l-.29-.45c-.08-.13-.15-.23-.2-.3l-.15-.14a.31.31,0,0,0-.13-.06h-.49v1Zm.28-1.2h.62a1.08,1.08,0,0,0,.3,0,.37.37,0,0,0,.17-.13.46.46,0,0,0,.05-.2.31.31,0,0,0-.11-.25.54.54,0,0,0-.35-.09h-.68Z" transform="translate(0 1.42)" style="fill:#fff"/><path d="M216.88,197.51v-2.15h.28v2.15Z" transform="translate(0 1.42)" style="fill:#fff"/><path d="M217.66,197.51v-2.15H218l1.13,1.69v-1.69h.27v2.15h-.29l-1.13-1.69v1.69Z" transform="translate(0 1.42)" style="fill:#fff"/><path d="M221.36,196.75l.28.07a.92.92,0,0,1-.32.54.88.88,0,0,1-.57.18,1,1,0,0,1-.56-.14.91.91,0,0,1-.33-.41,1.38,1.38,0,0,1-.11-.57,1.35,1.35,0,0,1,.12-.59.9.9,0,0,1,.37-.38,1.14,1.14,0,0,1,.52-.13.87.87,0,0,1,.54.17.84.84,0,0,1,.31.46l-.28.06a.65.65,0,0,0-.22-.34.57.57,0,0,0-.36-.11.69.69,0,0,0-.41.12.62.62,0,0,0-.23.32,1.18,1.18,0,0,0-.07.41,1.34,1.34,0,0,0,.08.48.56.56,0,0,0,.25.31.65.65,0,0,0,.36.1.64.64,0,0,0,.41-.14A.71.71,0,0,0,221.36,196.75Z" transform="translate(0 1.42)" style="fill:#fff"/><path d="M222,197.51v-2.15h.29v1.89h1v.26Z" transform="translate(0 1.42)" style="fill:#fff"/><path d="M225.07,195.36h.29v1.24a1.36,1.36,0,0,1-.08.51.6.6,0,0,1-.26.31,1,1,0,0,1-.5.12,1,1,0,0,1-.5-.1.56.56,0,0,1-.27-.3,1.34,1.34,0,0,1-.08-.54v-1.24H224v1.24a1.37,1.37,0,0,0,.05.41.39.39,0,0,0,.18.2.62.62,0,0,0,.31.08.58.58,0,0,0,.45-.15.79.79,0,0,0,.13-.54Z" transform="translate(0 1.42)" style="fill:#fff"/><path d="M225.83,197.51v-2.15h.74a1.81,1.81,0,0,1,.38,0,.75.75,0,0,1,.31.15.89.89,0,0,1,.26.37,1.37,1.37,0,0,1,.08.51,1.81,1.81,0,0,1,0,.43,1.19,1.19,0,0,1-.15.32.72.72,0,0,1-.2.19.64.64,0,0,1-.25.11,1.78,1.78,0,0,1-.35,0Zm.28-.26h.46a1,1,0,0,0,.33,0,.43.43,0,0,0,.2-.11.7.7,0,0,0,.15-.27,1.22,1.22,0,0,0,.06-.41,1,1,0,0,0-.11-.52.52.52,0,0,0-.27-.24,1.09,1.09,0,0,0-.37,0h-.45Z" transform="translate(0 1.42)" style="fill:#fff"/><path d="M228,197.51v-2.15h.29v2.15Z" transform="translate(0 1.42)" style="fill:#fff"/><path d="M228.83,197.51v-2.15h.29l1.13,1.69v-1.69h.27v2.15h-.29l-1.13-1.69v1.69Z" transform="translate(0 1.42)" style="fill:#fff"/><path d="M232,196.66v-.25h.91v.8a1.91,1.91,0,0,1-.43.25,1.44,1.44,0,0,1-.46.08,1.27,1.27,0,0,1-.58-.13.92.92,0,0,1-.39-.39,1.36,1.36,0,0,1,0-1.16,1,1,0,0,1,.38-.41,1.26,1.26,0,0,1,.57-.13,1.16,1.16,0,0,1,.42.08.7.7,0,0,1,.29.21.82.82,0,0,1,.17.35l-.26.07a.7.7,0,0,0-.12-.26.57.57,0,0,0-.21-.15.65.65,0,0,0-.29-.06.9.9,0,0,0-.34.06.79.79,0,0,0-.23.16.67.67,0,0,0-.13.21,1.06,1.06,0,0,0-.08.43,1.16,1.16,0,0,0,.09.49.71.71,0,0,0,.29.28,1,1,0,0,0,.4.1.86.86,0,0,0,.36-.08.68.68,0,0,0,.27-.15v-.4Z" transform="translate(0 1.42)" style="fill:#fff"/><path d="M234.78,197.51l-.84-2.15h.31l.56,1.56c0,.12.08.24.11.35,0-.12.07-.23.12-.35l.58-1.56h.29l-.84,2.15Z" transform="translate(0 1.42)" style="fill:#fff"/><path d="M236.17,197.51v-2.15h1.55v.25h-1.27v.66h1.19v.25h-1.19v.73h1.32v.26Z" transform="translate(0 1.42)" style="fill:#fff"/><path d="M238.17,197.51v-2.15h1a1.25,1.25,0,0,1,.44.06.47.47,0,0,1,.24.2.62.62,0,0,1,.09.32.53.53,0,0,1-.15.39.79.79,0,0,1-.46.2.62.62,0,0,1,.17.11,1.74,1.74,0,0,1,.24.28l.37.59h-.36l-.28-.45a2.45,2.45,0,0,0-.21-.3.92.92,0,0,0-.14-.14.38.38,0,0,0-.13-.06h-.49v1Zm.28-1.2h.61a1.23,1.23,0,0,0,.31,0,.37.37,0,0,0,.17-.13.46.46,0,0,0,.05-.2.31.31,0,0,0-.11-.25.54.54,0,0,0-.35-.09h-.68Z" transform="translate(0 1.42)" style="fill:#fff"/><path d="M240.23,196.82l.27,0a.54.54,0,0,0,.09.27.47.47,0,0,0,.22.16.67.67,0,0,0,.33.07.82.82,0,0,0,.28,0,.4.4,0,0,0,.19-.13.33.33,0,0,0,.06-.19.27.27,0,0,0-.06-.17.4.4,0,0,0-.19-.13l-.39-.11a1.8,1.8,0,0,1-.41-.13.57.57,0,0,1-.23-.2.5.5,0,0,1-.07-.27.53.53,0,0,1,.09-.3.6.6,0,0,1,.27-.22,1.18,1.18,0,0,1,.39-.07,1.08,1.08,0,0,1,.42.08.63.63,0,0,1,.28.22.68.68,0,0,1,.11.34l-.27,0a.48.48,0,0,0-.15-.3.59.59,0,0,0-.38-.11.55.55,0,0,0-.37.1.28.28,0,0,0-.12.22.24.24,0,0,0,.08.19,1.12,1.12,0,0,0,.43.16,2.7,2.7,0,0,1,.48.14.65.65,0,0,1,.27.21.54.54,0,0,1,.09.31.55.55,0,0,1-.1.32.61.61,0,0,1-.28.24,1.07,1.07,0,0,1-.41.08,1.36,1.36,0,0,1-.49-.08.71.71,0,0,1-.31-.26A.81.81,0,0,1,240.23,196.82Z" transform="translate(0 1.42)" style="fill:#fff"/><path d="M242.38,197.51v-2.15h.28v2.15Z" transform="translate(0 1.42)" style="fill:#fff"/><path d="M243.08,196.46a1.17,1.17,0,0,1,.28-.84,1,1,0,0,1,.75-.3,1.08,1.08,0,0,1,.53.14,1,1,0,0,1,.37.4,1.34,1.34,0,0,1,.12.58,1.24,1.24,0,0,1-.13.58.93.93,0,0,1-.37.39,1.13,1.13,0,0,1-1.07,0,.93.93,0,0,1-.36-.4A1.25,1.25,0,0,1,243.08,196.46Zm.29,0a.88.88,0,0,0,.21.62.71.71,0,0,0,.52.22.69.69,0,0,0,.53-.23.9.9,0,0,0,.21-.64,1.06,1.06,0,0,0-.09-.45.72.72,0,0,0-.26-.31.7.7,0,0,0-.38-.11.72.72,0,0,0-.52.21A.91.91,0,0,0,243.37,196.46Z" transform="translate(0 1.42)" style="fill:#fff"/><path d="M245.5,197.51v-2.15h.29l1.12,1.69v-1.69h.28v2.15h-.29l-1.13-1.69v1.69Z" transform="translate(0 1.42)" style="fill:#fff"/><path d="M247.57,196.82l.26,0a.85.85,0,0,0,.09.27.47.47,0,0,0,.22.16.72.72,0,0,0,.33.07.88.88,0,0,0,.29,0,.42.42,0,0,0,.18-.13.33.33,0,0,0,.06-.19.27.27,0,0,0-.06-.17.35.35,0,0,0-.19-.13l-.38-.11a1.75,1.75,0,0,1-.42-.13.64.64,0,0,1-.23-.2.5.5,0,0,1-.07-.27.53.53,0,0,1,.09-.3.6.6,0,0,1,.27-.22,1.24,1.24,0,0,1,.4-.07,1.12,1.12,0,0,1,.42.08.69.69,0,0,1,.28.22.67.67,0,0,1,.1.34l-.27,0a.44.44,0,0,0-.15-.3.56.56,0,0,0-.37-.11.58.58,0,0,0-.38.1.28.28,0,0,0-.12.22.22.22,0,0,0,.09.19,1,1,0,0,0,.43.16,2.53,2.53,0,0,1,.47.14.63.63,0,0,1,.28.21.54.54,0,0,1,.09.31.63.63,0,0,1-.1.32.73.73,0,0,1-.28.24,1.12,1.12,0,0,1-.42.08,1.44,1.44,0,0,1-.49-.08.73.73,0,0,1-.42-.64Z" transform="translate(0 1.42)" style="fill:#fff"/><path d="M250.41,196.46a1.17,1.17,0,0,1,.29-.84,1,1,0,0,1,.74-.3,1.09,1.09,0,0,1,.54.14,1,1,0,0,1,.36.4,1.34,1.34,0,0,1,.13.58,1.24,1.24,0,0,1-.14.58.87.87,0,0,1-.37.39,1.06,1.06,0,0,1-.52.13,1.09,1.09,0,0,1-.54-.14,1,1,0,0,1-.37-.4A1.25,1.25,0,0,1,250.41,196.46Zm.29,0a.88.88,0,0,0,.21.62.73.73,0,0,0,.53.22.67.67,0,0,0,.52-.23.9.9,0,0,0,.21-.64,1.06,1.06,0,0,0-.09-.45.66.66,0,0,0-.26-.31.7.7,0,0,0-.38-.11.73.73,0,0,0-.52.21A1,1,0,0,0,250.7,196.46Z" transform="translate(0 1.42)" style="fill:#fff"/><path d="M252.85,197.51v-2.15h1.45v.25h-1.17v.67h1v.25h-1v1Z" transform="translate(0 1.42)" style="fill:#fff"/><path d="M255.49,197.51v-2.15h.28v1.89h1.06v.26Z" transform="translate(0 1.42)" style="fill:#fff"/><path d="M257.08,196.46a1.13,1.13,0,0,1,.29-.84,1,1,0,0,1,.74-.3,1,1,0,0,1,.53.14,1,1,0,0,1,.37.4,1.34,1.34,0,0,1,.12.58,1.24,1.24,0,0,1-.13.58.93.93,0,0,1-.37.39,1.06,1.06,0,0,1-.52.13,1.1,1.1,0,0,1-.55-.14,1,1,0,0,1-.36-.4A1.25,1.25,0,0,1,257.08,196.46Zm.29,0a.88.88,0,0,0,.21.62.71.71,0,0,0,.52.22.67.67,0,0,0,.53-.23.9.9,0,0,0,.21-.64,1.06,1.06,0,0,0-.09-.45.66.66,0,0,0-.26-.31.7.7,0,0,0-.38-.11.73.73,0,0,0-.52.21A1,1,0,0,0,257.37,196.46Z" transform="translate(0 1.42)" style="fill:#fff"/><path d="M259.5,197.51v-2.15h1a1.19,1.19,0,0,1,.43.06.47.47,0,0,1,.24.2.62.62,0,0,1,.09.32.53.53,0,0,1-.15.39.79.79,0,0,1-.45.2.83.83,0,0,1,.17.11,1.32,1.32,0,0,1,.23.28l.38.59H261l-.29-.45c-.08-.13-.15-.23-.2-.3l-.14-.14-.13-.06h-.49v1Zm.29-1.2h.61a1.08,1.08,0,0,0,.3,0,.33.33,0,0,0,.17-.13.36.36,0,0,0,.06-.2.34.34,0,0,0-.11-.25.56.56,0,0,0-.35-.09h-.68Z" transform="translate(0 1.42)" style="fill:#fff"/><path d="M261.67,197.51v-2.15h1.55v.25H262v.66h1.18v.25H262v.73h1.31v.26Z" transform="translate(0 1.42)" style="fill:#fff"/><path d="M263.66,197.51v-2.15h.43l.5,1.52c.05.14.08.25.11.32s.06-.2.11-.35l.52-1.49h.38v2.15h-.28v-1.8l-.62,1.8h-.26l-.62-1.83v1.83Z" transform="translate(0 1.42)" style="fill:#fff"/><path d="M267.05,197.51v-2.15h.28v2.15Z" transform="translate(0 1.42)" style="fill:#fff"/><path d="M267.83,197.51v-2.15h.81l.33,0a.72.72,0,0,1,.27.1.6.6,0,0,1,.17.21.68.68,0,0,1,.06.29.67.67,0,0,1-.17.46.83.83,0,0,1-.63.19h-.55v.88Zm.29-1.13h.55a.55.55,0,0,0,.39-.1.37.37,0,0,0,.12-.29.35.35,0,0,0-.07-.23.27.27,0,0,0-.18-.13l-.26,0h-.55Z" transform="translate(0 1.42)" style="fill:#fff"/><path d="M269.74,196.82l.27,0a.66.66,0,0,0,.08.27.47.47,0,0,0,.22.16.72.72,0,0,0,.33.07.88.88,0,0,0,.29,0,.42.42,0,0,0,.18-.13.33.33,0,0,0,.06-.19.34.34,0,0,0-.05-.17.44.44,0,0,0-.2-.13l-.38-.11a1.75,1.75,0,0,1-.42-.13.54.54,0,0,1-.22-.2.5.5,0,0,1-.08-.27.53.53,0,0,1,.09-.3.6.6,0,0,1,.27-.22,1.24,1.24,0,0,1,.4-.07,1.08,1.08,0,0,1,.42.08.69.69,0,0,1,.28.22.67.67,0,0,1,.1.34l-.27,0a.4.4,0,0,0-.15-.3.56.56,0,0,0-.37-.11.58.58,0,0,0-.38.1.28.28,0,0,0-.12.22.22.22,0,0,0,.09.19,1,1,0,0,0,.43.16,2.3,2.3,0,0,1,.47.14.63.63,0,0,1,.28.21.54.54,0,0,1,.09.31.63.63,0,0,1-.1.32.73.73,0,0,1-.28.24,1.08,1.08,0,0,1-.42.08,1.44,1.44,0,0,1-.49-.08.73.73,0,0,1-.42-.64Z" transform="translate(0 1.42)" style="fill:#fff"/><path d="M273.25,195.36h.28v1.24a1.64,1.64,0,0,1-.07.51.62.62,0,0,1-.27.31.93.93,0,0,1-.5.12,1,1,0,0,1-.49-.1.63.63,0,0,1-.28-.3,1.54,1.54,0,0,1-.08-.54v-1.24h.28v1.24a1.07,1.07,0,0,0,.06.41.32.32,0,0,0,.18.2.56.56,0,0,0,.3.08.58.58,0,0,0,.45-.15.78.78,0,0,0,.14-.54Z" transform="translate(0 1.42)" style="fill:#fff"/><path d="M274,197.51v-2.15h.43l.51,1.52c.05.14.08.25.1.32s.06-.2.12-.35l.51-1.49H276v2.15h-.27v-1.8l-.63,1.8h-.25l-.62-1.83v1.83Z" transform="translate(0 1.42)" style="fill:#fff"/><path d="M276.54,197.51v-.3h.3v.3Z" transform="translate(0 1.42)" style="fill:#fff"/><path d="M234.45,203.72H219.1a2.92,2.92,0,0,0,0,5.83h15.35a2.91,2.91,0,0,0,2.92-2.91h0A2.92,2.92,0,0,0,234.45,203.72Z" transform="translate(0 1.42)" style="fill:#2c7fea"/><path d="M219,207.23v-1.5h1v.18h-.81v.46h.7v.18h-.7v.68Z" transform="translate(0 1.42)" style="fill:#fff"/><path d="M220.26,207.23v-1.5h.2v1.5Z" transform="translate(0 1.42)" style="fill:#fff"/><path d="M220.81,207.23v-1.5h.2l.79,1.18v-1.18H222v1.5h-.2l-.79-1.18v1.18Z" transform="translate(0 1.42)" style="fill:#fff"/><path d="M222.32,207.23v-1.5h.52l.27,0a.57.57,0,0,1,.22.11.59.59,0,0,1,.17.26,1,1,0,0,1,.06.35,1,1,0,0,1,0,.31.59.59,0,0,1-.1.21.47.47,0,0,1-.14.14.75.75,0,0,1-.18.08l-.24,0Zm.2-.18h.32l.23,0a.47.47,0,0,0,.14-.08.5.5,0,0,0,.11-.19,1.19,1.19,0,0,0,0-.29.69.69,0,0,0-.08-.36.35.35,0,0,0-.19-.17.77.77,0,0,0-.25,0h-.32Z" transform="translate(0 1.42)" style="fill:#fff"/><path d="M224.36,206.5a.77.77,0,0,1,.2-.58.67.67,0,0,1,.52-.21.78.78,0,0,1,.37.09.62.62,0,0,1,.25.28.87.87,0,0,1,.09.4.91.91,0,0,1-.09.41.62.62,0,0,1-.26.27.69.69,0,0,1-.37.1.67.67,0,0,1-.37-.11.62.62,0,0,1-.26-.27A1,1,0,0,1,224.36,206.5Zm.2,0a.59.59,0,0,0,.15.43.48.48,0,0,0,.36.16.51.51,0,0,0,.37-.16.64.64,0,0,0,.15-.45.66.66,0,0,0-.07-.32.46.46,0,0,0-.18-.21.48.48,0,0,0-.26-.07.5.5,0,0,0-.37.14A.66.66,0,0,0,224.56,206.5Z" transform="translate(0 1.42)" style="fill:#fff"/><path d="M227,205.73h.2v.87a1.15,1.15,0,0,1,0,.36.43.43,0,0,1-.19.21.61.61,0,0,1-.35.09.68.68,0,0,1-.34-.08.36.36,0,0,1-.19-.21.92.92,0,0,1-.06-.37v-.87h.2v.87a.94.94,0,0,0,0,.28.32.32,0,0,0,.13.15.46.46,0,0,0,.21.05.47.47,0,0,0,.32-.1.6.6,0,0,0,.09-.38Z" transform="translate(0 1.42)" style="fill:#fff"/><path d="M227.94,207.23v-1.32h-.49v-.18h1.18v.18h-.49v1.32Z" transform="translate(0 1.42)" style="fill:#fff"/><path d="M229.38,207.23v-1.5h.29l.36,1.06.07.22s0-.13.08-.24l.36-1h.27v1.5h-.19V206l-.44,1.25H230l-.43-1.28v1.28Z" transform="translate(0 1.42)" style="fill:#fff"/><path d="M231.07,206.5a.77.77,0,0,1,.2-.58.67.67,0,0,1,.52-.21.78.78,0,0,1,.37.09.62.62,0,0,1,.25.28.87.87,0,0,1,.09.4.91.91,0,0,1-.09.41.62.62,0,0,1-.26.27.69.69,0,0,1-.37.1.67.67,0,0,1-.37-.11.62.62,0,0,1-.26-.27A1,1,0,0,1,231.07,206.5Zm.2,0a.59.59,0,0,0,.15.43.48.48,0,0,0,.36.16.51.51,0,0,0,.37-.16.64.64,0,0,0,.15-.45.66.66,0,0,0-.07-.32.46.46,0,0,0-.18-.21.48.48,0,0,0-.26-.07.5.5,0,0,0-.37.14A.66.66,0,0,0,231.27,206.5Z" transform="translate(0 1.42)" style="fill:#fff"/><path d="M232.76,207.23v-1.5h.66a1.11,1.11,0,0,1,.31,0,.46.46,0,0,1,.17.14.46.46,0,0,1,.06.23.37.37,0,0,1-.11.27.5.5,0,0,1-.31.14l.12.07a1.75,1.75,0,0,1,.16.2l.26.41h-.25l-.2-.31a1.51,1.51,0,0,0-.14-.21.46.46,0,0,0-.1-.1l-.09,0H233v.67Zm.2-.84h.42l.22,0a.18.18,0,0,0,.11-.1.2.2,0,0,0,0-.13.21.21,0,0,0-.07-.17.37.37,0,0,0-.25-.07H233Z" transform="translate(0 1.42)" style="fill:#fff"/><path d="M234.27,207.23v-1.5h1.09v.18h-.89v.46h.83v.17h-.83v.51h.92v.18Z" transform="translate(0 1.42)" style="fill:#fff"/><rect x="135.75" y="174.07" width="67.98" height="45.17" style="fill:#fff"/><path d="M170.67,186.39a9.8,9.8,0,1,0,9.8,9.79A9.79,9.79,0,0,0,170.67,186.39Z" transform="translate(0 1.42)" style="fill:#40c8cb"/><path d="M174.49,195.56,169,192.71a.75.75,0,0,0-1.19.72v5.5a.75.75,0,0,0,1.19.73l5.48-2.86C175.15,196.46,175.15,195.9,174.49,195.56Z" transform="translate(0 1.42)" style="fill:#19374c"/><rect x="135.91" y="147.25" width="22.83" height="3.39" style="fill:#d8dfe2"/><rect x="141.08" y="152.23" width="12.47" height="3.39" style="fill:#d8dfe2"/><rect x="178.54" y="147.25" width="22.83" height="3.39" style="fill:#d8dfe2"/><rect x="183.72" y="152.23" width="12.47" height="3.39" style="fill:#d8dfe2"/><rect x="221.18" y="147.25" width="22.83" height="3.39" style="fill:#d8dfe2"/><rect x="226.36" y="152.23" width="12.47" height="3.39" style="fill:#d8dfe2"/><rect x="263.82" y="147.25" width="22.83" height="3.39" style="fill:#d8dfe2"/><rect x="269" y="152.23" width="12.47" height="3.39" style="fill:#d8dfe2"/><rect x="127.18" y="270.16" width="30.55" height="4.53" style="fill:#d8dfe2"/><rect x="134.11" y="276.82" width="16.69" height="4.53" style="fill:#d8dfe2"/><rect x="194.97" y="270.16" width="30.55" height="4.53" style="fill:#d8dfe2"/><rect x="201.9" y="276.82" width="16.69" height="4.53" style="fill:#d8dfe2"/><rect x="262.76" y="270.16" width="30.55" height="4.53" style="fill:#d8dfe2"/><rect x="269.69" y="276.82" width="16.69" height="4.53" style="fill:#d8dfe2"/></g></g><path d="M384.46,50.86H324.33a8.9,8.9,0,0,0,0,17.79h47.16l-1.33,9.93L380,68.65h4.42a8.9,8.9,0,0,0,0-17.79Z" transform="translate(0 1.42)" style="fill:#86c0ee"/><path d="M381.1,60.6H341.54a1,1,0,0,0,0,2H381.1a1,1,0,0,0,0-2Z" transform="translate(0 1.42)" style="fill:#fff"/><path d="M381.1,55.12H353.9a1,1,0,0,0,0,2h27.2a1,1,0,0,0,0-2Z" transform="translate(0 1.42)" style="fill:#fff"/></g></g></g></svg>