<svg xmlns="http://www.w3.org/2000/svg" xmlns:xlink="http://www.w3.org/1999/xlink" viewBox="0 0 371.12 321.43"><defs><pattern id="New_Pattern_2" data-name="New Pattern 2" width="54" height="54" patternUnits="userSpaceOnUse" viewBox="0 0 54 54"><rect width="54" height="54" style="fill:none"/><rect width="54" height="54" style="fill:#fff"/><path d="M4.33,4.61a1,1,0,1,1,1.93.14,1,1,0,0,1-1.93-.14Z"/><path d="M23.68,4.61a1,1,0,0,1,1-.9,1,1,0,1,1-1,.9Z"/><path d="M41.15,4.61a1,1,0,1,1,1.93.14,1,1,0,0,1-1.93-.14Z"/><path d="M4.33,22a1,1,0,1,1,.9,1A1,1,0,0,1,4.33,22Z"/><path d="M23.68,22a1,1,0,1,1,.9,1A1,1,0,0,1,23.68,22Z"/><path d="M41.15,22a1,1,0,0,1,1-.9A1,1,0,1,1,42.05,23,1,1,0,0,1,41.15,22Z"/><path d="M4.33,39.34a1,1,0,0,1,1.93.13,1,1,0,1,1-1.93-.13Z"/><path d="M23.68,39.34a1,1,0,0,1,1-.9,1,1,0,0,1-.14,1.93A1,1,0,0,1,23.68,39.34Z"/><path d="M41.15,39.34a1,1,0,0,1,1.93.13,1,1,0,0,1-1.93-.13Z"/></pattern></defs><g id="Layer_2" data-name="Layer 2"><g id="OBJEKTS"><path d="M92.37,260.17l-8.07-.08c-17.36-.18-36-.75-50-10.9-20.88-15.06-26.92-43.95-18.69-67.1C24,158.3,41,139.19,58.71,122.21a486.36,486.36,0,0,1,65.81-53c23.94-16,49.83-30,77.82-34A120,120,0,0,1,275.7,48.63c8,4.34,16.31,7.72,21.88,15.06,8.48,11.2,16.29,22.41,26.14,32.54,8.14,8.36,17.63,16.08,23.92,26,6.9,10.84,9.14,23.47,9.82,36.12a189.77,189.77,0,0,1-9.75,70.85c-2.56,7.53-5.84,15.25-12.07,20.19-5.25,4.19-12,5.91-18.6,7.21-28.53,5.62-57.86,5.34-86.93,5Z" style="opacity:0.68;fill:url(#New_Pattern_2)"/><path d="M215.73,275.29a12.45,12.45,0,0,0,2.07-.17c2.95-.42,5.92.14,8.86.29a40.48,40.48,0,0,0,4.28-.23c1.13-.06,2.19,0,3.14-.75a1.81,1.81,0,0,0,.67-1.83c-.28-1-1.41-1.29-2.38-1.49l-7.08-1.46c-.95-.2-2.8-.6-3-1.78a9.37,9.37,0,0,1,.28-2.13q.1-1.12.15-2.25c.06-1.36.5-2.69-1.22-2.78l-5.51-.3a1.11,1.11,0,0,0-.51.06,1.07,1.07,0,0,0-.45.76l-.75,3c-.39,1.57-.78,3.14-1,4.74-.18,1.14-.15,2.29-.26,3.43-.07.7-.26,1.4.25,2A3.37,3.37,0,0,0,215.73,275.29Z" style="fill:#374151"/><path d="M229.43,281.46a1.39,1.39,0,0,0,.68,1,11.29,11.29,0,0,0,2.8.44,15,15,0,0,0,4,.26c1-.08,2-.31,3-.35,2.85-.12,5.76,1,8.57.16,1-.28,2.61-.9,2.9-2,.38-1.45-.91-2.37-2.12-2.7a19.05,19.05,0,0,0-4.76-.67,9.65,9.65,0,0,1-1.94-.16,2.42,2.42,0,0,1-1.89-3.17q.72-3,1.42-6a33.11,33.11,0,0,0-9.91.65.7.7,0,0,0-.74.65c-.52,2.18-.25,4.24-1,6.33C230.09,276.91,229.09,279.82,229.43,281.46Z" style="fill:#374151"/><path d="M138,156.49a16.48,16.48,0,0,1,2-.48,5.59,5.59,0,0,0,2.86-1.76,6.43,6.43,0,0,1,1.86-1.43c2.31-1,3.47,1,2.62,3a7.65,7.65,0,0,1-3.26,3.93c-1.71.85-3.45.91-5,2.13-.39.31-4.45,3.72-4.28,3.93-.76-.94-2.41-3-2.32-4.28a4.71,4.71,0,0,0,2.56-2.09,8.18,8.18,0,0,1,2.19-2.58A3.35,3.35,0,0,1,138,156.49Z" style="fill:#fff;stroke:#374151;stroke-miterlimit:10"/><rect x="101.92" y="208.43" width="1.75" height="38.62" style="fill:#374151"/><path d="M87.49,255.15c0-5.7,10.09-8.1,15.13-8.11,6,0,15.13,2.21,15.13,8.11" style="fill:#fff;stroke:#374151;stroke-miterlimit:10"/><line x1="102.79" y1="256.67" x2="102.79" y2="247.2" style="fill:#fff;stroke:#374151;stroke-miterlimit:10"/><path d="M120.23,256.52a2.48,2.48,0,1,1-2.48-2.47A2.48,2.48,0,0,1,120.23,256.52Z" style="fill:#374151"/><path d="M105.22,256.52a2.48,2.48,0,1,1-2.47-2.47A2.48,2.48,0,0,1,105.22,256.52Z" style="fill:#374151"/><path d="M90.21,256.52a2.48,2.48,0,1,1-2.47-2.47A2.47,2.47,0,0,1,90.21,256.52Z" style="fill:#374151"/><path d="M101.1,195.46V167.05a8.9,8.9,0,0,0-8.91-8.9h-9.8a8.9,8.9,0,0,0-8.91,8.9v31.77a12.79,12.79,0,0,0,12.76,12.75h32a1.5,1.5,0,0,0,1.5-1.5h0a1.5,1.5,0,0,0-1.5-1.5h-4A13.1,13.1,0,0,1,101.1,195.46Z" style="fill:#fff;stroke:#374151;stroke-miterlimit:10"/><path d="M163.08,248.63c.24.42.48.84.76,1.24a5.27,5.27,0,0,0,4.43,2.16c1.71-.22,3.39-.83,5.12-.75a2.7,2.7,0,0,1,1.76.62c2,1.95-2.76,3.69-4.07,4.08l-8.93,2.68a3.65,3.65,0,0,1-1.72.23,2.5,2.5,0,0,1-2.08-2c-.43-1.3-.94-2.55-1.46-3.84a40,40,0,0,1-2-6.42,3.87,3.87,0,0,1-.08-1.85,2.35,2.35,0,0,1,2.1-1.62,3.84,3.84,0,0,1,1.2.25C160.88,244.26,161.74,246.22,163.08,248.63Z" style="fill:#fff;stroke:#374151;stroke-miterlimit:10"/><path d="M146.15,202.92a15.17,15.17,0,0,0-.88-5.79,10.68,10.68,0,0,0-6.26-6.45,17.65,17.65,0,0,0-5.18-.7l-22.67-.8c-6.57-.23-14.16,5.1-14,12.31.12,4.46,3.17,9.1,8,9.24.1,0,.21,0,.31,0l21.54.12c5,0,11.62,2.11,16.18-.67a5.57,5.57,0,0,0,1.66-1.47,6.47,6.47,0,0,0,.89-2.43A22.16,22.16,0,0,0,146.15,202.92Z" style="fill:#374151"/><path d="M116.65,200.46c6.93,3.77-5.85,10.25-12.51,10.27l-11.58,0c-6.7,0-11.9-3.36-12.11-10v-20l25.66.06S109.12,196.37,116.65,200.46Z" style="fill:#374151"/><path d="M141.72,203.57c-5.38-3.59-27.12-8.86-30.08-10A37.69,37.69,0,0,0,93,191.1c-5.31.7-10.89,1.6-12.21,7.59a10,10,0,0,0,7.59,11.87l.36.07,49.94,9.86a3.18,3.18,0,0,0,.33.09,7.33,7.33,0,0,0,8.74-5.64C148.73,210.63,146.27,206.6,141.72,203.57Z" style="fill:#374151"/><path d="M135,251a5.1,5.1,0,0,0,1.56,4.08c2,1.87,5,2.13,7.11,3.83a1.55,1.55,0,0,1,.48.54,1.2,1.2,0,0,1-.35,1.29c-1.85,1.77-6.1,0-8.26-.34l-8.15-1.46a1.3,1.3,0,0,1-1-1.54l1.56-7.74.23-1.14a3.46,3.46,0,0,1,4.12-2.72,3.65,3.65,0,0,1,2.76,3.6C135,250,135,250.48,135,251Z" style="fill:#fff;stroke:#374151;stroke-miterlimit:10"/><path d="M107.25,152.22c-.22-1.12-.43-2.24-.64-3.37q1.22,7.29,2.34,14.6c.7,4.59,1.15,9.26,2.63,13.69.49,1.5,1.22,4.16,2.92,4.77,2.15.77,3.57.45,5.74.47a10.24,10.24,0,0,0,2.77-.22c2.51-.67,4.13-3.08,5.23-5.44a14,14,0,0,1,4.79-6q2.44-1.8,4.71-3.82c.55-.5,1.95-1.38,2.2-2.08s-.18-1.05-.75-1.63c-1.81-1.85-3.82-3.54-5.53-5.49l-5.08,4.71L125,165.71c-.58.54-3.77,2.68-3.73,3.21a43.51,43.51,0,0,0-1.95-11.25,5.17,5.17,0,0,1-.36-1.26,6,6,0,0,1,.2-1.73,14.53,14.53,0,0,0-1.14-9,9.48,9.48,0,0,0-6.15-5.56,33.52,33.52,0,0,0-5.56-1.48c-.32-.05-.75,0-.82.3a.78.78,0,0,0,0,.37m3.09,17.72.32-.05Zm-.31.06.11,0Z" style="fill:#fff;stroke:#374151;stroke-miterlimit:10"/><path d="M163.85,246.64c-4.4-9.11-7.55-18.65-10.94-28.15-1.63-4.56-3.31-9.24-6.3-13.1-1.38-1.8-2.65-3.18-4.94-3.67a14.63,14.63,0,0,0-6.28.26c-1.14.25-2.15.85-3.27,1.11-1.52.34-3.87,0-4.47,1.88a5.05,5.05,0,0,0,.09,2.67,26.21,26.21,0,0,0,1.37,4.24c.74,1.76,1.67,3.44,2.29,5.25.48,1.38.77,2.82,1.32,4.17a12.54,12.54,0,0,0,4.33,5.39,12.47,12.47,0,0,1,3.27,2.66,10.39,10.39,0,0,1,1,2.65c.92,2.42,2,5,4.16,6.39a6.19,6.19,0,0,1,1.67,1.17,4.24,4.24,0,0,1,.6,1.25,13.07,13.07,0,0,0,1.86,3.76c.78,1,1.82,1.76,2.62,2.74a16.36,16.36,0,0,1,1.63,3.4C154,251.05,163.91,246.76,163.85,246.64Z" style="fill:#374151"/><path d="M97.82,138.78l-3.9.4c-4.14.43-8.53.95-11.76,3.57a15,15,0,0,0-5.35,13.53c.45,2.69,1.3,5.31,1.59,8q1.47,13.58,2.14,27.22c4.39-.2,8.8-.24,13.2-.47,5.39-.28,11.46-.52,16.64-2.48.6-7.5,2.64-14.9,2.52-22.43l-.17-11" style="fill:#fff;stroke:#374151;stroke-miterlimit:10"/><path d="M145,226.77l.3-.65a9.06,9.06,0,0,0,.46-1.36c1.42-5.38,3.3-11.21,2.72-17-.51-5.08-.47-11.53-5.4-14.62-4.1-2.56-9.8-4.24-13.35,0a8.21,8.21,0,0,0-1.56,3.09c-2.17,7.88,1.45,14.67.41,22a16.36,16.36,0,0,0-.14,5.58c.12.61.32,1.21.4,1.83a11.62,11.62,0,0,1-.69,4.49,15.91,15.91,0,0,0-.69,4.79c.08,1.66.58,3.29.59,5a17.11,17.11,0,0,1-.47,3.62c-.32,1.54-1.83,4.67.18,5.3,1.23.39,2.66.32,3.94.65.42.11,3.51.9,5.09,1.44a.76.76,0,0,0,1-.64c.29-2.19,1.35-4.5,1.92-6.56q1.14-4.09,2.12-8.23c.32-1.33.62-2.66,1-4A40.94,40.94,0,0,1,145,226.77Z" style="fill:#374151"/><path d="M107.94,128.32l-1.55-9.39-6.06,1.4A7.16,7.16,0,0,0,95,128.91l.54,2.3a6.31,6.31,0,0,0,1.17,2.46l-1.21,5.7a4.82,4.82,0,1,0,9.47,1.71l1-6.52A6.38,6.38,0,0,0,107.94,128.32Z" style="fill:#fff;stroke:#374151;stroke-miterlimit:10"/><path d="M109.57,178.06a27.25,27.25,0,0,1,7.45,3.15c2.18,1.16,2.6,3.31-.29,3.83a12.11,12.11,0,0,1-4.75.23c-1.64-.35-2.11-1.29-3.17-2.35-.89-.9-2.42-.46-3.72-1a2,2,0,0,1-1.2-1.07,2.28,2.28,0,0,1,.2-1.57,3.22,3.22,0,0,1,.74-1.25,3,3,0,0,1,2.74-.38C108.23,177.78,108.9,177.92,109.57,178.06Z" style="fill:#fff;stroke:#000;stroke-miterlimit:10"/><path d="M106.72,120.48a7.88,7.88,0,0,1-3.47,1.5,25.07,25.07,0,0,0-3.47.55c-3,1-2.61,4.27-2.35,6.81.09.9-.71,3.91-2,3.43-.82,0-1-1.22-1.14-1.74-.37-1-.79-2-1.18-3a5,5,0,0,1-.49-2.17c.08-1.09.86-2,1.09-3.08.18-.82,0-1.68.16-2.51a4.18,4.18,0,0,1,1.85-2.75c1.42-.92,3.08-.56,4.51-1.34a20.54,20.54,0,0,0,2.07-1.68,5,5,0,0,1,3.8-.87,3.42,3.42,0,0,1,2.62,2,3.64,3.64,0,0,1-.43,3A6.21,6.21,0,0,1,106.72,120.48Z" style="fill:#374151"/><path d="M98.7,128.21a2,2,0,1,1-2.41-1.5A2,2,0,0,1,98.7,128.21Z" style="fill:#fff"/><path d="M76.8,152c-.48,4.09-.57,8.23-.81,12.34a39.65,39.65,0,0,0,1.21,13.38,10.16,10.16,0,0,0,1.83,3.8c3.35,3.9,11.61,2.3,16.16,2.29h11.25c.06-.17.11-.35.16-.53.3-1.54,1.3-5.18,1.57-6.73L101,176l-6.16-.5c-1.65-.14-4.17.25-4.45-1.94a8.79,8.79,0,0,0-.29-2.3c-.45-1.06-1.73-1.64-2-2.76a8.91,8.91,0,0,1,.2-2.71,11.39,11.39,0,0,1,1.18-3.59,27.89,27.89,0,0,0,1.87-6.2l-.36,0" style="fill:#fff;stroke:#374151;stroke-miterlimit:10"/><path d="M158.45,183.41h-43.6a1.53,1.53,0,0,1,1.53-1.52h42.07Z" style="fill:#5757ff"/><path d="M165.94,181.89H122.38l7.77-23a2,2,0,0,1,1.95-1.33h39.27a1.93,1.93,0,0,1,2,2.46Z" style="fill:#818cf8"/><path d="M165.18,183.41h-43v-1.52l43.77-2v2.76A.76.76,0,0,1,165.18,183.41Z" style="fill:#818cf8"/><path d="M148.44,170.26c-.85,0-1.66-.72-1.08-1.72a1.43,1.43,0,0,1,1.23-.66h.06l.09,0A1.19,1.19,0,0,1,148.44,170.26Z" style="fill:#c9cdd1"/><path d="M121.33,168.72a3.31,3.31,0,0,1-.54.87c-.2.27-.39.56-.57.86s-.31.41-.42.65" style="fill:#fff;stroke:#374151;stroke-miterlimit:10"/><path d="M101.08,134.41c1.32,1.65,3.1,2.92,4.29,4.66.15-1.11.29-2.23.43-3.35a16.15,16.15,0,0,1,.41-1.73C104.43,134.4,102.94,134.87,101.08,134.41Z" style="fill:#374151"/><path d="M103.16,130.19a1.39,1.39,0,0,0,1.09,1.17,1.68,1.68,0,0,0,1.55-.52,2.19,2.19,0,0,0,.55-1.57s-.08,0-.06.06" style="fill:#374151"/><path d="M97,127.94a1,1,0,0,0-.92.3.87.87,0,0,0-.12.95.77.77,0,0,0,.87.37" style="fill:#374151"/><path d="M128,223.9a16.64,16.64,0,0,1,.61-6.12c.44-1.48.94-2.79.59-4.31a6.69,6.69,0,0,1,0-4.22" style="fill:none;stroke:#fff;stroke-miterlimit:10"/><path d="M147.24,194.94c3.46,8.9.49,18.82-2,28.05q-2.4,9-4.1,18.18" style="fill:none;stroke:#fff;stroke-miterlimit:10"/><path d="M80.87,178.9a1.51,1.51,0,0,0,.19,1.08,1.15,1.15,0,0,0,.42.43,2.11,2.11,0,0,0,1.41.11"/><path d="M103.27,160l.12-.1"/><circle cx="195.23" cy="56.76" r="6" style="fill:#374151"/><circle cx="316.23" cy="56.76" r="6" style="fill:#374151"/><circle cx="74.23" cy="56.76" r="6" style="fill:#374151"/><path d="M95.58,54.56v-.2A21.24,21.24,0,0,0,74.33,33.12h0A21.24,21.24,0,0,0,53.09,54.36v.2Z" style="fill:#818cf8"/><path d="M337.26,54.56v-.2A21.24,21.24,0,0,0,316,33.12h0a21.24,21.24,0,0,0-21.24,21.24v.2Z" style="fill:#818cf8"/><line x1="316.49" x2="316.49" y2="33.12" style="fill:#fff;stroke:#374151;stroke-miterlimit:10"/><path d="M216.26,54.56v-.2A21.24,21.24,0,0,0,195,33.12h0a21.24,21.24,0,0,0-21.24,21.24v.2Z" style="fill:#818cf8"/><line x1="195.49" x2="195.49" y2="33.12" style="fill:#fff;stroke:#374151;stroke-miterlimit:10"/><line x1="75.28" x2="75.28" y2="33.12" style="fill:#fff;stroke:#374151;stroke-miterlimit:10"/><path d="M286.61,169.68c0,1,.08,1.46-.81,1.84a15.91,15.91,0,0,1-3.26.46,16.59,16.59,0,0,0-6.07,2.19c-3.13,2-6.88,2.43-10.15,4.52a7.18,7.18,0,0,1-1.71.9,8.09,8.09,0,0,1-2.41.11,8.63,8.63,0,0,0-6.49,2.15,1.58,1.58,0,0,0,.32,2.91c2.85,1.28,5.85.44,8.6-.61a27.76,27.76,0,0,1,7.65-1.25c4.11-.3,8.27-.08,12.33-.92a26.4,26.4,0,0,0,6.37-2c1.83-.91,4.1-1.84,5-3.85a8,8,0,0,0,.38-1.2l2.28-9a25.59,25.59,0,0,0,.45-7.05,20.35,20.35,0,0,0-1-5.84,19.61,19.61,0,0,0-1.7-4.43,5,5,0,0,0-3.67-2.24c-3-.3-5.78,1.63-5.59,4.77.24,3.83-1,7.62-.18,11.43a6.51,6.51,0,0,1,.22,1.38,6.2,6.2,0,0,1-.2,1.35A21.78,21.78,0,0,0,286.61,169.68Z" style="fill:#fff;stroke:#374151;stroke-miterlimit:10"/><path d="M276.9,238.31c1.2,1.78,2.06,3.47,1.74,5.86-.47,3.5-3.33,5.81-4.08,9.21a1.75,1.75,0,0,0,1.37,2.26c3.3.87,6.19-4,8.06-5.87l7.05-7.09a1.84,1.84,0,0,0-.19-2.52L283,232l-1.15-1.21c-1.92-2-4.79-2.22-6.37-.49-1.36,1.5-1.25,4.07.13,6.08C276.05,237.07,276.49,237.7,276.9,238.31Z" style="fill:#374151"/><rect x="303.17" y="205.54" width="1.75" height="38.62" transform="translate(608.1 449.7) rotate(180)" style="fill:#374151"/><path d="M319.36,252.26c0-5.7-10.09-8.09-15.14-8.1-6,0-15.13,2.2-15.13,8.1" style="fill:#fff;stroke:#374151;stroke-miterlimit:10"/><line x1="304.05" y1="253.78" x2="304.05" y2="244.31" style="fill:#fff;stroke:#374151;stroke-miterlimit:10"/><path d="M286.62,253.64a2.48,2.48,0,1,0,2.47-2.48A2.47,2.47,0,0,0,286.62,253.64Z" style="fill:#374151"/><path d="M301.62,253.64a2.48,2.48,0,1,0,2.48-2.48A2.48,2.48,0,0,0,301.62,253.64Z" style="fill:#374151"/><path d="M316.63,253.64a2.48,2.48,0,1,0,2.47-2.48A2.48,2.48,0,0,0,316.63,253.64Z" style="fill:#110809"/><path d="M305.75,192.58V164.16a8.9,8.9,0,0,1,8.9-8.9h9.81a8.9,8.9,0,0,1,8.9,8.9v31.77a12.79,12.79,0,0,1-12.75,12.75h-32a1.5,1.5,0,0,1-1.5-1.5h0a1.5,1.5,0,0,1,1.5-1.5h4A13.11,13.11,0,0,0,305.75,192.58Z" style="fill:#fff;stroke:#374151;stroke-miterlimit:10"/><path d="M274.23,247.34c-.38,2.12-.94,3.93-2.83,5.42-2.77,2.19-6.43,1.87-9.34,3.79a2.07,2.07,0,0,0-.69.66,2,2,0,0,0,.1,1.91c1.77,2.92,7.23,1.44,9.88,1.39l10-.2a1.83,1.83,0,0,0,1.62-1.94v-13c0-2.77-1.89-4.93-4.23-4.78-2,.13-3.73,2-4.14,4.45C274.47,245.86,274.36,246.62,274.23,247.34Z" style="fill:#374151"/><path d="M292.76,176.14h0a.42.42,0,0,0,0-.12Z" style="fill:#7a483a"/><polygon points="299.45 144.32 299.32 144.94 299.32 144.94 299.45 144.32" style="fill:#7a483a"/><path d="M292.86,175.67a3.59,3.59,0,0,1-.08.35l.1-.45S292.87,175.64,292.86,175.67Z" style="fill:#7a483a"/><polygon points="286.19 151.38 287.24 142.66 286.21 151.39 286.19 151.38" style="fill:#7a483a"/><path d="M287.55,142.75a9.28,9.28,0,0,1,4.35-5.6,15.7,15.7,0,0,1,2.1-.81,33.78,33.78,0,0,1,5.56-1.48c.32-.05.75,0,.83.3a.79.79,0,0,1-.05.37c-.11.5.16.94.1,1.43a18.27,18.27,0,0,1-.49,1.9,11.43,11.43,0,0,0-.52,4c.21,2-.85,3.7-.85,5.64-.07.32-1,4.84-1,4.83l-11.35-1.91C286.56,148.46,286.63,145.51,287.55,142.75Z" style="fill:#374151"/><path d="M259.25,199a8.85,8.85,0,0,1,.44-3.7c.82-2.52,3.27-4.23,5.82-5a32.59,32.59,0,0,1,7.9-.76c5.31-.2,10.63-1.87,15.91-1.65,1.37.06,2.72.44,4.09.38,3.6-.13,6.58-3.18,10.18-3.42a9.88,9.88,0,0,1,3.49.5,10.33,10.33,0,0,1,4.92,2.91c2.48,2.88,2.25,7.27.84,10.79a12.16,12.16,0,0,1-2.39,3.89,13.06,13.06,0,0,1-5.5,3.12,19.19,19.19,0,0,1-6.67.69l-16.17-.13c-4,0-7.9.48-11.87.15C265.35,206.37,259.82,203.88,259.25,199Z" style="fill:#374151"/><path d="M263.24,191.55a7.07,7.07,0,0,1,7-1.23,8.7,8.7,0,0,1,3.53,2.49c4.84,5.49,5.79,14.57,7.22,21.45q1.25,6,2.19,12.09c.18,1.15,2.21,11.48,1.54,11.82s-11.79,1.36-11.7,1.6c-2.13-5.56-4.65-11.12-6.39-16.8a95.32,95.32,0,0,0-3.9-9.28,57.45,57.45,0,0,1-3.6-11.45A10.3,10.3,0,0,1,263.24,191.55Z" style="fill:#374151"/><path d="M293.07,199.63c-.13.18-.26.35-.38.54-3.4,5.41,5.73,6.72,9,6.73l11.57,0c6.7,0,11.9-3.36,12.11-10V177l-14.32,0c-2.86,0-6-.37-8.86,0-2,.28-1.77-.18-2.61,1.82-1.05,2.51-.5,6.49-1,9.22a20.42,20.42,0,0,1-3.95,9.67C294.16,198.36,293.57,199,293.07,199.63Z" style="fill:#5757ff"/><path d="M282.68,216.32c-.74-.28-1.69-1.56-2.5-1.37s-1.42,1.59-1.74,2.2c-.87,1.68-1.36,3.6-2.62,5a1.06,1.06,0,0,1-.42.34,1.11,1.11,0,0,1-1.06-.36c-2.42-2.16-2.59-6.5-2.76-9.53a14.56,14.56,0,0,1,6.57-12.79,33.39,33.39,0,0,1,4.49-2.21,98.54,98.54,0,0,0,14.23-7.77,30.23,30.23,0,0,1,6-3,22.21,22.21,0,0,1,11.61-1.24c4.76.76,9.54,1.73,11.05,8.5,1.17,5.25-.86,10.1-4.4,11.39l-.24.07-32.86,11-.21.09a4.26,4.26,0,0,1-.54.16A7.91,7.91,0,0,1,282.68,216.32Z" style="fill:#818cf8"/><path d="M293.61,139.32a5.55,5.55,0,0,1,1.33-2c3-2.83,7.84-2.71,11.71-2.84a38.89,38.89,0,0,1,7.55.37,23.58,23.58,0,0,1,7,2.64,14.66,14.66,0,0,1,3.76,2.37c2.47,2.37,3,6.1,3.06,9.52s-2.91,38.36-2.72,38.37c-4.4-.21-8.81-.24-13.2-.47-2.25-.12-4.51-.22-6.75-.44-1.23-.11-2.47,0-3.69-.11-1.37-.16-1.23-.73-2.17-1.32-.47-.3-.88-.06-1.2-.46s-.12-1.61-.15-2.05c-.1-1.46-.15-2.92-.3-4.38-.17-1.64-.6-3.21-.72-4.89a90.44,90.44,0,0,0-1.36-12.4c-.79-3.65-2.15-7.16-2.87-10.82a19.67,19.67,0,0,1-.18-7.68A19,19,0,0,1,293.61,139.32Z" style="fill:#374151"/><path d="M309.69,128.88c.55-.71.41-.57.63-1.5l2.15-9.26-13-3-1.55,9.4a6.36,6.36,0,0,0,2,6.24l1,6.52a4.82,4.82,0,1,0,9.48-1.71Z" style="fill:#fff;stroke:#374151;stroke-miterlimit:10"/><path d="M300.67,132.35a3.61,3.61,0,0,0,3.61-2.32c0,.09-.32.17-.4.2a5.54,5.54,0,0,1-2.43.2,3.28,3.28,0,0,1-1.52-.4c-.05,0-.09-.06-.14-.05a.13.13,0,0,0-.11.08.77.77,0,0,0,.1.82,1.16,1.16,0,0,1,.37.53,6.42,6.42,0,0,1,.1.75C300.26,132.24,300.46,132.3,300.67,132.35Z" style="fill:#374151"/><path d="M298.79,117.09c.91.3,1.88.52,2.81.76,1.34.35,2.69.63,4,1,3.54,1,2.74,4.54,2.75,7.5a2.59,2.59,0,0,0,.74,2.23c1.87,1.28,2.32-2.71,2.78-3.62.25-.49.62-.92.83-1.44.41-1.06,0-2.26.19-3.4.07-.51.24-1,.29-1.52.17-2.16-1.81-4.15-3.58-5a9.22,9.22,0,0,1-3.8-3,2.93,2.93,0,0,0-.48-.62,1.68,1.68,0,0,0-.53-.28,3.44,3.44,0,0,0-3.16.52,4.15,4.15,0,0,1-.85.61,3.55,3.55,0,0,1-1.59,0,2.93,2.93,0,0,0-2.19.69,1.94,1.94,0,0,0-.55,2.14c.19.44.55.77.75,1.2.46,1,.24,1.76,1.35,2.15Z" style="fill:#374151"/><path d="M307,125a1.38,1.38,0,1,0,1.65-1A1.37,1.37,0,0,0,307,125Z" style="fill:#fff"/><path d="M276.15,202.78a22,22,0,0,0-2.52,6.31c-.87,3.46-1.73,7-1.2,10.57.15,1,.43,2.05.49,3.1.1,1.86-.48,3.7-.46,5.56a21.32,21.32,0,0,0,.6,4,41.45,41.45,0,0,1,.74,9.75c0,1.07-.08,2.13-.14,3.2a7.25,7.25,0,0,1-.3,2.81c1.26.2,2.53.35,3.79.52,2.35.32,4.71.63,7.08.81.73.06,2.32.45,2.95,0s.6-1.66.74-2.24c1.09-4.35,2-8.92,1.15-13.39-.16-.81-.38-1.61-.46-2.43a12.64,12.64,0,0,1,.12-3.07c.56-4.21,1.6-8.34,2.14-12.57.58-4.44,1-8.92,1.31-13.38.61-7.91-10.25-5.34-13.89-2A12.39,12.39,0,0,0,276.15,202.78Z" style="fill:#818cf8"/><path d="M243.39,104.62h-.32S243.39,104.58,243.39,104.62Z" style="fill:#110809"/><path d="M312.92,143.69c-1.41,1.34-3.59,2.36-5.22,3.43a12.94,12.94,0,0,0-4.95-2.76c-1-.3-2.07-.48-3.06-.84-4.52-1.65-8-5.06-12.66-6.57-2.34-.76-4.93-1.32-6.53-3.17-2-2.29-2.35-5.71-3.8-8.3-.57-1-1.47-1.89-2.65-.78-.91.86-.6,2.53-.41,3.6.29,1.64.64,3.26,1,4.89.5,2.38.77,3.21,2.92,4.37a23.36,23.36,0,0,1,5.92,4.39c1.07,1.15,2,2.46,3,3.65,3.65,4.17,8.95,6.53,13,10.32,1.95,1.83,4,4.33,7,3.52.95-.27,12.2-3.24,11.83-3.89a54.81,54.81,0,0,1-3.36-7.26C314.29,146.74,313.46,145.26,312.92,143.69Z" style="fill:#fff;stroke:#374151;stroke-miterlimit:10"/><path d="M325.23,150.53a12.55,12.55,0,0,1-6.94,5.37" style="stroke:#fff;stroke-miterlimit:10"/><path d="M235.9,111.23v.11" style="fill:#fff;stroke:#000;stroke-miterlimit:10"/><path d="M282.62,174.19h-49a1.8,1.8,0,0,1-1.76-1.41l-6.09-28.19a1.8,1.8,0,0,1,1.76-2.18h49a1.8,1.8,0,0,1,1.75,1.42L284.38,172A1.79,1.79,0,0,1,282.62,174.19Z" style="fill:#374151"/><path d="M255.85,182.21l1-11.6a1.88,1.88,0,0,0-3.75-.32l-1,11.92H245v1.2h18.13v-1.2Z" style="fill:#374151"/><path d="M247.48,148.85c-.14-1.19-2-1.21-1.89,0l.45,3.89c.14,1.19,2,1.2,1.89,0Z" style="fill:#fff"/><path d="M251.26,148.85c-.14-1.19-2-1.21-1.89,0l.45,3.89c.13,1.19,2,1.2,1.88,0S251.41,150.15,251.26,148.85Z" style="fill:#fff"/><path d="M255,148.85c-.13-1.19-2-1.21-1.88,0s.29,2.59.44,3.89,2,1.2,1.89,0Z" style="fill:#fff"/><path d="M258.81,148.85c-.14-1.19-2-1.21-1.89,0l.45,3.89c.14,1.19,2,1.2,1.89,0Z" style="fill:#fff"/><path d="M262.59,148.85c-.14-1.19-2-1.21-1.89,0l.45,3.89c.13,1.19,2,1.2,1.88,0S262.74,150.15,262.59,148.85Z" style="fill:#fff"/><path d="M294.17,174.45a2.69,2.69,0,0,1-.51,2.45,3,3,0,0,1-1.36.55" style="fill:#374151"/><path d="M303.72,156a1.68,1.68,0,0,0,1.27,1.3,1.7,1.7,0,0,0,1.7-.66" style="fill:#110809"/><path d="M186.47,116.45a1.17,1.17,0,0,0,.64-.56C187.18,115.89,186.4,116.45,186.47,116.45Z" style="fill:#110809"/><rect x="48.23" y="183.31" width="305.08" height="3.37" style="fill:#374151"/><polygon points="350.14 263.4 347.82 263.4 328.83 183.96 331.16 183.96 350.14 263.4" style="fill:#374151"/><polygon points="329.13 263.4 326.81 263.4 307.83 183.96 310.15 183.96 329.13 263.4" style="fill:#374151"/><polygon points="52.23 263.4 54.55 263.4 73.53 183.96 71.21 183.96 52.23 263.4" style="fill:#374151"/><polygon points="73.24 263.4 75.56 263.4 94.54 183.96 92.22 183.96 73.24 263.4" style="fill:#374151"/><path d="M234.53,217c-1-4.84-9.75-4.46-13.68-5.14-5.34-.93-10.69-1.82-16-2.79a5.16,5.16,0,0,0-3.63.29,5,5,0,0,0-1.43,1.53,18.48,18.48,0,0,0-3.36,7.43,7.8,7.8,0,0,0,2.17,7.16c1.76,1.52,4.29,1.93,6.7,2.25,1.46.19,2.86.52,4.31.77A5.47,5.47,0,0,1,212,229c2.09,1.41,1.52,4.77,1,6.93s-1.2,4.22-.67,6.19a14.42,14.42,0,0,1,.45,1.59,6.51,6.51,0,0,1-.14,2.1c-.65,3.69-1.95,7.66-.53,11.15a6.4,6.4,0,0,1,.45,1.27,3.91,3.91,0,0,1,0,1.13q-.42,3.75-.86,7.52s8.58.39,9.24.4c1,0,3.17.39,4.07-.16,1.39-.85,1.67-5,1.91-6.53.34-2.17.49-4.37.9-6.52.75-3.89,2.37-7.57,3.08-11.46.35-2,.22-4,.61-5.91.33-1.62.74-3.23,1-4.88q1-5.94,2-11.89a8.76,8.76,0,0,0,.17-2.69C234.56,217.13,234.54,217,234.53,217Z" style="fill:#374151"/><path d="M232.85,239.28l-.75,2a16.54,16.54,0,0,0-1.37,5.13c-.09,1.78.39,3.54.42,5.32.07,3-1.48,5.65-1.5,8.6,0,1.1.3,2.17.38,3.27a16,16,0,0,1-.22,3.31c-.25,1.78-.49,3.56-.74,5.34-.2,1.47-.65,2.44,1,2.6,4.43.43,8.66-.25,13.07-.54a.76.76,0,0,0,.51-.16.86.86,0,0,0,.17-.36,142.63,142.63,0,0,0,3.86-18.45,5.43,5.43,0,0,1,.38-1.66,8.66,8.66,0,0,1,1.31-1.73c1.13-1.4,1.15-2.86,1.64-4.48s1-3.09,1.38-4.73q1.26-5.82,2.48-11.64c.68-3.21,1.49-6.09-.22-9.16a9.08,9.08,0,0,0-2.31-2.48A46.21,46.21,0,0,0,225,209.22c-3.7-.12-8.36-.36-9.75-3.79a18.3,18.3,0,0,1-.6-4.14c-.62-4-6.87-5-10.13-3.92-4.4,1.42-5.77,6.87-6.26,11.46-.4,3.76-.66,7.63.42,11.26,1.61,5.39,6.12,9.6,11.27,11.86a37.4,37.4,0,0,0,12.88,2.69c3.35.2,6.67-.43,10-.81,2.35-.26,2,.4,1.24,2.36Z" style="fill:#818cf8"/><path d="M203.33,139.21c.12.58.24,1.17.34,1.76.2,1.15.31,2.49-.47,3.37-.46.5-1.14.76-1.6,1.26a3.46,3.46,0,0,0-.58,2.85c.18,1.19.19,2.25.26,3.4s.61,2.4.55,3.68a3.81,3.81,0,0,1-4.19,3.85c-1.38-.1-2.94-.29-3.77-1.39a4.78,4.78,0,0,1-.72-1.88c-1.13-5-2.27-10.16-1-15.08a18.16,18.16,0,0,1,2.16-5.54,15.65,15.65,0,0,1,2.74-3.46,3,3,0,0,1,3.57-.31,4.31,4.31,0,0,1,1.28,2.18A50.63,50.63,0,0,1,203.33,139.21Z" style="fill:#fff;stroke:#000;stroke-miterlimit:10"/><path d="M215.94,159.77a6.44,6.44,0,0,1,2.95-4.5,34.58,34.58,0,0,1,5.44-2.73l.76-.27c5-1.78,10.24-2.88,15.15-4.88,5.43-2.22,10.66-4.86,16-7.32a54.33,54.33,0,0,0,10.2-5.8c2.67-2,1.83-6.06,3.12-8.83.55-1.19,1.59-2.43,2.55-.81s.64,3.49.85,5.16a8.67,8.67,0,0,1-.29,4.92,9.12,9.12,0,0,1-2.37,2.78l-2.64,2.37c-1,.9-2,1.88-3.08,2.69q-5,3.81-9.71,8.08c-3.07,2.81-5.87,5.69-9.39,8a40.46,40.46,0,0,1-11.21,5.12l-.2.06c-3.89,1.06-7.46,2.65-11.64,2.21C219.16,165.67,215.31,163.53,215.94,159.77Z" style="fill:#fff;stroke:#374151;stroke-miterlimit:10"/><path d="M213.57,200c0,.12-10.69.66-11.68.72-1.93.13-4.4.71-6.3.39-1.22-.2-1.73-1.48-3.17-1.21-.86.16-1.88.47-2.51-.14a2.31,2.31,0,0,1-.5-1.57l-.66-12.07c-.19-3.32-4.28-4.23-6.67-5.75l-4.88-3.09a64.32,64.32,0,0,1,12.3-17.52c5.25-5.46,9-6,16.65-6a76.09,76.09,0,0,0,18.39-2.44c1.44,5.09,3,10.22,4.34,15.29a74.26,74.26,0,0,1-11.63,4.56,4.1,4.1,0,0,0-3.5,4.76Z" style="fill:#374151"/><line x1="346.99" y1="316.58" x2="328.7" y2="316.58" style="fill:#fff;stroke:#374151;stroke-miterlimit:10"/><path d="M333.12,270.62a5,5,0,0,1,.06-.54c.33-2,1.87-3.46,2.93-5.15a11.23,11.23,0,0,0,1.7-5.48c.15-3.63.05-8.28,1.61-11.63,1.41-3,4.75-4.67,6.47-7.52a17.63,17.63,0,0,0,1.66-5.21,18.44,18.44,0,0,1,3.66-7.87,25.41,25.41,0,0,1,5.28-4.27,27.06,27.06,0,0,1,5.79-3.2c2.74-1,5.77-1.28,7,1.54,1,2.27.51,5.5-.57,7.65a23.58,23.58,0,0,1-3.83,4.93,71.45,71.45,0,0,0-6.64,8.58,6.73,6.73,0,0,0-1.24,2.74,12,12,0,0,0,.3,2.92c.62,4.94-1.42,8.92-5.23,11.93-3,2.37-4.88,3.72-5.64,7.83-.47,2.54-.68,5.24-2.09,7.4a24.91,24.91,0,0,1-2,2.44,19.2,19.2,0,0,0-4.47,10.66c-.17,1.95-.58,6.35-3.72,5.47-3.83-1.08-3.37-12.29-2.24-14.94a18.08,18.08,0,0,0,1.42-3.38C333.65,273.91,333,272.25,333.12,270.62Z" style="fill:#374151"/><path d="M317.49,277.14a5.94,5.94,0,0,1-2-2.17c-1.17-2.46.64-4.14.77-6.45.12-2.1-1.68-3.42-2.83-4.87a6.6,6.6,0,0,1-.83-6.6c.42-.94,1.08-1.87.94-2.88a5.86,5.86,0,0,0-1-2,6.31,6.31,0,0,1-.14-6.13c.57-1.06,1.46-2,1.71-3.16a6.53,6.53,0,0,0-.13-2.41,31.67,31.67,0,0,1-.77-7.81,6.39,6.39,0,0,1,.95-3.26,2.61,2.61,0,0,1,2.67-1.25c1.12.3,1.26,1.19,1.66,2.09a31.71,31.71,0,0,1,1.94,7.71,3.35,3.35,0,0,0,.49,1.39,4.08,4.08,0,0,0,1.26,1c2.95,1.92,5.35,5.07,5.34,8.59,0,2.06-.84,4.05-.87,6.11a2.39,2.39,0,0,0,.37,1.51,3.23,3.23,0,0,0,1.19.81,6.56,6.56,0,0,1,3.1,2.87,6.65,6.65,0,0,1,0,4.77c-.49,1.55-1.27,3-1.79,4.54a3,3,0,0,0-.2,1.18c.09,1,.88,1.42,1.4,2.13a6.33,6.33,0,0,1,.89,2.11c.77,2.26,1.57,4.11,1.21,6.58-.15,1-.44,1.94-.55,2.93a22.67,22.67,0,0,0,.63,5.89c.2,1.3.69,4.34-.65,5.24-1.15.78-2.78-.5-3.75-1.06-3-1.76-5.17-3.18-5.65-6.81-.34-2.58,0-5.55-1.71-7.74A16.44,16.44,0,0,0,317.49,277.14Z" style="fill:#818cf8"/><path d="M337.47,278.73a22.42,22.42,0,0,1,3-5.43c.9-1.21,1.93-2.33,2.73-3.61,1.29-2,2-4.42,3.21-6.49,1.91-3.17,5.72-5,9.22-3.17a16,16,0,0,1,3.29,2.5,28.12,28.12,0,0,1,3.22,3.33,30.27,30.27,0,0,1,4.05,8.34l3.75,10.34c.59,1.63,2,5.37.62,7s-4.25-.69-4.85-2a5.87,5.87,0,0,0-1.74-2.18c-.95-.74-2.16-1.23-2.74-2.27s-.5-2.69-1.61-3.26a8.79,8.79,0,0,0-1-.32,4.29,4.29,0,0,1-2.07-2.11c-1.18-2-2.08-4.18-3.34-6.08-.8.24-1.51,2.66-2.06,3.42a11.88,11.88,0,0,1-2.9,2.89c-1.72,1.2-3.82,2-4.95,3.77a12.59,12.59,0,0,0-1.22,3.25c-.48,1.59-2,6.18-4.44,5.41-1.69-.54-1.61-3.38-1.63-4.73A22.92,22.92,0,0,1,337.47,278.73Z" style="fill:#818cf8"/><path d="M350.42,288.42H314.74v4.46h2.86l2.33,13.17a12.84,12.84,0,0,0,12.65,10.62h0a12.86,12.86,0,0,0,12.65-10.62l2.32-13.17h2.87Z" style="fill:#374151"/><line x1="316.6" y1="293.25" x2="348.56" y2="293.25" style="fill:none;stroke:#fff;stroke-miterlimit:10"/><path d="M202.6,209.88l8.63,1c5.17.62,10.78,1.46,14.35,5.25a15.09,15.09,0,0,1,3.68,8.84,44.6,44.6,0,0,1-.39,9.72" style="fill:none;stroke:#fff;stroke-miterlimit:10;stroke-width:2px"/><rect x="194.92" y="233.43" width="1.75" height="38.62" style="fill:#374151"/><path d="M180.49,280.15c0-5.7,10.09-8.1,15.13-8.11,6,0,15.13,2.21,15.13,8.11" style="fill:#fff;stroke:#374151;stroke-miterlimit:10"/><line x1="195.79" y1="281.67" x2="195.79" y2="272.2" style="fill:#fff;stroke:#374151;stroke-miterlimit:10"/><path d="M213.23,281.52a2.48,2.48,0,1,1-2.48-2.47A2.48,2.48,0,0,1,213.23,281.52Z" style="fill:#374151"/><path d="M198.22,281.52a2.48,2.48,0,1,1-2.47-2.47A2.48,2.48,0,0,1,198.22,281.52Z" style="fill:#374151"/><path d="M183.21,281.52a2.48,2.48,0,1,1-2.47-2.47A2.47,2.47,0,0,1,183.21,281.52Z" style="fill:#374151"/><path d="M207.67,218.88V185.72c0-5.74-5.26-10.39-11.75-10.39H183c-6.49,0-11.75,4.65-11.75,10.39V222.8c0,8.18,7.58,14.88,16.84,14.88h42.18a1.88,1.88,0,0,0,2-1.75h0a1.88,1.88,0,0,0-2-1.75H225C215.42,234.18,207.67,227.33,207.67,218.88Z" style="fill:#fff;stroke:#374151;stroke-miterlimit:10"/><path d="M185.27,129.91a18.7,18.7,0,0,0-5.15.76c-3.21,1.15-4.68,3.55-6.31,6.22s-4.4,4.33-6.46,6.65a13.58,13.58,0,0,0-1.17,16,16.7,16.7,0,0,0,3.93,4.07c8.41,6.36,22.13,1.82,27-7.11,2.58-4.72,1.6-10.51.54-15.79-.57-2.9-.24-5.18,2.77-6.69a19.37,19.37,0,0,0,2.35-1.1,4.76,4.76,0,0,0,1.58-5.63,6,6,0,0,0-4.9-3.51,5.47,5.47,0,0,0-2.69.35c-2,.84-3.12,3-4.9,4.2S187.64,129.79,185.27,129.91Z" style="fill:#fff;stroke:#000;stroke-miterlimit:10"/><path d="M240.68,157.19c-.1.05-.07.2,0,.29a1.92,1.92,0,0,0,1.77.81,3.32,3.32,0,0,0,1.83-.86" style="fill:#374151"/><path d="M39.44,271.15a21.62,21.62,0,0,1,7.67.7q0-6.53-.36-13.11c-.14-2.9-1.22-5.56-4.56-6.12-2-.35-3.58.33-4.2,2C36.48,258.7,38.38,266.52,39.44,271.15Z" style="fill:#fff;stroke:#374151;stroke-miterlimit:10"/><path d="M29.27,236.54c.3,2.78-.18,5.93-.29,8.76-.12,3.24,1.4,5.71,1.77,8.81a66.36,66.36,0,0,1,.3,9,.23.23,0,0,0,.23.23H50.14a.23.23,0,0,0,.23-.21c.2-1.94.36-3.63.36-3.63a18.71,18.71,0,0,0-.43-7.68c-.32-1.11-.59-2.26-.81-3.43-.34-1.84-.57-3.72-.75-5.53-.27-2.78-.26-5.58-.5-8.36s-.7-5.4-1.16-8.09c-1.41-8.12-2.82-16.26-4.77-24.28-1-4-2.09-8-3.41-12a70.75,70.75,0,0,0-6-13.42c-1.51-2.57-3.3-5.37-6.31-6.32a10.88,10.88,0,0,0-7.4-.09c-3.17,1.34-5.63,3.94-8.25,6.09l-1.08,5.25a19.41,19.41,0,0,0,2.28,12.59,46.3,46.3,0,0,1,2.25,4.08c.9,2.14,1.07,4.51,1.76,6.73a33.44,33.44,0,0,0,2.95,6.19C23.26,218.81,28.33,227.8,29.27,236.54Z" style="fill:#374151"/><path d="M56.72,172.46c.41,1.82.12,4.12,1.29,5.72s4.69,2.11,6.48,2.75a2.69,2.69,0,0,1,1.08.61c.66.77.07,2.08-.87,2.48a4.81,4.81,0,0,1-3,0l-7.05-1.55a5.18,5.18,0,0,1-1.41-.46c-1.19-.68-1.61-2.19-1.8-3.55C50.13,168.69,41,162.24,37.9,153.12a57.11,57.11,0,0,1-1.76-7.19c-.7-3.53-1.36-7.08-2.12-10.61-.54-2.53-2-4.78-.45-7.3a5,5,0,0,1,5.92-2c3.39,1.25,4.56,5,5.61,8.08,1.46,4.24,2.67,8.1,2.42,12.67a9.06,9.06,0,0,0,.2,3.6,11.94,11.94,0,0,0,2.42,3.23c2.93,3.5,3.39,8.2,4.45,12.47.53,2.15,1.58,4.15,2.1,6.26Z" style="fill:#fff;stroke:#374151;stroke-miterlimit:10"/><path d="M5.26,275.28a21.06,21.06,0,0,1,7.5.66c1.12-4.16,2.15-8.36,3.08-12.57.61-2.78.23-5.33-2.95-5.87a4.51,4.51,0,0,0-4.74,1.93C5.58,263.33,5.42,270.83,5.26,275.28Z" style="fill:#fff;stroke:#374151;stroke-miterlimit:10"/><path d="M25.44,280.53a10.53,10.53,0,0,1-6,1.21H18.8q-4.82,0-9.63-.35a7.46,7.46,0,0,1-3.9-1c-1.29-.93-1.1-2.51-.79-3.92a21.37,21.37,0,0,0,.5-3.65,12.69,12.69,0,0,0,4.75.79,8.3,8.3,0,0,0,2.54-.67,6.68,6.68,0,0,0,1.13-.66c.2-.13.73-.77,1-.72s.35.61.45.77a5.56,5.56,0,0,0,.89,1,6.44,6.44,0,0,0,2.23,1.37,13.56,13.56,0,0,0,2.35.54c1.13.21,2.24.45,3.35.73a6.26,6.26,0,0,1,2,.76,2.28,2.28,0,0,1,1.1,1.72,2.37,2.37,0,0,1-1.1,2Z" style="fill:#374151"/><path d="M58.71,275.65a3.12,3.12,0,0,1-2.25,1.87c-4.31,1.28-8.94.05-13.42.42a10.21,10.21,0,0,1-3.31,0c-2.46-.62-2.39-3.66-1.81-5.64a5.21,5.21,0,0,0,.47-2.77,16.58,16.58,0,0,0,6,.15,5,5,0,0,0,2.14-.74c.26-.19.56-.45.87-.34a1,1,0,0,1,.45.46c.94,1.53,2.26,2.1,3.78,2.88a9.46,9.46,0,0,0,1.88.87c.89.25,1.8.42,2.7.61s2.23.62,2.45,1.64A1.31,1.31,0,0,1,58.71,275.65Z" style="fill:#818cf8"/><path d="M27.77,209.35c-.47-4.59-.63-9.2-.85-13.86a121.71,121.71,0,0,0-1.49-13.17c-.25-1.61-.05-3-.57-4.64a28.12,28.12,0,0,0-2.61-5.91,13.89,13.89,0,0,0-7-6.11,7.17,7.17,0,0,0-6.14.38,10.41,10.41,0,0,0-3.72,4.73l-1.64,3.32a44.13,44.13,0,0,0-3.12,7.45,14.67,14.67,0,0,0-.19,8c.49,1.65,1.43,2.56,2.21,4a13.25,13.25,0,0,1,1.63,5.83c.06,1.46-.15,2.93-.21,4.39a32.61,32.61,0,0,0,1.4,9.74,17.87,17.87,0,0,1,.78,3.82,31.39,31.39,0,0,1-.18,3.21c-.18,2.9.37,5.77.52,8.65a17.49,17.49,0,0,1-1.54,8A14.66,14.66,0,0,0,4,242.7c0,2.86.46,5.77-.39,8.56-.26.84-.64,1.64-1,2.46a46.45,46.45,0,0,0-2.56,11,.36.36,0,0,0,.31.41c1.31.17,5.77,1.06,6.18,1.11,4.08.47,7.84-.91,11.81,0a.36.36,0,0,0,.42-.23,165.48,165.48,0,0,0,7.06-26c.47-2.55.13-5,.24-7.48a17,17,0,0,1,.58-3.25c1.45-5,2.6-9.74,1.75-15C28.15,212.72,27.94,211,27.77,209.35Z" style="fill:#818cf8"/><path d="M34,124.14a14.23,14.23,0,0,0-6.66-3.26,5.56,5.56,0,0,0-2.66,0,7,7,0,0,0-1.6.83,22.52,22.52,0,0,0-8.67,9.47,43.66,43.66,0,0,0-3,10.39c-.39,2.08-4.16,27.43-5.39,27.06,1.47.43,3,.75,4.42,1.29,2.06.79,4.13,1.6,6.17,2.46A80.89,80.89,0,0,0,29,177a4.54,4.54,0,0,0,1.38-1.74,27.37,27.37,0,0,0,2.14-7.07c1.36-8.77,2-18.16,4.27-26.75,1-3.91,1.74-8.28.57-12.24A11,11,0,0,0,34,124.14Z" style="fill:#374151"/><path d="M31.19,172.05c1.08.49,2.2,1,3.33,1.49a74.19,74.19,0,0,1,14.56,8.87A7.26,7.26,0,0,0,46.47,187c-.11,1.8,1.28,3.77,3.09,3.68,1-1.17,1.19-2.88,1.94-4.26,1-1.79,3.93-1.72,4.6-3.07S55.21,180,54.42,179c-2.25-2.88-5.75-4.55-8-7.39-.81-1-1.39-2.19-2.11-3.27A15.09,15.09,0,0,0,39.85,164c-3.46-2.18-4.68-5.25-6.37-8.86a18.38,18.38,0,0,1-1.35-3.43c-.38-1.53-.37-3.13-.61-4.69a23.49,23.49,0,0,0-2.17-6.4A16.27,16.27,0,0,0,26,135.58a6.83,6.83,0,0,0-5.6-2c-2.51.42-4.4,2.67-5.13,5.11a19.08,19.08,0,0,0-.21,7.57,19.88,19.88,0,0,0,1.8,7.07c1.09,2.08,2.7,3.85,3.86,5.89s1.7,4,2.67,6.07C25.06,168.93,28,170.58,31.19,172.05Z" style="fill:#fff;stroke:#374151;stroke-miterlimit:10"/><path d="M29.69,122.76a6.69,6.69,0,0,0-1.15,2.33c-1.19,4.38.5,9.77,2.33,13.73.68,1.46.95,3.93,2.58,4.69,1.1.52,1.91-.3,2.83-.76,1.09-.55,2.25-1,3.35-1.58,2.47-1.28,4.88-2.64,7.25-4.1-1.28-6-4.15-12.07-9.49-15a6.8,6.8,0,0,0-5.62-.85A4.93,4.93,0,0,0,29.69,122.76Z" style="fill:#374151"/><path d="M23.15,118.58a24,24,0,0,0,1-4.92,20.93,20.93,0,0,1,.89-5.76c1.1-2.81,5-4.64,7.9-3.94,4.05,1,2.83,7.77,2.46,10.8-.19,1.48-1.3,2.53-2.09,3.75-1.31,2-1.49,5.41-1.69,7.8a1.42,1.42,0,0,1-.22.78,1.33,1.33,0,0,1-.84.4,22.05,22.05,0,0,1-5,.7c-2.2,0-5.66-.81-4.63-3.65C21.74,122.48,22.53,120.56,23.15,118.58Z" style="fill:#fff;stroke:#374151;stroke-miterlimit:10"/><path d="M34.28,99a4.68,4.68,0,0,0-3.38,1.14,4.54,4.54,0,0,1-1.21,1,4.79,4.79,0,0,1-.77.17,8.53,8.53,0,0,0-5.8,3.9,3.76,3.76,0,0,0-.59,1.47,4.5,4.5,0,0,0,.07,1.27c.15,1,.33,2,.56,2.92a7.43,7.43,0,0,1,.27,1.31,4.37,4.37,0,0,0,.08,1.08c.44,1.49,1.88.81,2.48-.17a16,16,0,0,0,1.12-2.54,6.46,6.46,0,0,1,1.9-2.91,7,7,0,0,1,3.17-1.08c1.2-.19,2.87-.35,3.74-1.28a5,5,0,0,0,1.58-3.78,2.18,2.18,0,0,0-.28-1,2.5,2.5,0,0,0-.84-.81A4.48,4.48,0,0,0,34.28,99Z" style="fill:#374151"/><path d="M28.42,110.05a1.72,1.72,0,0,0-2.35-.75,3,3,0,0,0-1.33,3,1.38,1.38,0,0,0,2,1.09,2.39,2.39,0,0,0,1-.62A2.45,2.45,0,0,0,28.42,110.05Z" style="fill:#fff"/><path d="M26.81,111.16c-.1-.49-.79-.27-.72.2a1.64,1.64,0,0,0,.31,1c.16.19.42.06.5-.13A1.86,1.86,0,0,0,26.81,111.16Z" style="fill:#374151"/><path d="M26.56,165.06a1.44,1.44,0,0,0,0,.94,1.74,1.74,0,0,0,1,1.08,1,1,0,0,0,.34.1,1.57,1.57,0,0,0,.82-.27"/><path d="M12.82,139.28a11.11,11.11,0,0,0-.16,2.56,57.42,57.42,0,0,0,1.76,10.24c1.9-1.83,4.52-2.66,7-3.44l8-2.45c.76-.23,1.63-.58,1.83-1.34a2.2,2.2,0,0,0,0-.81c-.53-5-4.19-14.12-10.62-13a9.56,9.56,0,0,0-5,3.07A9.82,9.82,0,0,0,12.82,139.28Z" style="fill:#374151"/><path d="M25.63,132.53c-.16-.12-.33.13-.2.26a21.54,21.54,0,0,1,3.73,5.29c1,2.21,1.55,4.58,2.44,6.85a.16.16,0,0,0,.3-.09C31.16,140.51,29.28,135.25,25.63,132.53Z" style="fill:#fff"/><path d="M30.14,116.6a5.78,5.78,0,0,1,.28.56,10.77,10.77,0,0,1,.44,1.06,12.52,12.52,0,0,1,1.08,4.51,9.08,9.08,0,0,1,.95-3A13.78,13.78,0,0,1,34.43,117c.25-.4.45-1.17-.21-.66a2.68,2.68,0,0,1-1.3.51,8.63,8.63,0,0,1-2.86-.29S30.11,116.55,30.14,116.6Z" style="fill:#374151"/><path d="M31.77,112.41a.62.62,0,0,0,.11.47,1.93,1.93,0,0,0,.68.68,1.22,1.22,0,0,0,.95.11,1.57,1.57,0,0,0,.84-.91c0-.08,0-.2,0-.23" style="fill:#374151"/><path d="M74,280.28c.1-1.54.22-2.83.23-3.58a23.56,23.56,0,0,0-.2-4.2,30.63,30.63,0,0,0-1.79-5.57c-1.51-4.07-2.52-8.49-1.59-12.73.62-2.84,2.1-5.45,2.7-8.31.43-2.07.38-4.21.77-6.28.31-1.7,2.46-7.29,5.09-5.22a3.1,3.1,0,0,1,.89,1.42,42.92,42.92,0,0,0,2.18,5.9c1.07,2,2.75,3.59,3.59,5.66a13.19,13.19,0,0,1,.5,6.4c-.83,7.49-3.34,14.65-2.3,22.32.18,1.3.55,11.93-1.35,11.93-.65,1.73-1.7,4.41-3.74,4.85C73.39,294.09,73.57,285.67,74,280.28Z" style="fill:#818cf8"/><path d="M54.79,293.31c-2.17,2.05-3.79,4.62-7,5.14-4.06.66-6.12-3.18-4.67-6.75.95-2.34,2.94-4.08,4.66-5.94a32.7,32.7,0,0,0,4.92-6.88c1-1.86,1.89-3.9,3.59-5.14a11.6,11.6,0,0,1,3.8-1.58c2.62-.75,5.44-1.49,8-.63a11.47,11.47,0,0,1,4.18,2.87c7.06,7.06,6.53,16.2,4.9,25.31a2.87,2.87,0,0,1-1.11,2.16c-1.2.64-2.54-.68-3-2-1-3.12-.4-5.87-2.44-8.64-1.66-2.24-4.66-4-5.57-6.68a7.35,7.35,0,0,0-.94-2.37c-.54-.67-1.74-.89-2.19-.16a2.26,2.26,0,0,0-.14,1.32,8.61,8.61,0,0,1-3.47,7.46c-1,.69-2.05,1.18-3,1.94C55.19,292.94,55,293.13,54.79,293.31Z" style="fill:#374151"/><path d="M78.09,284a7.23,7.23,0,0,1,0-1.23c.48-4.3,6.47-4.91,9.44-6.84s4.58-5.68,8.23-1.91a15,15,0,0,1,3.29,7.54q1,7.11,2,14.21a5.39,5.39,0,0,1-.22,3.14c-.9,1.76-3.57,1.91-5.16.74-2.23-1.37-3-5.09-3.9-7.33a7.7,7.7,0,0,1-.74-3.28c.09-1.38.93-2.71.71-4.08-.07-.43-.37-.92-.81-.87a.89.89,0,0,0-.37.17c-2,1.27-2.62,3.26-3.83,5.11s-2.27,1.73-3.74,3.07c-3,2.79-2.13,9.09-3.23,12.84-.28,1-1.22,2.1-2.05,1.54a1.72,1.72,0,0,1-.56-1,26.9,26.9,0,0,1,0-12.77,25.06,25.06,0,0,0,1.11-5.32C78.36,286.41,78.13,285.18,78.09,284Z" style="fill:#818cf8"/><path d="M91.45,297.6H62.19v3.66h2.35l1.91,10.79a10.53,10.53,0,0,0,10.37,8.71h0a10.53,10.53,0,0,0,10.37-8.71l1.91-10.79h2.35Z" style="fill:#374151"/><line x1="63.72" y1="301.56" x2="89.92" y2="301.56" style="fill:none;stroke:#fff;stroke-miterlimit:10"/><line x1="70.68" y1="320.93" x2="98.24" y2="320.93" style="fill:#fff;stroke:#374151;stroke-miterlimit:10"/><path d="M308.46,124.72a.59.59,0,0,1,.57.27.59.59,0,0,1,0,.64,1,1,0,0,1-.46.31s-.05,0,0,0"/><path d="M299,126.17a.66.66,0,0,0,.14.52,1.74,1.74,0,0,0,.69.6,1.4,1.4,0,0,0,1.08,0,1.52,1.52,0,0,0,.78-.76h-.06" style="fill:#374151"/></g></g></svg>