<svg xmlns="http://www.w3.org/2000/svg" xmlns:xlink="http://www.w3.org/1999/xlink" viewBox="0 0 371.2 321.43"><defs><pattern id="New_Pattern_2" data-name="New Pattern 2" width="54" height="54" patternTransform="translate(21 36)" patternUnits="userSpaceOnUse" viewBox="0 0 54 54"><rect width="54" height="54" style="fill:none"/><rect width="54" height="54" style="fill:none"/><rect width="54" height="54" style="fill:none"/><rect width="54" height="54" style="fill:#fff"/><path d="M4.33,4.61a1,1,0,1,1,2-.36,1.06,1.06,0,0,1,0,.5,1,1,0,0,1-1.26.65L5,5.37A1,1,0,0,1,4.33,4.61Z"/><path d="M23.68,4.61a1.05,1.05,0,1,1,0,.1Z"/><path d="M41.15,4.61a1,1,0,1,1,2-.36,1.06,1.06,0,0,1,0,.5,1.05,1.05,0,0,1-2-.14Z"/><path d="M4.33,22a1,1,0,1,1,1,1h-.1A1,1,0,0,1,4.33,22Z"/><path d="M23.68,22a1,1,0,1,1,1,1h-.09A1,1,0,0,1,23.68,22Z"/><path d="M41.15,22a1.17,1.17,0,0,1,2.22-.19,1,1,0,0,1-.7,1.22.94.94,0,0,1-.62,0A1,1,0,0,1,41.15,22Z"/><path d="M4.33,39.34a1,1,0,0,1,1.27-.63h0a1,1,0,1,1-1.34,1.14A1,1,0,0,1,4.33,39.34Z"/><path d="M23.68,39.34a1,1,0,0,1,1-.9,1,1,0,0,1,.62,1.27,1,1,0,0,1-.76.66A1,1,0,0,1,23.68,39.34Z"/><path d="M41.15,39.34a1,1,0,0,1,1.27-.63h0a1,1,0,0,1,.66.76,1,1,0,0,1-1.27.63h0A1,1,0,0,1,41.15,39.34Z"/></pattern></defs><g id="Layer_2" data-name="Layer 2"><g id="Layer_1-2" data-name="Layer 1"><g id="Layer_2-2" data-name="Layer 2"><g id="Layer_1-2-2" data-name="Layer 1-2"><g id="Layer_2-2-2" data-name="Layer 2-2"><g id="OBJEKTS"><path d="M92.4,260.17l-8.07-.08c-17.36-.18-36-.75-50-10.9-20.88-15.06-26.92-43.95-18.69-67.1C24,158.3,41,139.19,58.74,122.21a484.55,484.55,0,0,1,65.81-53c23.94-16,49.83-30,77.82-34a120,120,0,0,1,73.36,13.42c8,4.34,16.31,7.72,21.88,15.06,8.48,11.2,16.29,22.41,26.14,32.54,8.14,8.36,17.63,16.08,23.92,26,6.9,10.84,9.14,23.47,9.82,36.12a190.21,190.21,0,0,1-9.75,70.85c-2.56,7.53-5.84,15.25-12.07,20.19-5.25,4.19-12,5.91-18.6,7.21-28.53,5.62-57.86,5.34-86.93,5Z" style="isolation:isolate;opacity:0.6800000071525574;fill:url(#New_Pattern_2)"/><path d="M215.76,275.29a13.14,13.14,0,0,0,2.07-.17c2.95-.42,5.92.14,8.86.29a40.77,40.77,0,0,0,4.28-.23,5,5,0,0,0,3.14-.75,1.82,1.82,0,0,0,.67-1.83c-.28-1-1.41-1.29-2.38-1.49l-7.08-1.46c-.95-.2-2.8-.6-3-1.78a9,9,0,0,1,.28-2.13q.09-1.12.15-2.25c.06-1.36.5-2.69-1.22-2.78l-5.51-.3a1.11,1.11,0,0,0-.51.06,1,1,0,0,0-.45.76l-.75,3a44.84,44.84,0,0,0-1,4.74c-.18,1.14-.15,2.29-.26,3.43-.07.7-.26,1.4.25,2A3.32,3.32,0,0,0,215.76,275.29Z" style="fill:#374151"/><path d="M229.46,281.46a1.37,1.37,0,0,0,.68,1,11.52,11.52,0,0,0,2.8.44,14.9,14.9,0,0,0,4,.26c1-.08,2-.31,3-.35,2.85-.12,5.76,1,8.57.16,1-.28,2.61-.9,2.9-2,.38-1.45-.91-2.37-2.12-2.7a19.12,19.12,0,0,0-4.76-.67,9.71,9.71,0,0,1-1.94-.16,2.42,2.42,0,0,1-2-2.78h0a1.64,1.64,0,0,1,.1-.38q.72-3,1.42-6a33.31,33.31,0,0,0-9.91.65.7.7,0,0,0-.74.65c-.52,2.18-.25,4.24-1,6.33C230.12,276.91,229.12,279.82,229.46,281.46Z" style="fill:#374151"/><path d="M138,156.49a16.65,16.65,0,0,1,2-.48,5.63,5.63,0,0,0,2.86-1.76,6.05,6.05,0,0,1,1.86-1.43c2.31-1,3.47,1,2.62,3a7.73,7.73,0,0,1-3.26,3.93c-1.71.85-3.45.91-5,2.13-.39.31-4.45,3.72-4.28,3.93-.76-.94-2.41-3-2.32-4.28a4.8,4.8,0,0,0,2.56-2.09,8.11,8.11,0,0,1,2.19-2.58A2.61,2.61,0,0,1,138,156.49Z" style="fill:#f9fafb;stroke:#374151;stroke-miterlimit:10"/><rect x="101.95" y="208.43" width="1.75" height="38.62" style="fill:#374151"/><path d="M87.52,255.15c0-5.7,10.09-8.1,15.13-8.11,6,0,15.13,2.21,15.13,8.11" style="fill:#f9fafb;stroke:#374151;stroke-miterlimit:10"/><line x1="102.82" y1="256.67" x2="102.82" y2="247.2" style="fill:none;stroke:#374151;stroke-miterlimit:10"/><path d="M120.26,256.52a2.48,2.48,0,1,1-2.49-2.47h0a2.48,2.48,0,0,1,2.49,2.47Z" style="fill:#374151"/><path d="M105.25,256.52a2.48,2.48,0,1,1-2.49-2.47h0A2.49,2.49,0,0,1,105.25,256.52Z" style="fill:#374151"/><path d="M90.24,256.52a2.48,2.48,0,1,1-2.49-2.47h0a2.49,2.49,0,0,1,2.47,2.47Z" style="fill:#374151"/><path d="M101.13,195.46V167.05a8.9,8.9,0,0,0-8.9-8.9H82.42A8.89,8.89,0,0,0,73.51,167h0v31.77a12.79,12.79,0,0,0,12.76,12.75h32a1.5,1.5,0,0,0,1.5-1.5h0a1.5,1.5,0,0,0-1.5-1.5h-4a13.09,13.09,0,0,1-13.14-13.06Z" style="fill:#f9fafb;stroke:#374151;stroke-miterlimit:10"/><path d="M163.11,248.63c.24.42.48.84.76,1.24A5.24,5.24,0,0,0,168.3,252c1.71-.22,3.39-.83,5.12-.75a2.71,2.71,0,0,1,1.76.62c2,1.95-2.76,3.69-4.07,4.08l-8.93,2.68a3.75,3.75,0,0,1-1.72.23,2.49,2.49,0,0,1-2.08-2c-.43-1.3-.94-2.55-1.46-3.84a39.12,39.12,0,0,1-2-6.42,3.74,3.74,0,0,1-.08-1.85,2.33,2.33,0,0,1,2.1-1.62,3.84,3.84,0,0,1,1.2.25C160.91,244.26,161.77,246.22,163.11,248.63Z" style="fill:#f9fafb;stroke:#374151;stroke-miterlimit:10"/><path d="M146.18,202.92a15.42,15.42,0,0,0-.88-5.79,10.68,10.68,0,0,0-6.26-6.45,17.46,17.46,0,0,0-5.18-.7l-22.67-.8c-6.57-.23-14.16,5.1-14,12.31.12,4.46,3.17,9.1,8,9.24h.31l21.54.12c5,0,11.62,2.11,16.18-.67a5.55,5.55,0,0,0,1.66-1.47,6.78,6.78,0,0,0,.89-2.43A25.27,25.27,0,0,0,146.18,202.92Z" style="fill:#374151"/><path d="M116.68,200.46c6.93,3.77-5.85,10.25-12.51,10.27H92.59c-6.7,0-11.9-3.36-12.11-10v-20l25.66.06S109.15,196.37,116.68,200.46Z" style="fill:#374151"/><path d="M141.75,203.57c-5.38-3.59-27.12-8.86-30.08-10A37.93,37.93,0,0,0,93,191.1c-5.31.7-10.89,1.6-12.21,7.59a10,10,0,0,0,7.59,11.87l.36.07,49.94,9.86a1.78,1.78,0,0,0,.33.09,7.32,7.32,0,0,0,8.72-5.58h0v-.05C148.76,210.63,146.3,206.6,141.75,203.57Z" style="fill:#374151"/><path d="M135,251a5.08,5.08,0,0,0,1.56,4.08c2,1.87,5,2.13,7.11,3.83a1.56,1.56,0,0,1,.48.54,1.23,1.23,0,0,1-.35,1.29c-1.85,1.77-6.1,0-8.26-.34l-8.15-1.46a1.29,1.29,0,0,1-1-1.52v0l1.56-7.74.23-1.14a3.44,3.44,0,0,1,4-2.73h.07a3.67,3.67,0,0,1,2.76,3.6A14.41,14.41,0,0,0,135,251Z" style="fill:#f9fafb;stroke:#374151;stroke-miterlimit:10"/><path d="M107.28,152.22c-.22-1.12-.43-2.24-.64-3.37q1.22,7.29,2.34,14.6c.7,4.59,1.15,9.26,2.63,13.69.49,1.5,1.22,4.16,2.92,4.77,2.15.77,3.57.45,5.74.47a10.31,10.31,0,0,0,2.77-.22c2.51-.67,4.13-3.08,5.23-5.44a13.87,13.87,0,0,1,4.79-6q2.43-1.8,4.71-3.82c.55-.5,1.95-1.38,2.2-2.08s-.18-1-.75-1.63c-1.81-1.85-3.82-3.54-5.53-5.49l-5.08,4.71-3.58,3.3c-.58.54-3.77,2.68-3.73,3.21a44.38,44.38,0,0,0-2-11.25,4.65,4.65,0,0,1-.36-1.26,5.33,5.33,0,0,1,.2-1.73,14.54,14.54,0,0,0-1.14-9,9.49,9.49,0,0,0-6.15-5.56,33.52,33.52,0,0,0-5.56-1.48c-.32,0-.75,0-.82.3a.77.77,0,0,0,0,.37M108.61,157l.32-.05Z" style="fill:#f9fafb;stroke:#374151;stroke-miterlimit:10"/><path d="M163.88,246.64c-4.4-9.11-7.55-18.65-10.94-28.15-1.63-4.56-3.31-9.24-6.3-13.1-1.38-1.8-2.65-3.18-4.94-3.67a14.63,14.63,0,0,0-6.28.26c-1.14.25-2.15.85-3.27,1.11-1.52.34-3.87,0-4.47,1.88a5,5,0,0,0,.09,2.67,25.26,25.26,0,0,0,1.37,4.24c.74,1.76,1.67,3.44,2.29,5.25.48,1.38.77,2.82,1.32,4.17a12.42,12.42,0,0,0,4.33,5.39,12.52,12.52,0,0,1,3.27,2.66,11,11,0,0,1,1,2.65c.92,2.42,2,5,4.16,6.39a6.28,6.28,0,0,1,1.67,1.17,4.37,4.37,0,0,1,.6,1.25,12.82,12.82,0,0,0,1.86,3.76c.78,1,1.82,1.76,2.62,2.74a17.71,17.71,0,0,1,1.63,3.4C154,251.05,163.94,246.76,163.88,246.64Z" style="fill:#374151"/><path d="M110.76,139.74l-4.86-1.12-8.05.16-3.9.4c-4.14.43-8.53.95-11.76,3.57a15,15,0,0,0-5.35,13.53c.45,2.69,1.3,5.31,1.59,8q1.47,13.58,2.14,27.22c4.39-.2,8.8-.24,13.2-.47,5.39-.28,11.46-.52,16.64-2.48.6-7.5,2.64-14.9,2.52-22.43l-.17-11" style="fill:#f9fafb;stroke:#374151;stroke-miterlimit:10"/><path d="M145,226.77l.3-.65a12.79,12.79,0,0,0,.46-1.36c1.42-5.38,3.3-11.21,2.72-17-.51-5.08-.47-11.53-5.4-14.62-4.1-2.56-9.8-4.24-13.35,0a8.07,8.07,0,0,0-1.56,3.09c-2.17,7.88,1.45,14.67.41,22a16.1,16.1,0,0,0-.14,5.58c.12.61.32,1.21.4,1.83a11.83,11.83,0,0,1-.69,4.49,15.56,15.56,0,0,0-.69,4.79c.08,1.66.58,3.29.59,5a17.69,17.69,0,0,1-.47,3.62c-.32,1.54-1.83,4.67.18,5.3,1.23.39,2.66.32,3.94.65.42.11,3.51.9,5.09,1.44a.77.77,0,0,0,1-.45v-.19c.29-2.19,1.35-4.5,1.92-6.56.76-2.73,1.46-5.47,2.12-8.23.32-1.33.62-2.66,1-4A39.57,39.57,0,0,1,145,226.77Z" style="fill:#374151"/><path d="M108,128.32l-1.55-9.39-6.06,1.4A7.15,7.15,0,0,0,95,128.9h0l.54,2.3a6.09,6.09,0,0,0,1.17,2.46l-1.21,5.7a4.82,4.82,0,1,0,9.26,2.67c0-.13.07-.27.1-.4a5,5,0,0,0,.11-.56l1-6.52A6.41,6.41,0,0,0,108,128.32Z" style="fill:#f9fafb;stroke:#374151;stroke-miterlimit:10"/><path d="M109.6,178.06a27.78,27.78,0,0,1,7.45,3.15c2.18,1.16,2.6,3.31-.29,3.83a12.07,12.07,0,0,1-4.75.23c-1.64-.35-2.11-1.29-3.17-2.35-.89-.9-2.42-.46-3.72-1a2,2,0,0,1-1.2-1.07,2.2,2.2,0,0,1,.2-1.57,2.46,2.46,0,0,1,3.48-1.63Z" style="fill:#f9fafb;stroke:#374151;stroke-miterlimit:10"/><path d="M106.75,120.48a7.93,7.93,0,0,1-3.47,1.5,25.32,25.32,0,0,0-3.47.55c-3,1-2.61,4.27-2.35,6.81.09.9-.71,3.91-2,3.43-.82,0-1-1.22-1.14-1.74-.37-1-.79-2-1.18-3a4.82,4.82,0,0,1-.49-2.17c.08-1.09.86-2,1.09-3.08.18-.82,0-1.68.16-2.51a4.17,4.17,0,0,1,1.85-2.75c1.42-.92,3.08-.56,4.51-1.34a23.73,23.73,0,0,0,2.07-1.68,5,5,0,0,1,3.8-.87,3.46,3.46,0,0,1,2.62,2,3.72,3.72,0,0,1-.43,3A6.34,6.34,0,0,1,106.75,120.48Z" style="fill:#374151"/><path d="M98.73,128.21a2,2,0,1,1-2.41-1.5,2,2,0,0,1,2.41,1.5Z" style="fill:#fff"/><path d="M76.83,152c-.48,4.09-.57,8.23-.81,12.34a39.2,39.2,0,0,0,1.21,13.38,9.86,9.86,0,0,0,1.83,3.8c3.35,3.9,11.61,2.3,16.16,2.29h11.25c.06-.17.11-.35.16-.53.3-1.54,1.3-5.18,1.57-6.73L101,176l-6.16-.5c-1.65-.14-4.17.25-4.45-1.94a9.35,9.35,0,0,0-.29-2.3c-.45-1.06-1.73-1.64-2-2.76a8.52,8.52,0,0,1,.2-2.71,10.84,10.84,0,0,1,1.18-3.59,29.16,29.16,0,0,0,1.87-6.2H91" style="fill:#f9fafb;stroke:#374151;stroke-miterlimit:10"/><path d="M158.48,183.41h-43.6a1.52,1.52,0,0,1,1.52-1.52h42.08Z" style="fill:#4a59ff"/><path d="M166,181.89H122.41l7.77-23a2,2,0,0,1,1.95-1.33H171.4a2,2,0,0,1,2.07,1.78,2.22,2.22,0,0,1-.07.68Z" style="fill:#4a59ff"/><path d="M165.21,183.41h-43v-1.52l43.77-2v2.76a.77.77,0,0,1-.76.76Z" style="fill:#4a59ff"/><path d="M148.47,170.26c-.85,0-1.66-.72-1.08-1.72a1.41,1.41,0,0,1,1.23-.66h.15a1.2,1.2,0,0,1-.23,2.39Z" style="fill:#c9cdd1"/><path d="M121.36,168.72a3.72,3.72,0,0,1-.54.87c-.2.27-.39.56-.57.86s-.29.43-.42.65" style="fill:#f9fafb;stroke:#374151;stroke-miterlimit:10"/><path d="M101.11,134.41c1.32,1.65,3.1,2.92,4.29,4.66.15-1.11.29-2.23.43-3.35a15,15,0,0,1,.41-1.73C104.46,134.4,103,134.87,101.11,134.41Z" style="fill:#374151"/><path d="M103.19,130.19a1.38,1.38,0,0,0,1.09,1.17,1.67,1.67,0,0,0,1.55-.52,2.19,2.19,0,0,0,.55-1.57s-.08,0-.06.06" style="fill:#374151"/><path d="M97,127.94a1,1,0,0,0-.92.3.85.85,0,0,0-.12.95.77.77,0,0,0,.87.37" style="fill:#374151"/><path d="M128,223.9a16.23,16.23,0,0,1,.61-6.12c.44-1.48.94-2.79.59-4.31a6.62,6.62,0,0,1,0-4.22" style="fill:none;stroke:#fff;stroke-miterlimit:10"/><path d="M147.27,194.94c3.46,8.9.49,18.82-2,28.05q-2.4,9-4.1,18.18" style="fill:none;stroke:#fff;stroke-miterlimit:10"/><path d="M80.9,178.9a1.46,1.46,0,0,0,.19,1.08,1,1,0,0,0,.42.43,2.07,2.07,0,0,0,1.41.11" style="fill:#f9fafb;stroke:#374151;stroke-miterlimit:10"/><path d="M103.3,160l.12-.1"/><circle cx="195.26" cy="56.76" r="6" style="fill:#374151"/><circle cx="316.26" cy="56.76" r="6" style="fill:#374151"/><circle cx="74.26" cy="56.76" r="6" style="fill:#374151"/><path d="M95.61,54.56v-.2A21.24,21.24,0,0,0,74.37,33.12h0A21.22,21.22,0,0,0,53.12,54.33v0h0v.2Z" style="fill:#4a59ff"/><path d="M337.29,54.56v-.2a21.24,21.24,0,0,0-21.24-21.24h0a21.22,21.22,0,0,0-21.24,21.22v.22Z" style="fill:#4a59ff"/><line x1="316.52" x2="316.52" y2="33.12" style="fill:none;stroke:#374151;stroke-miterlimit:10"/><path d="M216.29,54.56v-.2a21.24,21.24,0,0,0-21.24-21.24h0a21.22,21.22,0,0,0-21.24,21.22v0h0v.2Z" style="fill:#4a59ff"/><line x1="195.52" x2="195.52" y2="33.12" style="fill:none;stroke:#374151;stroke-miterlimit:10"/><line x1="75.31" x2="75.31" y2="33.12" style="fill:none;stroke:#374151;stroke-miterlimit:10"/><path d="M286.64,169.68c0,1,.08,1.46-.81,1.84a15.62,15.62,0,0,1-3.26.46,16.65,16.65,0,0,0-6.07,2.19c-3.13,2-6.88,2.43-10.15,4.52a7,7,0,0,1-1.71.9,8.14,8.14,0,0,1-2.41.11,8.61,8.61,0,0,0-6.49,2.15,1.56,1.56,0,0,0-.65,2.12v0a1.53,1.53,0,0,0,1,.77c2.85,1.28,5.85.44,8.6-.61a28,28,0,0,1,7.65-1.25c4.11-.3,8.27-.08,12.33-.92a26.8,26.8,0,0,0,6.37-2c1.83-.91,4.1-1.84,5-3.85a9.84,9.84,0,0,0,.38-1.2l2.28-9a26.06,26.06,0,0,0,.45-7.05,20.74,20.74,0,0,0-1-5.84,20,20,0,0,0-1.7-4.43,5,5,0,0,0-3.67-2.24c-3-.3-5.78,1.63-5.59,4.77.24,3.83-1,7.62-.18,11.43a7.09,7.09,0,0,1,.22,1.38,6.77,6.77,0,0,1-.2,1.35A20.76,20.76,0,0,0,286.64,169.68Z" style="fill:#f9fafb;stroke:#374151;stroke-miterlimit:10"/><path d="M276.93,238.31c1.2,1.78,2.06,3.47,1.74,5.86-.47,3.5-3.33,5.81-4.08,9.21a1.73,1.73,0,0,0,1.11,2.19h0a.94.94,0,0,0,.24.06c3.3.87,6.19-4,8.06-5.87l7.05-7.09a1.86,1.86,0,0,0-.19-2.52L283,232l-1.15-1.21c-1.92-2-4.79-2.22-6.37-.49-1.36,1.5-1.25,4.07.13,6.08C276.08,237.07,276.52,237.7,276.93,238.31Z" style="fill:#374151"/><rect x="303.21" y="205.54" width="1.75" height="38.62" style="fill:#374151"/><path d="M319.39,252.26c0-5.7-10.09-8.09-15.14-8.1-6,0-15.13,2.2-15.13,8.1" style="fill:#f9fafb;stroke:#374151;stroke-miterlimit:10"/><line x1="304.08" y1="253.78" x2="304.08" y2="244.31" style="fill:none;stroke:#374151;stroke-miterlimit:10"/><path d="M286.65,253.64a2.48,2.48,0,1,0,2.48-2.48h0a2.47,2.47,0,0,0-2.47,2.47h0Z" style="fill:#374151"/><path d="M301.65,253.64a2.48,2.48,0,1,0,2.48-2.48,2.48,2.48,0,0,0-2.48,2.48Z" style="fill:#374151"/><path d="M316.66,253.64a2.48,2.48,0,1,0,2.48-2.48h0a2.48,2.48,0,0,0-2.48,2.48Z" style="fill:#110809"/><path d="M305.78,192.58V164.16a8.89,8.89,0,0,1,8.88-8.9h9.83a8.9,8.9,0,0,1,8.9,8.9v31.77a12.8,12.8,0,0,1-12.75,12.75h-32a1.5,1.5,0,0,1-1.5-1.5h0a1.5,1.5,0,0,1,1.5-1.5h4a13.11,13.11,0,0,0,13.14-13.08h0Z" style="fill:#f9fafb;stroke:#374151;stroke-miterlimit:10"/><path d="M274.26,247.34c-.38,2.12-.94,3.93-2.83,5.42-2.77,2.19-6.43,1.87-9.34,3.79a1.74,1.74,0,0,0-.73,2.35,1.64,1.64,0,0,0,.14.22c1.77,2.92,7.23,1.44,9.88,1.39l10-.2a1.83,1.83,0,0,0,1.62-1.94v-13c0-2.77-1.89-4.93-4.23-4.78-2,.13-3.73,2-4.14,4.45C274.5,245.86,274.39,246.62,274.26,247.34Z" style="fill:#374151"/><polygon points="299.48 144.32 299.35 144.94 299.35 144.94 299.48 144.32" style="fill:#7a483a"/><path d="M292.89,175.67a1.47,1.47,0,0,1-.08.35l.1-.45S292.9,175.64,292.89,175.67Z" style="fill:#7a483a"/><polygon points="286.21 151.38 287.26 142.66 286.24 151.39 286.21 151.38" style="fill:#7a483a"/><path d="M287.58,142.75a9.26,9.26,0,0,1,4.35-5.6,15.7,15.7,0,0,1,2.1-.81,33.26,33.26,0,0,1,5.56-1.48c.32-.05.75,0,.83.3a.92.92,0,0,1-.05.37c-.11.5.16.94.1,1.43a13.71,13.71,0,0,1-.49,1.9,11.3,11.3,0,0,0-.52,4c.21,2-.85,3.7-.85,5.64-.07.32-1,4.84-1,4.83l-11.35-1.91C286.59,148.46,286.66,145.51,287.58,142.75Z" style="fill:#374151"/><path d="M259.28,199a8.78,8.78,0,0,1,.44-3.7c.82-2.52,3.27-4.23,5.82-5a32.74,32.74,0,0,1,7.9-.76c5.31-.2,10.63-1.87,15.91-1.65,1.37.06,2.72.44,4.09.38,3.6-.13,6.58-3.18,10.18-3.42a10.11,10.11,0,0,1,3.49.5,10.41,10.41,0,0,1,4.92,2.91c2.48,2.88,2.25,7.27.84,10.79a12.49,12.49,0,0,1-2.39,3.89,13.08,13.08,0,0,1-5.5,3.12,19.29,19.29,0,0,1-6.67.69l-16.17-.13c-4,0-7.9.48-11.87.15C265.38,206.37,259.85,203.88,259.28,199Z" style="fill:#374151"/><path d="M263.27,191.55a7.06,7.06,0,0,1,7-1.23,8.79,8.79,0,0,1,3.53,2.49c4.84,5.49,5.79,14.57,7.22,21.45q1.25,6,2.19,12.09c.18,1.15,2.21,11.48,1.54,11.82s-11.79,1.36-11.7,1.6c-2.13-5.56-4.65-11.12-6.39-16.8a96.78,96.78,0,0,0-3.9-9.28,56.81,56.81,0,0,1-3.6-11.45A10.29,10.29,0,0,1,263.27,191.55Z" style="fill:#374151"/><path d="M293.1,199.63c-.13.18-.26.35-.38.54-3.4,5.41,5.73,6.72,9,6.73h11.57c6.7,0,11.9-3.36,12.11-10V177H311.08c-2.86,0-6-.37-8.86,0-2,.28-1.77-.18-2.61,1.82-1.05,2.51-.5,6.49-1,9.22a20.51,20.51,0,0,1-3.95,9.67C294.19,198.36,293.6,199,293.1,199.63Z" style="fill:#4a59ff"/><path d="M282.71,216.32c-.74-.28-1.69-1.56-2.5-1.37s-1.42,1.59-1.74,2.2c-.87,1.68-1.36,3.6-2.62,5a1.15,1.15,0,0,1-.42.34,1.12,1.12,0,0,1-1.06-.36c-2.42-2.16-2.59-6.5-2.76-9.53a14.55,14.55,0,0,1,6.57-12.79,32.79,32.79,0,0,1,4.49-2.21,98.54,98.54,0,0,0,14.23-7.77,29.78,29.78,0,0,1,6-3,22.22,22.22,0,0,1,11.61-1.24c4.76.76,9.54,1.73,11.05,8.5,1.17,5.25-.86,10.1-4.4,11.39l-.24.07-32.86,11-.21.09a3.68,3.68,0,0,1-.54.16A8,8,0,0,1,282.71,216.32Z" style="fill:#4a59ff"/><path d="M293.64,139.32a5.4,5.4,0,0,1,1.33-2c3-2.83,7.84-2.71,11.71-2.84a38.93,38.93,0,0,1,7.55.37,23.45,23.45,0,0,1,7,2.64,14.63,14.63,0,0,1,3.76,2.37c2.47,2.37,3,6.1,3.06,9.52s-2.91,38.36-2.72,38.37c-4.4-.21-8.81-.24-13.2-.47-2.25-.12-4.51-.22-6.75-.44-1.23-.11-2.47,0-3.69-.11s-1.23-.73-2.17-1.32c-.47-.3-.88-.06-1.2-.46s-.12-1.61-.15-2c-.1-1.46-.15-2.92-.3-4.38-.17-1.64-.6-3.21-.72-4.89a93.86,93.86,0,0,0-1.36-12.4c-.79-3.65-2.15-7.16-2.87-10.82a19.47,19.47,0,0,1-.18-7.68A18.73,18.73,0,0,1,293.64,139.32Z" style="fill:#374151"/><path d="M309.72,128.88c.55-.71.41-.57.63-1.5l2.15-9.26-13-3-1.55,9.4a6.36,6.36,0,0,0,2,6.24l1,6.52a4.82,4.82,0,1,0,9.58-1,2.91,2.91,0,0,0,0-.31l-.06-.36Z" style="fill:#f9fafb;stroke:#374151;stroke-miterlimit:10"/><path d="M300.7,132.35a3.62,3.62,0,0,0,3.61-2.32c0,.09-.32.17-.4.2a5.57,5.57,0,0,1-2.43.2A3.21,3.21,0,0,1,300,130s-.09-.06-.14-.05a.11.11,0,0,0-.11.08.77.77,0,0,0,.1.82,1.24,1.24,0,0,1,.37.53c0,.25.08.5.1.75S300.49,132.3,300.7,132.35Z" style="fill:#374151"/><path d="M298.82,117.09c.91.3,1.88.52,2.81.76,1.34.35,2.69.63,4,1,3.54,1,2.74,4.54,2.75,7.5a2.57,2.57,0,0,0,.74,2.23c1.87,1.28,2.32-2.71,2.78-3.62.25-.49.62-.92.83-1.44.41-1.06,0-2.26.19-3.4.07-.51.24-1,.29-1.52.17-2.16-1.81-4.15-3.58-5a9.1,9.1,0,0,1-3.8-3,3.66,3.66,0,0,0-.48-.62,1.8,1.8,0,0,0-.53-.28,3.44,3.44,0,0,0-3.16.52,4.56,4.56,0,0,1-.85.61,3.56,3.56,0,0,1-1.59,0,2.9,2.9,0,0,0-2.19.69,1.91,1.91,0,0,0-.55,2.14c.19.44.55.77.75,1.2.46,1,.24,1.76,1.35,2.15Z" style="fill:#374151"/><path d="M307,125a1.38,1.38,0,1,0,1.68-1h0a1.36,1.36,0,0,0-1.67,1Z" style="fill:#fff"/><path d="M276.18,202.78a21.55,21.55,0,0,0-2.52,6.31c-.87,3.46-1.73,7-1.2,10.57.15,1,.43,2.05.49,3.1.1,1.86-.48,3.7-.46,5.56a20.78,20.78,0,0,0,.6,4,42.5,42.5,0,0,1,.74,9.75c0,1.07-.08,2.13-.14,3.2a7.42,7.42,0,0,1-.3,2.81c1.26.2,2.53.35,3.79.52,2.35.32,4.71.63,7.08.81.73.06,2.32.45,2.95,0s.6-1.66.74-2.24c1.09-4.35,2-8.92,1.15-13.39-.16-.81-.38-1.61-.46-2.43a12.14,12.14,0,0,1,.12-3.07c.56-4.21,1.6-8.34,2.14-12.57.58-4.44,1-8.92,1.31-13.38.61-7.91-10.25-5.34-13.89-2A12.19,12.19,0,0,0,276.18,202.78Z" style="fill:#4a59ff"/><path d="M243.42,104.62h-.32S243.42,104.58,243.42,104.62Z" style="fill:#110809"/><path d="M313,143.69c-1.41,1.34-3.59,2.36-5.22,3.43a13,13,0,0,0-5-2.76c-1-.3-2.07-.48-3.06-.84-4.52-1.65-8-5.06-12.66-6.57-2.34-.76-4.93-1.32-6.53-3.17-2-2.29-2.35-5.71-3.8-8.3-.57-1-1.47-1.89-2.65-.78-.91.86-.6,2.53-.41,3.6.29,1.64.64,3.26,1,4.89.5,2.38.77,3.21,2.92,4.37a23.36,23.36,0,0,1,5.92,4.39c1.07,1.15,2,2.46,3,3.65,3.65,4.17,8.95,6.53,13,10.32,1.95,1.83,4,4.33,7,3.52.95-.27,12.2-3.24,11.83-3.89a53.66,53.66,0,0,1-3.36-7.26C314.32,146.74,313.49,145.26,313,143.69Z" style="fill:#f9fafb;stroke:#374151;stroke-miterlimit:10"/><path d="M325.26,150.53a12.64,12.64,0,0,1-6.94,5.37" style="fill:#374151"/><path d="M235.93,111.23v.11" style="fill:#fff;stroke:#000;stroke-miterlimit:10"/><path d="M282.65,174.19h-49a1.8,1.8,0,0,1-1.76-1.41l-6.09-28.19a1.8,1.8,0,0,1,1.37-2.14h49.39a1.8,1.8,0,0,1,1.75,1.42l6.1,28.17a1.79,1.79,0,0,1-1.35,2.14A1.42,1.42,0,0,1,282.65,174.19Z" style="fill:#4a59ff"/><path d="M255.88,182.21l1-11.6a1.88,1.88,0,1,0-3.75-.32l-1,11.92H245v1.2h18.13v-1.2Z" style="fill:#374151"/><path d="M247.51,148.85c-.14-1.19-2-1.21-1.89,0l.45,3.89c.14,1.19,2,1.2,1.89,0Z" style="fill:#fff"/><path d="M251.29,148.85c-.14-1.19-2-1.21-1.89,0l.45,3.89c.13,1.19,2,1.2,1.88,0S251.44,150.15,251.29,148.85Z" style="fill:#fff"/><path d="M255,148.85c-.13-1.19-2-1.21-1.88,0s.29,2.59.44,3.89,2,1.2,1.89,0Z" style="fill:#fff"/><path d="M258.84,148.85c-.14-1.19-2-1.21-1.89,0l.45,3.89c.14,1.19,2,1.2,1.89,0Z" style="fill:#fff"/><path d="M262.62,148.85c-.14-1.19-2-1.21-1.89,0l.45,3.89c.13,1.19,2,1.2,1.88,0S262.77,150.15,262.62,148.85Z" style="fill:#fff"/><path d="M294.2,174.45a2.71,2.71,0,0,1-.51,2.45,3.11,3.11,0,0,1-1.36.55" style="fill:#374151"/><path d="M303.75,156a1.65,1.65,0,0,0,3,.64" style="fill:#374151"/><path d="M186.5,116.45a1.21,1.21,0,0,0,.64-.56C187.21,115.89,186.43,116.45,186.5,116.45Z" style="fill:#110809"/><rect x="48.26" y="183.31" width="305.08" height="3.37" style="fill:#374151"/><polygon points="350.17 263.4 347.85 263.4 328.86 183.96 331.19 183.96 350.17 263.4" style="fill:#374151"/><polygon points="329.15 263.4 326.83 263.4 307.86 183.96 310.18 183.96 329.15 263.4" style="fill:#374151"/><polygon points="52.26 263.4 54.58 263.4 73.56 183.96 71.23 183.96 52.26 263.4" style="fill:#374151"/><polygon points="73.27 263.4 75.58 263.4 94.56 183.96 92.25 183.96 73.27 263.4" style="fill:#374151"/><path d="M234.56,217c-1-4.84-9.75-4.46-13.68-5.14-5.34-.93-10.69-1.82-16-2.79a5.17,5.17,0,0,0-3.63.29,4.86,4.86,0,0,0-1.43,1.53,18.37,18.37,0,0,0-3.36,7.43,7.77,7.77,0,0,0,2.17,7.16c1.76,1.52,4.29,1.93,6.7,2.25,1.46.19,2.86.52,4.31.77a5.64,5.64,0,0,1,2.39.5c2.09,1.41,1.52,4.77,1,6.93s-1.2,4.22-.67,6.19a14.42,14.42,0,0,1,.45,1.59,7.06,7.06,0,0,1-.14,2.1c-.65,3.69-1.95,7.66-.53,11.15a7.1,7.1,0,0,1,.45,1.27,4.27,4.27,0,0,1,0,1.13q-.42,3.75-.86,7.52c-.44,3.77,8.58.39,9.24.4,1,0,3.17.39,4.07-.16,1.39-.85,1.67-5,1.91-6.53.34-2.17.49-4.37.9-6.52.75-3.89,2.37-7.57,3.08-11.46.35-2,.22-4,.61-5.91.33-1.62.74-3.23,1-4.88q1-5.94,2-11.89a9,9,0,0,0,.17-2.69A.61.61,0,0,1,234.56,217Z" style="fill:#374151"/><path d="M232.88,239.28l-.75,2a16.32,16.32,0,0,0-1.37,5.13c-.09,1.78.39,3.54.42,5.32.07,3-1.48,5.65-1.5,8.6,0,1.1.3,2.17.38,3.27a17.44,17.44,0,0,1-.22,3.31c-.25,1.78-.49,3.56-.74,5.34-.2,1.47-.65,2.44,1,2.6,4.43.43,8.66-.25,13.07-.54a.79.79,0,0,0,.51-.16,1,1,0,0,0,.17-.36,143.25,143.25,0,0,0,3.86-18.45,5,5,0,0,1,.38-1.66A8.17,8.17,0,0,1,249.4,252c1.13-1.4,1.15-2.86,1.64-4.48s1-3.09,1.38-4.73q1.26-5.82,2.48-11.64c.68-3.21,1.49-6.09-.22-9.16a9.41,9.41,0,0,0-2.31-2.48A46.26,46.26,0,0,0,225,209.22c-3.7-.12-8.36-.36-9.75-3.79a18.07,18.07,0,0,1-.6-4.14c-.62-4-6.87-5-10.13-3.92-4.4,1.42-5.77,6.87-6.26,11.46-.4,3.76-.66,7.63.42,11.26,1.61,5.39,6.12,9.6,11.27,11.86a37.44,37.44,0,0,0,12.88,2.69c3.35.2,6.67-.43,10-.81,2.35-.26,2,.4,1.24,2.36Z" style="fill:#4a59ff"/><path d="M203.36,139.21c.12.58.24,1.17.34,1.76.2,1.15.31,2.49-.47,3.37-.46.5-1.14.76-1.6,1.26a3.42,3.42,0,0,0-.58,2.85c.18,1.19.19,2.25.26,3.4a32.32,32.32,0,0,1,.55,3.68,3.82,3.82,0,0,1-3.76,3.87h-.43c-1.38-.1-2.94-.29-3.77-1.39a4.6,4.6,0,0,1-.72-1.88c-1.13-5-2.27-10.16-1-15.08a18.2,18.2,0,0,1,2.16-5.54,15,15,0,0,1,2.74-3.46,3,3,0,0,1,3.57-.31,4.33,4.33,0,0,1,1.28,2.18A51,51,0,0,1,203.36,139.21Z" style="fill:#f9fafb;stroke:#374151;stroke-miterlimit:10"/><path d="M216,159.77a6.37,6.37,0,0,1,2.95-4.5,34.58,34.58,0,0,1,5.44-2.73l.76-.27c5-1.78,10.24-2.88,15.15-4.88,5.43-2.22,10.66-4.86,16-7.32a54.65,54.65,0,0,0,10.2-5.8c2.67-2,1.83-6.06,3.12-8.83.55-1.19,1.59-2.43,2.55-.81s.64,3.49.85,5.16a8.69,8.69,0,0,1-.29,4.92,9.45,9.45,0,0,1-2.37,2.78l-2.64,2.37c-1,.9-2,1.88-3.08,2.69q-5,3.81-9.71,8.08c-3.07,2.81-5.87,5.69-9.39,8a40.48,40.48,0,0,1-11.21,5.12l-.2.06c-3.89,1.06-7.46,2.65-11.64,2.21C219.19,165.67,215.34,163.53,216,159.77Z" style="fill:#f9fafb;stroke:#374151;stroke-miterlimit:10"/><path d="M213.6,200c0,.12-10.69.66-11.68.72-1.93.13-4.4.71-6.3.39-1.22-.2-1.73-1.48-3.17-1.21-.86.16-1.88.47-2.51-.14a2.23,2.23,0,0,1-.5-1.57l-.66-12.07c-.19-3.32-4.28-4.23-6.67-5.75l-4.88-3.09a64.17,64.17,0,0,1,12.3-17.52c5.25-5.46,9-6,16.65-6a76.16,76.16,0,0,0,18.39-2.44c1.44,5.09,3,10.22,4.34,15.29a75.22,75.22,0,0,1-11.63,4.56,4.09,4.09,0,0,0-3.53,4.6h0v.16Z" style="fill:#374151"/><line x1="347.02" y1="316.58" x2="328.73" y2="316.58" style="fill:none;stroke:#374151;stroke-miterlimit:10"/><path d="M333.15,270.62a5,5,0,0,1,.06-.54c.33-2,1.87-3.46,2.93-5.15a11.45,11.45,0,0,0,1.7-5.48c.15-3.63.05-8.28,1.61-11.63,1.41-3,4.75-4.67,6.47-7.52a17.71,17.71,0,0,0,1.66-5.21,18.19,18.19,0,0,1,3.66-7.87,25.28,25.28,0,0,1,5.28-4.27,27,27,0,0,1,5.79-3.2c2.74-1,5.77-1.28,7,1.54,1,2.27.51,5.5-.57,7.65a24.42,24.42,0,0,1-3.83,4.93,71.45,71.45,0,0,0-6.64,8.58,6.63,6.63,0,0,0-1.24,2.74,12,12,0,0,0,.3,2.92c.62,4.94-1.42,8.92-5.23,11.93-3,2.37-4.88,3.72-5.64,7.83-.47,2.54-.68,5.24-2.09,7.4a27.6,27.6,0,0,1-2,2.44,19.05,19.05,0,0,0-4.47,10.66c-.17,1.95-.58,6.35-3.72,5.47-3.83-1.08-3.37-12.29-2.24-14.94a18.89,18.89,0,0,0,1.42-3.38C333.68,273.91,333,272.25,333.15,270.62Z" style="fill:#374151"/><path d="M317.52,277.14a5.87,5.87,0,0,1-2-2.17c-1.17-2.46.64-4.14.77-6.45.12-2.1-1.68-3.42-2.83-4.87a6.57,6.57,0,0,1-.83-6.6c.42-.94,1.08-1.87.94-2.88a6.26,6.26,0,0,0-1-2,6.28,6.28,0,0,1-.14-6.13,13.05,13.05,0,0,0,1.71-3.16,6.75,6.75,0,0,0-.13-2.41,31.53,31.53,0,0,1-.77-7.81,6.28,6.28,0,0,1,.95-3.26,2.59,2.59,0,0,1,2.67-1.25c1.12.3,1.26,1.19,1.66,2.09a32.54,32.54,0,0,1,1.94,7.71,3.14,3.14,0,0,0,.49,1.39,3.83,3.83,0,0,0,1.26,1c3,1.92,5.35,5.07,5.34,8.59,0,2.06-.84,4-.87,6.11a2.37,2.37,0,0,0,.37,1.51,3,3,0,0,0,1.19.81,5.62,5.62,0,0,1,3.26,7.25c-.05.13-.1.26-.16.39-.49,1.55-1.27,3-1.79,4.54a2.8,2.8,0,0,0-.2,1.18c.09,1,.88,1.42,1.4,2.13a6.45,6.45,0,0,1,.89,2.11c.77,2.26,1.57,4.11,1.21,6.58-.15,1-.44,1.94-.55,2.93a22.49,22.49,0,0,0,.63,5.89c.2,1.3.69,4.34-.65,5.24-1.15.78-2.78-.5-3.75-1.06-3-1.76-5.17-3.18-5.65-6.81-.34-2.58,0-5.55-1.71-7.74A16.48,16.48,0,0,0,317.52,277.14Z" style="fill:#4a59ff"/><path d="M337.5,278.73a22.16,22.16,0,0,1,3-5.43c.9-1.21,1.93-2.33,2.73-3.61,1.29-2,2-4.42,3.21-6.49,1.91-3.17,5.72-5,9.22-3.17a16.33,16.33,0,0,1,3.29,2.5,28.15,28.15,0,0,1,3.22,3.33,30.83,30.83,0,0,1,4.05,8.34L370,284.54c.59,1.63,2,5.37.62,7s-4.25-.69-4.85-2a6.05,6.05,0,0,0-1.74-2.18c-.95-.74-2.16-1.23-2.74-2.27s-.5-2.69-1.61-3.26c-.33-.12-.66-.23-1-.32a4.21,4.21,0,0,1-2.07-2.11c-1.18-2-2.08-4.18-3.34-6.08-.8.24-1.51,2.66-2.06,3.42a12.24,12.24,0,0,1-2.9,2.89c-1.72,1.2-3.82,2-4.95,3.77a12.15,12.15,0,0,0-1.22,3.25c-.48,1.59-2,6.18-4.44,5.41-1.69-.54-1.61-3.38-1.63-4.73A22.74,22.74,0,0,1,337.5,278.73Z" style="fill:#4a59ff"/><path d="M350.45,288.42H314.77v4.46h2.86L320,306.05a12.82,12.82,0,0,0,12.65,10.62h0a12.87,12.87,0,0,0,12.65-10.62l2.32-13.17h2.87Z" style="fill:#374151"/><line x1="316.63" y1="293.25" x2="348.59" y2="293.25" style="fill:none;stroke:#fff;stroke-miterlimit:10"/><path d="M202.63,209.88l8.63,1c5.17.62,10.78,1.46,14.35,5.25a15.15,15.15,0,0,1,3.68,8.84,45.18,45.18,0,0,1-.39,9.72" style="fill:none;stroke:#fff;stroke-miterlimit:10;stroke-width:2px"/><rect x="194.95" y="233.43" width="1.75" height="38.62" style="fill:#374151"/><path d="M180.52,280.15c0-5.7,10.09-8.1,15.13-8.11,6,0,15.13,2.21,15.13,8.11" style="fill:#f9fafb;stroke:#374151;stroke-miterlimit:10"/><line x1="195.82" y1="281.67" x2="195.82" y2="272.2" style="fill:none;stroke:#374151;stroke-miterlimit:10"/><path d="M213.26,281.52a2.48,2.48,0,1,1-2.49-2.47h0a2.48,2.48,0,0,1,2.49,2.47Z" style="fill:#374151"/><path d="M198.25,281.52a2.48,2.48,0,1,1-2.49-2.47h0A2.49,2.49,0,0,1,198.25,281.52Z" style="fill:#374151"/><path d="M183.24,281.52a2.48,2.48,0,1,1-2.49-2.47h0a2.49,2.49,0,0,1,2.47,2.47Z" style="fill:#374151"/><path d="M207.7,218.88V185.72c0-5.74-5.26-10.39-11.75-10.39H183c-6.49,0-11.75,4.65-11.75,10.39V222.8c0,8.18,7.58,14.88,16.84,14.88H230.3a1.88,1.88,0,0,0,2-1.75h0a1.88,1.88,0,0,0-2-1.75H225C215.45,234.18,207.7,227.33,207.7,218.88Z" style="fill:#f9fafb;stroke:#374151;stroke-miterlimit:10"/><path d="M185.3,129.91a18.66,18.66,0,0,0-5.15.76c-3.21,1.15-4.68,3.55-6.31,6.22s-4.4,4.33-6.46,6.65a13.57,13.57,0,0,0-1.17,16,16.34,16.34,0,0,0,3.93,4.07c8.41,6.36,22.13,1.82,27-7.11,2.58-4.72,1.6-10.51.54-15.79-.57-2.9-.24-5.18,2.77-6.69a18.6,18.6,0,0,0,2.35-1.1,4.77,4.77,0,0,0,1.58-5.63,6,6,0,0,0-4.9-3.51,5.49,5.49,0,0,0-2.69.35c-2,.84-3.12,3-4.9,4.2S187.67,129.79,185.3,129.91Z" style="fill:#f9fafb;stroke:#374151;stroke-miterlimit:10"/><path d="M240.71,157.19c-.1.05-.07.2,0,.29a1.92,1.92,0,0,0,1.77.81,3.35,3.35,0,0,0,1.83-.86" style="fill:#374151"/><path d="M39.47,271.15a21.58,21.58,0,0,1,7.67.7q0-6.53-.36-13.11c-.14-2.9-1.22-5.56-4.56-6.12-2-.35-3.58.33-4.2,2C36.51,258.7,38.41,266.52,39.47,271.15Z" style="fill:#f9fafb;stroke:#374151;stroke-miterlimit:10"/><path d="M29.3,236.54c.3,2.78-.18,5.93-.29,8.76-.12,3.24,1.4,5.71,1.77,8.81a67.63,67.63,0,0,1,.3,9,.23.23,0,0,0,.23.23H50.17a.24.24,0,0,0,.23-.21c.2-1.94.36-3.63.36-3.63a18.78,18.78,0,0,0-.43-7.68c-.32-1.11-.59-2.26-.81-3.43-.34-1.84-.57-3.72-.75-5.53-.27-2.78-.26-5.58-.5-8.36s-.7-5.4-1.16-8.09c-1.41-8.12-2.82-16.26-4.77-24.28-1-4-2.09-8-3.41-12a70.78,70.78,0,0,0-6-13.42c-1.51-2.57-3.3-5.37-6.31-6.32a10.88,10.88,0,0,0-7.4-.09c-3.17,1.34-5.63,3.94-8.25,6.09l-1.08,5.25a19.33,19.33,0,0,0,2.28,12.59q1.22,2,2.25,4.08c.9,2.14,1.07,4.51,1.76,6.73a32.24,32.24,0,0,0,2.95,6.19C23.29,218.81,28.36,227.8,29.3,236.54Z" style="fill:#374151"/><path d="M56.75,172.46c.41,1.82.12,4.12,1.29,5.72s4.69,2.11,6.48,2.75a2.83,2.83,0,0,1,1.08.61c.66.77.07,2.08-.87,2.48a4.81,4.81,0,0,1-3,0l-7-1.55a5,5,0,0,1-1.41-.46c-1.19-.68-1.61-2.19-1.8-3.55-1.31-9.77-10.44-16.22-13.54-25.34a54.23,54.23,0,0,1-1.76-7.19c-.7-3.53-1.36-7.08-2.12-10.61-.54-2.53-2-4.78-.45-7.3a5,5,0,0,1,5.92-2c3.39,1.25,4.56,5,5.61,8.08,1.46,4.24,2.67,8.1,2.42,12.67a8.92,8.92,0,0,0,.2,3.6,11.59,11.59,0,0,0,2.42,3.23c2.93,3.5,3.39,8.2,4.45,12.47.53,2.15,1.58,4.15,2.1,6.26Z" style="fill:#f9fafb;stroke:#374151;stroke-miterlimit:10"/><path d="M5.29,275.28a21.08,21.08,0,0,1,7.5.66c1.12-4.16,2.15-8.36,3.08-12.57.61-2.78.23-5.33-2.95-5.87a4.51,4.51,0,0,0-4.74,1.93C5.61,263.33,5.45,270.83,5.29,275.28Z" style="fill:#f9fafb;stroke:#374151;stroke-miterlimit:10"/><path d="M25.47,280.53a10.53,10.53,0,0,1-6,1.21h-.64q-4.83,0-9.63-.35a7.49,7.49,0,0,1-3.9-1c-1.29-.93-1.1-2.51-.79-3.92a23.56,23.56,0,0,0,.5-3.65,12.82,12.82,0,0,0,4.75.79,8.37,8.37,0,0,0,2.54-.67,6.79,6.79,0,0,0,1.13-.66c.2-.13.73-.77,1-.72s.35.61.45.77a5,5,0,0,0,.89,1A6.5,6.5,0,0,0,18,274.7a13.36,13.36,0,0,0,2.35.54c1.13.21,2.24.45,3.35.73a6.31,6.31,0,0,1,2,.76,2.32,2.32,0,0,1,1.1,1.72,2.41,2.41,0,0,1-1.1,2Z" style="fill:#374151"/><path d="M58.74,275.65a3.13,3.13,0,0,1-2.25,1.87c-4.31,1.28-8.94.05-13.42.42a10.21,10.21,0,0,1-3.31,0c-2.46-.62-2.39-3.66-1.81-5.64a5.38,5.38,0,0,0,.47-2.77,16.58,16.58,0,0,0,6,.15,5,5,0,0,0,2.14-.74c.26-.19.56-.45.87-.34a1.05,1.05,0,0,1,.45.46c.94,1.53,2.26,2.1,3.78,2.88a9.17,9.17,0,0,0,1.88.87c.89.25,1.8.42,2.7.61s2.23.62,2.45,1.64A1.67,1.67,0,0,1,58.74,275.65Z" style="fill:#4a59ff"/><path d="M27.8,209.35c-.47-4.59-.63-9.2-.85-13.86a124,124,0,0,0-1.49-13.17c-.25-1.61-.05-3-.57-4.64a28.35,28.35,0,0,0-2.61-5.91,14,14,0,0,0-7-6.11,7.19,7.19,0,0,0-6.14.38,10.31,10.31,0,0,0-3.72,4.73l-1.64,3.32a43.79,43.79,0,0,0-3.12,7.45,14.51,14.51,0,0,0-.19,8c.49,1.65,1.43,2.56,2.21,4a13.39,13.39,0,0,1,1.63,5.83c.06,1.46-.15,2.93-.21,4.39a32.47,32.47,0,0,0,1.4,9.74,19,19,0,0,1,.78,3.82,28.78,28.78,0,0,1-.18,3.21c-.18,2.9.37,5.77.52,8.65a17.62,17.62,0,0,1-1.54,8,14.47,14.47,0,0,0-1,5.52c0,2.86.46,5.77-.39,8.56a23.9,23.9,0,0,1-1,2.46,46.18,46.18,0,0,0-2.56,11,.35.35,0,0,0,.28.41h0c1.31.17,5.77,1.06,6.18,1.11,4.08.47,7.84-.91,11.81,0a.37.37,0,0,0,.42-.23,167.06,167.06,0,0,0,7.06-26c.47-2.55.13-5,.24-7.48a16.29,16.29,0,0,1,.58-3.25c1.45-5,2.6-9.74,1.75-15C28.18,212.72,28,211,27.8,209.35Z" style="fill:#4a59ff"/><path d="M34,124.14a14.33,14.33,0,0,0-6.66-3.26,5.44,5.44,0,0,0-2.66,0,7.14,7.14,0,0,0-1.6.83,22.52,22.52,0,0,0-8.67,9.47,43.24,43.24,0,0,0-3,10.39C11,143.65,7.25,169,6,168.63c1.47.43,3,.75,4.42,1.29,2.06.79,4.13,1.6,6.17,2.46A80.2,80.2,0,0,0,29,177a4.68,4.68,0,0,0,1.38-1.74,28.17,28.17,0,0,0,2.14-7.07c1.36-8.77,2-18.16,4.27-26.75,1-3.91,1.74-8.28.57-12.24A11.08,11.08,0,0,0,34,124.14Z" style="fill:#374151"/><path d="M31.22,172.05c1.08.49,2.2,1,3.33,1.49a75,75,0,0,1,14.56,8.87A7.24,7.24,0,0,0,46.5,187c-.11,1.8,1.28,3.77,3.09,3.68,1-1.17,1.19-2.88,1.94-4.26,1-1.79,3.93-1.72,4.6-3.07S55.24,180,54.45,179c-2.25-2.88-5.75-4.55-8-7.39-.81-1-1.39-2.19-2.11-3.27A15.12,15.12,0,0,0,39.88,164c-3.46-2.18-4.68-5.25-6.37-8.86a17.47,17.47,0,0,1-1.35-3.43c-.38-1.53-.37-3.13-.61-4.69a24.19,24.19,0,0,0-2.17-6.4,16.57,16.57,0,0,0-3.35-5,6.84,6.84,0,0,0-5.6-2c-2.51.42-4.4,2.67-5.13,5.11a18.92,18.92,0,0,0-.21,7.57,19.47,19.47,0,0,0,1.8,7.07c1.09,2.08,2.7,3.85,3.86,5.89s1.7,4,2.67,6.07C25.09,168.93,28,170.58,31.22,172.05Z" style="fill:#f9fafb;stroke:#374151;stroke-miterlimit:10"/><path d="M29.72,122.76a6.36,6.36,0,0,0-1.15,2.33c-1.19,4.38.5,9.77,2.33,13.73.68,1.46,1,3.93,2.58,4.69,1.1.52,1.91-.3,2.83-.76,1.09-.55,2.25-1,3.35-1.58,2.47-1.28,4.88-2.64,7.25-4.1-1.28-6-4.15-12.07-9.49-15a6.8,6.8,0,0,0-5.62-.85A4.9,4.9,0,0,0,29.72,122.76Z" style="fill:#374151"/><path d="M23.18,118.58a25,25,0,0,0,1-4.92,20.48,20.48,0,0,1,.89-5.76c1.1-2.81,5-4.64,7.9-3.94,4.05,1,2.83,7.77,2.46,10.8-.19,1.48-1.3,2.53-2.09,3.75-1.31,2-1.49,5.41-1.69,7.8a1.5,1.5,0,0,1-.22.78,1.36,1.36,0,0,1-.84.4,22.24,22.24,0,0,1-5,.7c-2.2,0-5.66-.81-4.63-3.65C21.77,122.48,22.56,120.56,23.18,118.58Z" style="fill:#f9fafb;stroke:#374151;stroke-miterlimit:10"/><path d="M34.31,99a4.68,4.68,0,0,0-3.38,1.14,4.82,4.82,0,0,1-1.21,1,5,5,0,0,1-.77.17,8.49,8.49,0,0,0-5.8,3.9,3.7,3.7,0,0,0-.59,1.47,4.18,4.18,0,0,0,.07,1.27c.15,1,.33,2,.56,2.92a9.82,9.82,0,0,1,.27,1.31,3.56,3.56,0,0,0,.08,1.08c.44,1.49,1.88.81,2.48-.17a16.46,16.46,0,0,0,1.12-2.54,6.38,6.38,0,0,1,1.9-2.91,7,7,0,0,1,3.17-1.08c1.2-.19,2.87-.35,3.74-1.28a5,5,0,0,0,1.58-3.78,2.5,2.5,0,0,0-.28-1,2.6,2.6,0,0,0-.84-.81A4.51,4.51,0,0,0,34.31,99Z" style="fill:#374151"/><path d="M28.45,110.05a1.72,1.72,0,0,0-2.31-.77h0a3,3,0,0,0-1.33,3,1.37,1.37,0,0,0,1.49,1.23h0a1.2,1.2,0,0,0,.49-.14A2.68,2.68,0,0,0,28.49,110Z" style="fill:#fff"/><path d="M26.84,111.16c-.1-.49-.79-.27-.72.2a1.63,1.63,0,0,0,.31,1c.16.19.42.06.5-.13A2,2,0,0,0,26.84,111.16Z" style="fill:#374151"/><path d="M26.59,165.06a1.38,1.38,0,0,0,0,.94,1.7,1.7,0,0,0,1,1.08,1,1,0,0,0,.34.1,1.63,1.63,0,0,0,.82-.27" style="fill:#f9fafb;stroke:#374151;stroke-miterlimit:10"/><path d="M12.85,139.28a10.44,10.44,0,0,0-.16,2.56,56.39,56.39,0,0,0,1.76,10.24c1.9-1.83,4.52-2.66,7-3.44l8-2.45c.76-.23,1.63-.58,1.83-1.34a2.21,2.21,0,0,0,0-.81c-.53-5-4.19-14.12-10.62-13a9.52,9.52,0,0,0-5,3.07A9.71,9.71,0,0,0,12.85,139.28Z" style="fill:#374151"/><path d="M25.66,132.53c-.16-.12-.33.13-.2.26a21.73,21.73,0,0,1,3.73,5.29c1,2.21,1.55,4.58,2.44,6.85a.14.14,0,0,0,.18.07h0a.16.16,0,0,0,.09-.15C31.19,140.51,29.31,135.25,25.66,132.53Z" style="fill:#f9fafb;stroke:#374151;stroke-miterlimit:10"/><path d="M30.17,116.6c.1.18.19.37.28.56.16.35.31.7.44,1.06A12.78,12.78,0,0,1,32,122.73a8.86,8.86,0,0,1,1-3A13.52,13.52,0,0,1,34.46,117c.25-.4.45-1.17-.21-.66a2.68,2.68,0,0,1-1.3.51,8.63,8.63,0,0,1-2.86-.29A.09.09,0,0,1,30.17,116.6Z" style="fill:#374151"/><path d="M31.8,112.41a.6.6,0,0,0,.11.47,1.85,1.85,0,0,0,.68.68,1.26,1.26,0,0,0,.95.11,1.63,1.63,0,0,0,.84-.91v-.23" style="fill:#374151"/><path d="M74,280.28c.1-1.54.22-2.83.23-3.58a25.64,25.64,0,0,0-.2-4.2,31.17,31.17,0,0,0-1.79-5.57c-1.51-4.07-2.52-8.49-1.59-12.73.62-2.84,2.1-5.45,2.7-8.31.43-2.07.38-4.21.77-6.28.31-1.7,2.46-7.29,5.09-5.22a3.21,3.21,0,0,1,.89,1.42,42.58,42.58,0,0,0,2.18,5.9c1.07,2,2.75,3.59,3.59,5.66a13.24,13.24,0,0,1,.5,6.4c-.83,7.49-3.34,14.65-2.3,22.32.18,1.3.55,11.93-1.35,11.93-.65,1.73-1.7,4.41-3.74,4.85C73.42,294.09,73.6,285.67,74,280.28Z" style="fill:#4a59ff"/><path d="M54.82,293.31c-2.17,2.05-3.79,4.62-7,5.14-4.06.66-6.12-3.18-4.67-6.75,1-2.34,2.94-4.08,4.66-5.94a32.8,32.8,0,0,0,4.92-6.88c1-1.86,1.89-3.9,3.59-5.14a11.65,11.65,0,0,1,3.8-1.58c2.62-.75,5.44-1.49,8-.63a11.38,11.38,0,0,1,4.18,2.87c7.06,7.06,6.53,16.2,4.9,25.31a2.9,2.9,0,0,1-1.11,2.16c-1.2.64-2.54-.68-3-2-1-3.12-.4-5.87-2.44-8.64-1.66-2.24-4.66-4-5.57-6.68a7.73,7.73,0,0,0-.94-2.37c-.54-.67-1.74-.89-2.19-.16a2.22,2.22,0,0,0-.14,1.32,8.64,8.64,0,0,1-3.47,7.46c-1,.69-2.05,1.18-3,1.94A2.36,2.36,0,0,1,54.82,293.31Z" style="fill:#374151"/><path d="M78.12,284a6.32,6.32,0,0,1,0-1.23c.48-4.3,6.47-4.91,9.44-6.84s4.58-5.68,8.23-1.91a15.15,15.15,0,0,1,3.29,7.54q1,7.11,2,14.21a5.43,5.43,0,0,1-.22,3.14c-.9,1.76-3.57,1.91-5.16.74-2.23-1.37-3-5.09-3.9-7.33a7.6,7.6,0,0,1-.74-3.28c.09-1.38.93-2.71.71-4.08-.07-.43-.37-.92-.81-.87a1,1,0,0,0-.37.17c-2,1.27-2.62,3.26-3.83,5.11s-2.27,1.73-3.74,3.07c-3,2.79-2.13,9.09-3.23,12.84-.28,1-1.22,2.1-2.05,1.54a1.66,1.66,0,0,1-.56-1,26.77,26.77,0,0,1,0-12.77,25.42,25.42,0,0,0,1.11-5.32A33.15,33.15,0,0,0,78.12,284Z" style="fill:#4a59ff"/><path d="M91.48,297.6H62.22v3.66h2.35l1.91,10.79a10.52,10.52,0,0,0,10.37,8.71h0a10.53,10.53,0,0,0,10.37-8.71l1.91-10.79h2.35Z" style="fill:#374151"/><line x1="63.75" y1="301.56" x2="89.95" y2="301.56" style="fill:none;stroke:#fff;stroke-miterlimit:10"/><line x1="70.71" y1="320.93" x2="98.27" y2="320.93" style="fill:none;stroke:#374151;stroke-miterlimit:10"/><path d="M308.49,124.72a.6.6,0,0,1,.57.27.61.61,0,0,1,0,.64,1.17,1.17,0,0,1-.46.31h0"/><path d="M299,126.17a.64.64,0,0,0,.14.52,1.67,1.67,0,0,0,.69.6,1.44,1.44,0,0,0,1.08,0,1.56,1.56,0,0,0,.78-.76h-.06" style="fill:#374151"/></g></g></g></g></g></g></svg>