<svg xmlns="http://www.w3.org/2000/svg" viewBox="0 0 593 451.51"><g id="Layer_2" data-name="Layer 2"><g id="Layer_1-2" data-name="Layer 1"><path d="M55.5,440l13.69-19.84L95.5,427l15-12,25-31,14-2,23-30,24,1,26-36,67-74h15l21,62,11-10,16,7,28,29,6,9,6,4,22-3,10,2,10,15,13-10,11,3,6,9,31,33,47.94,4.25L559.5,422l4.08,3.42A295.34,295.34,0,0,0,593,296.5C593,132.75,460.25,0,296.5,0S0,132.75,0,296.5a295.08,295.08,0,0,0,43.72,155Z" style="fill:#4a59ff"/><polygon points="299.97 187.21 299.97 241.88 296.5 241.88 294.69 196.3 293.7 241.88 290.06 241.88 289.24 187.21 292.79 187.21 299.97 187.21" style="fill:#1a2f3f"/><polygon points="301.13 191.18 285.44 191.18 287.92 179.55 289.73 163.54 291.71 156.31 293.04 155.31 298.65 155.17 301.13 191.18" style="fill:#1a2f3f"/><path d="M299.58,138.67l.23,6.17-1-.4-.27,4.28a22.42,22.42,0,0,0-1.88,2.82c-.22.4.34,2.86.16,3.3-.33.83-1.08.36-1.81.33s-.08-2.06-.5-2.47c-2.06-2.06-2.48-7.86-2.48-7.86v-6.17l.24-.57A4.83,4.83,0,0,1,293,137l.25-.31,2.15-.5,2,.31a2.43,2.43,0,0,1,1.75,1.23Z" style="fill:#efc7b0"/><rect x="293.04" y="153.69" width="4.62" height="1.65" style="fill:#f2f2f2"/><path d="M294.58,141.74c0,2.86-.81,5.18-1.8,5.18S291,144.6,291,141.74c0-.81-.36-2.73-.24-3.41.29-1.72,1.32-1.76,2-1.76C293.77,136.57,294.58,138.88,294.58,141.74Z" style="fill:#333"/><path d="M301.46,136.51c0,1.22-3,3.93-5.78,3.93s-5-1-5-2.21c0-1,1.91-2.94,4-3.2.44-.06,1.5,0,2,0,1.29,0,1.59.46,2.48.82S301.46,135.87,301.46,136.51Z" style="fill:#333"/><path d="M295,142.59c.24.33,0,.56,0,.89s.61.58,0,1-1.29,0-1.78-.68-.5-1.56,0-1.9S294.49,141.88,295,142.59Z" style="fill:#efc7b0"/><polygon points="298.35 155.68 297.69 159.71 315.33 163.6 312.69 160.4 298.35 155.68" style="fill:#1a2f3f"/><polygon points="312.69 160.46 315.33 163.6 318.14 141.8 314.01 141.8 312.69 160.46" style="fill:#1a2f3f"/><polygon points="289.57 164.26 291.55 156.99 280.81 173.18 283.79 172.51 289.57 164.26" style="fill:#1a2f3f"/><polygon points="287.92 179.62 287.42 181.93 280.81 173.18 283.79 172.51 287.92 179.62" style="fill:#1a2f3f"/><polygon points="296.5 243.03 289.9 243.03 290.06 241.88 293.7 241.88 296.5 243.03" style="fill:#1a2f3f"/><polygon points="303.61 243.03 296.5 243.03 296.5 241.88 299.97 241.88 303.61 243.03" style="fill:#1a2f3f"/><polygon points="339.5 141.3 299.44 142.91 299.33 141.39 339.19 137 339.5 141.3" style="fill:#4d4d4d"/></g></g></svg>