<svg xmlns="http://www.w3.org/2000/svg" viewBox="0 0 399.44 322.48"><g id="Layer_2" data-name="Layer 2"><g id="Layer_1-2" data-name="Layer 1"><path d="M17.76,246.28v.54a27,27,0,0,0,27,26.95H326.2a27,27,0,0,0,26.95-26.95v-.54Z" style="fill:#1d262d"/><path d="M42,64.48H328.87a8.33,8.33,0,0,1,8.33,8.33V240.66a0,0,0,0,1,0,0H33.71a0,0,0,0,1,0,0V72.81A8.33,8.33,0,0,1,42,64.48Z" style="fill:#dcdbdb"/><rect x="46.79" y="79.47" width="277.33" height="146.19" style="fill:#f9fcfd"/><circle cx="185.46" cy="71.98" r="2.81" style="fill:#1d262d"/><path d="M25,40.54A3.55,3.55,0,1,1,21.45,37,3.54,3.54,0,0,1,25,40.54Z" style="fill:#1d262d"/><path d="M42.94,40.54A3.55,3.55,0,1,1,39.4,37,3.54,3.54,0,0,1,42.94,40.54Z" style="fill:#1d262d"/><path d="M60.9,40.54A3.55,3.55,0,1,1,57.35,37,3.55,3.55,0,0,1,60.9,40.54Z" style="fill:#f9be22"/><path d="M78.85,40.54A3.55,3.55,0,1,1,75.3,37,3.55,3.55,0,0,1,78.85,40.54Z" style="fill:#1d262d"/><path d="M96.8,40.54A3.55,3.55,0,1,1,93.25,37,3.55,3.55,0,0,1,96.8,40.54Z" style="fill:#1d262d"/><circle cx="281.45" cy="288.85" r="3.55" style="fill:#f9be22"/><path d="M303,288.85a3.55,3.55,0,1,1-3.55-3.55A3.54,3.54,0,0,1,303,288.85Z" style="fill:#f9be22"/><path d="M320.9,288.85a3.55,3.55,0,1,1-3.55-3.55A3.54,3.54,0,0,1,320.9,288.85Z" style="fill:#f9be22"/><circle cx="335.3" cy="288.85" r="3.55" style="fill:#f9be22"/><path d="M356.8,288.85a3.55,3.55,0,1,1-3.55-3.55A3.54,3.54,0,0,1,356.8,288.85Z" style="fill:#f9be22"/><path d="M396.32,192.35a5.63,5.63,0,0,1-11.25,0v-1.46a8.75,8.75,0,1,0-17.49,0v1.46a5.62,5.62,0,0,1-11.24,0v-1.46a8.75,8.75,0,0,0-17.5,0v1.46a5.62,5.62,0,1,1-11.24,0v-1.46a8.75,8.75,0,0,0-17.5,0v1.46a5.62,5.62,0,1,1-11.24,0V192h-3.13v.39a8.75,8.75,0,0,0,17.5,0v-1.46a5.62,5.62,0,0,1,11.24,0v1.46a8.75,8.75,0,0,0,17.5,0v-1.46a5.62,5.62,0,0,1,11.24,0v1.46a8.75,8.75,0,0,0,17.49,0v-1.46a5.63,5.63,0,0,1,11.25,0v1.46a8.75,8.75,0,0,0,17.49,0Z" style="fill:#1d262d"/><path d="M119.13,112.59v87.19H251.79V112.59ZM122.88,196V128.67H248V196Z" style="fill:#1d262d"/><rect x="122.88" y="116.29" width="10.68" height="9.32" style="fill:#f9fcfd"/><rect x="136.45" y="116.29" width="111.59" height="9.32" style="fill:#f9fcfd"/><rect x="129.94" y="140.57" width="61.37" height="2.58" style="fill:#dcdbdb"/><rect x="129.94" y="150.3" width="61.37" height="2.58" style="fill:#dcdbdb"/><rect x="129.94" y="160.03" width="61.37" height="2.58" style="fill:#dcdbdb"/><rect x="129.94" y="169.76" width="61.37" height="2.58" style="fill:#dcdbdb"/><rect x="129.94" y="179.49" width="61.37" height="2.58" style="fill:#dcdbdb"/><rect x="200.21" y="136.13" width="40.76" height="50.37" style="fill:#dcdbdb"/><path d="M273.31,164.64h87.38V77.26Zm84.63-77.16v8.26h-4.13v2.75h4.13V104h-2.75v2.75h2.75v5.51h-4.13V115h4.13v5.5h-2.75v2.76h2.75v5.5h-4.13v2.75h4.13V137h-2.75v2.75h2.75v5.5h-4.13V148h4.13v5.51h-2.75v2.75h2.75v5.5h-5.52v-2.64h-2.76v2.75h-5.5v-4.13h-2.75v4.13H335.9v-2.75h-2.75v2.75h-5.5v-4.13H324.9v4.13h-5.51v-2.75h-2.75v2.75h-5.5v-4.13h-2.76v4.13h-5.5v-2.75h-2.75v2.75h-5.51v-4.13h-2.75v4.13H280l78-78Z" style="fill:#1d262d"/><path d="M347.33,152.08V108.79L304,152.08Zm-2.75-2.75H310.7l33.88-33.89Z" style="fill:#1d262d"/><path d="M20.07,119.47l-3.22-6.88L12,102.34,7.22,112.59,4,119.47v83.94H20.07Zm-6.51-6.88,2.69,5.72H7.8l2.7-5.72ZM7,121.28h3.59v67.66H7ZM17.1,200.44H7V191.9H17.1Zm0-11.5h-3.6V121.28h3.6Z" style="fill:#f9be22"/><polygon points="139.94 26.78 149.89 15.98 147.19 13.49 134.95 26.78 147.19 40.07 149.89 37.58 139.94 26.78" style="fill:#1d262d"/><polygon points="194.06 13.49 191.36 15.98 201.32 26.78 191.36 37.58 194.06 40.07 206.31 26.78 194.06 13.49" style="fill:#1d262d"/><rect x="150.96" y="24.94" width="39.34" height="3.67" transform="translate(56.46 156.38) rotate(-57.54)" style="fill:#1d262d"/><path d="M244.54,32.9a4.26,4.26,0,0,1,1.07-4.74,25,25,0,0,0-2.23-2.09,4.09,4.09,0,0,1-4.64,1.06A4.27,4.27,0,0,1,236.15,23a24.62,24.62,0,0,0-3.06.1,4,4,0,0,1-2.53,4A4.37,4.37,0,0,1,225.81,26a24.15,24.15,0,0,0-2.12,2.25,4,4,0,0,1,1.06,4.64,4.4,4.4,0,0,1-4.12,2.6,19,19,0,0,0,.06,3.09,4,4,0,0,1,4,2.53,4.26,4.26,0,0,1-1.07,4.74,26.74,26.74,0,0,0,2.23,2.1,4,4,0,0,1,3.06-1.37,4.08,4.08,0,0,1,1.58.31A4.24,4.24,0,0,1,233.07,51a15,15,0,0,1,1.52,0,13.13,13.13,0,0,0,1.54-.09,4,4,0,0,1,2.53-4A4.41,4.41,0,0,1,243.41,48a24.23,24.23,0,0,0,2.12-2.25,4,4,0,0,1-1.06-4.64,4.3,4.3,0,0,1,3.92-2.6h.22a21.28,21.28,0,0,0-.07-3A4.37,4.37,0,0,1,244.54,32.9ZM234.63,43A5.93,5.93,0,1,1,240.56,37,5.93,5.93,0,0,1,234.63,43Z" style="fill:#f9be22"/><path d="M77.75,298.79a4.27,4.27,0,0,1,1.06-4.74,24.94,24.94,0,0,0-2.22-2.1A4.1,4.1,0,0,1,72,293a4.23,4.23,0,0,1-2.59-4.16,26.64,26.64,0,0,0-3.06.1,4,4,0,0,1-2.54,4A4.35,4.35,0,0,1,59,291.85a25.48,25.48,0,0,0-2.12,2.25A4,4,0,0,1,58,298.75a4.38,4.38,0,0,1-4.11,2.59,17.91,17.91,0,0,0,.06,3.09,4,4,0,0,1,4,2.53,4.26,4.26,0,0,1-1.07,4.74,23.86,23.86,0,0,0,2.23,2.1,3.94,3.94,0,0,1,3.06-1.37,4.08,4.08,0,0,1,1.58.31,4.25,4.25,0,0,1,2.59,4.16,15,15,0,0,1,1.52,0c.51,0,1,0,1.54-.08a4,4,0,0,1,2.53-4,4.37,4.37,0,0,1,4.75,1.08,27.14,27.14,0,0,0,2.12-2.25A4,4,0,0,1,77.68,307a4.3,4.3,0,0,1,3.92-2.6h.21a21.08,21.08,0,0,0-.06-3A4.39,4.39,0,0,1,77.75,298.79Zm-9.91,10a5.92,5.92,0,1,1,5.92-5.92A5.93,5.93,0,0,1,67.84,308.83Z" style="fill:#1d262d"/><path d="M222.06,0h.86V9.8h-.86V5h-4.54V9.8h-.86V0h.86V4.06h4.54Z" style="fill:#1d262d"/><path d="M232.05,0V1h-3V9.8h-.86V1h-3V0Z" style="fill:#1d262d"/><path d="M233.78,9.8,235.46,0h.62l2.42,7.21L240.91,0h.63l1.68,9.8h-.88l-1.28-7.5-2.28,6.86h-.56L235.94,2.3l-1.28,7.5Z" style="fill:#1d262d"/><path d="M245.81,9.8V0h.87V8.82h4v1Z" style="fill:#1d262d"/><path d="M98.56,297v-9.81h2.77a2.16,2.16,0,0,1,1.24.38,2.79,2.79,0,0,1,.89,1,3.2,3.2,0,0,1,.33,1.46,3.05,3.05,0,0,1-.34,1.46,2.71,2.71,0,0,1-.89,1,2.2,2.2,0,0,1-1.23.38H99.42V297Zm.86-5.05h1.84a1.46,1.46,0,0,0,.83-.26,1.78,1.78,0,0,0,.61-.69,2.34,2.34,0,0,0,0-2,1.81,1.81,0,0,0-.61-.7,1.45,1.45,0,0,0-.83-.25H99.42Z" style="fill:#1d262d"/><path d="M111.55,287.18h.87V297h-.87v-4.77H107V297h-.87v-9.81H107v4.06h4.53Z" style="fill:#1d262d"/><path d="M115.13,297v-9.81h2.77a2.19,2.19,0,0,1,1.25.38,2.77,2.77,0,0,1,.88,1,3.39,3.39,0,0,1,0,2.92,2.83,2.83,0,0,1-.9,1,2.15,2.15,0,0,1-1.23.38H116V297Zm.87-5.05h1.83a1.49,1.49,0,0,0,.84-.26,1.84,1.84,0,0,0,.6-.69,2.25,2.25,0,0,0,0-2,1.87,1.87,0,0,0-.6-.7,1.48,1.48,0,0,0-.84-.25H116Z" style="fill:#1d262d"/><path d="M379.49,169a2.34,2.34,0,0,1-.82-.16,2.39,2.39,0,0,1-.72-.48l.55-.76a1.37,1.37,0,0,0,.45.3,1.24,1.24,0,0,0,.54.11,1.27,1.27,0,0,0,.79-.26,1.88,1.88,0,0,0,.56-.68,2.06,2.06,0,0,0,.21-.91v-7.15h.87v7.15a3,3,0,0,1-.33,1.4,2.8,2.8,0,0,1-.88,1A2,2,0,0,1,379.49,169Z" style="fill:#1d262d"/><path d="M387.53,169a3.84,3.84,0,0,1-1.34-.25,3.46,3.46,0,0,1-1.13-.7,2.47,2.47,0,0,1-.67-1.09l.8-.34a1.71,1.71,0,0,0,.5.75,2.81,2.81,0,0,0,.85.48,3,3,0,0,0,1,.16,2.7,2.7,0,0,0,1.1-.22,2.11,2.11,0,0,0,.83-.63,1.47,1.47,0,0,0,.31-.95,1.3,1.3,0,0,0-.32-.91,2.38,2.38,0,0,0-.85-.56,6.3,6.3,0,0,0-1.07-.32,7.63,7.63,0,0,1-1.59-.47,2.7,2.7,0,0,1-1.1-.85,2.36,2.36,0,0,1-.41-1.46,2.52,2.52,0,0,1,.43-1.47,2.88,2.88,0,0,1,1.14-1,3.44,3.44,0,0,1,1.53-.35,3.7,3.7,0,0,1,1.31.24,3.48,3.48,0,0,1,1.14.69,2.67,2.67,0,0,1,.7,1.12l-.82.33a1.63,1.63,0,0,0-.5-.75,2.49,2.49,0,0,0-.84-.48,3,3,0,0,0-1-.16,2.55,2.55,0,0,0-1.1.22,2.08,2.08,0,0,0-.82.63,1.49,1.49,0,0,0-.32.94,1.41,1.41,0,0,0,.3,1,1.68,1.68,0,0,0,.8.51,10.31,10.31,0,0,0,1.14.3,6.24,6.24,0,0,1,1.53.5,3.17,3.17,0,0,1,1.15.9,2.21,2.21,0,0,1,.43,1.39,2.52,2.52,0,0,1-.43,1.47,2.91,2.91,0,0,1-1.14,1A3.48,3.48,0,0,1,387.53,169Z" style="fill:#1d262d"/><path d="M4.25,83.76a3.47,3.47,0,0,1-1.65-.4,4.31,4.31,0,0,1-1.36-1.09,5.35,5.35,0,0,1-.91-1.62,5.88,5.88,0,0,1-.33-2,5.78,5.78,0,0,1,.33-2,5.12,5.12,0,0,1,.91-1.62A4.34,4.34,0,0,1,2.6,74a3.58,3.58,0,0,1,1.65-.39,3.55,3.55,0,0,1,1.93.55,4.66,4.66,0,0,1,1.46,1.47l-.76.47A3.48,3.48,0,0,0,5.72,75a2.92,2.92,0,0,0-1.47-.41,2.76,2.76,0,0,0-1.33.33,3.25,3.25,0,0,0-1.07.89,4.39,4.39,0,0,0-.73,1.31,4.79,4.79,0,0,0-.26,1.57,4.58,4.58,0,0,0,.27,1.59,4.16,4.16,0,0,0,.72,1.31,3.53,3.53,0,0,0,1.09.89,2.79,2.79,0,0,0,1.31.32,2.82,2.82,0,0,0,1.49-.42,3.6,3.6,0,0,0,1.14-1.09l.76.47a4.66,4.66,0,0,1-1.46,1.47A3.64,3.64,0,0,1,4.25,83.76Z" style="fill:#1d262d"/><path d="M13.13,83.76a3.62,3.62,0,0,1-1.34-.25,3.17,3.17,0,0,1-1.12-.7A2.37,2.37,0,0,1,10,81.73l.81-.35a1.61,1.61,0,0,0,.49.75,2.44,2.44,0,0,0,.85.48,3,3,0,0,0,1,.17,2.71,2.71,0,0,0,1.1-.23,2.11,2.11,0,0,0,.83-.62,1.51,1.51,0,0,0,.32-1,1.27,1.27,0,0,0-.33-.91,2.31,2.31,0,0,0-.84-.57,7.9,7.9,0,0,0-1.08-.32,7.35,7.35,0,0,1-1.58-.47,2.66,2.66,0,0,1-1.11-.85A2.41,2.41,0,0,1,10,76.4a2.52,2.52,0,0,1,.43-1.47,3,3,0,0,1,1.14-1,3.44,3.44,0,0,1,1.53-.35,3.66,3.66,0,0,1,1.31.24,3.35,3.35,0,0,1,1.14.7,2.57,2.57,0,0,1,.7,1.11l-.82.33a1.61,1.61,0,0,0-.49-.75,2.61,2.61,0,0,0-.85-.47,3,3,0,0,0-1-.17,2.7,2.7,0,0,0-1.1.22,2.08,2.08,0,0,0-.82.63,1.49,1.49,0,0,0-.32.94,1.41,1.41,0,0,0,.3,1,1.68,1.68,0,0,0,.8.51,10.94,10.94,0,0,0,1.14.3,6.94,6.94,0,0,1,1.54.5,3.13,3.13,0,0,1,1.14.91A2.19,2.19,0,0,1,16.24,81a2.47,2.47,0,0,1-.43,1.46,2.83,2.83,0,0,1-1.14,1A3.48,3.48,0,0,1,13.13,83.76Z" style="fill:#1d262d"/><path d="M21.77,83.76a3.62,3.62,0,0,1-1.34-.25,3.17,3.17,0,0,1-1.12-.7,2.46,2.46,0,0,1-.68-1.08l.81-.35a1.61,1.61,0,0,0,.49.75,2.54,2.54,0,0,0,.85.48,3,3,0,0,0,1,.17,2.76,2.76,0,0,0,1.11-.23,2.15,2.15,0,0,0,.82-.62A1.51,1.51,0,0,0,24,81a1.27,1.27,0,0,0-.33-.91,2.31,2.31,0,0,0-.84-.57,7.5,7.5,0,0,0-1.08-.32,7.35,7.35,0,0,1-1.58-.47,2.66,2.66,0,0,1-1.11-.85,2.41,2.41,0,0,1-.41-1.46,2.59,2.59,0,0,1,.43-1.47,3,3,0,0,1,1.14-1,3.44,3.44,0,0,1,1.53-.35,3.66,3.66,0,0,1,1.31.24,3.35,3.35,0,0,1,1.14.7,2.57,2.57,0,0,1,.7,1.11L24.1,76a1.61,1.61,0,0,0-.49-.75,2.51,2.51,0,0,0-.85-.47,3,3,0,0,0-1-.17,2.7,2.7,0,0,0-1.1.22,2.15,2.15,0,0,0-.82.63,1.48,1.48,0,0,0-.31.94,1.41,1.41,0,0,0,.29,1,1.68,1.68,0,0,0,.8.51,11.65,11.65,0,0,0,1.14.3,6.94,6.94,0,0,1,1.54.5,3.13,3.13,0,0,1,1.14.91A2.19,2.19,0,0,1,24.88,81a2.47,2.47,0,0,1-.43,1.46,2.83,2.83,0,0,1-1.14,1A3.45,3.45,0,0,1,21.77,83.76Z" style="fill:#1d262d"/><path d="M104.7,312.58h0a1.41,1.41,0,0,0-.25.41.74.74,0,0,0,0,.14,1.44,1.44,0,0,0-.07.36c0,.05,0,.09,0,.14v.07a1.84,1.84,0,0,0,.08.42.08.08,0,0,0,0,0,1.41,1.41,0,0,0,.22.4s0,0,0,.05l6.31,7.43a1.14,1.14,0,0,0,1.77,0,1.6,1.6,0,0,0,0-2l-3.4-4a32.85,32.85,0,0,0,10.09-.44c15.07-2.73,25.74-16.66,23.78-31a1.31,1.31,0,0,0-1.23-1.22h-.2a1.44,1.44,0,0,0-1,1.65c1.75,12.82-8,25.26-21.75,27.76a31.17,31.17,0,0,1-9.86.35l5.25-3.12A1.54,1.54,0,0,0,115,308a1.18,1.18,0,0,0-1.69-.63L105,312.33a1.18,1.18,0,0,0-.3.25Z" style="fill:#1d262d"/><path d="M343.47,59.94h0a1.25,1.25,0,0,0,.46-.12l.13-.06a2.11,2.11,0,0,0,.31-.21l.1-.09.06-.05a1.69,1.69,0,0,0,.23-.36l0,0a1.62,1.62,0,0,0,.12-.43s0,0,0-.06l.79-9.72a1.14,1.14,0,0,0-1.23-1.27A1.61,1.61,0,0,0,343,49l-.43,5.24a32.9,32.9,0,0,0-7.44-6.82c-12.59-8.73-30-6.43-38.77,5.13a1.31,1.31,0,0,0,0,1.73l.15.13a1.42,1.42,0,0,0,1.9-.43c7.83-10.29,23.51-12.21,35-4.25a30.86,30.86,0,0,1,7.22,6.73l-5.91-1.51a1.55,1.55,0,0,0-1.75,1,1.17,1.17,0,0,0,.75,1.64l9.32,2.37a1.26,1.26,0,0,0,.39,0Z" style="fill:#1d262d"/><path d="M88,162.71v26l-6.47-6.47A1.74,1.74,0,1,0,79,184.75l9.44,9.44a1.65,1.65,0,0,0,.57.37,1.75,1.75,0,0,0,1.33,0,1.68,1.68,0,0,0,.56-.38l9.45-9.45a1.74,1.74,0,1,0-2.46-2.46l-6.47,6.48v-26a1.74,1.74,0,1,0-3.48,0Z" style="fill:#1d262d"/><path d="M90.37,117.8a1.8,1.8,0,0,0-1.33,0,1.84,1.84,0,0,0-.57.38L79,127.62a1.74,1.74,0,1,0,2.46,2.46L88,123.61v26a1.74,1.74,0,0,0,3.48,0v-26l6.47,6.47a1.74,1.74,0,1,0,2.46-2.46l-9.45-9.44a1.68,1.68,0,0,0-.56-.38Z" style="fill:#1d262d"/></g></g></svg>