<svg xmlns="http://www.w3.org/2000/svg" xmlns:xlink="http://www.w3.org/1999/xlink" viewBox="0 0 458.91 395.07"><defs><style>.cls-1{isolation:isolate;}.cls-10,.cls-100,.cls-101,.cls-102,.cls-103,.cls-104,.cls-105,.cls-106,.cls-107,.cls-108,.cls-11,.cls-113,.cls-114,.cls-118,.cls-119,.cls-12,.cls-120,.cls-121,.cls-122,.cls-123,.cls-124,.cls-126,.cls-127,.cls-128,.cls-129,.cls-13,.cls-130,.cls-131,.cls-132,.cls-133,.cls-134,.cls-14,.cls-142,.cls-143,.cls-144,.cls-147,.cls-148,.cls-149,.cls-15,.cls-150,.cls-152,.cls-16,.cls-17,.cls-18,.cls-19,.cls-2,.cls-20,.cls-21,.cls-22,.cls-23,.cls-24,.cls-25,.cls-26,.cls-27,.cls-28,.cls-29,.cls-3,.cls-30,.cls-31,.cls-32,.cls-33,.cls-34,.cls-35,.cls-36,.cls-37,.cls-39,.cls-4,.cls-40,.cls-41,.cls-42,.cls-43,.cls-44,.cls-45,.cls-46,.cls-47,.cls-48,.cls-49,.cls-50,.cls-51,.cls-52,.cls-53,.cls-54,.cls-55,.cls-56,.cls-57,.cls-58,.cls-59,.cls-60,.cls-61,.cls-62,.cls-63,.cls-64,.cls-65,.cls-66,.cls-67,.cls-69,.cls-70,.cls-71,.cls-72,.cls-73,.cls-74,.cls-75,.cls-76,.cls-77,.cls-78,.cls-79,.cls-80,.cls-81,.cls-82,.cls-83,.cls-84,.cls-85,.cls-86,.cls-87,.cls-88,.cls-91,.cls-93,.cls-94,.cls-95,.cls-96,.cls-97,.cls-98,.cls-99{fill-rule:evenodd;}.cls-2{fill:url(#Безымянный_градиент_182);}.cls-3{fill:#400e86;}.cls-4{fill:#611d93;}.cls-111,.cls-113,.cls-114,.cls-117,.cls-125,.cls-134,.cls-141,.cls-144,.cls-145,.cls-28,.cls-33,.cls-4,.cls-55,.cls-71,.cls-94{mix-blend-mode:multiply;}.cls-129,.cls-131,.cls-141,.cls-145,.cls-151,.cls-33,.cls-4,.cls-55,.cls-71,.cls-94{opacity:0.5;}.cls-5{fill:url(#Безымянный_градиент_214);}.cls-10,.cls-115,.cls-116,.cls-129,.cls-131,.cls-151,.cls-6,.cls-7,.cls-9{mix-blend-mode:screen;}.cls-10,.cls-6,.cls-7,.cls-9{opacity:0.2;}.cls-6{fill:url(#Безымянный_градиент_218);}.cls-7{fill:url(#Безымянный_градиент_173);}.cls-8{fill:url(#Безымянный_градиент_214-2);}.cls-9{fill:url(#Безымянный_градиент_218-2);}.cls-10{fill:url(#Безымянный_градиент_173-2);}.cls-11{fill:url(#Безымянный_градиент_188);}.cls-12{fill:url(#Безымянный_градиент_37);}.cls-13{fill:#6829a4;}.cls-14{fill:url(#Безымянный_градиент_188-2);}.cls-15{fill:#4a0e72;}.cls-16{fill:url(#Безымянный_градиент_188-3);}.cls-17{fill:url(#Безымянный_градиент_182-2);}.cls-18{fill:#740e86;}.cls-19{fill:url(#Безымянный_градиент_325);}.cls-20{fill:url(#Безымянный_градиент_326);}.cls-21{fill:#a70047;}.cls-22{fill:#f2f0f5;}.cls-108,.cls-22,.cls-38,.cls-74{mix-blend-mode:soft-light;}.cls-23{fill:url(#Безымянный_градиент_337);}.cls-24{fill:url(#Безымянный_градиент_72);}.cls-25{fill:#5440be;}.cls-26{fill:#9c75d8;}.cls-27{fill:#6654c5;}.cls-125,.cls-134,.cls-146,.cls-28,.cls-71,.cls-93{fill:#614881;}.cls-117,.cls-125,.cls-28{opacity:0.3;}.cls-29{fill:url(#Безымянный_градиент_162);}.cls-30{fill:url(#Безымянный_градиент_365);}.cls-31{fill:url(#Безымянный_градиент_380);}.cls-32{fill:url(#Безымянный_градиент_108);}.cls-141,.cls-33{fill:#b15a93;}.cls-34{fill:url(#Безымянный_градиент_365-2);}.cls-35{fill:url(#Безымянный_градиент_377);}.cls-36{fill:url(#Безымянный_градиент_72-2);}.cls-37{fill:url(#Безымянный_градиент_164);}.cls-38{font-size:13.01px;fill:#ffdded;}.cls-38,.cls-68{font-family:Poppins-Regular, Poppins;}.cls-39{fill:url(#Безымянный_градиент_10);}.cls-40{fill:url(#Безымянный_градиент_7);}.cls-41{fill:#598800;}.cls-42{fill:#5e9339;}.cls-43{fill:#97b368;}.cls-44{fill:#b1cc00;}.cls-45{fill:#e5cc00;}.cls-46{fill:#ead631;}.cls-47{fill:url(#Безымянный_градиент_10-2);}.cls-48{fill:url(#Безымянный_градиент_7-2);}.cls-49{fill:#005d88;}.cls-50{fill:#005ad9;}.cls-51{fill:#5b5bff;}.cls-52{fill:#8d91ff;}.cls-53{fill:#c2baff;}.cls-54{fill:#ff8df4;}.cls-55{fill:#914881;}.cls-56{fill:url(#Безымянный_градиент_10-3);}.cls-57{fill:url(#Безымянный_градиент_7-3);}.cls-58{fill:#88005b;}.cls-59{fill:#d9005b;}.cls-60{fill:#ff665b;}.cls-61{fill:#ff928d;}.cls-62{fill:#ffc4ba;}.cls-63{fill:#ffd88d;}.cls-64{fill:url(#Безымянный_градиент_10-4);}.cls-65{fill:url(#Безымянный_градиент_12);}.cls-66{fill:url(#Безымянный_градиент_26);}.cls-67{fill:url(#Безымянный_градиент_118);}.cls-68{font-size:14.77px;fill:#642f4d;}.cls-69{fill:url(#Безымянный_градиент_118-2);}.cls-70{fill:url(#Безымянный_градиент_26-2);}.cls-72{fill:url(#Безымянный_градиент_97);}.cls-73{fill:url(#Безымянный_градиент_85);}.cls-109,.cls-74,.cls-76{fill:#fff;}.cls-74{opacity:0.6;}.cls-75{fill:url(#Безымянный_градиент_72-3);}.cls-77{fill:url(#Безымянный_градиент_310);}.cls-78{fill:url(#Безымянный_градиент_106);}.cls-79{fill:#ff6bff;}.cls-80{fill:url(#Безымянный_градиент_132);}.cls-81{fill:url(#Безымянный_градиент_94);}.cls-82{fill:url(#Безымянный_градиент_94-2);}.cls-83{fill:#ddaee5;}.cls-84{fill:#f0dbf4;}.cls-85{fill:#ceecf4;}.cls-86{fill:#cec4f4;}.cls-87{fill:#ced1f4;}.cls-88{fill:#ffc4f4;}.cls-89{fill:url(#Безымянный_градиент_94-3);}.cls-90{fill:url(#Безымянный_градиент_132-2);}.cls-91{fill:url(#Безымянный_градиент_132-3);}.cls-92{fill:#130025;}.cls-94{fill:#6148b0;}.cls-95{fill:url(#Безымянный_градиент_72-4);}.cls-96{fill:#a900ff;}.cls-97{fill:#f0f;}.cls-98{fill:#ff60ff;}.cls-99{fill:#ff86ff;}.cls-100{fill:#ffb0ff;}.cls-101{fill:#ffdbff;}.cls-102{fill:#2f56ff;}.cls-103{fill:#2e8eff;}.cls-104{fill:#7f97ff;}.cls-105{fill:#cec2ff;}.cls-106{fill:#2fe7ff;}.cls-107{fill:#b0bfff;}.cls-108{fill:#ddc2ff;}.cls-110{fill:url(#Безымянный_градиент_210);}.cls-111,.cls-113,.cls-114,.cls-144{opacity:0.8;}.cls-112{fill:url(#Безымянный_градиент_282);}.cls-113{fill:url(#Безымянный_градиент_253);}.cls-114{fill:url(#Безымянный_градиент_253-2);}.cls-115{fill:url(#Безымянный_градиент_276);}.cls-116{fill:url(#Безымянный_градиент_276-2);}.cls-117{fill:url(#Безымянный_градиент_279);}.cls-118{fill:url(#Безымянный_градиент_227);}.cls-119{fill:url(#Безымянный_градиент_244);}.cls-120{fill:url(#Безымянный_градиент_234);}.cls-121{fill:url(#Безымянный_градиент_240);}.cls-122{fill:url(#Безымянный_градиент_240-2);}.cls-123{fill:url(#Безымянный_градиент_26-3);}.cls-124{fill:url(#Безымянный_градиент_26-4);}.cls-126{fill:url(#Безымянный_градиент_151);}.cls-127{fill:url(#Безымянный_градиент_157);}.cls-128{fill:url(#Безымянный_градиент_154);}.cls-129{fill:url(#Безымянный_градиент_398);}.cls-130{fill:url(#Безымянный_градиент_80);}.cls-131{fill:url(#Безымянный_градиент_399);}.cls-132{fill:url(#Безымянный_градиент_184);}.cls-133{fill:#9f2e45;}.cls-135{fill:url(#Безымянный_градиент_337-2);}.cls-136{fill:url(#Безымянный_градиент_72-5);}.cls-137{fill:#7c77ff;}.cls-138{fill:url(#Безымянный_градиент_449);}.cls-139{fill:url(#Безымянный_градиент_158);}.cls-140{fill:#9a0054;}.cls-142{fill:url(#Безымянный_градиент_134);}.cls-143{fill:url(#Безымянный_градиент_127);}.cls-144{fill:url(#Безымянный_градиент_87);}.cls-147{fill:url(#Безымянный_градиент_95);}.cls-148{fill:url(#Безымянный_градиент_109);}.cls-149{fill:url(#Безымянный_градиент_137);}.cls-150{fill:url(#Безымянный_градиент_141);}.cls-151{fill:url(#Безымянный_градиент_146);}.cls-152{fill:url(#Безымянный_градиент_170);}</style><linearGradient id="Безымянный_градиент_182" x1="388.08" y1="103.51" x2="388.08" y2="1.48" gradientTransform="matrix(0.98, 0.22, -0.22, 0.98, 21.92, -57.68)" gradientUnits="userSpaceOnUse"><stop offset="0" stop-color="#590e86"/><stop offset="0.98" stop-color="#4d2b90"/></linearGradient><radialGradient id="Безымянный_градиент_214" cx="361.22" cy="72.62" r="73.16" gradientTransform="translate(355.32 -274.74) rotate(76.97)" gradientUnits="userSpaceOnUse"><stop offset="0.02" stop-color="#462490"/><stop offset="0.67" stop-color="#470189"/><stop offset="1" stop-color="#b14a48"/></radialGradient><radialGradient id="Безымянный_градиент_218" cx="342.11" cy="80.73" r="22.53" gradientTransform="translate(339.52 -270.77) rotate(76.3)" gradientUnits="userSpaceOnUse"><stop offset="0" stop-color="#005eff"/><stop offset="0.03" stop-color="#0058ef"/><stop offset="0.14" stop-color="#0044b8"/><stop offset="0.25" stop-color="#003287"/><stop offset="0.37" stop-color="#00225d"/><stop offset="0.48" stop-color="#00163c"/><stop offset="0.6" stop-color="#000c21"/><stop offset="0.72" stop-color="#00050f"/><stop offset="0.85" stop-color="#000104"/><stop offset="0.99"/></radialGradient><radialGradient id="Безымянный_градиент_173" cx="354.15" cy="106.84" r="22.53" gradientTransform="matrix(1, 0, 0, 1.2, 10.5, -54.96)" gradientUnits="userSpaceOnUse"><stop offset="0" stop-color="#009cff"/><stop offset="0.03" stop-color="#0092ef"/><stop offset="0.14" stop-color="#0071b8"/><stop offset="0.25" stop-color="#005287"/><stop offset="0.37" stop-color="#00395d"/><stop offset="0.48" stop-color="#00243c"/><stop offset="0.6" stop-color="#001421"/><stop offset="0.72" stop-color="#00090f"/><stop offset="0.85" stop-color="#000204"/><stop offset="0.99"/></radialGradient><radialGradient id="Безымянный_градиент_214-2" cx="236.47" cy="175.97" r="56.53" gradientTransform="matrix(0.7, 0.72, -0.72, 0.7, 221.39, -189.61)" xlink:href="#Безымянный_градиент_214"/><radialGradient id="Безымянный_градиент_218-2" cx="221.7" cy="182.23" r="17.41" gradientTransform="translate(266.46 -182.21) rotate(55.97)" xlink:href="#Безымянный_градиент_218"/><radialGradient id="Безымянный_градиент_173-2" cx="199.68" cy="148.56" r="17.41" gradientTransform="matrix(0.63, -0.78, 0.94, 0.75, -12.32, 134.02)" xlink:href="#Безымянный_градиент_173"/><linearGradient id="Безымянный_градиент_188" x1="385.97" y1="167.4" x2="385.97" y2="115.66" gradientTransform="matrix(0.92, 0.39, -0.39, 0.92, 96.37, -97.08)" gradientUnits="userSpaceOnUse"><stop offset="0" stop-color="#590e86"/><stop offset="0.98" stop-color="#462490"/></linearGradient><linearGradient id="Безымянный_градиент_37" x1="430.6" y1="211.6" x2="430.6" y2="159.71" gradientTransform="matrix(1, 0.07, -0.07, 1, 16.08, -20.34)" gradientUnits="userSpaceOnUse"><stop offset="0" stop-color="#2c3bae"/><stop offset="0.98" stop-color="#4624a9"/></linearGradient><linearGradient id="Безымянный_градиент_188-2" x1="28.56" y1="444.94" x2="28.56" y2="387.19" gradientTransform="translate(-172.92 -143.25) rotate(-29.18)" xlink:href="#Безымянный_градиент_188"/><linearGradient id="Безымянный_градиент_188-3" x1="-202.79" y1="429.65" x2="-202.79" y2="398.39" gradientTransform="matrix(-0.92, -0.39, -0.39, 0.92, 82.31, -405.66)" xlink:href="#Безымянный_градиент_188"/><linearGradient id="Безымянный_градиент_182-2" x1="47.52" y1="71.79" x2="47.52" y2="32.26" gradientTransform="translate(41.96 48.73) rotate(25.28)" xlink:href="#Безымянный_градиент_182"/><radialGradient id="Безымянный_градиент_325" cx="102.49" cy="56.93" r="20.81" gradientTransform="matrix(0.89, 0.45, -0.45, 0.89, 68.56, 0.39)" gradientUnits="userSpaceOnUse"><stop offset="0" stop-color="#ff224d"/><stop offset="0.01" stop-color="#fd214d"/><stop offset="0.24" stop-color="#e41353"/><stop offset="0.46" stop-color="#d10857"/><stop offset="0.7" stop-color="#c70259"/><stop offset="0.97" stop-color="#c3005a"/></radialGradient><linearGradient id="Безымянный_градиент_326" x1="101.54" y1="90.19" x2="101.54" y2="40.82" gradientTransform="matrix(0.89, 0.45, -0.45, 0.89, 68.56, 0.39)" gradientUnits="userSpaceOnUse"><stop offset="0" stop-color="#ff427e"/><stop offset="1" stop-color="#ff5973"/></linearGradient><linearGradient id="Безымянный_градиент_337" x1="141.62" y1="103.33" x2="203.44" y2="41.52" gradientTransform="matrix(0.89, 0.45, -0.45, 0.89, 68.56, 0.39)" gradientUnits="userSpaceOnUse"><stop offset="0.03" stop-color="#9042ff"/><stop offset="1" stop-color="#6e7cff"/></linearGradient><linearGradient id="Безымянный_градиент_72" x1="139.91" y1="98.6" x2="205.17" y2="33.34" gradientTransform="matrix(0.89, 0.45, -0.45, 0.89, 68.56, 0.39)" gradientUnits="userSpaceOnUse"><stop offset="0.03" stop-color="#bb86ff"/><stop offset="1" stop-color="#7c9fff"/></linearGradient><linearGradient id="Безымянный_градиент_162" x1="366.53" y1="246.38" x2="375.54" y2="230.79" gradientUnits="userSpaceOnUse"><stop offset="0.03" stop-color="#ffbd00"/><stop offset="1" stop-color="#ffe727"/></linearGradient><linearGradient id="Безымянный_градиент_365" x1="384.42" y1="379.61" x2="384.42" y2="245.31" gradientUnits="userSpaceOnUse"><stop offset="0" stop-color="#2d2f76"/><stop offset="0.98" stop-color="#531d68"/></linearGradient><linearGradient id="Безымянный_градиент_380" x1="383.17" y1="379.21" x2="383.17" y2="244.92" gradientUnits="userSpaceOnUse"><stop offset="0" stop-color="#593c9c"/><stop offset="0.98" stop-color="#5c0c77"/></linearGradient><linearGradient id="Безымянный_градиент_108" x1="381.39" y1="376.95" x2="381.39" y2="247.18" gradientUnits="userSpaceOnUse"><stop offset="0" stop-color="#4aa0ff"/><stop offset="1" stop-color="#00cea9"/></linearGradient><linearGradient id="Безымянный_градиент_365-2" x1="371.67" y1="379.61" x2="371.67" y2="245.31" xlink:href="#Безымянный_градиент_365"/><linearGradient id="Безымянный_градиент_377" x1="370.42" y1="379.21" x2="370.42" y2="244.92" gradientUnits="userSpaceOnUse"><stop offset="0.02" stop-color="#6b2289"/><stop offset="1" stop-color="#594a9c"/></linearGradient><linearGradient id="Безымянный_градиент_72-2" x1="396.58" y1="380.46" x2="396.58" y2="243.08" gradientTransform="matrix(1, 0, 0, 1, 0, 0)" xlink:href="#Безымянный_градиент_72"/><linearGradient id="Безымянный_градиент_164" x1="341.71" y1="246.77" x2="349.04" y2="234.08" gradientUnits="userSpaceOnUse"><stop offset="0" stop-color="#fe0173"/><stop offset="1" stop-color="#d842ff"/></linearGradient><linearGradient id="Безымянный_градиент_10" x1="147.3" y1="458.79" x2="147.3" y2="339.24" gradientTransform="translate(-137.19 121.48) rotate(-62.42)" gradientUnits="userSpaceOnUse"><stop offset="0.02" stop-color="#c289b0"/><stop offset="1" stop-color="#ff93ac"/></linearGradient><linearGradient id="Безымянный_градиент_7" x1="147.48" y1="458.37" x2="147.48" y2="338.82" gradientTransform="translate(-137.19 121.48) rotate(-62.42)" gradientUnits="userSpaceOnUse"><stop offset="0.02" stop-color="#ffdbe7"/><stop offset="1" stop-color="#ffe8de"/></linearGradient><linearGradient id="Безымянный_градиент_10-2" x1="157.14" y1="432.98" x2="157.14" y2="340.2" xlink:href="#Безымянный_градиент_10"/><linearGradient id="Безымянный_градиент_7-2" x1="157.23" y1="432.53" x2="157.23" y2="339.75" xlink:href="#Безымянный_градиент_7"/><linearGradient id="Безымянный_градиент_10-3" x1="163.8" y1="402.84" x2="163.8" y2="338.82" xlink:href="#Безымянный_градиент_10"/><linearGradient id="Безымянный_градиент_7-3" x1="163.8" y1="402.38" x2="163.8" y2="338.36" xlink:href="#Безымянный_градиент_7"/><linearGradient id="Безымянный_градиент_10-4" x1="163.81" y1="387.04" x2="163.81" y2="335.55" xlink:href="#Безымянный_градиент_10"/><linearGradient id="Безымянный_градиент_12" x1="163.81" y1="386.59" x2="163.81" y2="335.1" gradientTransform="translate(-137.19 121.48) rotate(-62.42)" gradientUnits="userSpaceOnUse"><stop offset="0.02" stop-color="#ffe5ee"/><stop offset="1" stop-color="#ffe8de"/></linearGradient><linearGradient id="Безымянный_градиент_26" x1="87.34" y1="351.94" x2="87.34" y2="342.26" gradientTransform="translate(-137.19 121.48) rotate(-62.42)" gradientUnits="userSpaceOnUse"><stop offset="0.02" stop-color="#b1acc7"/><stop offset="1" stop-color="#cccae2"/></linearGradient><linearGradient id="Безымянный_градиент_118" x1="87.34" y1="349.91" x2="87.34" y2="344.29" gradientTransform="translate(-137.19 121.48) rotate(-62.42)" gradientUnits="userSpaceOnUse"><stop offset="0" stop-color="#a6a3cc"/><stop offset="0.98" stop-color="#8c7dac"/></linearGradient><linearGradient id="Безымянный_градиент_118-2" x1="223.42" y1="372.5" x2="223.42" y2="341.81" gradientTransform="matrix(1, 0, 0, 1, 0, 0)" xlink:href="#Безымянный_градиент_118"/><linearGradient id="Безымянный_градиент_26-2" x1="222.81" y1="378.49" x2="222.81" y2="372.5" gradientTransform="matrix(1, 0, 0, 1, 0, 0)" xlink:href="#Безымянный_градиент_26"/><linearGradient id="Безымянный_градиент_97" x1="81.44" y1="258.06" x2="365.49" y2="258.06" gradientUnits="userSpaceOnUse"><stop offset="0" stop-color="#ffc393"/><stop offset="0.12" stop-color="#9272ae"/><stop offset="0.91" stop-color="#8f87ae"/><stop offset="1" stop-color="#e7e6f1"/></linearGradient><radialGradient id="Безымянный_градиент_85" cx="95.8" cy="226.72" r="185.07" gradientUnits="userSpaceOnUse"><stop offset="0" stop-color="#ac344c"/><stop offset="0.98" stop-color="#4d2b90"/></radialGradient><linearGradient id="Безымянный_градиент_72-3" x1="126.04" y1="357.79" x2="322.18" y2="161.65" gradientTransform="matrix(1, 0, 0, 1, 0, 0)" xlink:href="#Безымянный_градиент_72"/><linearGradient id="Безымянный_градиент_310" x1="87.68" y1="249.78" x2="359.06" y2="249.78" gradientUnits="userSpaceOnUse"><stop offset="0.02" stop-color="#1a0018"/><stop offset="1" stop-color="#0b0425"/></linearGradient><linearGradient id="Безымянный_градиент_106" x1="346.2" y1="332.41" x2="350.65" y2="326.3" gradientUnits="userSpaceOnUse"><stop offset="0.03" stop-color="#bd5ac9"/><stop offset="1" stop-color="#a45cff"/></linearGradient><linearGradient id="Безымянный_градиент_132" x1="198.98" y1="292.55" x2="261.25" y2="206.84" gradientUnits="userSpaceOnUse"><stop offset="0.03" stop-color="#ff9ddf"/><stop offset="1" stop-color="#e0c7ff"/></linearGradient><linearGradient id="Безымянный_градиент_94" x1="225.41" y1="283.84" x2="285.13" y2="201.64" gradientUnits="userSpaceOnUse"><stop offset="0.03" stop-color="#ff6bcf"/><stop offset="1" stop-color="#b67cff"/></linearGradient><linearGradient id="Безымянный_градиент_94-2" x1="131.89" y1="207.95" x2="142.67" y2="193.11" xlink:href="#Безымянный_градиент_94"/><linearGradient id="Безымянный_градиент_94-3" x1="197.62" y1="235.9" x2="207.98" y2="221.63" xlink:href="#Безымянный_градиент_94"/><linearGradient id="Безымянный_градиент_132-2" x1="181.08" y1="230.67" x2="186.61" y2="223.06" xlink:href="#Безымянный_градиент_132"/><linearGradient id="Безымянный_градиент_132-3" x1="137.39" y1="246.43" x2="140.81" y2="241.73" xlink:href="#Безымянный_градиент_132"/><linearGradient id="Безымянный_градиент_72-4" x1="229.02" y1="241.77" x2="340.81" y2="241.77" gradientTransform="matrix(1, 0, 0, 1, 0, 0)" xlink:href="#Безымянный_градиент_72"/><radialGradient id="Безымянный_градиент_210" cx="42.5" cy="273.86" r="48.15" gradientTransform="translate(0 -113.14) scale(1 1.41)" gradientUnits="userSpaceOnUse"><stop offset="0.25" stop-color="#fffeae"/><stop offset="0.29" stop-color="#fff9a8"/><stop offset="0.48" stop-color="#ffe795"/><stop offset="0.68" stop-color="#ffdd89"/><stop offset="0.87" stop-color="#ffd985"/><stop offset="0.89" stop-color="#ffd385"/><stop offset="0.94" stop-color="#ffc884"/><stop offset="1" stop-color="#ffc584"/></radialGradient><radialGradient id="Безымянный_градиент_282" cx="38.14" cy="294.19" r="41.42" gradientUnits="userSpaceOnUse"><stop offset="0.06" stop-color="#fff"/><stop offset="0.15" stop-color="#fefbfd"/><stop offset="0.99" stop-color="#ffbede"/></radialGradient><linearGradient id="Безымянный_градиент_253" x1="38.36" y1="336.07" x2="38.36" y2="295.13" gradientUnits="userSpaceOnUse"><stop offset="0.01" stop-color="#d486c2"/><stop offset="0.94" stop-color="#ffddd1"/></linearGradient><linearGradient id="Безымянный_градиент_253-2" x1="37.98" y1="336.98" x2="37.98" y2="332" xlink:href="#Безымянный_градиент_253"/><radialGradient id="Безымянный_градиент_276" cx="51.47" cy="272.59" r="17.77" gradientTransform="translate(312.29 178.12) rotate(80.78)" gradientUnits="userSpaceOnUse"><stop offset="0.01" stop-color="#ffffa9"/><stop offset="0.09" stop-color="#e0e095"/><stop offset="0.28" stop-color="#9d9d68"/><stop offset="0.46" stop-color="#656543"/><stop offset="0.62" stop-color="#393926"/><stop offset="0.77" stop-color="#1a1a11"/><stop offset="0.9" stop-color="#070705"/><stop offset="0.99"/></radialGradient><radialGradient id="Безымянный_градиент_276-2" cx="-54.35" cy="287.02" r="16.57" gradientTransform="matrix(0.49, -0.2, 0.38, 0.93, -71.15, 16.8)" xlink:href="#Безымянный_градиент_276"/><linearGradient id="Безымянный_градиент_279" x1="37.98" y1="338.65" x2="37.98" y2="292.32" gradientUnits="userSpaceOnUse"><stop offset="0.01" stop-color="#d486c2"/><stop offset="0.94" stop-color="#fff"/></linearGradient><radialGradient id="Безымянный_градиент_227" cx="37.13" cy="339.11" r="15.82" gradientTransform="translate(0 -62.17) scale(1 1.18)" gradientUnits="userSpaceOnUse"><stop offset="0" stop-color="#b3b0d3"/><stop offset="0.46" stop-color="#b1aed1"/><stop offset="0.69" stop-color="#aca6cb"/><stop offset="0.87" stop-color="#a399c1"/><stop offset="0.98" stop-color="#998cb6"/></radialGradient><linearGradient id="Безымянный_градиент_244" x1="37.87" y1="361.62" x2="37.87" y2="357.77" gradientUnits="userSpaceOnUse"><stop offset="0" stop-color="#7f7bb5"/><stop offset="0.98" stop-color="#685491"/></linearGradient><radialGradient id="Безымянный_градиент_234" cx="37.79" cy="361.04" r="7.51" gradientTransform="translate(0 -310.24) scale(1 1.86)" gradientUnits="userSpaceOnUse"><stop offset="0" stop-color="#474b72"/><stop offset="0.42" stop-color="#474870"/><stop offset="0.69" stop-color="#454068"/><stop offset="0.92" stop-color="#43315a"/><stop offset="0.98" stop-color="#422b55"/></radialGradient><radialGradient id="Безымянный_градиент_240" cx="38.36" cy="351.48" r="14.68" gradientTransform="translate(0 -302.02) scale(1 1.86)" gradientUnits="userSpaceOnUse"><stop offset="0" stop-color="#9490c1"/><stop offset="0.45" stop-color="#938ebf"/><stop offset="0.68" stop-color="#8d86b9"/><stop offset="0.85" stop-color="#8579ae"/><stop offset="0.98" stop-color="#7a69a0"/></radialGradient><radialGradient id="Безымянный_градиент_240-2" cx="39.1" cy="342.65" r="15.29" gradientTransform="translate(0 -294.43) scale(1 1.86)" xlink:href="#Безымянный_градиент_240"/><linearGradient id="Безымянный_градиент_26-3" x1="39.1" y1="347.01" x2="39.1" y2="336.07" gradientTransform="matrix(1, 0, 0, 1, 0, 0)" xlink:href="#Безымянный_градиент_26"/><linearGradient id="Безымянный_градиент_26-4" x1="38.36" y1="354.25" x2="38.36" y2="345.45" gradientTransform="matrix(1, 0, 0, 1, 0, 0)" xlink:href="#Безымянный_градиент_26"/><linearGradient id="Безымянный_градиент_151" x1="-56.78" y1="210.48" x2="-55.43" y2="239.1" gradientTransform="matrix(-0.85, -0.53, 0.38, -0.62, -58.88, 289.34)" gradientUnits="userSpaceOnUse"><stop offset="0" stop-color="#e55036"/><stop offset="0.42" stop-color="#5b1b5c"/><stop offset="0.98" stop-color="#2a164a"/></linearGradient><linearGradient id="Безымянный_градиент_157" x1="-89.61" y1="184.63" x2="-89.61" y2="164.79" gradientTransform="translate(-64.03 298.27) rotate(-148.28)" gradientUnits="userSpaceOnUse"><stop offset="0.03" stop-color="#9a007e"/><stop offset="0.38" stop-color="#cd0558"/><stop offset="1" stop-color="#ff792e"/></linearGradient><radialGradient id="Безымянный_градиент_154" cx="-136.49" cy="152.7" r="2.47" gradientTransform="matrix(-0.85, -0.53, 0.24, -0.39, -9.85, 210.11)" gradientUnits="userSpaceOnUse"><stop offset="0" stop-color="#2f3460"/><stop offset="0.64" stop-color="#391b5c"/><stop offset="0.98" stop-color="#2a164a"/></radialGradient><linearGradient id="Безымянный_градиент_398" x1="-59.7" y1="170.82" x2="22.6" y2="170.82" gradientTransform="translate(-64.03 298.27) rotate(-148.28)" gradientUnits="userSpaceOnUse"><stop offset="0.01" stop-color="#6052a9"/><stop offset="0.06" stop-color="#594c9c"/><stop offset="0.29" stop-color="#393165"/><stop offset="0.51" stop-color="#211c39"/><stop offset="0.71" stop-color="#0f0d1a"/><stop offset="0.87" stop-color="#040307"/><stop offset="0.99"/></linearGradient><linearGradient id="Безымянный_градиент_80" x1="7.95" y1="181.7" x2="7.95" y2="167.77" gradientTransform="translate(-64.03 298.27) rotate(-148.28)" gradientUnits="userSpaceOnUse"><stop offset="0.43" stop-color="#d8d9ff"/><stop offset="0.84" stop-color="#80618e"/><stop offset="0.96" stop-color="#e3dce6"/></linearGradient><linearGradient id="Безымянный_градиент_399" x1="-128.04" y1="183.65" x2="-128.04" y2="165.81" gradientTransform="translate(-64.03 298.27) rotate(-148.28)" gradientUnits="userSpaceOnUse"><stop offset="0.01"/><stop offset="0.13" stop-color="#040307"/><stop offset="0.29" stop-color="#0f0d1a"/><stop offset="0.49" stop-color="#211c39"/><stop offset="0.71" stop-color="#393165"/><stop offset="0.94" stop-color="#594c9c"/><stop offset="0.99" stop-color="#6052a9"/></linearGradient><linearGradient id="Безымянный_градиент_184" x1="-94.48" y1="170.16" x2="-94.48" y2="166.28" gradientTransform="translate(-64.03 298.27) rotate(-148.28)" gradientUnits="userSpaceOnUse"><stop offset="0.03" stop-color="#930045"/><stop offset="1" stop-color="#6b004d"/></linearGradient><linearGradient id="Безымянный_градиент_337-2" x1="196.78" y1="59" x2="196.78" y2="2.66" gradientTransform="matrix(1, 0, 0, 1, 0, 0)" xlink:href="#Безымянный_градиент_337"/><linearGradient id="Безымянный_градиент_72-5" x1="186.75" y1="59" x2="186.75" y2="0" gradientTransform="matrix(1, 0, 0, 1, 0, 0)" xlink:href="#Безымянный_градиент_72"/><linearGradient id="Безымянный_градиент_449" x1="248.31" y1="59.68" x2="248.31" y2="11.43" gradientUnits="userSpaceOnUse"><stop offset="0" stop-color="#7c004d"/><stop offset="0.97" stop-color="#af0059"/></linearGradient><linearGradient id="Безымянный_градиент_158" x1="240.68" y1="59.68" x2="240.68" y2="11.43" gradientUnits="userSpaceOnUse"><stop offset="0" stop-color="#ff224d"/><stop offset="0.97" stop-color="#c3005a"/></linearGradient><radialGradient id="Безымянный_градиент_134" cx="64.32" cy="389.4" r="57.4" gradientTransform="translate(32.09 225.43) rotate(0.15) scale(1 0.43)" gradientUnits="userSpaceOnUse"><stop offset="0" stop-color="#272360"/><stop offset="0.98" stop-color="#27003d"/></radialGradient><linearGradient id="Безымянный_градиент_127" x1="25.31" y1="368.32" x2="144.83" y2="368.32" gradientTransform="translate(32.67 1.93) rotate(0.15)" gradientUnits="userSpaceOnUse"><stop offset="0" stop-color="#c43440"/><stop offset="0.64" stop-color="#6d1b5c"/><stop offset="0.98" stop-color="#2a2cd4"/></linearGradient><linearGradient id="Безымянный_градиент_87" x1="25.31" y1="377.64" x2="122.85" y2="377.64" gradientTransform="translate(32.67 1.93) rotate(0.15)" gradientUnits="userSpaceOnUse"><stop offset="0.01" stop-color="#542f83"/><stop offset="0.94" stop-color="#fff"/></linearGradient><radialGradient id="Безымянный_градиент_95" cx="59.78" cy="349.67" r="8.95" gradientTransform="translate(32.67 1.93) rotate(0.15)" gradientUnits="userSpaceOnUse"><stop offset="0" stop-color="#635272"/><stop offset="0.31" stop-color="#614f70"/><stop offset="0.52" stop-color="#594669"/><stop offset="0.7" stop-color="#4c375e"/><stop offset="0.86" stop-color="#3a224e"/><stop offset="0.98" stop-color="#270c3d"/></radialGradient><radialGradient id="Безымянный_градиент_109" cx="51.42" cy="354.26" r="10.16" gradientTransform="translate(32.67 1.93) rotate(0.15)" gradientUnits="userSpaceOnUse"><stop offset="0" stop-color="#2f1160"/><stop offset="0.98" stop-color="#1d002c"/></radialGradient><linearGradient id="Безымянный_градиент_137" x1="95.35" y1="363.64" x2="135.16" y2="363.64" gradientTransform="translate(32.67 1.93) rotate(0.15)" gradientUnits="userSpaceOnUse"><stop offset="0.07" stop-color="#f92cff"/><stop offset="0.6" stop-color="#009fff"/><stop offset="0.99" stop-color="#00ff90"/></linearGradient><linearGradient id="Безымянный_градиент_141" x1="59.03" y1="349.52" x2="79.21" y2="349.52" gradientTransform="translate(32.67 1.93) rotate(0.15)" gradientUnits="userSpaceOnUse"><stop offset="0" stop-color="#009fff"/><stop offset="0.93" stop-color="#f92cff"/></linearGradient><radialGradient id="Безымянный_градиент_146" cx="275.07" cy="291.2" r="8.99" gradientTransform="matrix(2.3, 0, 0, 0.76, -536.19, 139.8)" gradientUnits="userSpaceOnUse"><stop offset="0.01" stop-color="#003772"/><stop offset="0.09" stop-color="#003064"/><stop offset="0.37" stop-color="#001c39"/><stop offset="0.62" stop-color="#000d1a"/><stop offset="0.84" stop-color="#000307"/><stop offset="0.99"/></radialGradient><radialGradient id="Безымянный_градиент_170" cx="57.9" cy="366.55" r="16.46" gradientTransform="matrix(1, 0, 0, 0.39, 32.09, 225.19)" gradientUnits="userSpaceOnUse"><stop offset="0" stop-color="#0f062d"/><stop offset="0.98" stop-color="#0e0020"/></radialGradient></defs><g class="cls-1"><g id="Layer_2" data-name="Layer 2"><g id="objects"><path class="cls-2" d="M438,37.28,361.45,24.83l-21.33,95,75.55,17Zm-26.95,91.56-46.45-9.72L381.1,35.89l49.26,7Z"/><polygon class="cls-3" points="424.99 138.91 414.62 136.47 438.01 37.28 450.34 40.21 424.99 138.91"/><polygon class="cls-3" points="430.36 42.88 381.1 35.89 364.61 119.12 348.01 115.64 365 29.84 430.97 40.14 430.36 42.88"/><polygon class="cls-4" points="365 29.84 378.82 47.38 381.1 35.89 430.36 42.88 430.97 40.14 365 29.84"/><polygon class="cls-4" points="380.13 128.84 383.95 123.17 368.89 120.02 363.16 125.03 380.13 128.84"/><circle class="cls-5" cx="350.45" cy="86.09" r="44.64" transform="translate(187.57 408.11) rotate(-76.97)"/><circle class="cls-6" cx="342.11" cy="80.73" r="22.53" transform="translate(182.67 393.99) rotate(-76.3)"/><ellipse class="cls-7" cx="364.64" cy="73.22" rx="22.53" ry="27.03" transform="translate(-1.96 135.89) rotate(-21.05)"/><circle class="cls-8" cx="247.18" cy="103.84" r="34.49" transform="translate(86.47 318.44) rotate(-75.96)"/><circle class="cls-9" cx="239.53" cy="103.5" r="17.41" transform="matrix(0.07, -1, 1, 0.07, 120.36, 335.63)"/><path class="cls-10" d="M262.54,76.14c9,7.22,11.42,19.15,5.4,26.65s-18.18,7.73-27.18.51-11.42-19.14-5.4-26.64S253.54,68.93,262.54,76.14Z"/><polygon class="cls-11" points="387.4 152.57 371.88 195.89 404.62 216.13 424.34 169.8 387.4 152.57"/><polygon class="cls-12" points="424.34 169.8 458.91 180.79 436.23 222.71 404.62 216.13 424.34 169.8"/><polygon class="cls-13" points="387.4 152.57 425.98 163.26 458.91 180.79 424.34 169.8 387.4 152.57"/><polygon class="cls-14" points="20.91 191.97 48.55 235.28 88.79 220.22 61.39 171.14 20.91 191.97"/><polygon class="cls-15" points="61.39 171.14 94.72 148.14 116.21 196.81 88.79 220.22 61.39 171.14"/><polygon class="cls-13" points="20.91 191.97 56.73 165.23 94.72 148.14 61.39 171.14 20.91 191.97"/><polygon class="cls-16" points="127.17 44.88 114.95 69.86 92.39 64.23 104.12 36.15 127.17 44.88"/><polygon class="cls-15" points="104.12 36.15 84.79 25.82 74.79 50.73 92.39 64.23 104.12 36.15"/><polygon class="cls-13" points="127.17 44.88 106.27 32.68 84.79 25.82 104.12 36.15 127.17 44.88"/><path class="cls-17" d="M59.34,92.62,4.44,86.83l57,50.48L121.15,145Zm2.28,41.72L14.29,90.14l45.55,5.91,53,45.33Z"/><polygon class="cls-18" points="4.44 86.83 4.77 93.12 59.59 141.5 61.41 137.31 4.44 86.83"/><polygon class="cls-3" points="121.14 144.97 117.46 147.81 59.59 141.5 61.41 137.31 121.14 144.97"/><polygon class="cls-3" points="18.18 93.32 59.4 98.09 105.9 140.42 112.88 141.38 59.84 96.05 14.29 90.14 18.18 93.32"/><path class="cls-19" d="M150,107.69l-.22-3.79L152,96.7l-4.61-7-7.48-.82-3.4-1.71-5.12-5.52-8.38.49-4.46,6.07-3.18,2.08L108,92l-3.77,7.5,3,6.89.22,3.79-2.21,7.2,4.61,7,7.48.82,3.4,1.71,5.12,5.52,8.38-.49,4.46-6.07,3.17-2.08,7.35-1.69,3.77-7.5Zm-27.2,10.94a13,13,0,1,1,17.45-5.77A13,13,0,0,1,122.76,118.63Z"/><path class="cls-20" d="M151.9,105.22l-.22-3.92L154,93.87l-4.76-7.24-7.72-.85L138,84l-5.29-5.69-8.65.5-4.61,6.27-3.27,2.15L108.57,89l-3.89,7.74,3.12,7.12.23,3.91-2.29,7.43,4.76,7.25,7.73.85,3.5,1.76,5.3,5.7,8.65-.5,4.6-6.27,3.28-2.16,7.58-1.73,3.89-7.75Zm-28.07,11.29a13.41,13.41,0,1,1,18-6A13.41,13.41,0,0,1,123.83,116.51Z"/><polygon class="cls-21" points="104.21 99.46 104.67 96.72 107.8 103.84 107.24 106.35 104.21 99.46"/><polygon class="cls-21" points="109.86 124.36 110.5 122.43 118.23 123.28 117.34 125.18 109.86 124.36"/><polygon class="cls-21" points="149.22 122.08 151.14 120.08 143.56 121.81 141.88 123.77 149.22 122.08"/><polygon class="cls-21" points="134.24 131.92 135.68 130.24 127.03 130.74 125.86 132.41 134.24 131.92"/><path class="cls-22" d="M118.23,123.28s-5.61-1.28-7.21-1.89-5.28-6.21-5.28-6.21l4.76,7.25Z"/><path class="cls-22" d="M121.73,125l5.3,5.7,8.65-.5s-6.62.16-8.11-.34S121.73,125,121.73,125Z"/><path class="cls-22" d="M151.14,120.08l3.89-7.75s-3.62,6.27-4.69,7-6.78,2.48-6.78,2.48Z"/><path class="cls-22" d="M107.8,103.84l-3.12-7.12L108.57,89s-2.47,5.85-2.64,8S107.8,103.84,107.8,103.84Z"/><path class="cls-23" d="M227.06,154.62l6.85-1.14L235,138.87l-6.61-2.13-3.82-11.55,4-5.65L219,108.46l-6.17,3.16L202,106.16l-1.14-6.85-14.61-1.07-2.12,6.61-11.56,3.82-6.37-4.55-10.77,9.3,3.58,7-5.47,10.88-6.84,1.14L145.59,147l6.6,2.13L156,160.68l-4,5.65,9.57,11.09,6.18-3.17,10.87,5.47,1.14,6.84,14.61,1.07,2.12-6.6L208,177.2l5.65,4,11.08-9.57-3.17-6.18Zm-48.24,10.31a24.8,24.8,0,1,1,33.3-11A24.79,24.79,0,0,1,178.82,164.93Z"/><path class="cls-24" d="M232,149.52l7.23-1.2,1.13-15.42-7-2.25-4-12.2,4.26-6-10.11-11.7L217,104.13l-11.48-5.77-1.21-7.23L188.9,90l-2.24,7-12.2,4-6.73-4.8L156.36,106l3.78,7.36-5.78,11.48-7.22,1.2L146,141.48l7,2.25,4,12.2-4.26,6,10.1,11.7,6.52-3.34L180.86,176l1.21,7.23,15.42,1.13,2.24-7,12.2-4,6,4.25,11.71-10.1L226.25,161Zm-50.93,10.89a26.18,26.18,0,1,1,35.16-11.63A26.18,26.18,0,0,1,181.09,160.41Z"/><polygon class="cls-25" points="233.91 153.48 239.25 148.32 232.02 149.52 229.68 154.18 233.91 153.48"/><polygon class="cls-26" points="197.49 184.38 194.35 187.63 179.74 186.56 182.07 183.25 197.49 184.38"/><polygon class="cls-26" points="162.86 173.59 161.55 177.42 151.98 166.33 152.76 161.89 162.86 173.59"/><polygon class="cls-25" points="178.6 179.72 180.86 176.02 182.07 183.25 179.74 186.56 178.6 179.72"/><polygon class="cls-25" points="152.19 149.13 152.98 143.73 146.01 141.48 145.59 147 152.19 149.13"/><polygon class="cls-25" points="157.78 118.07 160.14 113.38 156.36 106.02 155.4 113.42 157.78 118.07"/><polygon class="cls-27" points="208.03 177.2 211.93 173.37 217.89 177.63 213.68 181.24 208.03 177.2"/><path class="cls-28" d="M213.41,134.7l4.67-4.71s2.31,6.58-.72,16.25L214,149.09A23.14,23.14,0,0,0,213.41,134.7Z"/><path class="cls-28" d="M179.29,120.39l1.91-6.82s-12.47,5.77-14.32,20.14C170.86,122.39,179.29,120.39,179.29,120.39Z"/><path class="cls-22" d="M180.86,176s1,5.22,2.68,6,14,2.39,14,2.39l-15.42-1.13Z"/><path class="cls-22" d="M169.38,170.25l-6.52,3.34-10.1-11.7s8.33,9,10.35,9.76S169.38,170.25,169.38,170.25Z"/><path class="cls-22" d="M147.14,126.06,146,141.48l7,2.25s-4.94-1.5-5.88-3S147.14,126.06,147.14,126.06Z"/><path class="cls-22" d="M211.93,173.37l6,4.25,11.71-10.1s-9.66,9.08-11.79,8.8S211.93,173.37,211.93,173.37Z"/><polygon class="cls-29" points="364.01 244.92 365.36 232.48 378.48 232.48 376.57 244.92 364.01 244.92"/><path class="cls-30" d="M335.58,379.61h80.35a17.36,17.36,0,0,0,17.34-16.79l3.86-99.6a17.36,17.36,0,0,0-17.34-17.91H331.7Z"/><path class="cls-31" d="M334.34,379.21h80.34A17.35,17.35,0,0,0,432,362.43l3.86-99.6a17.35,17.35,0,0,0-17.34-17.91H330.45Z"/><path class="cls-32" d="M334.21,377h77.63a16.77,16.77,0,0,0,16.76-16.22l3.73-96.24a16.77,16.77,0,0,0-16.76-17.31H330.45Z"/><path class="cls-33" d="M428.49,362.15l-6.11,0,3.1-101s-1.09-6.12-5.45-9.93L411.84,377S425.76,377.23,428.49,362.15Z"/><path class="cls-34" d="M322.84,379.61h80.34a17.36,17.36,0,0,0,17.34-16.79l3.86-99.6A17.36,17.36,0,0,0,407,245.31H319Z"/><path class="cls-35" d="M321.59,379.21h80.35a17.34,17.34,0,0,0,17.33-16.78l3.86-99.6a17.34,17.34,0,0,0-17.34-17.91H317.71Z"/><path class="cls-36" d="M397.27,244.92l-1.82,134.29s9.05.4,13.3.4l-.43.85h-23.9V243.08s14.19,1.46,20.56.82l.81,1Z"/><path class="cls-33" d="M396.58,244l-2.34,136.5h14.08l.43-.85-12.17-.4L398,244.92h7.82l-.81-1S399.7,244.12,396.58,244Z"/><polygon class="cls-37" points="338.51 244.92 336.58 235.61 351.7 235.61 354.35 244.92 338.51 244.92"/><text class="cls-38" transform="translate(327.82 370.55)">DESIGN</text><path class="cls-39" d="M335.28,111.16,204.73,200.77a4.64,4.64,0,0,0-1.09,6.56l22.72,31a4.65,4.65,0,0,0,6.28,1.14l129.59-84.45a4.64,4.64,0,0,0,1.44-6.28l-21.76-36.2A4.65,4.65,0,0,0,335.28,111.16ZM212.66,207.78a2.8,2.8,0,1,1,.82-3.88A2.81,2.81,0,0,1,212.66,207.78Z"/><path class="cls-40" d="M335,110.81,204.44,200.42a4.64,4.64,0,0,0-1.09,6.56l22.72,31a4.65,4.65,0,0,0,6.28,1.15l129.59-84.45a4.64,4.64,0,0,0,1.44-6.28l-21.76-36.2A4.64,4.64,0,0,0,335,110.81ZM212.37,207.42a2.8,2.8,0,1,1,.82-3.88A2.79,2.79,0,0,1,212.37,207.42Z"/><polygon class="cls-41" points="255.17 218.71 238.91 229.31 216.94 198.19 233.2 187.06 255.17 218.71"/><polygon class="cls-42" points="274.16 206.34 257.47 217.22 235.5 185.49 252.21 174.05 274.16 206.34"/><polygon class="cls-43" points="293.66 193.63 276.51 204.81 254.56 172.44 271.73 160.69 293.66 193.63"/><polygon class="cls-44" points="313.69 180.58 296.07 192.06 274.15 159.04 291.79 146.96 313.69 180.58"/><polygon class="cls-45" points="334.28 167.16 316.17 178.96 294.28 145.26 312.42 132.84 334.28 167.16"/><polygon class="cls-46" points="355.44 153.37 336.83 165.5 314.98 131.09 333.64 118.32 355.44 153.37"/><path class="cls-47" d="M314,87.23,204.82,201.91a4.66,4.66,0,0,0,.28,6.65l28.66,25.66a4.64,4.64,0,0,0,6.37-.18L349.45,124.6a4.64,4.64,0,0,0,.11-6.44L320.77,87.25A4.62,4.62,0,0,0,314,87.23ZM214,207.13a2.81,2.81,0,1,1,0-4A2.8,2.8,0,0,1,214,207.13Z"/><path class="cls-48" d="M313.65,86.94,204.46,201.62a4.65,4.65,0,0,0,.29,6.65l28.65,25.66a4.64,4.64,0,0,0,6.38-.18L349.09,124.31a4.63,4.63,0,0,0,.11-6.44L320.42,87A4.64,4.64,0,0,0,313.65,86.94Zm-100,119.9a2.81,2.81,0,1,1,0-4A2.81,2.81,0,0,1,213.67,206.84Z"/><polygon class="cls-49" points="257.88 209.03 244.16 222.76 216.22 196.86 229.84 182.6 257.88 209.03"/><polygon class="cls-50" points="273.9 192.99 259.81 207.09 231.76 180.59 245.74 165.94 273.9 192.99"/><polygon class="cls-51" points="290.34 176.53 275.88 191.01 247.71 163.88 262.07 148.84 290.34 176.53"/><polygon class="cls-52" points="307.24 159.61 292.38 174.49 264.1 146.72 278.86 131.25 307.24 159.61"/><polygon class="cls-53" points="324.61 142.22 309.33 157.52 280.94 129.07 296.12 113.17 324.61 142.22"/><polygon class="cls-54" points="342.46 124.35 326.76 140.07 298.26 110.93 313.88 94.57 342.46 124.35"/><path class="cls-55" d="M288.29,68.71l-84.53,133.9a4.65,4.65,0,0,0,1.59,6.46l33.13,19.53a4.64,4.64,0,0,0,6.22-1.42L330.38,98.39a4.63,4.63,0,0,0-1.15-6.33L294.93,67.4A4.64,4.64,0,0,0,288.29,68.71ZM213.81,205.92A2.81,2.81,0,1,1,213,202,2.81,2.81,0,0,1,213.81,205.92Z"/><path class="cls-56" d="M287.61,68l-84.53,133.9a4.65,4.65,0,0,0,1.59,6.46L237.8,227.9a4.64,4.64,0,0,0,6.22-1.43L329.7,97.69a4.63,4.63,0,0,0-1.15-6.33L294.25,66.7A4.64,4.64,0,0,0,287.61,68ZM213.13,205.22a2.81,2.81,0,1,1-.78-3.89A2.81,2.81,0,0,1,213.13,205.22Z"/><path class="cls-57" d="M287.2,67.8,202.67,201.7a4.65,4.65,0,0,0,1.59,6.46l33.14,19.53a4.65,4.65,0,0,0,6.22-1.43L329.3,97.48a4.65,4.65,0,0,0-1.16-6.34l-34.3-24.65A4.63,4.63,0,0,0,287.2,67.8ZM212.73,205a2.81,2.81,0,1,1-.79-3.89A2.81,2.81,0,0,1,212.73,205Z"/><polygon class="cls-58" points="256.5 198.47 245.75 214.63 213.27 194.72 223.82 178.07 256.5 198.47"/><polygon class="cls-59" points="269.06 179.59 258.02 196.19 225.31 175.71 236.14 158.61 269.06 179.59"/><polygon class="cls-60" points="281.95 160.22 270.62 177.26 237.66 156.2 248.79 138.62 281.95 160.22"/><polygon class="cls-61" points="295.2 140.31 283.55 157.82 250.36 136.15 261.8 118.08 295.2 140.31"/><polygon class="cls-62" points="308.81 119.86 296.84 137.85 263.41 115.54 275.17 96.96 308.81 119.86"/><polygon class="cls-63" points="322.8 98.82 310.49 117.32 276.83 94.34 288.92 75.24 322.8 98.82"/><path class="cls-55" d="M273.35,62,204.14,204.4a4.65,4.65,0,0,0,2.26,6.26l34.29,15.55a4.65,4.65,0,0,0,6-2.07L318.35,87a4.65,4.65,0,0,0-1.82-6.18L279.82,60A4.65,4.65,0,0,0,273.35,62ZM214.48,206.63a2.8,2.8,0,1,1-1.19-3.79A2.8,2.8,0,0,1,214.48,206.63Z"/><path class="cls-64" d="M272.67,61.6,203.45,204a4.65,4.65,0,0,0,2.26,6.26L240,225.85a4.64,4.64,0,0,0,6-2.07l71.62-137.1a4.63,4.63,0,0,0-1.82-6.18L279.13,59.6A4.63,4.63,0,0,0,272.67,61.6ZM213.8,206.27a2.81,2.81,0,1,1-1.19-3.79A2.81,2.81,0,0,1,213.8,206.27Z"/><path class="cls-65" d="M272.27,61.39,203.06,203.84a4.64,4.64,0,0,0,2.26,6.25l34.29,15.56a4.65,4.65,0,0,0,6-2.08l71.62-137.1a4.65,4.65,0,0,0-1.82-6.18l-36.71-20.9A4.64,4.64,0,0,0,272.27,61.39ZM213.4,206.06a2.8,2.8,0,1,1-1.19-3.78A2.8,2.8,0,0,1,213.4,206.06Z"/><path class="cls-66" d="M206.63,202.53a4.84,4.84,0,1,0,6.53-2.06A4.83,4.83,0,0,0,206.63,202.53Zm6.48,3.38a2.48,2.48,0,1,1-1.05-3.34A2.48,2.48,0,0,1,213.11,205.91Z"/><path class="cls-67" d="M208.43,203.47a2.81,2.81,0,1,0,3.79-1.2A2.8,2.8,0,0,0,208.43,203.47Zm4.68,2.44a2.48,2.48,0,1,1-1.05-3.34A2.48,2.48,0,0,1,213.11,205.91Z"/><text class="cls-68" transform="matrix(0.46, -0.89, 0.89, 0.46, 263.09, 125.23)">COLOR<tspan x="-3.02" y="17.73">PALETTE</tspan></text><path class="cls-4" d="M321.13,365.88l32.58-8s6.05-2.54,7.19-7.41L362,327.88l-41.4,2.76Z"/><path class="cls-69" d="M263.17,372.5H183.66l6.57-29.62.23-1.07h9.91a21,21,0,0,0,.84,2.92c1.9,5.3,7.61,15.89,22.74,15.89,9.79,0,15.26-4.44,18.29-9a23.68,23.68,0,0,0,3.71-9.8h10.42l2.8,12.64Z"/><path class="cls-70" d="M159.65,372.5s-1.85,3.16,1.85,6H282.84s4.39-2.49,3.47-6Z"/><path class="cls-71" d="M200.37,341.81a21,21,0,0,0,.84,2.92l-11-1.85-.14,0,.37-1.05Z"/><path class="cls-71" d="M259.17,354.45l-16.93-2.84a23.68,23.68,0,0,0,3.71-9.8h10.42Z"/><path class="cls-72" d="M81.54,327.2,99.49,185.65a13,13,0,0,1,12.88-11.35H336.66a13,13,0,0,1,12.9,11.54L365.4,327.39a13,13,0,0,1-12.9,14.43H94.43A13,13,0,0,1,81.54,327.2Z"/><path class="cls-73" d="M81.07,326.31,99.86,178a9.62,9.62,0,0,1,9.55-8.41H339.66a9.62,9.62,0,0,1,9.57,8.55l16.59,148.27a9.62,9.62,0,0,1-9.56,10.7H90.61A9.63,9.63,0,0,1,81.07,326.31Z"/><path class="cls-74" d="M205.75,169.63l152.57,89.79-9.09-81.24s-.72-8.55-9.57-8.55Z"/><polygon class="cls-75" points="104.38 184.8 340.65 180.13 359.06 319.43 87.68 319.43 104.38 184.8"/><polygon class="cls-76" points="107.75 319.43 120.91 195.84 327.31 195.84 340.14 319.43 107.75 319.43"/><polygon class="cls-77" points="89.03 319.43 105.8 186.07 340.14 181.12 357.57 319.43 359.06 319.43 340.65 180.13 104.38 184.8 87.68 319.43 89.03 319.43"/><polygon class="cls-78" points="343.77 328.42 343.77 330.64 352.83 330.64 352.83 327.88 343.77 328.42"/><polygon class="cls-79" points="343.77 328.42 349.77 328.13 349.77 330.64 343.77 330.64 343.77 328.42"/><path class="cls-80" d="M317.71,251.22c-27.76,0-37.67-47-68.48-44.84s-33.75,44.84-47.63,44.84-14.14-23.56-33.09-22.46-26.43,22.46-26.43,22.46Z"/><path class="cls-81" d="M205.36,251.22H317.71s3.94-32.42-20.56-38.44S263.26,234.14,253.38,236s-11.74-5.13-23.49-4.43-12.54,14.84-19.75,17.25-9.6-4.5-18.15-2.92-11.47,5.32-11.47,5.32Z"/><polygon class="cls-82" points="124.26 199.03 123.78 202.06 150.29 202.06 150.82 199.03 124.26 199.03"/><polygon class="cls-83" points="197.79 199.03 197.31 202.06 208.13 202.06 208.66 199.03 197.79 199.03"/><polygon class="cls-83" points="218.15 199.03 217.67 202.06 228.49 202.06 229.02 199.03 218.15 199.03"/><polygon class="cls-83" points="238.51 199.03 238.03 202.06 248.84 202.06 249.38 199.03 238.51 199.03"/><polygon class="cls-83" points="258.87 199.03 258.39 202.06 269.2 202.06 269.74 199.03 258.87 199.03"/><polygon class="cls-83" points="307.07 199.03 306.59 202.06 317.41 202.06 317.94 199.03 307.07 199.03"/><polygon class="cls-84" points="120.89 258.06 326.45 255.2 327.98 271.4 119.76 271.35 120.89 258.06"/><polygon class="cls-85" points="178.07 316.05 144.18 316.05 148.9 274.38 180.76 274.38 178.07 316.05"/><path class="cls-76" d="M155.36,285.65l-1.47,14.47h17.3l1.11-14.47Zm13,11.93H157.13l.92-9.48h11.12Z"/><polygon class="cls-76" points="158.25 296.72 167.69 296.72 165.14 291.6 162.75 293.57 162.01 293.03 158.25 296.72"/><path class="cls-76" d="M163.15,291.13a1.77,1.77,0,0,1-1.76,1.56,1.43,1.43,0,0,1-1.48-1.56,1.77,1.77,0,0,1,1.76-1.56A1.42,1.42,0,0,1,163.15,291.13Z"/><polygon class="cls-86" points="219.19 316.05 185.31 316.05 187.56 274.38 219.41 274.38 219.19 316.05"/><path class="cls-76" d="M194.68,285.65l-.61,14.47h17.3l.25-14.47Zm13.76,11.93H197.15l.36-9.48h11.13Z"/><polygon class="cls-76" points="198.23 296.72 207.66 296.72 204.81 291.6 202.54 293.57 201.77 293.03 198.23 296.72"/><path class="cls-76" d="M202.8,291.13a1.66,1.66,0,0,1-1.67,1.56,1.53,1.53,0,0,1-1.57-1.56,1.65,1.65,0,0,1,1.67-1.56A1.53,1.53,0,0,1,202.8,291.13Z"/><polygon class="cls-87" points="260.32 316.05 226.43 316.05 226.21 274.38 258.07 274.38 260.32 316.05"/><path class="cls-76" d="M234,285.65l.24,14.47h17.3l-.61-14.47Zm14.46,11.93H237.18l-.2-9.48h11.13Z"/><polygon class="cls-76" points="238.21 296.72 247.64 296.72 244.49 291.6 242.34 293.57 241.53 293.03 238.21 296.72"/><path class="cls-76" d="M242.45,291.13a1.55,1.55,0,0,1-1.58,1.56,1.65,1.65,0,0,1-1.67-1.56,1.54,1.54,0,0,1,1.58-1.56A1.65,1.65,0,0,1,242.45,291.13Z"/><polygon class="cls-88" points="301.44 316.05 267.55 316.05 264.87 274.38 296.72 274.38 301.44 316.05"/><path class="cls-76" d="M273.33,285.65l1.1,14.47h17.3l-1.47-14.47Zm15.17,11.93H277.21l-.76-9.48h11.13Z"/><polygon class="cls-76" points="278.19 296.72 287.62 296.72 284.16 291.6 282.13 293.57 281.29 293.03 278.19 296.72"/><path class="cls-76" d="M282.09,291.13a1.43,1.43,0,0,1-1.48,1.56,1.77,1.77,0,0,1-1.76-1.56,1.44,1.44,0,0,1,1.49-1.56A1.76,1.76,0,0,1,282.09,291.13Z"/><circle class="cls-89" cx="202.8" cy="228.76" r="8.82"/><circle class="cls-90" cx="183.84" cy="226.87" r="4.7"/><path class="cls-91" d="M142,244.08a2.9,2.9,0,1,1-2.9-2.9A2.9,2.9,0,0,1,142,244.08Z"/><polygon class="cls-92" points="108 319.45 107.5 319.4 120.68 195.59 327.54 195.59 327.56 195.81 340.39 319.4 339.89 319.45 327.08 196.09 121.13 196.09 108 319.45"/><polygon class="cls-74" points="238.03 183.91 347.55 244.13 340.14 181.12 238.03 183.91"/><path class="cls-93" d="M246,341.81H200.37v0Z"/><polygon class="cls-94" points="220.32 252.26 221.96 300.3 336.06 300.3 329.54 251.26 220.32 252.26"/><polygon class="cls-76" points="229.02 237.58 230.39 288.1 345.61 288.1 339.86 237.58 229.02 237.58"/><polygon class="cls-95" points="229.25 245.96 340.81 245.96 339.86 237.58 229.02 237.58 229.25 245.96"/><path class="cls-92" d="M345.89,288.35H230.15v-.24l-1.38-50.78H340.08l0,.22Zm-115.26-.5h114.7l-5.69-50H229.28Z"/><polygon class="cls-96" points="261.71 262.39 250.67 262.39 249.92 251.26 260.96 251.26 261.71 262.39"/><polygon class="cls-97" points="274.63 262.39 263.59 262.39 262.84 251.26 273.88 251.26 274.63 262.39"/><polygon class="cls-98" points="287.38 262.39 276.34 262.39 275.58 251.26 286.63 251.26 287.38 262.39"/><polygon class="cls-99" points="300.13 262.39 289.08 262.39 288.33 251.26 299.37 251.26 300.13 262.39"/><polygon class="cls-100" points="312.87 262.39 301.83 262.39 301.08 251.26 312.12 251.26 312.87 262.39"/><polygon class="cls-101" points="325.62 262.39 314.57 262.39 313.82 251.26 324.87 251.26 325.62 262.39"/><polygon class="cls-102" points="262.63 275.91 251.58 275.91 250.83 264.78 261.88 264.78 262.63 275.91"/><polygon class="cls-103" points="275.55 275.91 264.51 275.91 263.75 264.78 274.8 264.78 275.55 275.91"/><polygon class="cls-104" points="288.3 275.91 277.25 275.91 276.5 264.78 287.54 264.78 288.3 275.91"/><polygon class="cls-105" points="301.04 275.91 290 275.91 289.25 264.78 300.29 264.78 301.04 275.91"/><polygon class="cls-106" points="313.79 275.91 302.74 275.91 301.99 264.78 313.04 264.78 313.79 275.91"/><polygon class="cls-107" points="326.53 275.91 315.49 275.91 314.74 264.78 325.78 264.78 326.53 275.91"/><polygon class="cls-108" points="329.94 238.64 330.58 244.9 339.58 244.9 338.86 238.64 329.94 238.64"/><path class="cls-74" d="M201.21,348.13s6.53,13.34,21.6,13.34a25.36,25.36,0,0,0,21.58-11.18s-6.79,12.35-21.59,12.35C207.34,362.64,201.21,348.13,201.21,348.13Z"/><path class="cls-76" d="M228.65,360.87a24,24,0,0,0,8.54-3.51S234,361.72,228.65,360.87Z"/><rect class="cls-109" x="334.47" y="238.88" width="1" height="5.78" transform="translate(-67.32 335.68) rotate(-48.96)"/><rect class="cls-109" x="332.22" y="241.27" width="5.37" height="1" transform="translate(-72.86 307.63) rotate(-45)"/><path class="cls-110" d="M75.7,288.91c-.35,1.61-.76,3.09-1.2,4.47h0c-5.19,16.4-15.34,17.94-20.7,45.26H22.48c-5.47-27.9-15.95-28.9-21-46.33-.32-1.07-.61-2.21-.87-3.41-4.65-20.81,19.85-39.18,37.56-39.18S80.34,268.1,75.7,288.91Z"/><g class="cls-111"><path class="cls-112" d="M38.14,250.24c10.64,0,23.35,6.59,30.92,16,4,5,8.3,12.92,6.15,22.52-2.06,9.25-5.51,14.25-9.17,19.54-4.42,6.41-9.43,13.67-12.65,29.81H22.89c-3.22-16.14-8.23-23.4-12.66-29.81-3.65-5.29-7.1-10.29-9.17-19.54-2.14-9.6,2.16-17.55,6.15-22.52,7.57-9.45,20.29-16,30.93-16Zm0-.5c-17.71,0-42.21,18.36-37.57,39.17S16.67,309,22.48,338.65H53.8c5.8-29.62,17.26-28.93,21.9-49.74s-19.85-39.17-37.56-39.17Z"/></g><path class="cls-113" d="M44.84,295.13s1.12,12.61-6.48,14.95c-7.59-2.34-6.47-14.95-6.47-14.95l-1.68,1c2.68,13.11,3.36,39.93,3.36,39.93h9.59s.67-26.82,3.35-39.93Z"/><path class="cls-114" d="M21,332c1.37,3.81,27.36,5.53,34,1.22l-.78,3.37L22.14,337Z"/><circle class="cls-115" cx="51.47" cy="272.59" r="17.77" transform="translate(-225.85 279.73) rotate(-80.78)"/><path class="cls-116" d="M19.06,290c3.46,8.47,2.66,16.81-1.79,18.63S6.41,305.06,3,296.59.29,279.77,4.73,278,15.6,281.53,19.06,290Z"/><path class="cls-117" d="M74.5,293.39c-5.19,16.4-15.34,17.94-20.7,45.26H22.48c-5.47-27.9-15.95-28.9-21-46.33C7.4,305,21.32,309.88,44,309S74.5,293.39,74.5,293.39Z"/><path class="cls-118" d="M19.23,337.51l2.36,22.08s11-2.83,32.55,0l3-21S41.4,333.13,19.23,337.51Z"/><path class="cls-119" d="M21.59,359.59s16.35,4.56,32.55,0C54.14,359.59,35.11,355.5,21.59,359.59Z"/><path class="cls-120" d="M27.49,359.59l1.57,3.15a43.15,43.15,0,0,0,17.45,0l1.58-3A43.49,43.49,0,0,0,27.49,359.59Z"/><path class="cls-71" d="M29.06,362.74s9.88-2.42,17.45,0C46.51,362.74,37.37,364.73,29.06,362.74Z"/><path class="cls-121" d="M21.31,357l-3-2.72s18-10.07,40-8l-3,4.51S37,346.06,21.31,357Z"/><path class="cls-122" d="M20.43,348.7,18.34,347s15.12-12.18,41.51-10.2l-3.12,4.59A47.26,47.26,0,0,0,20.43,348.7Z"/><path class="cls-123" d="M18.34,347,20,344.82s20.76-11.78,39.84-8C59.85,336.81,39.2,333.49,18.34,347Z"/><path class="cls-124" d="M18.34,354.25l2.39-2.77a82.07,82.07,0,0,1,35.41-5.91l2.24.71S37.79,344.26,18.34,354.25Z"/><path class="cls-125" d="M18.34,354.25l3,2.72.28,1.78s5-6.81,17-8.07,16.27,3.57,16.27,3.57l.49-3.46,3-4.51S35.61,345.2,18.34,354.25Z"/><path class="cls-125" d="M18.34,347l2.09,1.69.3,2.78s3.85-7.66,17.06-9.6,18.52,2.43,18.52,2.43l.42-2.91,3.12-4.59A64.57,64.57,0,0,0,18.34,347Z"/><path class="cls-126" d="M6.85,145C30.29,158.73,75,189.27,75,189.27l.83-1.35,49.29,30.46-.84,1.35,2.75,1.7,13.67.43,1.11-1.79,1.1-1.79-6.5-12-2.75-1.7-.83,1.34L83.51,175.45l.84-1.35S37.05,147.79,14.27,133c0,0-4.42,2.38-5.67,4.8C7,140,6.85,145,6.85,145Z"/><path class="cls-127" d="M124.25,219.73l-1.24.43s-26-18.85-48.33-29.87c0,0,2.12-8,10-17.13,0,0,25.85,18.1,49.12,30.36l-.18,1S127.56,215.86,124.25,219.73Z"/><path class="cls-128" d="M141,221.37l2.62,1.62a1.39,1.39,0,0,0,1.86-.59h0a1.39,1.39,0,0,0-.3-1.93l-2.62-1.62Z"/><path class="cls-71" d="M74.18,188.73s2.59-9.44,8.12-15.78L84,174s-7.07,7.53-9,15.28Z"/><path class="cls-129" d="M7.14,142.14C7.5,140.35,72.21,183,73.84,184s.68,3.67.68,3.67a68.45,68.45,0,0,1,3-7.25s-2,2.46-3.19,2.13S9.37,141.66,8.7,140.87a4.24,4.24,0,0,1-.41-2.61A15.58,15.58,0,0,0,7.14,142.14Z"/><path class="cls-130" d="M18.22,151.9a28.11,28.11,0,0,1,7.32-11.85l-.69-.43a22.74,22.74,0,0,0-7.4,11.79Z"/><path class="cls-131" d="M127,221.43a29.81,29.81,0,0,0,9.38-15.17l6.5,12-2.21,3.58Z"/><path class="cls-132" d="M120,216.52a10.54,10.54,0,0,0,2.54-3L89.08,192.87,87.4,195.6S106.24,207.82,120,216.52Z"/><path class="cls-133" d="M120.49,216.05l-15.6-9.64,0-1.09-1,.47L87.63,195.23l1.45-2.36,33.41,20.65A7.5,7.5,0,0,1,120.49,216.05Z"/><polygon class="cls-134" points="89.08 192.87 105.16 203.56 103.89 205.79 104.87 205.32 104.89 206.41 106.29 204.14 122.49 213.52 89.08 192.87"/><path class="cls-135" d="M207.22,49.05h-21l-3.37,10H168.45L188.84,2.66h15.89L225.12,59H210.59Zm-3.53-10.59-7-20.63-6.9,20.63Z"/><path class="cls-136" d="M197.67,48.58h-22L172.12,59h-15L178.43,0h16.64l21.35,59H201.2ZM194,37.49l-7.31-21.6-7.23,21.6Z"/><polygon class="cls-137" points="195.07 0 204.73 2.66 225.12 59 216.42 59 195.07 0"/><path class="cls-138" d="M226.83,23.68a19.89,19.89,0,0,1,7.25-8.2c3.07-1.91.58-4.05,4.35-4.05,3.22,0,12,1.84,14.39,3.15a14.59,14.59,0,0,1,5.62,5.17V13.27h14V59h-14V52.54a15.2,15.2,0,0,1-5.7,5.17c-2.44,1.31-13,2-16.23,2-3.71,0,.64-1-2.43-2.92a20,20,0,0,1-7.25-8.28,27.52,27.52,0,0,1-2.67-12.42A27.32,27.32,0,0,1,226.83,23.68Zm28.69,4.18a9.86,9.86,0,0,0-14.18,0q-2.91,3-2.91,8.24a11.59,11.59,0,0,0,2.91,8.32,9.75,9.75,0,0,0,14.18,0,11.5,11.5,0,0,0,2.92-8.29A11.49,11.49,0,0,0,255.52,27.86Z"/><path class="cls-139" d="M218.65,22.78a20.38,20.38,0,0,1,7.44-8.41,19.44,19.44,0,0,1,10.51-2.94,18,18,0,0,1,8.7,2,14.92,14.92,0,0,1,5.76,5.29V12.1h14.37V59H251.06V52.36a15.58,15.58,0,0,1-5.85,5.3,18.09,18.09,0,0,1-8.7,2,19.07,19.07,0,0,1-10.42-3,20.61,20.61,0,0,1-7.44-8.49,28.29,28.29,0,0,1-2.73-12.73A28,28,0,0,1,218.65,22.78Zm29.42,4.28a10.1,10.1,0,0,0-14.54,0c-2,2.05-3,4.86-3,8.45s1,6.43,3,8.53a10,10,0,0,0,14.54,0q3-3.1,3-8.49A11.77,11.77,0,0,0,248.07,27.06Z"/><polygon class="cls-140" points="265.43 12.1 272.45 13.27 272.45 59.02 265.43 59 265.43 12.1"/><polygon class="cls-141" points="175.65 48.58 184.5 54.02 186.36 48.58 175.65 48.58"/><polygon class="cls-141" points="183.05 26.69 190.77 35.55 192.04 31.77 186.66 15.88 183.05 26.69"/><path class="cls-141" d="M232.25,28.9l6.7,3.15s1.23-5.59,6.74-6.86A10.38,10.38,0,0,0,232.25,28.9Z"/><path class="cls-142" d="M57,373.54l9.51,19.15,106.52,2.38s3.69-5.09,3.68-5.48c-.21-8.37-7.22-31.28-39.77-37.74C98.75,344.27,57,373.54,57,373.54Z"/><path class="cls-143" d="M57,373.54c69-28.43,50.71,28.67,119.48,14.35,0,0-2.72-32.48-47.73-36.7C89.49,347.5,57,373.54,57,373.54Z"/><path class="cls-71" d="M66.53,392.69c27.77.07,77.09-1,91.73-2.55s18.47-.55,18.47-.55l-3.68,5.48Z"/><path class="cls-144" d="M60.26,379.23s14.21-6.56,35.74-.92,33.23,10.45,34.49,11.76-1.55,2.34-1.55,2.34l25.57-1.9s-6.7,1.16-23.52-4.66-27.91-30.09-74-12.31Z"/><g class="cls-145"><path class="cls-146" d="M158.58,391a96.84,96.84,0,0,1-20.22-2.26c-6.65-1.41-11.87-5.41-17.38-9.64-12.57-9.64-26.81-20.56-63.77-5.06l-.38-.92c37.49-15.73,52-4.62,64.76,5.18,5.42,4.17,10.55,8.09,17,9.46,24.34,5.19,37.6-.24,37.73-.29l.39.92C176.6,388.38,170.33,391,158.58,391Z"/></g><path class="cls-146" d="M62.75,373.38a42.44,42.44,0,0,1,28.34-7.47,48.06,48.06,0,0,1,14.48,3.62,58.78,58.78,0,0,1,12.76,7.77,75.15,75.15,0,0,0,12.4,8.19,43.67,43.67,0,0,0,6.92,2.69,57.67,57.67,0,0,0,7.27,1.56,85.78,85.78,0,0,0,14.86.66c5-.15,9.93-.61,14.87-1.23-9.84,1.38-19.87,2.22-29.78.89a57.48,57.48,0,0,1-7.33-1.53,46.16,46.16,0,0,1-7-2.67A75.56,75.56,0,0,1,118,377.69a60.21,60.21,0,0,0-12.64-7.76,47.41,47.41,0,0,0-14.34-3.67,44,44,0,0,0-14.77,1.11A40.39,40.39,0,0,0,62.75,373.38Z"/><path class="cls-147" d="M106.29,353.47l6-.74s-13.69-6.43-24.16.46C88.14,353.19,97.41,350,106.29,353.47Z"/><g class="cls-145"><path class="cls-146" d="M71.08,365.84l-.24-.44c23.94-12.79,40-13.54,52.49-12.58l0,.5C110.84,352.37,94.9,353.11,71.08,365.84Z"/></g><path class="cls-148" d="M79.37,361.29s9.49-16.11,26.92-7.82A127,127,0,0,0,79.37,361.29Z"/><g class="cls-145"><path class="cls-146" d="M93.67,366.12l-.29-.41c.27-.19,26.89-18.57,49.1-12.81l-.13.49C120.37,347.68,93.94,365.93,93.67,366.12Z"/></g><path class="cls-149" d="M127.11,353.77s22.08,1.68,37,24.44h2.8s-11.72-21.53-38.28-24.69Z"/><path class="cls-150" d="M90.8,351.71s7.9-3.79,18.45,1.4l1.72-.24S100.38,347.68,90.8,351.71Z"/><ellipse class="cls-151" cx="97.13" cy="361.34" rx="20.7" ry="6.84" transform="translate(-57.18 20.47) rotate(-9.31)"/><path class="cls-152" d="M71.22,370.35l3.48,3.07s16.55-3.39,30.35,3l4.4-2.87S91.34,362.94,71.22,370.35Z"/><g class="cls-145"><rect class="cls-146" x="89.6" y="367.26" width="1" height="5.53" transform="translate(-31.37 9.08) rotate(-4.92)"/></g></g></g></g></svg>