<svg id="Layer_3" enable-background="new 0 0 64 64" height="512" viewBox="0 0 64 64" width="512" xmlns="http://www.w3.org/2000/svg"><g><path d="m36 26h2v2h-2z"/><path d="m42 26h2v2h-2z"/><path d="m34 38h2v2h-2z"/><path d="m30 38h2v2h-2z"/><path d="m32 42h2v2h-2z"/><path d="m30 46h2v2h-2z"/><path d="m28 42h2v2h-2z"/><path d="m33 50h2v2h-2z"/><path d="m29 50h2v2h-2z"/><path d="m31 54h2v2h-2z"/><path d="m44 38h2v2h-2z"/><path d="m48 38h2v2h-2z"/><path d="m46 42h2v2h-2z"/><path d="m48 46h2v2h-2z"/><path d="m50 42h2v2h-2z"/><path d="m45 50h2v2h-2z"/><path d="m49 50h2v2h-2z"/><path d="m47 54h2v2h-2z"/><path d="m57 35h-1.586l-3.707-3.707c-.187-.188-.441-.293-.707-.293h-2v-1c0-.338-.022-.671-.059-1h1.059c1.654 0 3-1.346 3-3v-10h-2v10c0 .551-.448 1-1 1h-1.525c-.906-2.55-2.925-4.569-5.475-5.475v-3.525c0-.551.448-1 1-1h3v-2h-3c-1.654 0-3 1.346-3 3v3.059c-.329-.037-.662-.059-1-.059s-.671.022-1 .059v-3.059c0-1.654-1.346-3-3-3h-3v2h3c.552 0 1 .449 1 1v3.525c-2.55.906-4.569 2.925-5.475 5.475h-1.525c-.552 0-1-.449-1-1v-10h-2v10c0 1.654 1.346 3 3 3h1.059c-.037.329-.059.662-.059 1v1h-2c-.266 0-.52.105-.707.293l-3.707 3.707h-1.586c-2.757 0-5 2.243-5 5v15h2v-15c0-1.654 1.346-3 3-3h1v10c0 8.822 7.178 16 16 16s16-7.178 16-16v-10h1c1.654 0 3 1.346 3 3v15h2v-15c0-2.757-2.243-5-5-5zm-24-5c0-3.86 3.141-7 7-7s7 3.14 7 7v1h-14zm4.063 30.684 2.937-18.354 2.937 18.355c-.948.203-1.929.315-2.937.315s-1.989-.112-2.937-.316zm16.937-13.684c0 6.005-3.808 11.124-9.13 13.109l-3.883-24.267c-.077-.485-.496-.842-.987-.842s-.91.357-.987.842l-3.883 24.267c-5.322-1.985-9.13-7.104-9.13-13.109v-10.586l3.414-3.414h21.172l3.414 3.414z"/><path d="m61 27v1c0 1.654-1.346 3-3 3h-3v2h3c2.757 0 5-2.243 5-5v-1z"/><path d="m22 33h3v-2h-3c-1.654 0-3-1.346-3-3v-1h-2v1c0 2.757 2.243 5 5 5z"/><path d="m2 16h1.466c.176.558.4 1.099.673 1.619l-1.038 1.038c-.391.391-.391 1.023 0 1.414l2.828 2.829c.188.188.441.293.707.293s.52-.105.707-.293l1.038-1.038c.519.272 1.061.496 1.619.672v1.466c0 .552.447 1 1 1h4c.553 0 1-.448 1-1v-1.466c.558-.176 1.1-.4 1.619-.672l1.038 1.038c.375.375 1.039.375 1.414 0l2.828-2.829c.391-.391.391-1.023 0-1.414l-1.038-1.038c.272-.52.497-1.061.673-1.619h1.466c.553 0 1-.448 1-1v-4c0-.552-.447-1-1-1h-1.466c-.176-.558-.4-1.099-.673-1.619l1.038-1.038c.391-.391.391-1.023 0-1.414l-2.828-2.829c-.188-.188-.441-.293-.707-.293s-.52.105-.707.293l-1.038 1.038c-.52-.272-1.061-.496-1.619-.672v-1.466c0-.552-.447-1-1-1h-4c-.553 0-1 .448-1 1v1.466c-.558.175-1.099.4-1.619.672l-1.038-1.037c-.375-.375-1.039-.375-1.414 0l-2.828 2.828c-.391.391-.391 1.023 0 1.414l1.038 1.038c-.273.52-.497 1.061-.673 1.619h-1.466c-.553 0-1 .448-1 1v4c0 .552.447 1 1 1zm1-4h1.23c.467 0 .871-.323.975-.778.2-.876.546-1.709 1.027-2.474.249-.395.191-.91-.139-1.24l-.871-.872 1.414-1.415.872.872c.332.331.844.388 1.24.139.767-.483 1.6-.829 2.474-1.027.455-.102.778-.507.778-.974v-1.231h2v1.231c0 .467.323.872.778.975.874.198 1.707.544 2.474 1.027.396.249.909.191 1.24-.139l.872-.872 1.414 1.415-.872.872c-.33.33-.388.845-.139 1.24.481.765.827 1.597 1.027 2.474.104.454.509.777.976.777h1.23v2h-1.23c-.467 0-.871.323-.975.778-.2.876-.546 1.709-1.027 2.474-.249.395-.191.91.139 1.24l.872.872-1.414 1.415-.872-.872c-.331-.33-.846-.388-1.24-.139-.766.482-1.598.828-2.474 1.027-.456.103-.779.508-.779.975v1.23h-2v-1.23c0-.467-.323-.872-.778-.975-.876-.199-1.708-.545-2.474-1.027-.395-.249-.908-.191-1.24.139l-.872.872-1.414-1.415.872-.872c.33-.33.388-.845.139-1.24-.481-.765-.827-1.597-1.027-2.474-.104-.455-.509-.778-.976-.778h-1.23z"/><path d="m13 20c3.859 0 7-3.14 7-7s-3.141-7-7-7-7 3.14-7 7 3.141 7 7 7zm0-12c2.757 0 5 2.243 5 5s-2.243 5-5 5-5-2.243-5-5 2.243-5 5-5z"/><path d="m14.598 29.816.766-.766-1.414-1.414-.766.766c-.915-.686-2.001-1.152-3.184-1.322v-1.08h-2v1.08c-1.183.17-2.269.636-3.184 1.322l-.766-.766-1.414 1.414.766.766c-.686.915-1.152 2.001-1.322 3.184h-1.08v2h1.08c.17 1.183.636 2.269 1.322 3.184l-.766.766 1.414 1.414.766-.766c.915.686 2.001 1.152 3.184 1.322v1.08h2v-1.08c1.183-.17 2.269-.636 3.184-1.322l.766.766 1.414-1.414-.766-.766c.686-.915 1.151-2.001 1.322-3.184h1.08v-2h-1.08c-.17-1.183-.636-2.269-1.322-3.184zm-.598 4.184c0 2.757-2.243 5-5 5s-5-2.243-5-5 2.243-5 5-5 5 2.243 5 5z"/><path d="m9 30c-2.206 0-4 1.794-4 4s1.794 4 4 4 4-1.794 4-4-1.794-4-4-4zm0 6c-1.103 0-2-.897-2-2s.897-2 2-2 2 .897 2 2-.897 2-2 2z"/></g></svg>